<svg xmlns="http://www.w3.org/2000/svg" xmlns:xlink="http://www.w3.org/1999/xlink" viewBox="0 0 1600 900"><defs><style>.cls-1,.cls-30{fill:none;}.cls-2{isolation:isolate;}.cls-3,.cls-34,.cls-37{fill:#286ba5;}.cls-27,.cls-3,.cls-33,.cls-37{stroke:#000;}.cls-27,.cls-3,.cls-30,.cls-33,.cls-37,.cls-38,.cls-39{stroke-miterlimit:10;}.cls-4{opacity:0.9;}.cls-13,.cls-4{mix-blend-mode:screen;}.cls-5{fill:url(#linear-gradient);}.cls-39,.cls-6{fill:#fff;}.cls-7{clip-path:url(#clip-path);}.cls-8{fill:url(#linear-gradient-2);}.cls-9{fill:url(#linear-gradient-3);}.cls-10{clip-path:url(#clip-path-2);}.cls-11{fill:#46a147;}.cls-12{fill:url(#linear-gradient-4);}.cls-13{opacity:0.16;}.cls-14{fill:url(#linear-gradient-5);}.cls-15{fill:#47631c;}.cls-16{fill:#597a2b;}.cls-17{fill:#3d5416;}.cls-18{fill:#334215;}.cls-19{fill:url(#radial-gradient);}.cls-20{fill:#5f5f5f;}.cls-21{fill:#484848;}.cls-22{fill:#212121;}.cls-23{fill:#303030;}.cls-24{fill:#393939;}.cls-25{fill:#282828;}.cls-26{fill:#202020;}.cls-27,.cls-28{fill:#f29667;}.cls-27{stroke-width:2px;}.cls-29{fill:#feaa7b;}.cls-30{stroke:#020202;}.cls-30,.cls-38,.cls-39{stroke-width:3px;}.cls-31{fill:#fbac7b;}.cls-32{fill:#ef9462;}.cls-35{fill:#f29465;}.cls-36{fill:#f40b16;}.cls-37{stroke-linecap:round;stroke-width:8px;}.cls-38,.cls-39{stroke:#ff0;}.cls-40{fill:#301c00;}.cls-41{fill:#fce001;}.cls-42{fill:#fde758;}.cls-43{fill:url(#linear-gradient-6);}.cls-44{fill:url(#linear-gradient-7);}.cls-45{fill:#070707;}</style><linearGradient id="linear-gradient" x1="1375.22" y1="286.07" x2="1375.22" y2="59.07" gradientUnits="userSpaceOnUse"><stop offset="0" stop-color="#fff" stop-opacity="0"/><stop offset="0.05" stop-color="#fff" stop-opacity="0.11"/><stop offset="0.15" stop-color="#fff" stop-opacity="0.32"/><stop offset="0.26" stop-color="#fff" stop-opacity="0.5"/><stop offset="0.37" stop-color="#fff" stop-opacity="0.65"/><stop offset="0.48" stop-color="#fff" stop-opacity="0.78"/><stop offset="0.6" stop-color="#fff" stop-opacity="0.88"/><stop offset="0.72" stop-color="#fff" stop-opacity="0.95"/><stop offset="0.85" stop-color="#fff" stop-opacity="0.99"/><stop offset="1" stop-color="#fff"/></linearGradient><clipPath id="clip-path"><rect class="cls-1" x="-4" width="1600" height="900"/></clipPath><linearGradient id="linear-gradient-2" x1="518.48" y1="414.7" x2="1725.11" y2="1111.35" gradientTransform="matrix(0, 1, -1.15, 0, 2002.4, -385.65)" gradientUnits="userSpaceOnUse"><stop offset="0.01" stop-color="#052355"/><stop offset="0.58" stop-color="#3f6bf5"/><stop offset="0.61" stop-color="#436df3"/><stop offset="0.65" stop-color="#4e75ed"/><stop offset="0.68" stop-color="#6281e2"/><stop offset="0.71" stop-color="#7d91d3"/><stop offset="0.74" stop-color="#a0a7c0"/><stop offset="0.77" stop-color="#cac1a9"/><stop offset="0.8" stop-color="#fce08e"/><stop offset="0.81" stop-color="#f6dc8f"/><stop offset="0.85" stop-color="#a0a2a0"/><stop offset="0.89" stop-color="#5b74ad"/><stop offset="0.93" stop-color="#2a53b7"/><stop offset="0.95" stop-color="#0b3fbd"/><stop offset="0.97" stop-color="#0037bf"/></linearGradient><linearGradient id="linear-gradient-3" x1="594.79" y1="657.44" x2="1601.79" y2="657.44" gradientTransform="matrix(0, 1.18, 1.88, 0, -806.06, -857.41)" gradientUnits="userSpaceOnUse"><stop offset="0" stop-color="#d1bdb2"/><stop offset="0.05" stop-color="#b7a38d"/><stop offset="0.13" stop-color="#8d7951"/><stop offset="0.2" stop-color="#6f5a25"/><stop offset="0.26" stop-color="#5c470a"/><stop offset="0.29" stop-color="#554000"/><stop offset="0.42" stop-color="#796534"/><stop offset="0.55" stop-color="#998461"/><stop offset="0.68" stop-color="#b19d84"/><stop offset="0.8" stop-color="#c3af9d"/><stop offset="0.91" stop-color="#cdb9ad"/><stop offset="1" stop-color="#d1bdb2"/></linearGradient><clipPath id="clip-path-2"><rect class="cls-1" x="-4" y="-3" width="1600" height="900"/></clipPath><linearGradient id="linear-gradient-4" x1="-1084.02" y1="1766.07" x2="-1207.99" y2="1718.02" gradientTransform="matrix(0.14, -0.8, -0.9, -0.16, 1823.64, -277.86)" gradientUnits="userSpaceOnUse"><stop offset="0" stop-color="#70be49"/><stop offset="1" stop-color="#46a147"/></linearGradient><linearGradient id="linear-gradient-5" x1="-625.26" y1="-590.58" x2="-749.23" y2="-638.63" gradientTransform="matrix(-0.14, -0.8, 0.9, -0.16, 763.05, -277.86)" xlink:href="#linear-gradient-4"/><radialGradient id="radial-gradient" cx="2034.53" cy="505.91" r="92.99" gradientTransform="translate(2289.83 -24.63) rotate(152.55)" xlink:href="#linear-gradient-4"/><linearGradient id="linear-gradient-6" x1="343.93" y1="471.97" x2="357.59" y2="471.97" gradientUnits="userSpaceOnUse"><stop offset="0" stop-color="#0e5e0e"/><stop offset="0.11" stop-color="#3f7a1d"/><stop offset="0.23" stop-color="#71972d"/><stop offset="0.35" stop-color="#9caf3a"/><stop offset="0.48" stop-color="#bfc445"/><stop offset="0.61" stop-color="#dad34d"/><stop offset="0.73" stop-color="#eede53"/><stop offset="0.86" stop-color="#f9e557"/><stop offset="1" stop-color="#fde758"/><stop offset="1" stop-color="#fff"/></linearGradient><linearGradient id="linear-gradient-7" x1="592.1" y1="495.32" x2="603.17" y2="495.32" gradientTransform="matrix(1, 0, 0, 1.07, -3.74, -34.56)" gradientUnits="userSpaceOnUse"><stop offset="0" stop-color="#fff"/><stop offset="0" stop-color="#fde758"/><stop offset="0.1" stop-color="#f7e356"/><stop offset="0.23" stop-color="#e5d951"/><stop offset="0.38" stop-color="#c9c948"/><stop offset="0.54" stop-color="#a1b23b"/><stop offset="0.72" stop-color="#6e952c"/><stop offset="0.91" stop-color="#307219"/><stop offset="1" stop-color="#0e5e0e"/></linearGradient></defs><title>Artboard 1</title><g class="cls-2"><g id="Layer_1" data-name="Layer 1"><rect class="cls-3" x="-0.5" y="-2.5" width="1600" height="900"/><image class="cls-4" width="2946" height="2947" transform="translate(1021.68 -165.6) scale(0.24)" xlink:href="Artboard%2011.png"/><circle class="cls-5" cx="1375.22" cy="188.11" r="113.5"/><polygon class="cls-6" points="833.51 217.2 833.51 214.41 830.51 214.41 830.51 217.2 830.51 217.41 833.51 217.41 833.51 217.2"/><polygon class="cls-6" points="854.97 325.53 854.97 328.33 854.97 328.53 857.97 328.53 857.97 328.33 857.97 325.53 854.97 325.53"/><polygon class="cls-6" points="930.66 276.05 930.66 278.84 930.66 279.05 933.66 279.05 933.66 278.84 933.66 276.05 930.66 276.05"/><polygon class="cls-6" points="828.14 231.28 828.14 234.08 828.14 234.28 831.14 234.28 831.14 234.08 831.14 231.28 828.14 231.28"/><polygon class="cls-6" points="829 197.96 829 197.76 829 194.96 826 194.96 826 197.76 826 197.96 829 197.96"/><polygon class="cls-6" points="912.65 227.28 912.65 227.08 912.65 224.28 909.65 224.28 909.65 227.08 909.65 227.28 912.65 227.28"/><polygon class="cls-6" points="961.75 221.28 961.75 224.07 961.75 224.28 964.75 224.28 964.75 224.07 964.75 221.28 961.75 221.28"/><polygon class="cls-6" points="868.38 113.32 868.38 116.11 868.38 116.32 871.38 116.32 871.38 116.11 871.38 113.32 868.38 113.32"/><polygon class="cls-6" points="782.2 155.24 782.2 158.04 782.2 158.24 785.2 158.24 785.2 158.04 785.2 155.24 782.2 155.24"/><polygon class="cls-6" points="898.52 197.71 898.52 200.51 898.52 200.71 901.52 200.71 901.52 200.51 901.52 197.71 898.52 197.71"/><polygon class="cls-6" points="861.37 70.22 861.37 70.02 861.37 67.22 858.37 67.22 858.37 70.02 858.37 70.22 861.37 70.22"/><polygon class="cls-6" points="791.27 78.11 791.27 77.91 791.27 75.11 788.27 75.11 788.27 77.91 788.27 78.11 791.27 78.11"/><polygon class="cls-6" points="750.62 104.17 750.62 106.96 750.62 107.17 753.62 107.17 753.62 106.96 753.62 104.17 750.62 104.17"/><polygon class="cls-6" points="753.75 149.28 753.75 152.07 753.75 152.28 756.75 152.28 756.75 152.07 756.75 149.28 753.75 149.28"/><polygon class="cls-6" points="837.19 141.85 837.19 144.65 837.19 144.85 840.19 144.85 840.19 144.65 840.19 141.85 837.19 141.85"/><polygon class="cls-6" points="707.37 58.62 707.37 55.83 704.37 55.83 704.37 58.62 704.37 58.83 707.37 58.83 707.37 58.62"/><polygon class="cls-6" points="634.46 100.73 634.46 97.94 631.46 97.94 631.46 100.73 631.46 100.94 634.46 100.94 634.46 100.73"/><polygon class="cls-6" points="636.84 187.93 636.84 190.72 636.84 190.93 639.84 190.93 639.84 190.72 639.84 187.93 636.84 187.93"/><polygon class="cls-6" points="586.87 213.42 586.87 216.22 586.87 216.42 589.87 216.42 589.87 216.22 589.87 213.42 586.87 213.42"/><polygon class="cls-6" points="602.68 191.62 602.68 191.42 602.68 188.62 599.68 188.62 599.68 191.42 599.68 191.62 602.68 191.62"/><polygon class="cls-6" points="669.97 167.74 669.97 170.54 669.97 170.74 672.97 170.74 672.97 170.54 672.97 167.74 669.97 167.74"/><polygon class="cls-6" points="603.68 57.85 603.68 60.64 603.68 60.85 606.68 60.85 606.68 60.64 606.68 57.85 603.68 57.85"/><polygon class="cls-6" points="456.52 85.27 456.52 82.47 453.52 82.47 453.52 85.27 453.52 85.47 456.52 85.47 456.52 85.27"/><polygon class="cls-6" points="433.72 137.98 433.72 140.78 433.72 140.98 436.72 140.98 436.72 140.78 436.72 137.98 433.72 137.98"/><polygon class="cls-6" points="538.27 142.93 538.27 142.72 538.27 139.93 535.27 139.93 535.27 142.72 535.27 142.93 538.27 142.93"/><polygon class="cls-6" points="348.03 48.31 348.03 51.1 348.03 51.31 351.03 51.31 351.03 51.1 351.03 48.31 348.03 48.31"/><polygon class="cls-6" points="386.15 170.47 386.15 173.27 386.15 173.47 389.15 173.47 389.15 173.27 389.15 170.47 386.15 170.47"/><polygon class="cls-6" points="420.98 204.68 420.98 207.47 420.98 207.68 423.98 207.68 423.98 207.47 423.98 204.68 420.98 204.68"/><polygon class="cls-6" points="446.06 103.84 446.06 106.64 446.06 106.84 449.06 106.84 449.06 106.64 449.06 103.84 446.06 103.84"/><polygon class="cls-6" points="432.22 99.05 432.22 98.84 432.22 96.05 429.22 96.05 429.22 98.84 429.22 99.05 432.22 99.05"/><polygon class="cls-6" points="429.47 115.67 429.47 118.46 429.47 118.67 432.47 118.67 432.47 118.46 432.47 115.67 429.47 115.67"/><polygon class="cls-6" points="414.97 166.59 414.97 169.38 414.97 169.59 417.97 169.59 417.97 169.38 417.97 166.59 414.97 166.59"/><polygon class="cls-6" points="451.57 159.39 451.57 162.19 451.57 162.39 454.57 162.39 454.57 162.19 454.57 159.39 451.57 159.39"/><polygon class="cls-6" points="513.37 197.69 513.37 200.49 513.37 200.69 516.37 200.69 516.37 200.49 516.37 197.69 513.37 197.69"/><polygon class="cls-6" points="468.05 218.73 468.05 218.53 468.05 215.73 465.05 215.73 465.05 218.53 465.05 218.73 468.05 218.73"/><polygon class="cls-6" points="516.8 271.23 516.8 274.03 516.8 274.23 519.8 274.23 519.8 274.03 519.8 271.23 516.8 271.23"/><polygon class="cls-6" points="521.08 267.33 521.08 270.13 521.08 270.33 524.08 270.33 524.08 270.13 524.08 267.33 521.08 267.33"/><polygon class="cls-6" points="545.6 250.18 545.6 249.97 545.6 247.18 542.6 247.18 542.6 249.97 542.6 250.18 545.6 250.18"/><polygon class="cls-6" points="559.17 251.46 559.17 254.25 559.17 254.46 562.17 254.46 562.17 254.25 562.17 251.46 559.17 251.46"/><polygon class="cls-6" points="534.43 290.21 534.43 290.01 534.43 287.21 531.43 287.21 531.43 290.01 531.43 290.21 534.43 290.21"/><polygon class="cls-6" points="567.38 293.74 567.38 296.54 567.38 296.74 570.38 296.74 570.38 296.54 570.38 293.74 567.38 293.74"/><polygon class="cls-6" points="607.17 291.4 607.17 294.19 607.17 294.4 610.17 294.4 610.17 294.19 610.17 291.4 607.17 291.4"/><polygon class="cls-6" points="601.45 278.48 601.45 281.28 601.45 281.48 604.45 281.48 604.45 281.28 604.45 278.48 601.45 278.48"/><polygon class="cls-6" points="535.98 249.9 535.98 249.7 535.98 246.9 532.98 246.9 532.98 249.7 532.98 249.9 535.98 249.9"/><polygon class="cls-6" points="545.46 300.87 545.46 298.07 542.46 298.07 542.46 300.87 542.46 301.07 545.46 301.07 545.46 300.87"/><polygon class="cls-6" points="638.25 347.95 638.25 350.75 638.25 350.95 641.25 350.95 641.25 350.75 641.25 347.95 638.25 347.95"/><polygon class="cls-6" points="534.3 327.03 534.3 329.82 534.3 330.03 537.3 330.03 537.3 329.82 537.3 327.03 534.3 327.03"/><polygon class="cls-6" points="456.29 289.62 456.29 292.41 456.29 292.62 459.29 292.62 459.29 292.41 459.29 289.62 456.29 289.62"/><polygon class="cls-6" points="418.08 348.6 418.08 351.4 418.08 351.6 421.08 351.6 421.08 351.4 421.08 348.6 418.08 348.6"/><polygon class="cls-6" points="539.94 362.44 539.94 365.24 539.94 365.44 542.94 365.44 542.94 365.24 542.94 362.44 539.94 362.44"/><polygon class="cls-6" points="465.86 265.51 465.86 268.31 465.86 268.51 468.86 268.51 468.86 268.31 468.86 265.51 465.86 265.51"/><polygon class="cls-6" points="516.6 386.67 516.6 389.46 516.6 389.67 519.6 389.67 519.6 389.46 519.6 386.67 516.6 386.67"/><polygon class="cls-6" points="467.55 302.78 467.55 302.57 467.55 299.78 464.55 299.78 464.55 302.57 464.55 302.78 467.55 302.78"/><polygon class="cls-6" points="499.19 392.47 499.19 395.27 499.19 395.47 502.19 395.47 502.19 395.27 502.19 392.47 499.19 392.47"/><polygon class="cls-6" points="486.44 371.99 486.44 374.79 486.44 374.99 489.44 374.99 489.44 374.79 489.44 371.99 486.44 371.99"/><polygon class="cls-6" points="448.21 364.73 448.21 367.52 448.21 367.73 451.21 367.73 451.21 367.52 451.21 364.73 448.21 364.73"/><polygon class="cls-6" points="355.82 128.64 355.82 131.44 355.82 131.64 358.82 131.64 358.82 131.44 358.82 128.64 355.82 128.64"/><polygon class="cls-6" points="259.17 197.56 259.17 200.36 259.17 200.56 262.17 200.56 262.17 200.36 262.17 197.56 259.17 197.56"/><polygon class="cls-6" points="207.15 104.43 207.15 107.22 207.15 107.43 210.15 107.43 210.15 107.22 210.15 104.43 207.15 104.43"/><polygon class="cls-6" points="150.83 115.56 150.83 118.35 150.83 118.56 153.83 118.56 153.83 118.35 153.83 115.56 150.83 115.56"/><polygon class="cls-6" points="30.89 243.9 30.89 246.7 30.89 246.9 33.9 246.9 33.9 246.7 33.9 243.9 30.89 243.9"/><polygon class="cls-6" points="31.88 214.17 31.88 216.96 31.88 217.17 34.88 217.17 34.88 216.96 34.88 214.17 31.88 214.17"/><polygon class="cls-6" points="21.43 68.9 21.43 71.7 21.43 71.9 24.43 71.9 24.43 71.7 24.43 68.9 21.43 68.9"/><polygon class="cls-6" points="15.98 137.54 15.98 140.34 15.98 140.54 18.98 140.54 18.98 140.34 18.98 137.54 15.98 137.54"/><path class="cls-6" d="M37.28,166.33a1.5,1.5,0,0,0,1.5,1.5v-3A1.5,1.5,0,0,0,37.28,166.33Z"/><polygon class="cls-6" points="195.12 130.56 195.12 130.36 195.12 127.56 192.12 127.56 192.12 130.36 192.12 130.56 195.12 130.56"/><polygon class="cls-6" points="176.4 109.48 176.4 112.27 176.4 112.48 179.4 112.48 179.4 112.27 179.4 109.48 176.4 109.48"/><polygon class="cls-6" points="232.78 135.45 232.78 138.25 232.78 138.45 235.78 138.45 235.78 138.25 235.78 135.45 232.78 135.45"/><polygon class="cls-6" points="254.01 100.11 254.01 99.91 254.01 97.11 251.01 97.11 251.01 99.91 251.01 100.11 254.01 100.11"/><polygon class="cls-6" points="271.25 171.66 271.25 174.45 271.25 174.66 274.25 174.66 274.25 174.45 274.25 171.66 271.25 171.66"/><polygon class="cls-6" points="314.8 171.36 314.8 174.16 314.8 174.36 317.8 174.36 317.8 174.16 317.8 171.36 314.8 171.36"/><polygon class="cls-6" points="355.26 222.05 355.26 224.84 355.26 225.05 358.26 225.05 358.26 224.84 358.26 222.05 355.26 222.05"/><polygon class="cls-6" points="290.54 157.02 290.54 159.81 290.54 160.02 293.54 160.02 293.54 159.81 293.54 157.02 290.54 157.02"/><polygon class="cls-6" points="403.09 224.79 403.09 222 400.09 222 400.09 224.79 400.09 225 403.09 225 403.09 224.79"/><polygon class="cls-6" points="435.9 171.22 435.9 171.01 435.9 168.22 432.9 168.22 432.9 171.01 432.9 171.22 435.9 171.22"/><polygon class="cls-6" points="434.66 176.03 434.66 178.82 434.66 179.03 437.66 179.03 437.66 178.82 437.66 176.03 434.66 176.03"/><polygon class="cls-6" points="517.7 145.66 517.7 145.87 520.7 145.87 520.7 145.66 520.7 142.87 517.7 142.87 517.7 145.66"/><polygon class="cls-6" points="409.63 213.98 409.63 216.77 409.63 216.98 412.63 216.98 412.63 216.77 412.63 213.98 409.63 213.98"/><polygon class="cls-6" points="474.64 212.27 474.64 215.06 474.64 215.27 477.64 215.27 477.64 215.06 477.64 212.27 474.64 212.27"/><polygon class="cls-6" points="434.08 224.71 434.08 227.5 434.08 227.71 437.08 227.71 437.08 227.5 437.08 224.71 434.08 224.71"/><polygon class="cls-6" points="482.11 236.81 482.11 239.6 482.11 239.81 485.11 239.81 485.11 239.6 485.11 236.81 482.11 236.81"/><polygon class="cls-6" points="552.21 284.31 552.21 287.1 552.21 287.31 555.21 287.31 555.21 287.1 555.21 284.31 552.21 284.31"/><polygon class="cls-6" points="625.24 304.81 625.24 307.6 625.24 307.81 628.24 307.81 628.24 307.6 628.24 304.81 625.24 304.81"/><polygon class="cls-6" points="651.34 323.3 651.34 326.1 651.34 326.3 654.34 326.3 654.34 326.1 654.34 323.3 651.34 323.3"/><polygon class="cls-6" points="776.12 322.87 776.12 325.66 776.12 325.87 779.12 325.87 779.12 325.66 779.12 322.87 776.12 322.87"/><polygon class="cls-6" points="805.02 332.93 805.02 335.72 805.02 335.93 808.02 335.93 808.02 335.72 808.02 332.93 805.02 332.93"/><polygon class="cls-6" points="807.24 277.28 807.24 280.07 807.24 280.28 810.24 280.28 810.24 280.07 810.24 277.28 807.24 277.28"/><polygon class="cls-6" points="826.4 262.48 826.4 265.27 826.4 265.48 829.4 265.48 829.4 265.27 829.4 262.48 826.4 262.48"/><polygon class="cls-6" points="813.51 291.77 813.51 294.56 813.51 294.77 816.51 294.77 816.51 294.56 816.51 291.77 813.51 291.77"/><polygon class="cls-6" points="887.61 283.73 887.61 286.53 887.61 286.73 890.61 286.73 890.61 286.53 890.61 283.73 887.61 283.73"/><polygon class="cls-6" points="851.25 314.81 851.25 317.6 851.25 317.81 854.25 317.81 854.25 317.6 854.25 314.81 851.25 314.81"/><polygon class="cls-6" points="895.22 377.83 895.22 380.63 895.22 380.83 898.22 380.83 898.22 380.63 898.22 377.83 895.22 377.83"/><polygon class="cls-6" points="821.01 390.23 821.01 393.02 821.01 393.23 824.01 393.23 824.01 393.02 824.01 390.23 821.01 390.23"/><polygon class="cls-6" points="773.38 339.67 773.38 339.46 773.38 336.67 770.38 336.67 770.38 339.46 770.38 339.67 773.38 339.67"/><polygon class="cls-6" points="801.17 355.96 801.17 358.76 801.17 358.96 804.17 358.96 804.17 358.76 804.17 355.96 801.17 355.96"/><polygon class="cls-6" points="858.72 318.33 858.72 321.12 858.72 321.33 861.72 321.33 861.72 321.12 861.72 318.33 858.72 318.33"/><polygon class="cls-6" points="910.21 339.03 910.21 341.83 910.21 342.03 913.21 342.03 913.21 341.83 913.21 339.03 910.21 339.03"/><polygon class="cls-6" points="896.97 300.03 896.97 302.82 896.97 303.03 899.97 303.03 899.97 302.82 899.97 300.03 896.97 300.03"/><polygon class="cls-6" points="1264.38 368.32 1264.38 368.12 1264.38 365.32 1261.38 365.32 1261.38 368.12 1261.38 368.32 1264.38 368.32"/><polygon class="cls-6" points="924.42 291.09 924.42 293.89 924.42 294.09 927.42 294.09 927.42 293.89 927.42 291.09 924.42 291.09"/><polygon class="cls-6" points="949.31 285.48 949.31 288.28 949.31 288.48 952.31 288.48 952.31 288.28 952.31 285.48 949.31 285.48"/><polygon class="cls-6" points="983.02 335.45 983.02 338.24 983.02 338.45 986.02 338.45 986.02 338.24 986.02 335.45 983.02 335.45"/><polygon class="cls-6" points="994.24 349.08 994.24 351.88 994.24 352.08 997.24 352.08 997.24 351.88 997.24 349.08 994.24 349.08"/><polygon class="cls-6" points="942.9 289.67 942.9 292.46 942.9 292.67 945.9 292.67 945.9 292.46 945.9 289.67 942.9 289.67"/><polygon class="cls-6" points="957.22 359.83 957.22 362.62 957.22 362.83 960.22 362.83 960.22 362.62 960.22 359.83 957.22 359.83"/><polygon class="cls-6" points="979.97 328.01 979.97 330.8 979.97 331.01 982.97 331.01 982.97 330.8 982.97 328.01 979.97 328.01"/><polygon class="cls-6" points="1013.65 287.16 1013.65 289.96 1013.65 290.16 1016.65 290.16 1016.65 289.96 1016.65 287.16 1013.65 287.16"/><polygon class="cls-6" points="1020.52 288.67 1020.52 285.87 1017.52 285.87 1017.52 288.67 1017.52 288.87 1020.52 288.87 1020.52 288.67"/><polygon class="cls-6" points="1039.9 360.21 1039.9 363.01 1039.9 363.21 1042.9 363.21 1042.9 363.01 1042.9 360.21 1039.9 360.21"/><polygon class="cls-6" points="1090.56 376.98 1090.56 379.77 1090.56 379.98 1093.56 379.98 1093.56 379.77 1093.56 376.98 1090.56 376.98"/><polygon class="cls-6" points="1056.91 320.48 1056.91 323.28 1056.91 323.48 1059.91 323.48 1059.91 323.28 1059.91 320.48 1056.91 320.48"/><polygon class="cls-6" points="1071.18 362.38 1071.18 365.18 1071.18 365.38 1074.18 365.38 1074.18 365.18 1074.18 362.38 1071.18 362.38"/><polygon class="cls-6" points="1123.52 363.99 1123.52 366.79 1123.52 366.99 1126.52 366.99 1126.52 366.79 1126.52 363.99 1123.52 363.99"/><polygon class="cls-6" points="1115.02 341.74 1115.02 344.53 1115.02 344.74 1118.02 344.74 1118.02 344.53 1118.02 341.74 1115.02 341.74"/><polygon class="cls-6" points="1119.77 383.24 1119.77 386.03 1119.77 386.24 1122.77 386.24 1122.77 386.03 1122.77 383.24 1119.77 383.24"/><polygon class="cls-6" points="1201.72 387.05 1201.72 389.84 1201.72 390.05 1204.72 390.05 1204.72 389.84 1204.72 387.05 1201.72 387.05"/><polygon class="cls-6" points="1258.47 365.94 1258.47 368.73 1258.47 368.94 1261.47 368.94 1261.47 368.73 1261.47 365.94 1258.47 365.94"/><polygon class="cls-6" points="1453.46 360.03 1453.46 362.82 1453.46 363.03 1456.46 363.03 1456.46 362.82 1456.46 360.03 1453.46 360.03"/><polygon class="cls-6" points="1582.36 151.01 1582.36 153.81 1582.36 154.01 1585.36 154.01 1585.36 153.81 1585.36 151.01 1582.36 151.01"/><polygon class="cls-6" points="1536.29 109.51 1536.29 109.31 1536.29 106.51 1533.29 106.51 1533.29 109.31 1533.29 109.51 1536.29 109.51"/><polygon class="cls-6" points="1533.81 153 1533.81 155.79 1533.81 156 1536.81 156 1536.81 155.79 1536.81 153 1533.81 153"/><polygon class="cls-6" points="1189.33 291.2 1189.33 293.99 1189.33 294.2 1192.33 294.2 1192.33 293.99 1192.33 291.2 1189.33 291.2"/><polygon class="cls-6" points="1143.94 292.65 1143.94 295.44 1143.94 295.65 1146.94 295.65 1146.94 295.44 1146.94 292.65 1143.94 292.65"/><polygon class="cls-6" points="1205.65 298.16 1205.65 300.96 1205.65 301.16 1208.65 301.16 1208.65 300.96 1208.65 298.16 1205.65 298.16"/><polygon class="cls-6" points="1191.01 281.07 1191.01 280.87 1191.01 278.07 1188.01 278.07 1188.01 280.87 1188.01 281.07 1191.01 281.07"/><polygon class="cls-6" points="1174.35 213.26 1174.35 216.05 1174.35 216.26 1177.35 216.26 1177.35 216.05 1177.35 213.26 1174.35 213.26"/><polygon class="cls-6" points="1162.35 175.57 1162.35 178.36 1162.35 178.57 1165.35 178.57 1165.35 178.36 1165.35 175.57 1162.35 175.57"/><polygon class="cls-6" points="1190.99 97.75 1190.99 100.54 1190.99 100.75 1193.99 100.75 1193.99 100.54 1193.99 97.75 1190.99 97.75"/><polygon class="cls-6" points="1075.81 119.52 1075.81 122.31 1075.81 122.52 1078.81 122.52 1078.81 122.31 1078.81 119.52 1075.81 119.52"/><polygon class="cls-6" points="989.29 233.28 989.29 236.07 989.29 236.28 992.29 236.28 992.29 236.07 992.29 233.28 989.29 233.28"/><polygon class="cls-6" points="1119.18 258.62 1119.18 261.41 1119.18 261.62 1122.18 261.62 1122.18 261.41 1122.18 258.62 1119.18 258.62"/><polygon class="cls-6" points="1129.93 277.73 1129.93 277.52 1129.93 274.73 1126.93 274.73 1126.93 277.52 1126.93 277.73 1129.93 277.73"/><polygon class="cls-6" points="1173.58 337.51 1173.58 340.3 1173.58 340.51 1176.58 340.51 1176.58 340.3 1176.58 337.51 1173.58 337.51"/><polygon class="cls-6" points="1549.36 227.34 1549.36 230.14 1549.36 230.34 1552.36 230.34 1552.36 230.14 1552.36 227.34 1549.36 227.34"/><polygon class="cls-6" points="1566.24 183.21 1566.24 186 1566.24 186.21 1569.24 186.21 1569.24 186 1569.24 183.21 1566.24 183.21"/><polygon class="cls-6" points="1556.89 60.3 1556.89 63.09 1556.89 63.3 1559.89 63.3 1559.89 63.09 1559.89 60.3 1556.89 60.3"/><polygon class="cls-6" points="1294.71 44.99 1294.71 47.79 1294.71 47.99 1297.71 47.99 1297.71 47.79 1297.71 44.99 1294.71 44.99"/><polygon class="cls-6" points="1275.63 55.87 1275.63 58.66 1275.63 58.87 1278.63 58.87 1278.63 58.66 1278.63 55.87 1275.63 55.87"/><polygon class="cls-6" points="1190.59 115.47 1190.59 118.26 1190.59 118.47 1193.59 118.47 1193.59 118.26 1193.59 115.47 1190.59 115.47"/><polygon class="cls-6" points="1139.26 77.46 1139.26 80.26 1139.26 80.46 1142.26 80.46 1142.26 80.26 1142.26 77.46 1139.26 77.46"/><polygon class="cls-6" points="1176.99 91.9 1176.99 94.7 1176.99 94.9 1179.99 94.9 1179.99 94.7 1179.99 91.9 1176.99 91.9"/><polygon class="cls-6" points="1150.8 70.28 1150.8 73.07 1150.8 73.28 1153.8 73.28 1153.8 73.07 1153.8 70.28 1150.8 70.28"/><polygon class="cls-6" points="1162.46 74.68 1162.46 77.48 1162.46 77.68 1165.46 77.68 1165.46 77.48 1165.46 74.68 1162.46 74.68"/><polygon class="cls-6" points="1182.41 51.31 1182.41 48.52 1179.41 48.52 1179.41 51.31 1179.41 51.52 1182.41 51.52 1182.41 51.31"/><polygon class="cls-6" points="1132.4 79.36 1132.4 82.15 1132.4 82.36 1135.4 82.36 1135.4 82.15 1135.4 79.36 1132.4 79.36"/><polygon class="cls-6" points="1105.75 105.25 1105.75 108.04 1105.75 108.25 1108.75 108.25 1108.75 108.04 1108.75 105.25 1105.75 105.25"/><polygon class="cls-6" points="1029.05 93.47 1029.05 96.26 1029.05 96.47 1032.05 96.47 1032.05 96.26 1032.05 93.47 1029.05 93.47"/><polygon class="cls-6" points="1020.64 53.06 1020.64 52.86 1020.64 50.06 1017.64 50.06 1017.64 52.86 1017.64 53.06 1020.64 53.06"/><polygon class="cls-6" points="1020.2 83.59 1020.2 83.39 1020.2 80.59 1017.2 80.59 1017.2 83.39 1017.2 83.59 1020.2 83.59"/><polygon class="cls-6" points="1107.55 72.35 1107.55 75.14 1107.55 75.35 1110.55 75.35 1110.55 75.14 1110.55 72.35 1107.55 72.35"/><polygon class="cls-6" points="965.17 63.13 965.17 62.92 965.17 60.13 962.17 60.13 962.17 62.92 962.17 63.13 965.17 63.13"/><polygon class="cls-6" points="899.42 92.45 899.42 92.25 899.42 89.45 896.42 89.45 896.42 92.25 896.42 92.45 899.42 92.45"/><polygon class="cls-6" points="875.99 95.44 875.99 92.64 872.99 92.64 872.99 95.44 872.99 95.64 875.99 95.64 875.99 95.44"/><polygon class="cls-6" points="849.66 91.74 849.66 91.94 852.66 91.94 852.66 91.74 852.66 88.94 849.66 88.94 849.66 91.74"/><polygon class="cls-6" points="850.2 59.15 850.2 56.35 847.2 56.35 847.2 59.15 847.2 59.35 850.2 59.35 850.2 59.15"/><polygon class="cls-6" points="792.53 88.38 792.53 85.59 789.53 85.59 789.53 88.38 789.53 88.59 792.53 88.59 792.53 88.38"/><polygon class="cls-6" points="743.69 82.98 743.69 85.78 743.69 85.98 746.69 85.98 746.69 85.78 746.69 82.98 743.69 82.98"/><polygon class="cls-6" points="569.04 75.88 569.04 75.67 569.04 72.88 566.04 72.88 566.04 75.67 566.04 75.88 569.04 75.88"/><polygon class="cls-6" points="572.06 111.7 572.06 111.49 572.06 108.7 569.06 108.7 569.06 111.49 569.06 111.7 572.06 111.7"/><polygon class="cls-6" points="592.67 84.32 592.67 87.11 592.67 87.32 595.67 87.32 595.67 87.11 595.67 84.32 592.67 84.32"/><polygon class="cls-6" points="580.84 139.21 580.84 142.01 580.84 142.21 583.84 142.21 583.84 142.01 583.84 139.21 580.84 139.21"/><polygon class="cls-6" points="568.84 57.34 568.84 57.13 568.84 54.34 565.84 54.34 565.84 57.13 565.84 57.34 568.84 57.34"/><polygon class="cls-6" points="620.6 136.9 620.6 139.69 620.6 139.9 623.6 139.9 623.6 139.69 623.6 136.9 620.6 136.9"/><polygon class="cls-6" points="569.26 198.95 569.26 201.74 569.26 201.95 572.26 201.95 572.26 201.74 572.26 198.95 569.26 198.95"/><polygon class="cls-6" points="584.96 284.68 584.96 287.48 584.96 287.68 587.96 287.68 587.96 287.48 587.96 284.68 584.96 284.68"/><polygon class="cls-6" points="659.29 290.88 659.29 293.68 659.29 293.88 662.29 293.88 662.29 293.68 662.29 290.88 659.29 290.88"/><polygon class="cls-6" points="698.95 301.77 698.95 298.98 695.95 298.98 695.95 301.77 695.95 301.98 698.95 301.98 698.95 301.77"/><polygon class="cls-6" points="753.72 258.34 753.72 261.13 753.72 261.34 756.72 261.34 756.72 261.13 756.72 258.34 753.72 258.34"/><polygon class="cls-6" points="851.78 219.99 851.78 217.19 848.78 217.19 848.78 219.99 848.78 220.19 851.78 220.19 851.78 219.99"/><polygon class="cls-6" points="859.2 165.51 859.2 165.3 859.2 162.51 856.2 162.51 856.2 165.3 856.2 165.51 859.2 165.51"/><polygon class="cls-6" points="815.7 59.96 815.7 59.76 815.7 56.96 812.7 56.96 812.7 59.76 812.7 59.96 815.7 59.96"/><polygon class="cls-6" points="750.27 130.62 750.27 133.41 750.27 133.62 753.27 133.62 753.27 133.41 753.27 130.62 750.27 130.62"/><polygon class="cls-6" points="732.22 41.2 732.22 43.99 732.22 44.2 735.22 44.2 735.22 43.99 735.22 41.2 732.22 41.2"/><polygon class="cls-6" points="660.1 88.04 660.1 85.25 657.1 85.25 657.1 88.04 657.1 88.25 660.1 88.25 660.1 88.04"/><polygon class="cls-6" points="518.02 92.35 518.02 89.56 515.02 89.56 515.02 92.35 515.02 92.56 518.02 92.56 518.02 92.35"/><polygon class="cls-6" points="458.69 61.62 458.69 61.41 458.69 58.62 455.69 58.62 455.69 61.41 455.69 61.62 458.69 61.62"/><polygon class="cls-6" points="400.3 144.38 400.3 144.17 400.3 141.38 397.3 141.38 397.3 144.17 397.3 144.38 400.3 144.38"/><polygon class="cls-6" points="348.78 140.98 348.78 140.77 348.78 137.98 345.78 137.98 345.78 140.77 345.78 140.98 348.78 140.98"/><polygon class="cls-6" points="308.04 52.88 308.04 55.67 308.04 55.88 311.04 55.88 311.04 55.67 311.04 52.88 308.04 52.88"/><polygon class="cls-6" points="330.77 142.77 330.77 145.56 330.77 145.77 333.77 145.77 333.77 145.56 333.77 142.77 330.77 142.77"/><polygon class="cls-6" points="362.9 90.28 362.9 93.07 362.9 93.28 365.9 93.28 365.9 93.07 365.9 90.28 362.9 90.28"/><polygon class="cls-6" points="435.43 65.01 435.43 64.8 435.43 62.01 432.43 62.01 432.43 64.8 432.43 65.01 435.43 65.01"/><polygon class="cls-6" points="421.65 80.17 421.65 82.96 421.65 83.17 424.65 83.17 424.65 82.96 424.65 80.17 421.65 80.17"/><polygon class="cls-6" points="405.84 96.93 405.84 99.72 405.84 99.93 408.84 99.93 408.84 99.72 408.84 96.93 405.84 96.93"/><polygon class="cls-6" points="347.19 142.09 347.19 144.88 347.19 145.09 350.19 145.09 350.19 144.88 350.19 142.09 347.19 142.09"/><polygon class="cls-6" points="277.3 115.6 277.3 118.39 277.3 118.6 280.3 118.6 280.3 118.39 280.3 115.6 277.3 115.6"/><polygon class="cls-6" points="242.53 111.94 242.53 114.73 242.53 114.94 245.53 114.94 245.53 114.73 245.53 111.94 242.53 111.94"/><polygon class="cls-6" points="218.89 88 218.89 90.79 218.89 91 221.89 91 221.89 90.79 221.89 88 218.89 88"/><polygon class="cls-6" points="198.66 172.73 198.66 175.52 198.66 175.73 201.66 175.73 201.66 175.52 201.66 172.73 198.66 172.73"/><polygon class="cls-6" points="212.52 167.31 212.52 170.11 212.52 170.31 215.52 170.31 215.52 170.11 215.52 167.31 212.52 167.31"/><polygon class="cls-6" points="380.12 209.4 380.12 212.19 380.12 212.4 383.12 212.4 383.12 212.19 383.12 209.4 380.12 209.4"/><polygon class="cls-6" points="338.08 90.89 338.08 93.69 338.08 93.89 341.08 93.89 341.08 93.69 341.08 90.89 338.08 90.89"/><polygon class="cls-6" points="178.69 59.84 178.69 59.63 178.69 56.84 175.69 56.84 175.69 59.63 175.69 59.84 178.69 59.84"/><polygon class="cls-6" points="136.38 99.97 136.38 102.77 136.38 102.97 139.38 102.97 139.38 102.77 139.38 99.97 136.38 99.97"/><polygon class="cls-6" points="122.38 72.61 122.38 75.4 122.38 75.61 125.38 75.61 125.38 75.4 125.38 72.61 122.38 72.61"/><polygon class="cls-6" points="122.37 107.31 122.37 110.1 122.37 110.31 125.37 110.31 125.37 110.1 125.37 107.31 122.37 107.31"/><polygon class="cls-6" points="193.25 208.41 193.25 211.21 193.25 211.41 196.25 211.41 196.25 211.21 196.25 208.41 193.25 208.41"/><polygon class="cls-6" points="251.18 202.37 251.18 205.16 251.18 205.37 254.18 205.37 254.18 205.16 254.18 202.37 251.18 202.37"/><polygon class="cls-6" points="297.8 177.6 297.8 180.4 297.8 180.6 300.8 180.6 300.8 180.4 300.8 177.6 297.8 177.6"/><polygon class="cls-6" points="355.54 154.26 355.54 157.05 355.54 157.26 358.54 157.26 358.54 157.05 358.54 154.26 355.54 154.26"/><polygon class="cls-6" points="428.94 216.07 428.94 218.87 428.94 219.07 431.94 219.07 431.94 218.87 431.94 216.07 428.94 216.07"/><polygon class="cls-6" points="457.76 157.27 457.76 160.07 457.76 160.27 460.76 160.27 460.76 160.07 460.76 157.27 457.76 157.27"/><polygon class="cls-6" points="501.15 202.17 501.15 199.38 498.15 199.38 498.15 202.17 498.15 202.38 501.15 202.38 501.15 202.17"/><polygon class="cls-6" points="540.84 177.9 540.84 177.69 540.84 174.9 537.84 174.9 537.84 177.69 537.84 177.9 540.84 177.9"/><polygon class="cls-6" points="545.66 257.09 545.66 259.88 545.66 260.09 548.66 260.09 548.66 259.88 548.66 257.09 545.66 257.09"/><polygon class="cls-6" points="535.16 305.95 535.16 303.15 532.16 303.15 532.16 305.95 532.16 306.15 535.16 306.15 535.16 305.95"/><polygon class="cls-6" points="422.69 360.32 422.69 363.11 422.69 363.32 425.69 363.32 425.69 363.11 425.69 360.32 422.69 360.32"/><polygon class="cls-6" points="465.17 372.37 465.17 375.16 465.17 375.37 468.17 375.37 468.17 375.16 468.17 372.37 465.17 372.37"/><polygon class="cls-6" points="494.48 373.47 494.48 376.27 494.48 376.47 497.48 376.47 497.48 376.27 497.48 373.47 494.48 373.47"/><polygon class="cls-6" points="468.43 336.68 468.43 336.47 468.43 333.68 465.43 333.68 465.43 336.47 465.43 336.68 468.43 336.68"/><polygon class="cls-6" points="441.81 322.19 441.81 324.99 441.81 325.19 444.81 325.19 444.81 324.99 444.81 322.19 441.81 322.19"/><polygon class="cls-6" points="500.37 340.84 500.37 343.63 500.37 343.84 503.37 343.84 503.37 343.63 503.37 340.84 500.37 340.84"/><polygon class="cls-6" points="550.63 408.55 550.63 411.34 550.63 411.55 553.63 411.55 553.63 411.34 553.63 408.55 550.63 408.55"/><polygon class="cls-6" points="564.27 394.13 564.27 396.93 564.27 397.13 567.27 397.13 567.27 396.93 567.27 394.13 564.27 394.13"/><polygon class="cls-6" points="618.26 372.28 618.26 375.07 618.26 375.28 621.26 375.28 621.26 375.07 621.26 372.28 618.26 372.28"/><polygon class="cls-6" points="1058.78 247.18 1058.78 249.98 1058.78 250.18 1061.78 250.18 1061.78 249.98 1061.78 247.18 1058.78 247.18"/><polygon class="cls-6" points="939.23 236.69 939.23 236.48 939.23 233.69 936.23 233.69 936.23 236.48 936.23 236.69 939.23 236.69"/><polygon class="cls-6" points="865.92 214.44 865.92 214.23 865.92 211.44 862.92 211.44 862.92 214.23 862.92 214.44 865.92 214.44"/><polygon class="cls-6" points="783.77 299.38 783.77 302.17 783.77 302.38 786.77 302.38 786.77 302.17 786.77 299.38 783.77 299.38"/><polygon class="cls-6" points="698.58 328.89 698.58 331.68 698.58 331.89 701.58 331.89 701.58 331.68 701.58 328.89 698.58 328.89"/><polygon class="cls-6" points="650.06 302.57 650.06 299.78 647.06 299.78 647.06 302.57 647.06 302.78 650.06 302.78 650.06 302.57"/><polygon class="cls-6" points="713.74 350.39 713.74 353.19 713.74 353.39 716.74 353.39 716.74 353.19 716.74 350.39 713.74 350.39"/><polygon class="cls-6" points="693.99 264.27 693.99 267.06 693.99 267.27 696.99 267.27 696.99 267.06 696.99 264.27 693.99 264.27"/><polygon class="cls-6" points="791.27 346.23 791.27 349.02 791.27 349.23 794.27 349.23 794.27 349.02 794.27 346.23 791.27 346.23"/><polygon class="cls-6" points="852.16 350.6 852.16 353.39 852.16 353.6 855.16 353.6 855.16 353.39 855.16 350.6 852.16 350.6"/><polygon class="cls-6" points="911.66 294.46 911.66 291.67 908.66 291.67 908.66 294.46 908.66 294.67 911.66 294.67 911.66 294.46"/><polygon class="cls-6" points="949.48 372.99 949.48 375.79 949.48 375.99 952.48 375.99 952.48 375.79 952.48 372.99 949.48 372.99"/><polygon class="cls-6" points="974.91 325.34 974.91 322.55 971.91 322.55 971.91 325.34 971.91 325.55 974.91 325.55 974.91 325.34"/><polygon class="cls-6" points="1053.77 333.76 1053.77 333.55 1053.77 330.76 1050.77 330.76 1050.77 333.55 1050.77 333.76 1053.77 333.76"/><polygon class="cls-6" points="1127.51 280.44 1127.51 283.24 1127.51 283.44 1130.51 283.44 1130.51 283.24 1130.51 280.44 1127.51 280.44"/><polygon class="cls-6" points="1163.23 124.08 1163.23 121.29 1160.23 121.29 1160.23 124.08 1160.23 124.29 1163.23 124.29 1163.23 124.08"/><polygon class="cls-6" points="1053.1 78.55 1053.1 81.34 1053.1 81.55 1056.1 81.55 1056.1 81.34 1056.1 78.55 1053.1 78.55"/><polygon class="cls-6" points="958.24 132.23 958.24 135.03 958.24 135.23 961.24 135.23 961.24 135.03 961.24 132.23 958.24 132.23"/><polygon class="cls-6" points="863.37 215.26 863.37 218.05 863.37 218.26 866.37 218.26 866.37 218.05 866.37 215.26 863.37 215.26"/><polygon class="cls-6" points="931.29 240.51 931.29 240.31 931.29 237.51 928.29 237.51 928.29 240.31 928.29 240.51 931.29 240.51"/><polygon class="cls-6" points="1084.91 290.38 1084.91 293.18 1084.91 293.38 1087.91 293.38 1087.91 293.18 1087.91 290.38 1084.91 290.38"/><polygon class="cls-6" points="1095.09 175.03 1095.09 177.83 1095.09 178.03 1098.09 178.03 1098.09 177.83 1098.09 175.03 1095.09 175.03"/><polygon class="cls-6" points="1146.63 120.54 1146.63 120.33 1146.63 117.54 1143.63 117.54 1143.63 120.33 1143.63 120.54 1146.63 120.54"/><polygon class="cls-6" points="963.98 133.38 963.98 136.18 963.98 136.38 966.98 136.38 966.98 136.18 966.98 133.38 963.98 133.38"/><polygon class="cls-6" points="888.53 124.55 888.53 121.75 885.53 121.75 885.53 124.55 885.53 124.75 888.53 124.75 888.53 124.55"/><polygon class="cls-6" points="784.52 89.22 784.52 89.01 784.52 86.22 781.52 86.22 781.52 89.01 781.52 89.22 784.52 89.22"/><polygon class="cls-6" points="709.65 152.31 709.65 155.1 709.65 155.31 712.65 155.31 712.65 155.1 712.65 152.31 709.65 152.31"/><polygon class="cls-6" points="713.4 135.95 713.4 138.74 713.4 138.95 716.4 138.95 716.4 138.74 716.4 135.95 713.4 135.95"/><polygon class="cls-6" points="718.09 167.13 718.09 169.93 718.09 170.13 721.09 170.13 721.09 169.93 721.09 167.13 718.09 167.13"/><polygon class="cls-6" points="685.29 177.46 685.29 180.25 685.29 180.46 688.29 180.46 688.29 180.25 688.29 177.46 685.29 177.46"/><polygon class="cls-6" points="664 124.19 664 126.98 664 127.19 667 127.19 667 126.98 667 124.19 664 124.19"/><polygon class="cls-6" points="727.32 215.82 727.32 218.61 727.32 218.82 730.32 218.82 730.32 218.61 730.32 215.82 727.32 215.82"/><polygon class="cls-6" points="762.37 230.22 762.37 233.01 762.37 233.22 765.37 233.22 765.37 233.01 765.37 230.22 762.37 230.22"/><polygon class="cls-6" points="792.05 190.41 792.05 193.21 792.05 193.41 795.05 193.41 795.05 193.21 795.05 190.41 792.05 190.41"/><polygon class="cls-6" points="782.72 176.9 782.72 176.7 782.72 173.9 779.72 173.9 779.72 176.7 779.72 176.9 782.72 176.9"/><polygon class="cls-6" points="695.73 230.94 695.73 230.73 695.73 227.94 692.73 227.94 692.73 230.73 692.73 230.94 695.73 230.94"/><polygon class="cls-6" points="628.18 216.81 628.18 216.6 628.18 213.81 625.18 213.81 625.18 216.6 625.18 216.81 628.18 216.81"/><polygon class="cls-6" points="538.05 227.78 538.05 230.57 538.05 230.78 541.05 230.78 541.05 230.57 541.05 227.78 538.05 227.78"/><polygon class="cls-6" points="600.62 376.8 600.62 379.6 600.62 379.8 603.62 379.8 603.62 379.6 603.62 376.8 600.62 376.8"/><polygon class="cls-6" points="633.81 259.95 633.81 262.74 633.81 262.95 636.81 262.95 636.81 262.74 636.81 259.95 633.81 259.95"/><polygon class="cls-6" points="758.16 273.29 758.16 276.08 758.16 276.29 761.16 276.29 761.16 276.08 761.16 273.29 758.16 273.29"/><polygon class="cls-6" points="654.08 132.85 654.08 132.65 654.08 129.85 651.08 129.85 651.08 132.65 651.08 132.85 654.08 132.85"/><polygon class="cls-6" points="574.52 151.22 574.52 154.01 574.52 154.22 577.52 154.22 577.52 154.01 577.52 151.22 574.52 151.22"/><polygon class="cls-6" points="500.22 113.56 500.22 113.36 500.22 110.56 497.22 110.56 497.22 113.36 497.22 113.56 500.22 113.56"/><polygon class="cls-6" points="447.95 98.08 447.95 97.88 447.95 95.08 444.95 95.08 444.95 97.88 444.95 98.08 447.95 98.08"/><polygon class="cls-6" points="386.28 136.14 386.28 133.34 383.28 133.34 383.28 136.14 383.28 136.34 386.28 136.34 386.28 136.14"/><polygon class="cls-6" points="356.75 59.03 356.75 56.24 353.75 56.24 353.75 59.03 353.75 59.24 356.75 59.24 356.75 59.03"/><polygon class="cls-6" points="336.29 191.6 336.29 194.4 336.29 194.6 339.29 194.6 339.29 194.4 339.29 191.6 336.29 191.6"/><polygon class="cls-6" points="404.39 82.04 404.39 81.84 404.39 79.04 401.39 79.04 401.39 81.84 401.39 82.04 404.39 82.04"/><polygon class="cls-6" points="475.36 172.03 475.36 174.82 475.36 175.03 478.36 175.03 478.36 174.82 478.36 172.03 475.36 172.03"/><polygon class="cls-6" points="561.85 148.76 561.85 148.56 561.85 145.76 558.85 145.76 558.85 148.56 558.85 148.76 561.85 148.76"/><polygon class="cls-6" points="603.75 129.25 603.75 129.04 603.75 126.25 600.75 126.25 600.75 129.04 600.75 129.25 603.75 129.25"/><polygon class="cls-6" points="636.52 233.96 636.52 233.75 636.52 230.96 633.52 230.96 633.52 233.75 633.52 233.96 636.52 233.96"/><polygon class="cls-6" points="710.01 151.53 710.01 148.74 707.01 148.74 707.01 151.53 707.01 151.74 710.01 151.74 710.01 151.53"/><g class="cls-7"><ellipse class="cls-8" cx="1123.86" cy="736.15" rx="200.92" ry="798" transform="translate(310.29 1805.3) rotate(-85.96)"/><ellipse class="cls-9" cx="432.35" cy="801.85" rx="246.76" ry="593.36" transform="translate(-442.82 1054.76) rotate(-77.79)"/></g><g class="cls-10"><path class="cls-11" d="M214.16,374.58c-5.37-3.86-11.76-6-17.13-9.9a5.29,5.29,0,0,1-2.15-2.35c-.45-1.32.21-2.72.89-3.92a62.9,62.9,0,0,1,8.17-11.27,105.9,105.9,0,0,1-8.76,8.84,12,12,0,0,1-5.25,3.2c-3.6.76-7.65-1-10.72-3.09l-20.5-13.82c-.36-.25-.77-.57-.77-1a1.36,1.36,0,0,1,.51-.88l21-20.8c-7.87,5.29-15.56,10.38-23.43,15.67l-31.85-9.94c-2.48-.78-5.34-1.92-6-4.43-.75-2.72,1.5-5.23,3.56-7.13l24-22.13L108.85,313.8c-3,1.82-6.1,3.66-9.54,4.47-5.43,1.29-11.24-.13-16.19-2.77s-9.19-6.41-13.38-10.15c-2.36-2.11-5-5-4.07-8,.47-1.61,1.83-2.75,3.13-3.79l28.58-23c-11.62,9.76-25.06,17.55-40,20.64-6.2-6.09-12.55-12.41-15.83-20.44-1.8-4.43-2.58-9.21-4.27-13.68C32.78,245,23.79,231.5,13.73,223.41c30.37-3.52,57.44,9.18,86.18,20,24.92,9.36,50,19.58,71,36.05s37.6,40.2,39.88,66.66C211.67,356.81,212.11,364.91,214.16,374.58Z"/><path class="cls-11" d="M206.37,363.33a7.74,7.74,0,0,1-1.54,2.35,127,127,0,0,1-11.62,11.2c-7.78,6.73-16.16,12.89-24.13,19.43A205.42,205.42,0,0,0,149.8,414.4q-4.67,5-9,10.13c-1.28,1.52-7.83,7.48-7.53,9.28l-4.36-25.62c-2.47-14.48-3.25-26-10.56-39.24l-1.2-2.17a252.39,252.39,0,0,1,9,70.44c-13,.95-25.27-.18-38.34-1.74A409.91,409.91,0,0,1,64.29,367.4l7.42,62c-10.73-1.82-22.31-3.15-33-2l-8.95-48a223.12,223.12,0,0,0,1.78,48,169.25,169.25,0,0,1-33.68,6.85l-4.17-21.5-3.14,14.78A23,23,0,0,1-12,435.05c-3.37,5.44-10.64,7.68-17.31,9.51,10.68-32.12,23-65.36,50.29-87.81,31.89-26.21,79.62-33.68,123.23-26,20.57,3.63,41.48,10.7,56.75,24.42C204.45,358.34,207.5,360.28,206.37,363.33Z"/><path class="cls-12" d="M213,349.22c.33,6.38-6.93,10.34-12.94,13.53-25.89,13.74-46.09,33.82-63.3,55.9L132.39,393c-2.47-14.48-3.25-26-10.56-39.24l-1.2-2.17a252.39,252.39,0,0,1,9,70.44c-13,1-25.27-.18-38.35-1.74a410.78,410.78,0,0,1-23.44-68.08l7.42,62c-10.73-1.82-22.31-3.15-33-2l-8.95-48a223.21,223.21,0,0,0,1.78,48,170,170,0,0,1-33.68,6.84q-2.08-10.74-4.18-21.5L-6,412.37a22.84,22.84,0,0,1-2.54,7.52c-3.37,5.44-10.64,7.68-17.31,9.52,10.68-32.12,23-65.37,50.29-87.82,31.89-26.2,79.62-33.68,123.23-26C173.31,320.15,198,329.75,213,349.22Z"/><g class="cls-13"><path class="cls-6" d="M141.89,330.05c-10.77.7-20.93,1.31-30.94,2.64a243.77,243.77,0,0,0-29.36,5.56,220.69,220.69,0,0,0-28.29,9.31,278.65,278.65,0,0,0-27.87,13.38,79.16,79.16,0,0,1,4.65-6.64c1.76-2,3.55-4.08,5.47-6s4-3.7,6.12-5.39c1.07-.83,2.17-1.63,3.27-2.44a40.34,40.34,0,0,1,3.35-2.35,99.88,99.88,0,0,1,29.94-13,104.43,104.43,0,0,1,32.44-3C121.49,322.81,132.23,325.17,141.89,330.05Z"/></g><path class="cls-11" d="M187,369.36a7.75,7.75,0,0,0,1.53,2.35,127.07,127.07,0,0,0,11.63,11.2c7.78,6.74,16.15,12.89,24.13,19.43a205.38,205.38,0,0,1,19.27,18.09c3.11,3.3,6.12,6.69,9,10.13,1.28,1.52,7.83,7.48,7.52,9.28l4.37-25.62c2.47-14.48,3.25-26,10.56-39.24l1.2-2.17a252,252,0,0,0-8.95,70.44c13,1,25.27-.18,38.34-1.74A411,411,0,0,0,329,373.44l-7.42,62c10.72-1.83,22.31-3.16,33-2l8.95-48a223.21,223.21,0,0,1-1.78,48,170.68,170.68,0,0,0,33.68,6.85l4.17-21.51,3.14,14.78a22.84,22.84,0,0,0,2.54,7.52c3.37,5.44,10.63,7.69,17.31,9.52-10.68-32.12-23-65.37-50.29-87.82-31.9-26.2-79.62-33.68-123.24-26-20.56,3.64-41.48,10.7-56.75,24.42C188.87,364.37,185.82,366.31,187,369.36Z"/><path class="cls-14" d="M180.33,355.25c-.33,6.38,6.93,10.35,12.94,13.54,25.89,13.74,46.09,33.81,63.29,55.9l4.37-25.63c2.47-14.47,3.25-26,10.56-39.23l1.2-2.18a252,252,0,0,0-8.95,70.45c13,.95,25.27-.19,38.34-1.74a410.22,410.22,0,0,0,23.45-68.08l-7.42,62c10.73-1.83,22.31-3.16,33-2l8.95-48a223.12,223.12,0,0,1-1.78,48A170.68,170.68,0,0,0,392,425.13l4.17-21.51,3.14,14.79a23,23,0,0,0,2.54,7.52c3.37,5.44,10.64,7.68,17.31,9.51-10.68-32.12-23-65.37-50.29-87.82-31.9-26.2-79.62-33.68-123.23-26C220,326.18,195.33,335.78,180.33,355.25Z"/><g class="cls-13"><path class="cls-6" d="M251.43,336.09c9.66-4.89,20.4-7.25,31.22-8a103.89,103.89,0,0,1,32.44,3,99.47,99.47,0,0,1,29.93,13,40.38,40.38,0,0,1,3.36,2.34c1.1.81,2.2,1.61,3.27,2.45,2.13,1.68,4.12,3.58,6.11,5.39s3.72,4,5.48,6a80.83,80.83,0,0,1,4.65,6.64A280.87,280.87,0,0,0,340,353.59a221.83,221.83,0,0,0-28.3-9.3,243.62,243.62,0,0,0-29.35-5.57C272.36,337.39,262.2,336.78,251.43,336.09Z"/></g><path class="cls-11" d="M212.24,350c-4.77,3.93-7.72,8.38-12.48,12.3A7.46,7.46,0,0,1,197,364a8.27,8.27,0,0,1-4.33-.26,65.82,65.82,0,0,1-12-4.5,88.92,88.92,0,0,1,9.23,5.1c1.44.92,2.86,1.92,3.19,3.24.56,2.34-1.75,5.21-4.32,7.43l-17.14,14.89a2.06,2.06,0,0,1-1.19.6,1.61,1.61,0,0,1-.94-.26l-21.7-12.29c5.31,4.81,10.43,9.52,15.75,14.32q-6.84,11.08-13.69,22.15a8.65,8.65,0,0,1-5.44,4.41c-3.12.74-5.76-.55-7.73-1.77l-23-14.15,22,22.77c1.8,1.86,3.62,3.77,4.27,6,1,3.52-1,7.53-4.39,11.07s-7.93,6.69-12.46,9.81c-2.55,1.76-6,3.74-9.28,3.41a7.87,7.87,0,0,1-4-1.78L86.2,437c10,6.93,17.74,15.25,20,25-7.33,4.66-14.94,9.45-24.21,12.33-5.12,1.58-10.55,2.52-15.71,4C52.41,482.4,36.51,489.57,26.62,497c-1.56-20,14.85-39.19,29.24-59.33,12.48-17.46,25.94-35.1,46.1-50.53s48.12-28.58,78-32.37C192.08,353.23,201.21,352.24,212.24,350Z"/><path class="cls-11" d="M378.75,187.94c-4.74,4.61-8,10.51-12.75,15.13a5.33,5.33,0,0,1-2.69,1.7c-1.38.21-2.64-.69-3.7-1.57a62.24,62.24,0,0,1-9.66-10,106.23,106.23,0,0,1,7.16,10.17,12,12,0,0,1,2.23,5.73c.11,3.68-2.34,7.36-4.92,10l-17.21,17.75c-.3.31-.69.66-1.12.58a1.31,1.31,0,0,1-.77-.66l-16.78-24.36c3.82,8.68,7.48,17.14,11.31,25.82q-7.69,14.81-15.38,29.61c-1.2,2.31-2.83,4.92-5.42,5.16-2.81.26-4.89-2.4-6.39-4.76l-17.57-27.51q7.67,20.1,15.35,40.21c1.25,3.29,2.52,6.65,2.72,10.18.32,5.57-2.1,11-5.57,15.45s-7.92,7.92-12.34,11.39c-2.49,1.95-5.75,4-8.56,2.61-1.5-.74-2.38-2.29-3.18-3.75l-17.64-32.17c7.57,13.15,12.88,27.75,13.31,43-7.08,5-14.42,10.18-22.9,12-4.68,1-9.52.93-14.22,1.81-12.68,2.35-27.57,8.83-37.31,17.31,1.87-30.52,19.12-54.94,34.8-81.34,13.59-22.89,28.05-45.78,47.95-63.52s46.17-30,72.62-27.57C360.82,187.28,368.87,188.27,378.75,187.94Z"/><path class="cls-15" d="M199.24,372.62c-3.07,4.38,11.59-13.23,15-27.59s17-18.22,17-18.22-11.51,6.75-10.33,33.62-1.49,76.34-1.49,76.34L207.25,456l-20.78-42.93s-4.2-35.71.34-40.15"/><path class="cls-16" d="M217.83,453.38l-28.5,27.35-8,.36s12.69-87.7,1.56-102.45-19.12-17.09-19.12-17.09l24.9,12.23s29.4,2.81,30.94,27.43S217.83,453.38,217.83,453.38Z"/><path class="cls-17" d="M218.35,564.84s8.13-89.35-58.5-70.83a23,23,0,0,1,10.47,1.38c3.75,1.62,7,4.93,6.65,11.56-.77,15.16-13.63,97.34-9.73,104.9S218.35,564.84,218.35,564.84Z"/><path class="cls-15" d="M180,513.73s-4.52-36.55.63-41.12,16.86-9.7,16.86-9.7a13.48,13.48,0,0,1-2.83,9.32c-3.49,4.5,13.17-13.61,17.1-28.34s19.31-18.74,19.31-18.74-13,7-11.87,34.48-2.15,78.2-2.15,78.2L203.2,557.6Z"/><path class="cls-18" d="M303.87,689.39s-9.44-2.11-40.88-4.1-50.31-11.36-50.31-39.1-1.57-117.89,33.54-103.8c0,0-28.82-17.13-44,33.11l-3.67-5.67s-2.62-7-10,13.55-20.43,22.47-22,26.83S165,651.29,159.23,660s-5.24-1.06-9.43,8.41-2.1,13.09-29.35,15.74-11,3-62.36,5.52c0,0,5.24.55,29.87.19"/><path class="cls-19" d="M193.57,445.18c1.42,2.61,3.22,4.45,5,6.8a58.49,58.49,0,0,1,16.68-18.29c-5.69,8-13.71,22.61-11,32.64,3.05,11.37,14,24.94,20.67,34.6,2.48,3.59,14.11,24.24,18.14,23.78,1.61-.18,2.81-1.53,3.84-2.78l6.33-7.72c-.48,6.92-2.3,17.76.17,24.36,2,5.45,8.71,10.75,12.48,15.16,7.75,9.07,16.27,18.36,27.65,21.95,5.05,1.59,11.13,1.74,15.05-1.82,4.16-3.79,4.32-10.18,4.18-15.81L312,527.88a1.68,1.68,0,0,0-1-1.49c-4.09-1.79-8.2-3.07-12.3-4.47a1.65,1.65,0,0,1,.25-3.19H299c3-.6,5.88-2.34,7.08-5.12s.45-6.18-.37-9.2a726.31,726.31,0,0,0-27.13-80.62c-2.43-6-5.15-12.32-10.27-16.34a25.69,25.69,0,0,0-11-4.72,1.67,1.67,0,0,1,0-3.28l4.53-.84a1.67,1.67,0,0,0,1.2-2.37c-5.2-10.84-10.74-21.76-19.44-30-12.71-12.06-30.23-17.66-47-13.47a1.69,1.69,0,0,0-1.16,2.25q2.63,6.52,5.27,13c14.29,34.82,29.33,69.44,46.05,103.18,8.39,16.93,17.11,33.67,26.34,50.17,9.43,16.85,19.44,33.37,29.1,50.09.15.27-.26.47-.42.22-10.62-16.12-20.26-32.95-29.65-49.81q-27.46-49.32-51.42-100.5c-8-17.12-15.28-34.61-22.39-52.11q-2.33-5.73-4.61-11.46a1.67,1.67,0,0,0-2.88-.41,66.28,66.28,0,0,0-13.42,40.24C177.57,415.81,185.15,429.73,193.57,445.18Z"/><path class="cls-20" d="M204.65,663c1.39,4.31.89,32.2,5.62,30.83l32-9.2c4.73-1.36,7.47-6,6.08-10.33L230,631.39c-1.38-4.32-4.43-12.44-8.37-5"/><path class="cls-21" d="M196.29,682.12l31,17a3.56,3.56,0,0,0,4.7-1.2l7.4-12.13a3.17,3.17,0,0,0-1.26-4.45l-31-16.95a3.55,3.55,0,0,0-4.7,1.19L195,677.66A3.18,3.18,0,0,0,196.29,682.12Z"/><path class="cls-21" d="M256,683.53h25.88a8.16,8.16,0,0,0,8.35-7.9l-5.13-14.87c8.95-15.12-.57-12.2-6.3-10.83l-20.89-18.66c-4.59,0-34.69-11.06-34.69-6.72l24.44,51.08A8.15,8.15,0,0,0,256,683.53Z"/><path class="cls-21" d="M202.06,701.48l14.87,6.23c8,3.36,17.45-.09,21-7.67l.76-1.61c3.54-7.57-.1-16.52-8.1-19.88l-11.74-8.46c-3.81-1.6-10.52-8.29-14.19-7.09-4,1.32-8.08,13-9.93,17L194,681.6C190.42,689.17,194.06,698.12,202.06,701.48Z"/><path class="cls-22" d="M220.42,708.53l61.76,0c4.61.27,19.49-6.37,26.28-12.24l10.09-28.48c.32-4.84-4.47-2.68-9.08-3l-39,2.27c-4.61-.28-15.2,7.83-15.52,12.67l-24.24,16.61C228.24,700.4,215.81,708.26,220.42,708.53Z"/><path class="cls-23" d="M272.78,692.11l32.32-14.55c1.57,0-7.4-6.59-8.28-10.08-.7-2.84,10.65,7.09,10.65,6.34l9.85-7c0-4.34-27.27-17.6-31.86-17.6l-12.22,9.33c.79,3.36-2.43,3.93-2.43,8.27v12.57C270.81,683.7,268.19,692.11,272.78,692.11Z"/><polygon class="cls-24" points="229.48 698.83 270.87 693.23 274.03 658.15 246.43 678.3 218.84 670.09 229.48 698.83"/><path class="cls-21" d="M101.56,709.68l14.6-14.6a10.67,10.67,0,0,0,0-15l-2.51-2.5a10.65,10.65,0,0,0-15,0L87.27,694.89C83.13,699,79.9,703,84,707.17l2.5,2.51A10.67,10.67,0,0,0,101.56,709.68Z"/><path class="cls-20" d="M128.8,710l51.73-22.21a9.07,9.07,0,0,0,3.31-12.36l-14-24.31a9.08,9.08,0,0,0-12.37-3.31l-53,27.77c-1.23.65,3.52,3.15,4.18,4.37,1,1.89-3.33-5.27-1.28-1.71l16.25,23.09C126.1,705.62,124.49,712.47,128.8,710Z"/><path class="cls-21" d="M166.79,647.87c-5,0-21.38,7.06-21.38,12l-5.56,11c0,5,9.63,18,14.61,18h32.78a9.08,9.08,0,0,0,9-9"/><path class="cls-24" d="M144.21,708.65l51.36,4.81a9.09,9.09,0,0,0,9.86-8.17L198,683.78c.46-5-7-7.23-12-7.7l-43.61-6.41c-5-.46-4,3.46-4.44,8.41L136,698.8A9.08,9.08,0,0,0,144.21,708.65Z"/><polyline class="cls-25" points="141.14 691.47 128.79 710.41 202.29 712.71"/><polygon class="cls-23" points="128.74 710.28 147.12 694.89 142.42 669.67 110.78 683.35 128.74 710.28"/><polyline class="cls-26" points="112.49 682.92 88.12 710.71 129.59 710.71"/></g><path class="cls-27" d="M796.1,842.11h0c6.75-4.34,16.92-3.66,22.59,1.5L848,870.24c5.68,5.16,4.79,12.93-2,17.27h0c-6.75,4.33-16.91,3.66-22.59-1.5l-29.26-26.63C788.47,854.22,789.35,846.45,796.1,842.11Z"/><path class="cls-28" d="M730.07,862.83l36.27-1.3c.79,0,24.41-5.26,25.09-5.56l32.36-12.82c4.21-2.32,20.53-47,14.7-52.1L788.8,773.22c-5.83-5.06-16-5.55-22.63-1.1l-90.68,60.81c-6.62,4.46-36.07,17.37-28.11,35.44l15,13C668.21,886.47,718.25,861.53,730.07,862.83Z"/><path class="cls-28" d="M904.42,857l-36.73-1.61c-.8,0-24.78-5.51-25.48-5.82l-32.94-13.21C805,834,790.67,798,796.5,792.94l47.21-26.89c5.83-5.06,16.13-5.48,22.89-.93l92.64,62.14c6.77,4.55,36.76,17.82,29,36l-15,13C967.37,881.36,915,854.74,904.42,857Z"/><ellipse class="cls-29" cx="736.44" cy="850.4" rx="61.66" ry="14.55" transform="translate(-23.58 21.01) rotate(-1.61)"/><path class="cls-28" d="M787.12,871.47l-122.84,10.2c-10,.83-19.17-4.77-20.26-12.45l-.22-1.51c-1.09-7.69,6.24-14.66,16.29-15.49L782.94,842c10-.83,19.16,4.77,20.25,12.45l.22,1.51C804.5,863.67,797.17,870.64,787.12,871.47Z"/><path class="cls-27" d="M781.93,870.26h0c-5.27-5.41-3.79-13.13,3.28-17.15l36.49-20.77c7.07-4,17.17-2.9,22.43,2.51h0c5.27,5.4,3.79,13.12-3.28,17.15l-36.49,20.77C797.29,876.8,787.2,875.67,781.93,870.26Z"/><ellipse class="cls-29" cx="889.73" cy="841.33" rx="59.66" ry="14.55"/><path class="cls-28" d="M844.53,859.44,966,876.79c9.93,1.42,19.58-3.63,21.44-11.23l.37-1.49c1.85-7.6-4.76-15-14.7-16.4L851.64,830.32c-9.93-1.42-19.58,3.63-21.44,11.23l-.37,1.49C828,850.64,834.59,858,844.53,859.44Z"/><line class="cls-30" x1="795.74" y1="847.23" x2="812.44" y2="869.19"/><line class="cls-30" x1="817.78" y1="882.47" x2="843.17" y2="866.13"/><path class="cls-31" d="M809.77,613.3,780.93,615c-8.8.51-8.73-2.26-9.29-9.62l20.77-16.59c-.56-7.36-24-22-15.17-22.56l28.84-1.68c8.8-.51,16.46,5.09,17,12.45l1.67,22C825.32,606.34,818.57,612.78,809.77,613.3Z"/><polyline class="cls-32" points="769.02 611.28 778.95 590.07 810.43 613.33"/><path class="cls-31" d="M822.86,589.36l-28.74,2.45c-8.78.74-16.68-4.65-17.58-12l-2.67-21.94c-.89-7.34,5.55-14,14.33-14.71l28.74-2.45c8.77-.75,16.68,4.65,17.58,12l2.67,21.94C838.08,582,831.63,588.61,822.86,589.36Z"/><path class="cls-31" d="M842.52,554.09H782.18V515.9h51.65l-1.7,12.94,12.35,23C845.05,552.92,844,554.09,842.52,554.09Z"/><ellipse class="cls-33" cx="798.92" cy="514.39" rx="38.77" ry="17.78" transform="translate(-71.29 132.8) rotate(-9.1)"/><ellipse class="cls-33" cx="808.43" cy="537.26" rx="8.04" ry="8.09"/><ellipse class="cls-33" cx="774.14" cy="552.47" rx="17.71" ry="42.23" transform="translate(-69.7 113.78) rotate(-8.05)"/><ellipse class="cls-31" cx="793.61" cy="538.88" rx="8.04" ry="8.09"/><ellipse class="cls-31" cx="835.1" cy="576.02" rx="14.82" ry="11"/><ellipse class="cls-34" cx="831.09" cy="597.47" rx="14.82" ry="11"/><ellipse class="cls-33" cx="765.25" cy="581.27" rx="28.36" ry="16.51"/><path class="cls-28" d="M863.87,699.86c-2.13-17.91,24.4-35,15.59-34.77l-157.21-8.86c-4.1.1-11.48,11.73,1.34,22.47,14.68,12.29,23,21.69,25.71,34l12,60.83c.29,4.46,11.33,4.84,20.73,4.62a7.28,7.28,0,0,1-1.51-3.46l-8.78-68.11c-.7-5.48,5.91-10.33,14.7-10.77l51.94-2.6c8.79-.44,16.56,3.68,17.26,9.17l8.78,68.1a6.42,6.42,0,0,1-.27,2.76c3.24-2.14,5.19-5.21,5-8.56Z"/><path class="cls-29" d="M864.44,770.5l-8.78-68.1c-.7-5.49-8.47-9.61-17.26-9.17l-51.94,2.6c-8.79.44-15.4,5.29-14.7,10.77l8.78,68.11a7.28,7.28,0,0,0,1.51,3.46c2.77,3.64,9,6,15.75,5.7l51.94-2.6c7.28-.37,13-3.75,14.43-8A6.42,6.42,0,0,0,864.44,770.5Z"/><rect class="cls-28" x="821.12" y="737.94" width="16.03" height="1.02" rx="0.43"/><path class="cls-31" d="M740.13,683.72l126.3-6.33c8.79-.44,15.52-6.31,14.94-13l-4.12-48c-.57-6.73-8.25-11.87-17-11.43l-126.29,6.33c-8.8.45-15.53,6.31-14.95,13l4.12,48C723.66,679,731.34,684.17,740.13,683.72Z"/><ellipse class="cls-35" cx="920.53" cy="663.92" rx="16.48" ry="52.48" transform="translate(-90.9 1178.86) rotate(-62.78)"/><ellipse class="cls-35" cx="687.44" cy="683.02" rx="49.67" ry="18.07" transform="translate(-279.26 615.44) rotate(-40.82)"/><path class="cls-29" d="M979.68,694.62l-3.27,8.85c-1.4,3.78-6.6,6-11.55,4.94l-128-27.69c-5-1.07-7.85-5-6.45-8.83l3.27-8.84c1.4-3.79,6.59-6,11.54-4.94L973.23,685.8C978.18,686.87,981.08,690.84,979.68,694.62Z"/><path class="cls-29" d="M651.44,733l-11.54-2.57c-4.94-1.1-7.81-5.09-6.37-8.87l34.38-90.22c1.44-3.77,6.66-6,11.59-4.86L691.05,629c4.94,1.1,7.8,5.09,6.36,8.86L663,728.11C661.6,731.89,656.38,734.08,651.44,733Z"/><path class="cls-29" d="M641.47,737l-7.17-10.94c-2.3-3.51-.42-7.83,4.17-9.59l145.14-55.61c4.6-1.76,10.25-.33,12.55,3.19L803.33,675c2.3,3.52.43,7.84-4.17,9.6L654,740.18C649.42,741.94,643.78,740.5,641.47,737Z"/><path class="cls-29" d="M977.68,697.42l-9.75,5.38c-4.17,2.31-10,1.58-13.06-1.61l-72-76.18c-3-3.19-2.07-7.68,2.1-10l9.75-5.38c4.17-2.31,10-1.58,13.06,1.61l72,76.18C982.79,690.63,981.85,695.12,977.68,697.42Z"/><ellipse class="cls-29" cx="877.46" cy="628.83" rx="38.63" ry="30.13"/><path class="cls-29" d="M668.58,635.65c-.23,17.55,19,31,43,30.14,23.72-.83,43-13.49,43-30.14s-19.24-30.13-43-30.13S668.81,619,668.58,635.65Z"/><path class="cls-28" d="M805.09,627.63l26.67,52a.17.17,0,0,0,.2.07l18.47-6c.05,0,.09-.06.09-.1l1.33-12.17s0,0-.37-1.26l-15.66-49.83c0,5.11-2.7,10.08-2.67,10.22L838.49,644c0,.13-2.61-7-2.67-7.15l-12-25.54a26.13,26.13,0,0,0-4-1l9.35,31.67a15.3,15.3,0,0,1,0,2l-16-28.6c-.07-.13,0-.13,0,0l-1.34,5.11c0,.12,12.1,27.69,12,27.57l-9.35-14.3C814.36,633.63,805,627.5,805.09,627.63Z"/><polygon class="cls-28" points="783.71 625.58 777.03 668.48 785.05 678.7 801.08 681.76 815.78 631.71 804.53 645.96 811.77 615.37 794.4 642.95 801.08 613.33 786.38 640.08 783.71 625.58"/><path class="cls-36" d="M837.15,829.87l-6.68-1L824,830.18,815.78,834c-29.4-12.25-70.81-42.28-70.81-49l16-8.18c5.34-4.08,22.71,11.24,25.38,11.24l66.81-2c8.81,0,24-21,24-14.3l14.69,9.19C891.93,787.58,843.83,829.87,837.15,829.87Z"/><polygon class="cls-6" points="1580.5 91.17 1580.5 93.96 1580.5 94.17 1583.5 94.17 1583.5 93.96 1583.5 91.17 1580.5 91.17"/><polyline class="cls-22" points="244.46 96.4 218.33 98.16 251 172.88"/><rect class="cls-22" x="162.24" y="79.57" width="82.21" height="110.49" rx="12"/><rect class="cls-21" x="147.23" y="87.79" width="82.21" height="110.49" rx="12"/><polyline class="cls-22" points="191.98 79.36 174.46 51 168.13 87.56"/><polyline class="cls-21" points="174.46 51 148.1 94.98 167.08 93.92"/><rect class="cls-34" x="162.41" y="97.16" width="55.33" height="86.5" rx="9.42"/><path class="cls-37" d="M204.13,186.71H176.88c-9.65,0-15.34-9.29-15.34-19.57l.27-55.08a55.06,55.06,0,0,1,1.84-7.09c3.52-5.39,3.83-4.65,9.22-6.21,13.36-3.86,32.55-2.55,36.23,2.12"/><polyline class="cls-20" points="251 172.88 229.39 116.18 221.92 196.4"/><polyline class="cls-21" points="227.28 119.36 206.73 155.4 219.22 197.55"/><polyline class="cls-22" points="246.26 132.61 240.77 128.09 233.39 161.48"/><path class="cls-34" d="M216.35,103.81c.79,3.52-6.69,11.68-17.81,11.49S164,125.46,166,108c.72-6.26,19.3-12.79,29.89-12.88C207,95,215.24,98.89,216.35,103.81Z"/><path class="cls-38" d="M93.26,177.84a84,84,0,0,0,15.48,9.57,87.1,87.1,0,0,0,17.84,6.18q2.31.51,2.31,2.55c0,1.88-1.14,2.81-3.43,2.81q-7.81,0-22-7.83-11.77-6.56-27-20.26v3.49l.08,14.47v8.26H31.09v-3.83l.15-27.75.23-33.19-.15-51.42h30q20.14,0,30.43,1.28a56.22,56.22,0,0,1,17.54,4.77q11.79,5.61,18.65,18.47a52.46,52.46,0,0,1-.74,51.32Q115.78,176.58,93.26,177.84Zm-7.08-5.27,3.57.08q15.36,0,26-9.79A40.08,40.08,0,0,0,126,147.54a46.24,46.24,0,0,0,3.35-17.19,44.28,44.28,0,0,0-8.5-26.64,35.13,35.13,0,0,0-16.25-12.86q-9.77-3.73-27.51-4l-.67,57v15.41l.07,4A101,101,0,0,0,86.18,172.57Z"/><path class="cls-38" d="M306.43,83.19,306,143.54l.45,51.24a43.37,43.37,0,0,0,6.41.6,41.23,41.23,0,0,0,15-3,45.82,45.82,0,0,0,13.57-8.09,54.89,54.89,0,0,0,7.86-8.85,64.17,64.17,0,0,0,6.52-10.81q1.43-3.06,3.06-3.06A2.14,2.14,0,0,1,361.3,164q0,2.55-3.69,8.64a72.15,72.15,0,0,1-8.1,10.94A50.81,50.81,0,0,1,327,198.1a49,49,0,0,1-14.93,2.47,47.66,47.66,0,0,1-21-5.11q-16.86-8.09-25.68-25.62a69,69,0,0,1,.3-62.39,56.83,56.83,0,0,1,23-24.09,47.67,47.67,0,0,1,23.36-6q21.51,0,37.18,16.6,7.47,7.92,7.47,11.41a2.38,2.38,0,0,1-.75,1.7,2.24,2.24,0,0,1-1.64.77q-1.49,0-3.57-3.32a47,47,0,0,0-16.93-16,44.65,44.65,0,0,0-22.21-5.91A22.5,22.5,0,0,0,306.43,83.19Z"/><path class="cls-38" d="M434,105.37l11.13,25.7q9.63,22.13,16.8,37.62t10.68,21.61q2.16,3.91,2.22,5.18,0,3.22-3.88,3.22a2.74,2.74,0,0,1-2.5-1.24q-.78-1.23-3.92-8.64l-4.63-11-7.32-17.28-6.79-16-5-11.67-10.82-25.11-13.66,9.37-.07,12.6v8.43l.43,54.64.09,4.26H370.93l.45-72.69-.15-20.68-.3-18.13V80.89H416.7l-.36,13.61-.09,16.5L429,102.33q10.83-7.31,19.26-13.8t10.91-7.81a8.74,8.74,0,0,1,4.48-1.44c2.64,0,3.95.93,3.95,2.81a3.13,3.13,0,0,1-1.08,2.42,31.57,31.57,0,0,1-5,3.13q-4.71,2.55-20.82,13.3Z"/><path class="cls-38" d="M480.31,177.33c.89,0,1.94.77,3.13,2.3a42.5,42.5,0,0,0,13.7,11.19,34.51,34.51,0,0,0,16,4.22q8.73,0,8.73-6,0-3.83-3.06-8.64t-14.63-19q-14.56-18-19.41-26.64-6.44-11.49-6.42-21.88a31.54,31.54,0,0,1,12.24-25.62q12-9.78,29.64-9.79a46,46,0,0,1,22.62,5.71,29.76,29.76,0,0,1,6.68,5.1q2.81,2.9,2.8,4.86a2.48,2.48,0,0,1-.78,1.74,2.28,2.28,0,0,1-1.61.81q-1.28,0-3.73-2.64a31.19,31.19,0,0,0-10.6-7.19A31.69,31.69,0,0,0,523,82.94a9.59,9.59,0,0,0-6.08,1.83,5.71,5.71,0,0,0-2.36,4.72q0,3.49,2.91,8.52a105.24,105.24,0,0,0,9.85,13.36q22,26.64,26.89,35.92,5.14,9.78,5.15,18.89a30.74,30.74,0,0,1-3.66,14.64,31.19,31.19,0,0,1-10.15,11.32q-12.4,8.43-30.24,8.43a45.75,45.75,0,0,1-28.89-9.7q-8.74-6.81-8.74-10.64a2.91,2.91,0,0,1,.79-2A2.36,2.36,0,0,1,480.31,177.33Z"/><path class="cls-38" d="M612.52,104.9a23.93,23.93,0,0,1-9.07,8.21,27.21,27.21,0,0,1-12.58,2.77,22.54,22.54,0,0,1-13.43-4.09q-6.95-4.85-7-13.87A18.29,18.29,0,0,1,575,85.58q7-8.17,18.59-8.18,10.53,0,17,6.81,6.27,6.65,6.27,18a33.51,33.51,0,0,1-2.68,13.45,24,24,0,0,1-7.54,9.88q-7.1,5.53-19.49,5.53-5.52,0-5.52-2.64,0-2,2.76-2l2.39.08a12.41,12.41,0,0,0,1.49.09,28.86,28.86,0,0,0,13.07-2.64q6.64-3.31,9.63-11.41A54.52,54.52,0,0,0,612.52,104.9Z"/><path class="cls-38" d="M723.69,137.47V123.24l-.15-22.58-.07-10.31-.08-6.47q0-4.6,2.76-4.6a2.42,2.42,0,0,1,2.28,1.06,8.82,8.82,0,0,1,.63,4v1.2c0,1.19-.07,3.15-.07,5.87l-.3,28.68-.22,26.3.19,27.67.26,27.75q-15.39-11-45-30.36t-48-30.45l.08,4.18.74,43.94.08,5.88q0,3.66-3,3.66c-2,0-3.06-1.51-3.06-4.51l.08-6,.07-9.62.3-43.67-.6-58.81Q660.86,97.51,723.69,137.47Z"/><path class="cls-38" d="M865.69,146.52a30.38,30.38,0,0,1,8,9.66,24.58,24.58,0,0,1,2.65,11.28,28.15,28.15,0,0,1-6.64,18q-8.15,10.22-24.49,11.07-9,.51-25.38.51h-37l.08-4,.15-16.51.22-32.52-.3-35.41-.15-27.75h40q15,0,20.64.56a48.75,48.75,0,0,1,11.61,2.68A41.44,41.44,0,0,1,867,90.85a35.14,35.14,0,0,1,8.59,9.71A36.24,36.24,0,0,1,880.4,119a34.58,34.58,0,0,1-4,16.59A25.16,25.16,0,0,1,865.69,146.52Zm-6.05,2.21a25.87,25.87,0,0,1-6,.77,18.13,18.13,0,0,1-9.52-2.21c-2.42-1.48-3.62-3.41-3.62-5.79,0-1.31.4-2,1.19-2a5.69,5.69,0,0,1,2.47.85,21.91,21.91,0,0,0,11.19,3q11,0,16.58-9.87a27.92,27.92,0,0,0,3.58-14.22,29.14,29.14,0,0,0-8.28-20.85,34.28,34.28,0,0,0-14.08-9.11q-8.17-2.8-20.49-2.81h-4.11l-.45,51.07.45,53.88,6.72.09q11.13,0,17.32-1.41a24.23,24.23,0,0,0,10.31-4.81,22.57,22.57,0,0,0,8.51-18,18.62,18.62,0,0,0-3-10.17A28,28,0,0,0,859.64,148.73Z"/><path class="cls-38" d="M941,73.91l59.69,123.17H948.9l-7.22-15.58h-25l-22-.08-3.72-.09L886,191.73a40.15,40.15,0,0,1-3,5.83,2.59,2.59,0,0,1-2.14,1.14,2.26,2.26,0,0,1-2.55-2.56,12.19,12.19,0,0,1,1.45-4.12q1.46-3,10.2-19.88l45.19-86.73Zm-23.23,55.92-13,25-10.43,20.61,22.26.34,22.34-.34Z"/><path class="cls-38" d="M1099,137.47V123.24l-.15-22.58-.07-10.31-.08-6.47q0-4.6,2.77-4.6a2.41,2.41,0,0,1,2.27,1.06,8.65,8.65,0,0,1,.64,4v1.2c0,1.19-.08,3.15-.08,5.87l-.3,28.68-.22,26.3.19,27.67.26,27.75q-15.39-11-45-30.36t-48-30.45l.07,4.18.75,43.94.07,5.88q0,3.66-3,3.66c-2,0-3.06-1.51-3.06-4.51l.08-6,.07-9.62.3-43.67-.6-58.81Q1036.16,97.51,1099,137.47Z"/><path class="cls-38" d="M1173.46,73.91l59.69,123.17h-51.77l-7.21-15.58h-25l-22-.08-3.72-.09-4.92,10.4a41.61,41.61,0,0,1-3,5.83,2.61,2.61,0,0,1-2.15,1.14,2.26,2.26,0,0,1-2.55-2.56,12.43,12.43,0,0,1,1.45-4.12q1.46-3,10.2-19.88l45.2-86.73Zm-23.22,55.92-13,25-10.44,20.61,22.27.34,22.34-.34Z"/><path class="cls-38" d="M1331.48,137.47V123.24l-.15-22.58-.08-10.31-.07-6.47q0-4.6,2.76-4.6a2.44,2.44,0,0,1,2.28,1.06,8.82,8.82,0,0,1,.63,4v1.2c0,1.19-.07,3.15-.07,5.87l-.3,28.68-.23,26.3.2,27.67.25,27.75q-15.37-11-45-30.36t-48-30.45l.07,4.18.75,43.94.07,5.88q0,3.66-3,3.66c-2,0-3.06-1.51-3.06-4.51l.07-6,.08-9.62.3-43.67-.6-58.81Q1268.63,97.51,1331.48,137.47Z"/><path class="cls-38" d="M1406,73.91l59.68,123.17h-51.77l-7.21-15.58h-25l-22-.08-3.72-.09-4.92,10.4a40.5,40.5,0,0,1-3,5.83,2.6,2.6,0,0,1-2.14,1.14,2.26,2.26,0,0,1-2.56-2.56,12.29,12.29,0,0,1,1.46-4.12q1.45-3,10.19-19.88l45.2-86.73Zm-23.23,55.92-13,25-10.44,20.61,22.27.34,22.34-.34Z"/><path class="cls-38" d="M1471.38,177.33c.9,0,1.95.77,3.14,2.3a42.5,42.5,0,0,0,13.7,11.19,34.5,34.5,0,0,0,16,4.22q8.74,0,8.74-6,0-3.83-3.06-8.64t-14.63-19q-14.57-18-19.42-26.64-6.42-11.49-6.42-21.88a31.52,31.52,0,0,1,12.25-25.62q12-9.78,29.64-9.79A46,46,0,0,1,1534,83.11a30,30,0,0,1,6.68,5.1q2.8,2.9,2.8,4.86a2.45,2.45,0,0,1-.79,1.74,2.24,2.24,0,0,1-1.6.81q-1.27,0-3.73-2.64a31.29,31.29,0,0,0-10.6-7.19,31.69,31.69,0,0,0-12.62-2.85,9.64,9.64,0,0,0-6.09,1.83,5.73,5.73,0,0,0-2.35,4.72q0,3.49,2.91,8.52a105.24,105.24,0,0,0,9.85,13.36q22,26.64,26.88,35.92,5.16,9.78,5.16,18.89a30.74,30.74,0,0,1-3.66,14.64,31.21,31.21,0,0,1-10.16,11.32q-12.39,8.43-30.23,8.43a45.75,45.75,0,0,1-28.89-9.7q-8.74-6.81-8.74-10.64a3,3,0,0,1,.78-2A2.39,2.39,0,0,1,1471.38,177.33Z"/><ellipse class="cls-39" cx="1240.53" cy="477.2" rx="206.66" ry="131.4"/><path class="cls-39" d="M1036.86,501.38s4.77,67.72-38.23,48.37c-36.89-16.59,4.24,15.17,19.75,28.67a8.51,8.51,0,0,0,8.48,1.9,2.92,2.92,0,0,1,.71-.16l64.24-12.67"/><path d="M1168.21,397.94a2.25,2.25,0,0,1-.53,1.54,1.75,1.75,0,0,1-1.36.6h-7.4a1.71,1.71,0,0,1-1.35-.6,2.24,2.24,0,0,1-.52-1.54V372.09a2.24,2.24,0,0,1,.52-1.54,1.71,1.71,0,0,1,1.35-.6h7.4a1.75,1.75,0,0,1,1.36.6,2.25,2.25,0,0,1,.53,1.54Zm-2.35-.23V372.32h-6.46v25.39Z"/><path d="M1181.6,400.08h-2.25V383.64l-4.94.15v16.29h-2.25V370h2.25v11.92l2.66-.39a20.45,20.45,0,0,1,2.65-.25c1.25,0,1.88.7,1.88,2.1Z"/><path d="M1203.33,400.08H1201V385.6h-6.36v14.48h-2.35V370h2.35V383.2H1201V370h2.35Z"/><path d="M1216.56,400.08h-2.21v-.52l-2.66.4a19.26,19.26,0,0,1-2.66.23c-1.22,0-1.84-.69-1.84-2.08v-6.83c0-1.44.64-2.16,1.91-2.16h5.29v-5.64h-4.83v3.2h-2.18v-3.16c0-1.45.63-2.17,1.89-2.17h5.4c1.26,0,1.89.72,1.89,2.17Zm-2.17-2.33v-6.62h-5v6.73Z"/><path d="M1222.59,400.08h-2.21V370h2.21Z"/><path d="M1228.75,400.08h-2.21V370h2.21Z"/><path d="M1242,397.9c0,1.45-.64,2.18-1.91,2.18h-5.64c-1.26,0-1.89-.73-1.89-2.18V383.52c0-1.45.63-2.17,1.89-2.17h5.64c1.27,0,1.91.72,1.91,2.17Zm-2.25-.07V383.6h-5v14.23Z"/><path d="M1248.57,370l-.52,23.35h-1.55L1246,370Zm0,30.13H1246v-3.39h2.53Z"/><path d="M1268.85,400.08h-2.35V370h2.35Z"/><path d="M1289.5,400.08h-2.25V383.64l-4.89.15v16.29h-2.23V383.64l-4.9.15v16.29H1273V381.35h2.24v.52l2.64-.41a19.87,19.87,0,0,1,2.65-.23,1.74,1.74,0,0,1,1.52.71c.94-.14,1.88-.28,2.82-.44a20.76,20.76,0,0,1,2.78-.27q1.86,0,1.86,2.1Z"/><path d="M1311.21,400.08h-2.58l-6.1-14.48v14.48h-2.34V370h2.34v13.53l5.54-13.53h2.55v.18l-6,14.34Z"/><path d="M1322.4,397.9c0,1.45-.62,2.18-1.89,2.18h-5.4c-1.26,0-1.89-.73-1.89-2.18V383.52c0-1.45.63-2.17,1.89-2.17h5.4c1.27,0,1.89.72,1.89,2.17v6.74l-.76.91h-6.24v6.77h4.83v-3.43h2.17Zm-2.17-8.78v-5.64h-4.83v5.64Z"/><path d="M1335.56,400.08h-2.25V383.64l-4.94.15v16.29h-2.25V381.35h2.25v.52l2.65-.41a20.14,20.14,0,0,1,2.66-.23c1.25,0,1.88.7,1.88,2.1Z"/><path d="M1125.68,447.38h-2.35V417.26h2.35Z"/><path d="M1146.33,447.38h-2.25V430.94l-4.89.16v16.28H1137V430.94l-4.9.16v16.28h-2.24V428.65h2.24v.52c.88-.12,1.76-.26,2.64-.4a19.87,19.87,0,0,1,2.65-.23,1.73,1.73,0,0,1,1.52.71l2.82-.44a20.76,20.76,0,0,1,2.78-.27q1.86,0,1.86,2.1Z"/><path d="M1166.19,445.21c0,1.45-.64,2.17-1.91,2.17h-5.64c-1.26,0-1.89-.72-1.89-2.17V430.83c0-1.45.63-2.18,1.89-2.18h5.64c1.27,0,1.91.73,1.91,2.18Zm-2.25-.08V430.91h-5v14.22Z"/><path d="M1176.06,419.51h-3.17v9.14h2.8v2.26h-2.8v16.47h-2.21V430.91h-1.91v-2.26h1.91v-9.22c0-1.45.62-2.17,1.89-2.17h3.49Z"/><path d="M1194.28,445.21c0,1.45-.64,2.17-1.91,2.17h-5.64c-1.26,0-1.89-.72-1.89-2.17V430.83c0-1.45.63-2.18,1.89-2.18h5.64c1.27,0,1.91.73,1.91,2.18Zm-2.25-.08V430.91h-4.94v14.22Z"/><path d="M1207.38,447.38h-2.25V430.94l-4.94.16v16.28h-2.25V428.65h2.25v.52c.87-.12,1.76-.26,2.65-.4a20.27,20.27,0,0,1,2.67-.23c1.24,0,1.87.7,1.87,2.1Z"/><path d="M1227.06,447.38h-2.21v-.52l-2.66.41a21,21,0,0,1-2.65.23c-1.23,0-1.84-.69-1.84-2.08v-6.83c0-1.44.63-2.16,1.9-2.16h5.29v-5.64h-4.83V434h-2.18v-3.16c0-1.45.63-2.18,1.89-2.18h5.4c1.26,0,1.89.73,1.89,2.18Zm-2.17-2.33v-6.62h-5v6.74Z"/><path d="M1247,443.36a4.27,4.27,0,0,1-1,2.88,3.19,3.19,0,0,1-2.5,1.14h-5.94V417.26h2.24v11.91l2.67-.38a18.68,18.68,0,0,1,2.65-.25c1.25,0,1.87.7,1.87,2.1Zm-2.24-.38v-12l-5,.16v14h3.11C1244.09,445.13,1244.71,444.41,1244.71,443Z"/><path d="M1260,447.38h-2.21v-.52l-2.68.41a20.53,20.53,0,0,1-2.69.23c-1.22,0-1.82-.69-1.82-2.08V428.65h2.21v16.44l5-.15V428.65H1260Z"/><path d="M1272.53,445.21c0,1.45-.64,2.17-1.91,2.17h-5.15c-1.27,0-1.9-.72-1.9-2.17V441h2.21v4.22h4.54v-3.73l-5.88-5.49a2.58,2.58,0,0,1-.84-2v-3.12c0-1.45.64-2.18,1.91-2.18h5.08c1.27,0,1.91.73,1.91,2.18v3.73h-2.18v-3.69h-4.54v3.27l5.92,5.49a2.59,2.59,0,0,1,.83,2Z"/><path d="M1278.47,424.55h-2.27v-3.23h2.27Zm0,22.83h-2.21V428.65h2.21Z"/><path d="M1291.7,447.38h-2.25V430.94l-5,.16v16.28h-2.24V428.65h2.24v.52c.88-.12,1.76-.26,2.65-.4a20.27,20.27,0,0,1,2.67-.23c1.25,0,1.88.7,1.88,2.1Z"/><path d="M1304.51,445.21c0,1.45-.63,2.17-1.89,2.17h-5.41c-1.25,0-1.89-.72-1.89-2.17V430.83c0-1.45.64-2.18,1.89-2.18h5.41c1.26,0,1.89.73,1.89,2.18v6.74l-.76.9h-6.25v6.78h4.83v-3.43h2.18Zm-2.18-8.78v-5.64h-4.83v5.64Z"/><path d="M1317.07,445.21c0,1.45-.64,2.17-1.91,2.17H1310c-1.27,0-1.91-.72-1.91-2.17V441h2.22v4.22h4.54v-3.73L1309,436a2.58,2.58,0,0,1-.84-2v-3.12c0-1.45.63-2.18,1.91-2.18h5.08c1.27,0,1.91.73,1.91,2.18v3.73h-2.18v-3.69h-4.54v3.27l5.92,5.49a2.62,2.62,0,0,1,.83,2Z"/><path d="M1329.48,445.21c0,1.45-.64,2.17-1.91,2.17h-5.15c-1.27,0-1.91-.72-1.91-2.17V441h2.21v4.22h4.55v-3.73l-5.88-5.49a2.58,2.58,0,0,1-.84-2v-3.12c0-1.45.63-2.18,1.91-2.18h5.08c1.27,0,1.91.73,1.91,2.18v3.73h-2.18v-3.69h-4.55v3.27l5.93,5.49a2.62,2.62,0,0,1,.83,2Z"/><path d="M1345.72,447.38h-3.19c-1.26,0-1.89-.72-1.89-2.17v-14.3h-2v-2.26h2v-5.83h2.21v5.83h2.87v2.26h-2.87v14.22h2.87Z"/><path d="M1357.18,434.81H1355v-3.87l-4.13.16v16.28h-2.25V428.65h2.25v.52c.74-.12,1.49-.26,2.24-.4a14.23,14.23,0,0,1,2.25-.23c1.23,0,1.85.7,1.85,2.1Z"/><path d="M1362.42,424.55h-2.28v-3.23h2.28Zm0,22.83h-2.21V428.65h2.21Z"/><path d="M1375.64,443.36a4.23,4.23,0,0,1-1,2.88,3.18,3.18,0,0,1-2.5,1.14h-3.69v7.11h-2.25V428.65h2.25v.52l2.66-.38a18.8,18.8,0,0,1,2.65-.25c1.25,0,1.88.7,1.88,2.1Zm-2.25-.38v-12l-4.94.16v14h3.1C1372.78,445.13,1373.39,444.41,1373.39,443Z"/><path d="M1381.55,447.38H1379V444h2.57Z"/><path d="M1134.26,494.69h-2.35V480.21h-6.36v14.48h-2.35V464.56h2.35v13.25h6.36V464.56h2.35Z"/><path d="M1147.65,492.51c0,1.45-.64,2.18-1.91,2.18h-5.64c-1.26,0-1.89-.73-1.89-2.18V478.13c0-1.45.63-2.17,1.89-2.17h5.64c1.27,0,1.91.72,1.91,2.17Zm-2.25-.07V478.21h-4.94v14.23Z"/><path d="M1166,476l-3.39,18.77h-2l-2.42-14.23-2.41,14.23h-2L1150.4,476h2.11l2.31,14.44,2.4-14.44h2l2.4,14.44,2.31-14.44Z"/><path d="M1177.92,471.86h-2.28v-3.23h2.28Zm0,22.83h-2.21V476h2.21Z"/><path d="M1190.55,492.51c0,1.45-.64,2.18-1.91,2.18h-5.15c-1.27,0-1.91-.73-1.91-2.18v-4.25h2.21v4.21h4.55v-3.73l-5.88-5.49a2.58,2.58,0,0,1-.84-2v-3.12c0-1.45.63-2.17,1.9-2.17h5.09c1.27,0,1.9.72,1.9,2.17v3.74h-2.17v-3.7h-4.55v3.28l5.93,5.48a2.62,2.62,0,0,1,.83,2Z"/><path d="M1210.06,492.51c0,1.45-.63,2.18-1.89,2.18h-5.4c-1.26,0-1.89-.73-1.89-2.18V478.13c0-1.45.63-2.17,1.89-2.17h5.4c1.26,0,1.89.72,1.89,2.17v6.74l-.76.91h-6.24v6.77h4.83v-3.42h2.17Zm-2.17-8.77V478.1h-4.83v5.64Z"/><path d="M1223,476,1219,494.73h-2L1212.83,476h2.32l2.8,14.74,2.84-14.74Z"/><path d="M1235,492.51c0,1.45-.63,2.18-1.89,2.18h-5.41c-1.26,0-1.89-.73-1.89-2.18V478.13c0-1.45.63-2.17,1.89-2.17h5.41c1.26,0,1.89.72,1.89,2.17v6.74l-.76.91H1228v6.77h4.83v-3.42H1235Zm-2.18-8.77V478.1H1228v5.64Z"/><path d="M1247.27,482.12h-2.21v-3.87l-4.13.15v16.29h-2.25V476h2.25v.52l2.24-.4a13.29,13.29,0,0,1,2.25-.24c1.23,0,1.85.7,1.85,2.1Z"/><path d="M1259.38,476l-4,18.57-1.64,7.26h-2.21l1.65-7.26-4-18.57h2.32l2.8,14.74,2.83-14.74Z"/><path d="M1268,494.69h-3.19c-1.26,0-1.89-.73-1.89-2.18v-14.3h-2V476h2v-5.83h2.21V476H1268v2.25h-2.87v14.23H1268Z"/><path d="M1280.35,494.69h-2.25V478.25l-4.94.15v16.29h-2.25V464.56h2.25v11.92l2.66-.39a20.45,20.45,0,0,1,2.65-.25c1.25,0,1.88.7,1.88,2.1Z"/><path d="M1286.36,471.86h-2.28v-3.23h2.28Zm0,22.83h-2.22V476h2.22Z"/><path d="M1299.58,494.69h-2.25V478.25l-4.94.15v16.29h-2.25V476h2.25v.52l2.65-.4a18.91,18.91,0,0,1,2.67-.24c1.24,0,1.87.7,1.87,2.1Z"/><path d="M1312.54,499.62c0,1.45-.63,2.17-1.9,2.17h-5.34c-1.29,0-1.94-.92-1.94-2.75,0-.22,0-.54,0-1s0-.74,0-.94h2.21v2.49h4.7v-4.93h-3.7a3.17,3.17,0,0,1-2.5-1.15,4.23,4.23,0,0,1-1-2.87v-11A4.34,4.34,0,0,1,1304,477a2.82,2.82,0,0,1,2.32-1.11c.25,0,1.59.22,4,.64V476h2.22Zm-2.22-7.18V478.29c-1.78-.13-2.82-.19-3.11-.19-1.24,0-1.86.71-1.86,2.15v10q0,2.16,1.86,2.16Z"/><path d="M1332.45,492.51c0,1.45-.64,2.18-1.91,2.18h-5.64c-1.26,0-1.89-.73-1.89-2.18V478.13c0-1.45.63-2.17,1.89-2.17h5.64c1.27,0,1.91.72,1.91,2.17Zm-2.24-.07V478.21h-5v14.23Z"/><path d="M1345.55,494.69h-2.24V478.25l-5,.15v16.29h-2.25V476h2.25v.52l2.65-.4a18.91,18.91,0,0,1,2.67-.24c1.25,0,1.87.7,1.87,2.1Z"/><path d="M1361.86,494.69h-3.19c-1.26,0-1.89-.73-1.89-2.18v-14.3h-2V476h2v-5.83H1359V476h2.87v2.25H1359v14.23h2.87Z"/><path d="M1374.17,494.69h-2.25V478.25l-4.94.15v16.29h-2.25V464.56H1367v11.92l2.66-.39a20.45,20.45,0,0,1,2.65-.25c1.25,0,1.88.7,1.88,2.1Z"/><path d="M1387,492.51c0,1.45-.63,2.18-1.89,2.18h-5.4c-1.26,0-1.89-.73-1.89-2.18V478.13c0-1.45.63-2.17,1.89-2.17h5.4c1.26,0,1.89.72,1.89,2.17v6.74l-.76.91H1380v6.77h4.82v-3.42H1387Zm-2.18-8.77V478.1H1380v5.64Z"/><path d="M1133.79,539.86a2.25,2.25,0,0,1-.53,1.54,1.74,1.74,0,0,1-1.35.59h-8.71V511.87h8.64a1.73,1.73,0,0,1,1.36.6,2.28,2.28,0,0,1,.52,1.54v9a2.54,2.54,0,0,1-1,2l-1.85,1.27,2,1.46a2.21,2.21,0,0,1,.88,1.93Zm-2.44-16.56v-9.06h-5.8v10.87H1129Zm.07,16.33V529.21l-2.38-1.77h-3.49v12.19Z"/><path d="M1146.9,542h-2.21v-.52c-.89.15-1.78.28-2.66.41a21,21,0,0,1-2.66.23c-1.22,0-1.84-.69-1.84-2.08V533.2c0-1.44.64-2.16,1.91-2.16h5.29V525.4h-4.83v3.2h-2.18v-3.16c0-1.45.63-2.17,1.89-2.17h5.4c1.26,0,1.89.72,1.89,2.17Zm-2.17-2.32V533h-5v6.74Z"/><path d="M1160,542h-2.24V525.56l-5,.15V542h-2.25V523.27h2.25v.52l2.65-.41a20.27,20.27,0,0,1,2.67-.23c1.25,0,1.87.7,1.87,2.1Z"/><path d="M1172.94,542h-2.21v-.52c-.89.15-1.78.28-2.67.41a20.85,20.85,0,0,1-2.65.23c-1.23,0-1.84-.69-1.84-2.08V533.2c0-1.44.63-2.16,1.91-2.16h5.28V525.4h-4.83v3.2h-2.18v-3.16c0-1.45.63-2.17,1.89-2.17h5.41c1.26,0,1.89.72,1.89,2.17Zm-2.18-2.32V533h-5v6.74Z"/><path d="M1186.06,542h-2.25V525.56l-5,.15V542h-2.24V523.27h2.24v.52l2.65-.41a20.4,20.4,0,0,1,2.67-.23c1.25,0,1.88.7,1.88,2.1Z"/><path d="M1199,542h-2.21v-.52c-.89.15-1.78.28-2.67.41a20.71,20.71,0,0,1-2.65.23c-1.23,0-1.84-.69-1.84-2.08V533.2c0-1.44.64-2.16,1.91-2.16h5.28V525.4H1192v3.2h-2.17v-3.16c0-1.45.63-2.17,1.89-2.17h5.4c1.26,0,1.89.72,1.89,2.17Zm-2.18-2.32V533h-5v6.74Z"/><path d="M1218.86,538a4.19,4.19,0,0,1-1,2.88,3.16,3.16,0,0,1-2.49,1.14h-3.7v7.11h-2.25V523.27h2.25v.52l2.66-.39a18.79,18.79,0,0,1,2.66-.25c1.24,0,1.87.7,1.87,2.1Zm-2.25-.38v-12l-4.94.15v14h3.1C1216,539.74,1216.61,539,1216.61,537.59Z"/><path d="M1224.8,542h-2.21V511.87h2.21Z"/><path d="M1237.9,542h-2.21v-.52c-.89.15-1.78.28-2.66.41a21,21,0,0,1-2.66.23c-1.22,0-1.84-.69-1.84-2.08V533.2c0-1.44.64-2.16,1.91-2.16h5.29V525.4h-4.83v3.2h-2.18v-3.16c0-1.45.63-2.17,1.89-2.17h5.4c1.26,0,1.89.72,1.89,2.17Zm-2.17-2.32V533h-5v6.74Z"/><path d="M1251,542h-2.24V525.56l-5,.15V542h-2.25V523.27h2.25v.52l2.65-.41a20.27,20.27,0,0,1,2.67-.23c1.25,0,1.87.7,1.87,2.1Z"/><path d="M1260.56,542h-3.19c-1.26,0-1.89-.72-1.89-2.17v-14.3h-2v-2.25h2v-5.84h2.21v5.84h2.87v2.25h-2.87v14.22h2.87Z"/><path d="M1272.72,542h-2.21v-.52c-.89.15-1.78.28-2.67.41a21,21,0,0,1-2.65.23c-1.23,0-1.84-.69-1.84-2.08V533.2c0-1.44.63-2.16,1.91-2.16h5.28V525.4h-4.83v3.2h-2.18v-3.16c0-1.45.63-2.17,1.89-2.17h5.41c1.26,0,1.89.72,1.89,2.17Zm-2.18-2.32V533h-5v6.74Z"/><path d="M1282.31,542h-3.19c-1.26,0-1.89-.72-1.89-2.17v-14.3h-2v-2.25h2v-5.84h2.21v5.84h2.87v2.25h-2.87v14.22h2.87Z"/><path d="M1287.56,519.17h-2.28v-3.24h2.28Zm0,22.82h-2.22V523.27h2.22Z"/><path d="M1300.78,539.82c0,1.45-.64,2.17-1.91,2.17h-5.64c-1.26,0-1.89-.72-1.89-2.17V525.44c0-1.45.63-2.17,1.89-2.17h5.64c1.27,0,1.91.72,1.91,2.17Zm-2.25-.08V525.52h-4.94v14.22Z"/><path d="M1313.88,542h-2.25V525.56l-4.94.15V542h-2.25V523.27h2.25v.52l2.65-.41a20.27,20.27,0,0,1,2.67-.23c1.24,0,1.87.7,1.87,2.1Z"/><path d="M1319.82,542h-2.56v-3.38h2.56Z"/><path d="M1325.56,542H1323v-3.38h2.56Z"/><path d="M1331.3,542h-2.56v-3.38h2.56Z"/><path d="M1344.5,520.78a4,4,0,0,1-.52,2.06l-3.44,6v6.39h-2.37v-5.76a4.12,4.12,0,0,1,.49-2.09l3.5-6v-7.18h-5.4V521h-2.35v-7a2.19,2.19,0,0,1,.54-1.54,1.77,1.77,0,0,1,1.37-.6h6.28a1.74,1.74,0,0,1,1.37.6,2.19,2.19,0,0,1,.53,1.54ZM1340.64,542h-2.57v-3.38h2.57Z"/><path d="M1174.71,583.85a5.64,5.64,0,0,1-1.38,3.92,4.44,4.44,0,0,1-3.46,1.53h-6V559.18h6a4.45,4.45,0,0,1,3.47,1.53,5.65,5.65,0,0,1,1.37,3.91Zm-2.35-.27V564.85a3.44,3.44,0,0,0-.82-2.39,2.7,2.7,0,0,0-2.11-.92h-3.26v25.39h3.12a3,3,0,0,0,2.22-.89A3.42,3.42,0,0,0,1172.36,583.58Z"/><path d="M1188,587.13c0,1.45-.64,2.17-1.91,2.17h-5.64c-1.26,0-1.89-.72-1.89-2.17V572.75c0-1.45.63-2.18,1.89-2.18h5.64c1.27,0,1.91.73,1.91,2.18Zm-2.25-.08V572.82h-5v14.23Z"/><path d="M1194,566.47h-2.28v-3.23H1194Zm0,22.83h-2.21V570.57H1194Z"/><path d="M1207.26,589.3H1205V572.86l-5,.16V589.3h-2.25V570.57h2.25v.52l2.65-.4a18.68,18.68,0,0,1,2.67-.23c1.25,0,1.87.7,1.87,2.09Z"/><path d="M1220.23,594.23c0,1.45-.64,2.17-1.91,2.17H1213c-1.29,0-1.94-.91-1.94-2.75,0-.22,0-.54,0-1s0-.74,0-.94h2.22v2.49H1218V589.3h-3.7a3.17,3.17,0,0,1-2.5-1.15,4.23,4.23,0,0,1-1-2.87v-11a4.28,4.28,0,0,1,.88-2.76,2.78,2.78,0,0,1,2.31-1.1c.26,0,1.59.21,4,.63v-.52h2.23Zm-2.23-7.18V572.9c-1.78-.13-2.81-.19-3.11-.19-1.24,0-1.85.72-1.85,2.15v10c0,1.44.61,2.16,1.85,2.16Z"/><path d="M1236.91,561.43h-3.18v9.14h2.81v2.25h-2.81V589.3h-2.21V572.82h-1.9v-2.25h1.9v-9.22c0-1.45.63-2.17,1.89-2.17h3.5Z"/><path d="M1241.3,566.47H1239v-3.23h2.28Zm0,22.83h-2.21V570.57h2.21Z"/><path d="M1254.52,589.3h-2.25V572.86l-4.94.16V589.3h-2.25V570.57h2.25v.52l2.65-.4a18.67,18.67,0,0,1,2.66-.23c1.25,0,1.88.7,1.88,2.09Z"/><path d="M1267.33,587.13c0,1.45-.63,2.17-1.89,2.17H1260c-1.26,0-1.89-.72-1.89-2.17V572.75c0-1.45.63-2.18,1.89-2.18h5.4c1.26,0,1.89.73,1.89,2.18v6.73l-.76.91h-6.24v6.77h4.82v-3.42h2.18Zm-2.18-8.78v-5.64h-4.82v5.64Z"/><path d="M1273.36,589.3h-2.57v-3.39h2.57Z"/><path d="M1279.1,589.3h-2.57v-3.39h2.57Z"/><path d="M1284.84,589.3h-2.57v-3.39h2.57Z"/><path d="M1298,568.09a4,4,0,0,1-.52,2.06l-3.45,6v6.39h-2.36v-5.75a4,4,0,0,1,.49-2.1l3.5-5.95v-7.18h-5.41v6.78H1288v-7a2.21,2.21,0,0,1,.54-1.54,1.77,1.77,0,0,1,1.36-.59h6.28a1.77,1.77,0,0,1,1.38.59,2.2,2.2,0,0,1,.53,1.54Zm-3.86,21.21h-2.57v-3.39h2.57Z"/><path d="M1311.24,568.09a4,4,0,0,1-.52,2.06l-3.44,6v6.39h-2.37v-5.75a4.13,4.13,0,0,1,.49-2.1l3.5-5.95v-7.18h-5.4v6.78h-2.35v-7a2.21,2.21,0,0,1,.54-1.54,1.79,1.79,0,0,1,1.37-.59h6.28a1.76,1.76,0,0,1,1.37.59,2.2,2.2,0,0,1,.53,1.54Zm-3.86,21.21h-2.57v-3.39h2.57Z"/><path d="M1324.45,568.09a4,4,0,0,1-.53,2.06l-3.44,6v6.39h-2.36v-5.75a4,4,0,0,1,.49-2.1l3.49-5.95v-7.18h-5.4v6.78h-2.35v-7a2.21,2.21,0,0,1,.54-1.54,1.79,1.79,0,0,1,1.37-.59h6.28a1.8,1.8,0,0,1,1.38.59,2.25,2.25,0,0,1,.53,1.54Zm-3.87,21.21H1318v-3.39h2.56Z"/><polygon class="cls-40" points="602.47 482.31 599.15 480.5 596.55 483.79 596.36 478.24 593.42 475.01 596.62 473.4 597.41 468.11 599.58 472.66 603 472.62 601.14 477.05 602.47 482.31"/><path class="cls-41" d="M599.53,476.77c5.36,5.6.51,31.79-20.69,58-20.55,25.93-57.47,51.88-101.42,50.6-44,.49-80.6-26-101.2-51.85-21.21-26.18-26.41-51.76-21.64-56.74,5.43-6.32,20,5.64,41.34,16.91,21.29,11.6,49.36,22.49,80.77,21.81,31.45-.11,59.22-11.53,80.56-23.06C578.6,481.19,593.51,469.83,599.53,476.77Z"/><path class="cls-41" d="M599.53,476.77c5.36,5.6.51,31.79-20.69,58-20.55,25.93-57.47,51.88-101.42,50.6-44,.49-80.6-26-101.2-51.85-21.21-26.18-26.41-51.76-21.64-56.74,5.43-6.32,20,5.64,41.34,16.91,21.29,11.6,49.36,22.49,80.77,21.81,31.45-.11,59.22-11.53,80.56-23.06C578.6,481.19,593.51,469.83,599.53,476.77Z"/><path class="cls-42" d="M476.63,557.9c45.68,1.27,84-24.68,105.41-50.6A117.59,117.59,0,0,0,600.38,478a5.3,5.3,0,0,0-.85-1.24c-6-6.94-20.93,4.42-42.28,15.66-21.34,11.53-49.11,22.95-80.56,23.06-31.41.68-59.48-10.21-80.77-21.81-21.34-11.27-35.91-23.23-41.34-16.91a4.92,4.92,0,0,0-1,1.68A124.64,124.64,0,0,0,371.46,506C392.87,531.91,430.91,558.38,476.63,557.9Z"/><path class="cls-43" d="M356.66,480.71h0a2.67,2.67,0,0,1-4.51,0L344.86,471a5.3,5.3,0,0,1,0-6l2.25-3,9.55,12.71A5.3,5.3,0,0,1,356.66,480.71Z"/><polygon class="cls-44" points="595.15 508.8 590.82 495.85 596.33 486.59 600.38 478.01 601.91 481.54 601.46 488.49 598.74 499.2 595.15 508.8"/><ellipse class="cls-45" cx="384.38" cy="549.81" rx="36.51" ry="17.03" transform="translate(-210.42 239.57) rotate(-27.5)"/><polygon class="cls-45" points="408.5 543.51 405.7 538.93 502.24 483.94 505.04 488.52 408.5 543.51"/></g></g></svg>
