<svg xmlns="http://www.w3.org/2000/svg" xmlns:xlink="http://www.w3.org/1999/xlink" viewBox="0 0 1600 900"><defs><style>.cls-1{fill:none;}.cls-2{clip-path:url(#clip-path);}.cls-3,.cls-6{fill:#286ba5;}.cls-4{fill:#212121;}.cls-5{fill:#484848;}.cls-403,.cls-6{stroke:#000;}.cls-6{stroke-linecap:round;stroke-width:8px;}.cls-396,.cls-402,.cls-403,.cls-404,.cls-405,.cls-406,.cls-407,.cls-408,.cls-6,.cls-9{stroke-miterlimit:10;}.cls-7{fill:#393939;}.cls-8{fill:#5f5f5f;}.cls-9{stroke:#ff0;stroke-width:3px;}.cls-10{fill:#303030;}.cls-11{fill:#301c00;}.cls-12{fill:#fce001;}.cls-13{fill:#fde758;}.cls-14{fill:url(#linear-gradient);}.cls-15{fill:url(#linear-gradient-2);}.cls-16{fill:url(#linear-gradient-3);}.cls-17{fill:url(#linear-gradient-4);}.cls-18{fill:url(#linear-gradient-5);}.cls-19{clip-path:url(#clip-path-2);}.cls-20{fill:#282828;}.cls-21{fill:#202020;}.cls-22{fill:#ffcaa5;}.cls-23{clip-path:url(#clip-path-3);}.cls-24{fill:#d42300;}.cls-25{fill:#d32300;}.cls-26{fill:#d22300;}.cls-27{fill:#d12301;}.cls-28{fill:#d02301;}.cls-29{fill:#cf2301;}.cls-30{fill:#ce2301;}.cls-31{fill:#cd2301;}.cls-32{fill:#cc2301;}.cls-33{fill:#cb2302;}.cls-34{fill:#ca2302;}.cls-35{fill:#c92302;}.cls-36{fill:#c82302;}.cls-37{fill:#c72302;}.cls-38{fill:#c62303;}.cls-39{fill:#c52303;}.cls-40{fill:#c42303;}.cls-41{fill:#c32303;}.cls-42{fill:#c22303;}.cls-43{fill:#c12303;}.cls-44{fill:#c02304;}.cls-45{fill:#bf2304;}.cls-46{fill:#be2304;}.cls-47{fill:#bd2204;}.cls-48{fill:#bc2204;}.cls-49{fill:#bb2205;}.cls-50{fill:#ba2205;}.cls-51{fill:#b92205;}.cls-52{fill:#b82205;}.cls-53{fill:#b72205;}.cls-54{fill:#b62205;}.cls-55{fill:#b52206;}.cls-56{fill:#b42206;}.cls-57{fill:#b32206;}.cls-58{fill:#b22206;}.cls-59{fill:#b12206;}.cls-60{fill:#b02207;}.cls-61{fill:#af2207;}.cls-62{fill:#ae2207;}.cls-63{fill:#ad2207;}.cls-64{fill:#ac2207;}.cls-65{fill:#ab2207;}.cls-66{fill:#aa2208;}.cls-67{fill:#a92208;}.cls-68{fill:#a82208;}.cls-69{fill:#a72208;}.cls-70{fill:#a62208;}.cls-71{fill:#a52209;}.cls-72{fill:#a42209;}.cls-73{fill:#a32209;}.cls-74{fill:#a22209;}.cls-75{fill:#a12209;}.cls-76{fill:#a02209;}.cls-77{fill:#9f220a;}.cls-78{fill:#9e220a;}.cls-79{fill:#9d220a;}.cls-80{fill:#9c220a;}.cls-81{fill:#9b220a;}.cls-82{fill:#9a220b;}.cls-83{fill:#99220b;}.cls-84{fill:#98220b;}.cls-85{fill:#97220b;}.cls-86{fill:#96220b;}.cls-87{fill:#95220b;}.cls-88{fill:#94220c;}.cls-89{fill:#93220c;}.cls-90{fill:#92220c;}.cls-91{fill:#91210c;}.cls-92{fill:#90210c;}.cls-93{fill:#8f210d;}.cls-94{fill:#8e210d;}.cls-95{fill:#8d210d;}.cls-96{fill:#8c210d;}.cls-97{fill:#8b210d;}.cls-98{fill:#8a210d;}.cls-99{fill:#89210e;}.cls-100{fill:#88210e;}.cls-101{fill:#87210e;}.cls-102{fill:#86210e;}.cls-103{fill:#85210e;}.cls-104{fill:#84210f;}.cls-105{fill:#83210f;}.cls-106{fill:#82210f;}.cls-107{fill:#81210f;}.cls-108{fill:#80210f;}.cls-109{fill:#7f210f;}.cls-110{fill:#7e2110;}.cls-111{fill:#7d2110;}.cls-112{fill:#7c2110;}.cls-113{fill:#7a2110;}.cls-114{fill:#792110;}.cls-115{fill:#782111;}.cls-116{fill:#772111;}.cls-117{fill:#762111;}.cls-118{fill:#752111;}.cls-119{fill:#742111;}.cls-120{fill:#732111;}.cls-121{fill:#722112;}.cls-122{fill:#712112;}.cls-123{fill:#702112;}.cls-124{fill:#6f2112;}.cls-125{fill:#6e2112;}.cls-126{fill:#6d2113;}.cls-127{fill:#6c2113;}.cls-128{fill:#6b2113;}.cls-129{fill:#6a2113;}.cls-130{fill:#692113;}.cls-131{fill:#682113;}.cls-132{fill:#672114;}.cls-133{fill:#662114;}.cls-134{fill:#652114;}.cls-135{fill:#642014;}.cls-136{fill:#632014;}.cls-137{fill:#622015;}.cls-138{fill:#612015;}.cls-139{fill:#602015;}.cls-140{fill:#5f2015;}.cls-141{fill:#5e2015;}.cls-142{fill:#5d2015;}.cls-143{fill:#5c2016;}.cls-144{fill:#5b2016;}.cls-145{fill:#5a2016;}.cls-146{fill:#592016;}.cls-147{fill:#582016;}.cls-148{fill:#572017;}.cls-149{fill:#562017;}.cls-150{fill:#552017;}.cls-151{fill:#542017;}.cls-152{fill:#532017;}.cls-153{fill:#522017;}.cls-154{fill:#512018;}.cls-155{fill:#502018;}.cls-156{fill:#4f2018;}.cls-157{fill:#4e2018;}.cls-158{fill:#4d2018;}.cls-159{fill:#4c2019;}.cls-160{fill:#4b2019;}.cls-161{fill:#4a2019;}.cls-162{fill:#492019;}.cls-163{fill:#482019;}.cls-164{fill:#472019;}.cls-165{fill:#46201a;}.cls-166{fill:#45201a;}.cls-167{fill:#44201a;}.cls-168{fill:#43201a;}.cls-169{fill:#42201a;}.cls-170{fill:#41201b;}.cls-171{fill:#40201b;}.cls-172{fill:#3f201b;}.cls-173{fill:#3e201b;}.cls-174{fill:#3d201b;}.cls-175{fill:#3c201b;}.cls-176{fill:#3b201c;}.cls-177{fill:#3a201c;}.cls-178{fill:#39201c;}.cls-179{fill:#381f1c;}.cls-180{fill:#371f1c;}.cls-181{fill:#361f1d;}.cls-182{fill:#351f1d;}.cls-183{fill:#341f1d;}.cls-184{fill:#331f1d;}.cls-185{fill:#321f1d;}.cls-186{fill:#311f1d;}.cls-187{fill:#301f1e;}.cls-188{fill:#2f1f1e;}.cls-189{fill:#2e1f1e;}.cls-190{fill:#2d1f1e;}.cls-191{fill:#2c1f1e;}.cls-192{fill:#2b1f1f;}.cls-193{fill:#2a1f1f;}.cls-194{fill:#291f1f;}.cls-195{fill:#281f1f;}.cls-196{fill:#271f1f;}.cls-197{fill:#261f1f;}.cls-198{fill:#251f20;}.cls-199{fill:#241f20;}.cls-200{fill:#231f20;}.cls-201{fill:#261f20;}.cls-202{fill:#2c1e1f;}.cls-203{fill:#2d1e1e;}.cls-204{fill:#2e1e1e;}.cls-205{fill:#2f1e1e;}.cls-206{fill:#301e1e;}.cls-207{fill:#311e1e;}.cls-208{fill:#321e1e;}.cls-209{fill:#331e1d;}.cls-210{fill:#341e1d;}.cls-211{fill:#351e1d;}.cls-212{fill:#361e1d;}.cls-213{fill:#371e1d;}.cls-214{fill:#381e1d;}.cls-215{fill:#391e1c;}.cls-216{fill:#3a1e1c;}.cls-217{fill:#3b1e1c;}.cls-218{fill:#3c1d1c;}.cls-219{fill:#3d1d1c;}.cls-220{fill:#3e1d1c;}.cls-221{fill:#3f1d1b;}.cls-222{fill:#401d1b;}.cls-223{fill:#411d1b;}.cls-224{fill:#421d1b;}.cls-225{fill:#431d1b;}.cls-226{fill:#441d1b;}.cls-227{fill:#451d1a;}.cls-228{fill:#461d1a;}.cls-229{fill:#471d1a;}.cls-230{fill:#481d1a;}.cls-231{fill:#491d1a;}.cls-232{fill:#4a1d1a;}.cls-233{fill:#4b1d1a;}.cls-234{fill:#4c1d19;}.cls-235{fill:#4d1c19;}.cls-236{fill:#4e1c19;}.cls-237{fill:#4f1c19;}.cls-238{fill:#501c19;}.cls-239{fill:#511c19;}.cls-240{fill:#521c18;}.cls-241{fill:#531c18;}.cls-242{fill:#541c18;}.cls-243{fill:#551c18;}.cls-244{fill:#561c18;}.cls-245{fill:#571c18;}.cls-246{fill:#581c17;}.cls-247{fill:#591c17;}.cls-248{fill:#5a1c17;}.cls-249{fill:#5b1c17;}.cls-250{fill:#5c1c17;}.cls-251{fill:#5d1b17;}.cls-252{fill:#5e1b16;}.cls-253{fill:#5f1b16;}.cls-254{fill:#601b16;}.cls-255{fill:#611b16;}.cls-256{fill:#621b16;}.cls-257{fill:#631b16;}.cls-258{fill:#641b15;}.cls-259{fill:#651b15;}.cls-260{fill:#661b15;}.cls-261{fill:#671b15;}.cls-262{fill:#681b15;}.cls-263{fill:#691b15;}.cls-264{fill:#6a1b14;}.cls-265{fill:#6b1b14;}.cls-266{fill:#6c1b14;}.cls-267{fill:#6d1a14;}.cls-268{fill:#6e1a14;}.cls-269{fill:#6f1a14;}.cls-270{fill:#701a13;}.cls-271{fill:#711a13;}.cls-272{fill:#721a13;}.cls-273{fill:#731a13;}.cls-274{fill:#741a13;}.cls-275{fill:#751a13;}.cls-276{fill:#761a13;}.cls-277{fill:#771a12;}.cls-278{fill:#781a12;}.cls-279{fill:#791a12;}.cls-280{fill:#7a1a12;}.cls-281{fill:#7b1a12;}.cls-282{fill:#7c1a12;}.cls-283{fill:#7d1a11;}.cls-284{fill:#7e1911;}.cls-285{fill:#7f1911;}.cls-286{fill:#801911;}.cls-287{fill:#811911;}.cls-288{fill:#821911;}.cls-289{fill:#831910;}.cls-290{fill:#841910;}.cls-291{fill:#851910;}.cls-292{fill:#871910;}.cls-293{fill:#881910;}.cls-294{fill:#891910;}.cls-295{fill:#8a190f;}.cls-296{fill:#8b190f;}.cls-297{fill:#8c190f;}.cls-298{fill:#8d190f;}.cls-299{fill:#8e190f;}.cls-300{fill:#8f180f;}.cls-301{fill:#90180e;}.cls-302{fill:#91180e;}.cls-303{fill:#92180e;}.cls-304{fill:#93180e;}.cls-305{fill:#94180e;}.cls-306{fill:#95180e;}.cls-307{fill:#96180d;}.cls-308{fill:#97180d;}.cls-309{fill:#98180d;}.cls-310{fill:#99180d;}.cls-311{fill:#9a180d;}.cls-312{fill:#9b180d;}.cls-313{fill:#9c180d;}.cls-314{fill:#9d180c;}.cls-315{fill:#9e180c;}.cls-316{fill:#9f180c;}.cls-317{fill:#a0170c;}.cls-318{fill:#a1170c;}.cls-319{fill:#a2170c;}.cls-320{fill:#a3170b;}.cls-321{fill:#a4170b;}.cls-322{fill:#a5170b;}.cls-323{fill:#a6170b;}.cls-324{fill:#a7170b;}.cls-325{fill:#a8170b;}.cls-326{fill:#a9170a;}.cls-327{fill:#aa170a;}.cls-328{fill:#ab170a;}.cls-329{fill:#ac170a;}.cls-330{fill:#ad170a;}.cls-331{fill:#ae170a;}.cls-332{fill:#af1709;}.cls-333{fill:#b01609;}.cls-334{fill:#b11609;}.cls-335{fill:#b21609;}.cls-336{fill:#b31609;}.cls-337{fill:#b41609;}.cls-338{fill:#b51608;}.cls-339{fill:#b61608;}.cls-340{fill:#b71608;}.cls-341{fill:#b81608;}.cls-342{fill:#b91608;}.cls-343{fill:#ba1608;}.cls-344{fill:#bb1607;}.cls-345{fill:#bc1607;}.cls-346{fill:#bd1607;}.cls-347{fill:#be1607;}.cls-348{fill:#bf1607;}.cls-349{fill:#c01507;}.cls-350{fill:#c11506;}.cls-351{fill:#c21506;}.cls-352{fill:#c31506;}.cls-353{fill:#c41506;}.cls-354{fill:#c51506;}.cls-355{fill:#c61506;}.cls-356{fill:#c71506;}.cls-357{fill:#c81505;}.cls-358{fill:#c91505;}.cls-359{fill:#ca1505;}.cls-360{fill:#cb1505;}.cls-361{fill:#cc1505;}.cls-362{fill:#cd1505;}.cls-363{fill:#ce1504;}.cls-364{fill:#cf1504;}.cls-365{fill:#d01504;}.cls-366{fill:#d11404;}.cls-367{fill:#d21404;}.cls-368{fill:#d31404;}.cls-369{fill:#d41403;}.cls-370{fill:#d51403;}.cls-371{fill:#d61403;}.cls-372{fill:#d71403;}.cls-373{fill:#d81403;}.cls-374{fill:#d91403;}.cls-375{fill:#da1402;}.cls-376{fill:#db1402;}.cls-377{fill:#dc1402;}.cls-378{fill:#dd1402;}.cls-379{fill:#de1402;}.cls-380{fill:#df1402;}.cls-381{fill:#e01401;}.cls-382{fill:#e11301;}.cls-383{fill:#e21301;}.cls-384{fill:#e31301;}.cls-385{fill:#e41301;}.cls-386{fill:#e51301;}.cls-387{fill:#e61300;}.cls-388{fill:#e71300;}.cls-389{fill:#e81300;}.cls-390{fill:#e91300;}.cls-391{fill:#ff0322;}.cls-392{fill:#020001;}.cls-393,.cls-396,.cls-404,.cls-408{fill:#2ef6ff;}.cls-394{fill:#e1ff02;}.cls-395{fill:#f3ffad;}.cls-396{stroke:#ed1c24;}.cls-397,.cls-406{fill:#ff1d08;}.cls-398{fill:#fff;}.cls-399,.cls-407{fill:#ff032d;}.cls-400{fill:#0a0909;}.cls-401{fill:#0a0a0a;}.cls-402,.cls-403{fill:#052355;}.cls-402{stroke:#eef408;}.cls-404{stroke:#fff;}.cls-405{fill:#ff3131;stroke:#f4f408;}.cls-406,.cls-407,.cls-408{stroke:#efff00;}.cls-407,.cls-408{stroke-width:2px;}</style><clipPath id="clip-path"><rect class="cls-1" x="2" y="-1" width="1600" height="900"/></clipPath><linearGradient id="linear-gradient" x1="-427.9" y1="-405.55" x2="-396.73" y2="-405.55" gradientTransform="translate(276.97 837.28) rotate(26.69)" gradientUnits="userSpaceOnUse"><stop offset="0" stop-color="#0e5e0e"/><stop offset="0.11" stop-color="#3f7a1d"/><stop offset="0.23" stop-color="#71972d"/><stop offset="0.35" stop-color="#9caf3a"/><stop offset="0.48" stop-color="#bfc445"/><stop offset="0.61" stop-color="#dad34d"/><stop offset="0.73" stop-color="#eede53"/><stop offset="0.86" stop-color="#f9e557"/><stop offset="1" stop-color="#fde758"/><stop offset="1" stop-color="#fff"/></linearGradient><linearGradient id="linear-gradient-2" x1="133.53" y1="-277.75" x2="158.92" y2="-277.75" gradientTransform="matrix(0.9, 0.45, -0.48, 0.95, 307.48, 782.38)" gradientUnits="userSpaceOnUse"><stop offset="0" stop-color="#fff"/><stop offset="0" stop-color="#fde758"/><stop offset="0.1" stop-color="#f7e356"/><stop offset="0.23" stop-color="#e5d951"/><stop offset="0.38" stop-color="#c9c948"/><stop offset="0.54" stop-color="#a1b23b"/><stop offset="0.72" stop-color="#6e952c"/><stop offset="0.91" stop-color="#307219"/><stop offset="1" stop-color="#0e5e0e"/></linearGradient><linearGradient id="linear-gradient-3" x1="-340.65" y1="-98" x2="-374.77" y2="-145" gradientTransform="translate(313.03 658.39) rotate(35.98)" gradientUnits="userSpaceOnUse"><stop offset="0.02" stop-color="#fde758"/><stop offset="0.07" stop-color="#edde53"/><stop offset="0.16" stop-color="#c2c546"/><stop offset="0.29" stop-color="#7e9e31"/><stop offset="0.45" stop-color="#206914"/><stop offset="0.48" stop-color="#0e5e0e"/><stop offset="0.89" stop-color="#5f501f"/><stop offset="1" stop-color="#754c24"/><stop offset="1" stop-color="#fde758"/></linearGradient><linearGradient id="linear-gradient-4" x1="369.25" y1="335.29" x2="354.51" y2="655.04" gradientUnits="userSpaceOnUse"><stop offset="0.04" stop-color="#39b54a"/><stop offset="0.17" stop-color="#71c34e"/><stop offset="0.3" stop-color="#a2d052"/><stop offset="0.42" stop-color="#cada54"/><stop offset="0.54" stop-color="#e6e156"/><stop offset="0.64" stop-color="#f7e558"/><stop offset="0.71" stop-color="#fde758"/><stop offset="1" stop-color="#fde758"/></linearGradient><linearGradient id="linear-gradient-5" x1="282.13" y1="-4.6" x2="311.83" y2="-4.6" gradientTransform="matrix(0.81, 0.59, -0.63, 0.86, 352, 609.14)" xlink:href="#linear-gradient-2"/><clipPath id="clip-path-2"><rect class="cls-1" x="3" y="-1" width="1600" height="900"/></clipPath><clipPath id="clip-path-3"><ellipse class="cls-1" cx="1285.09" cy="442.72" rx="10.3" ry="20.02"/></clipPath></defs><title>Blue and bananas</title><g id="Layer_5" data-name="Layer 5"><g class="cls-2"><rect class="cls-3" y="-3" width="1604" height="913"/></g></g><g id="Tittle"><polyline class="cls-4" points="252.32 79.93 225.63 81.72 259 157.31"/><rect class="cls-4" x="168.34" y="62.91" width="83.97" height="111.78" rx="12"/><rect class="cls-5" x="153" y="71.22" width="83.97" height="111.78" rx="12"/><polyline class="cls-4" points="198.71 62.69 180.81 34 174.35 70.99"/><polyline class="cls-5" points="180.81 34 153.9 78.5 173.28 77.43"/><rect class="cls-3" x="168.51" y="80.7" width="56.52" height="87.51" rx="9.42"/><path class="cls-6" d="M211.12,171.3H183.3c-9.87,0-15.68-9.39-15.68-19.8l.28-55.72a54.34,54.34,0,0,1,1.88-7.17c3.59-5.46,3.91-4.72,9.42-6.29,13.64-3.91,33.25-2.58,37,2.15"/><polyline class="cls-5" points="250.93 155.17 226.53 182.26 250.93 174.47"/><polyline class="cls-7" points="249.39 178.26 259 157.31 228.42 183"/><polyline class="cls-8" points="259 157.31 236.93 99.94 229.29 181.1"/><polyline class="cls-5" points="234.78 103.16 213.78 139.62 226.53 182.26"/><polyline class="cls-7" points="228.42 183 213.78 139.62 196.4 183"/><polyline class="cls-4" points="254.16 116.56 248.55 112 241.01 145.77"/><path class="cls-3" d="M223.6,87.43c.81,3.56-6.82,11.82-18.18,11.63s-35.3,10.27-33.24-7.39c.73-6.34,19.71-13,30.53-13C214.07,78.54,222.47,82.45,223.6,87.43Z"/><path class="cls-9" d="M101.26,160.84a84,84,0,0,0,15.48,9.57,87.31,87.31,0,0,0,17.84,6.18q2.31.51,2.31,2.55c0,1.88-1.14,2.81-3.43,2.81q-7.82,0-22-7.83-11.77-6.56-27-20.26v3.49l.08,14.47v8.26H39.09v-3.83l.15-27.75.23-33.19-.15-51.42h30q20.14,0,30.43,1.28a56.22,56.22,0,0,1,17.54,4.77q11.78,5.61,18.65,18.47a52.46,52.46,0,0,1-.74,51.32Q123.78,159.58,101.26,160.84Zm-7.08-5.27,3.57.08q15.36,0,26-9.79A40.08,40.08,0,0,0,134,130.54a46.24,46.24,0,0,0,3.35-17.19,44.28,44.28,0,0,0-8.5-26.64,35.13,35.13,0,0,0-16.25-12.86q-9.77-3.73-27.51-4l-.67,57v15.41l.07,4A101,101,0,0,0,94.18,155.57Z"/><path class="cls-9" d="M314.43,66.19,314,126.54l.45,51.24a43.37,43.37,0,0,0,6.41.6,41.23,41.23,0,0,0,15-3,45.82,45.82,0,0,0,13.57-8.09,54.89,54.89,0,0,0,7.86-8.85,64.93,64.93,0,0,0,6.53-10.81q1.41-3.06,3-3.06A2.14,2.14,0,0,1,369.3,147q0,2.55-3.69,8.64a72.15,72.15,0,0,1-8.1,10.94A50.84,50.84,0,0,1,335,181.1a49.15,49.15,0,0,1-14.94,2.47,47.58,47.58,0,0,1-21-5.11q-16.87-8.09-25.69-25.62a69,69,0,0,1,.3-62.39,56.83,56.83,0,0,1,23-24.09,47.67,47.67,0,0,1,23.36-6q21.51,0,37.18,16.6,7.47,7.92,7.47,11.41a2.38,2.38,0,0,1-.75,1.7,2.24,2.24,0,0,1-1.64.77q-1.49,0-3.57-3.32a47,47,0,0,0-16.93-16,44.65,44.65,0,0,0-22.21-5.91A22.5,22.5,0,0,0,314.43,66.19Z"/><path class="cls-9" d="M442,88.37l11.13,25.7q9.63,22.13,16.8,37.62t10.68,21.61q2.16,3.91,2.22,5.18,0,3.22-3.88,3.22a2.74,2.74,0,0,1-2.5-1.24q-.78-1.23-3.92-8.64l-4.63-11-7.32-17.28-6.79-16-5-11.67L437.91,90.78l-13.66,9.37-.07,12.6v8.43l.43,54.64.09,4.26H378.93l.45-72.69-.15-20.68-.3-18.13V63.89H424.7l-.36,13.61L424.25,94,437,85.33q10.83-7.31,19.26-13.8t10.91-7.81a8.74,8.74,0,0,1,4.48-1.44c2.63,0,4,.93,4,2.81a3.14,3.14,0,0,1-1.09,2.42,31.57,31.57,0,0,1-5,3.13q-4.71,2.55-20.82,13.3Z"/><path class="cls-9" d="M488.31,160.33c.89,0,1.94.77,3.13,2.3a42.5,42.5,0,0,0,13.7,11.19,34.51,34.51,0,0,0,16,4.22q8.73,0,8.73-6,0-3.83-3.06-8.64t-14.63-19q-14.57-18-19.41-26.64-6.44-11.49-6.42-21.88a31.54,31.54,0,0,1,12.24-25.62q12-9.78,29.64-9.79a46,46,0,0,1,22.62,5.71,29.76,29.76,0,0,1,6.68,5.1q2.81,2.9,2.8,4.86a2.48,2.48,0,0,1-.78,1.74,2.28,2.28,0,0,1-1.61.81c-.84,0-2.09-.88-3.73-2.64a31.19,31.19,0,0,0-10.6-7.19A31.69,31.69,0,0,0,531,65.94a9.59,9.59,0,0,0-6.08,1.83,5.71,5.71,0,0,0-2.36,4.72q0,3.49,2.91,8.52a105.24,105.24,0,0,0,9.85,13.36q22,26.64,26.89,35.92,5.14,9.78,5.15,18.89a30.74,30.74,0,0,1-3.66,14.64,31.19,31.19,0,0,1-10.15,11.32q-12.4,8.43-30.24,8.43a45.75,45.75,0,0,1-28.89-9.7q-8.73-6.81-8.74-10.64a3,3,0,0,1,.79-2A2.36,2.36,0,0,1,488.31,160.33Z"/><path class="cls-9" d="M620.53,87.9a24,24,0,0,1-9.08,8.21,27.21,27.21,0,0,1-12.58,2.77,22.54,22.54,0,0,1-13.43-4.09q-6.95-4.85-7-13.87A18.29,18.29,0,0,1,583,68.58q7-8.17,18.59-8.18,10.53,0,17,6.81,6.27,6.65,6.28,18a33.52,33.52,0,0,1-2.69,13.45,24,24,0,0,1-7.54,9.88q-7.1,5.53-19.49,5.53-5.52,0-5.52-2.64,0-2,2.76-2l2.39.08a12.41,12.41,0,0,0,1.49.09,28.86,28.86,0,0,0,13.07-2.64Q616,103.57,619,95.47A55.62,55.62,0,0,0,620.53,87.9Z"/><path class="cls-9" d="M731.69,120.47V106.24l-.15-22.58-.07-10.31-.08-6.47q0-4.6,2.76-4.6a2.42,2.42,0,0,1,2.28,1.06,8.82,8.82,0,0,1,.63,4v1.2c0,1.19-.07,3.15-.07,5.87l-.3,28.68-.22,26.3.19,27.67.26,27.75q-15.39-11-45-30.36t-48-30.45l.08,4.18.74,43.94.08,5.88q0,3.66-3,3.66c-2,0-3.06-1.51-3.06-4.51l.08-6,.07-9.62.3-43.67-.6-58.81Q668.86,80.51,731.69,120.47Z"/><path class="cls-9" d="M873.69,129.52a30.38,30.38,0,0,1,8,9.66,24.58,24.58,0,0,1,2.65,11.28,28.15,28.15,0,0,1-6.64,18q-8.15,10.22-24.49,11.07-9,.51-25.38.51h-37l.08-4,.15-16.51.22-32.52L791,91.64l-.15-27.75h40q15,0,20.64.56a48.75,48.75,0,0,1,11.61,2.68A41.44,41.44,0,0,1,875,73.85a35.14,35.14,0,0,1,8.59,9.71A36.24,36.24,0,0,1,888.4,102a34.58,34.58,0,0,1-4,16.59A25.16,25.16,0,0,1,873.69,129.52Zm-6.05,2.21a25.87,25.87,0,0,1-6,.77,18.13,18.13,0,0,1-9.52-2.21c-2.42-1.48-3.62-3.41-3.62-5.79,0-1.31.4-2,1.19-2a5.69,5.69,0,0,1,2.47.85,21.91,21.91,0,0,0,11.19,3q11,0,16.58-9.87a27.92,27.92,0,0,0,3.58-14.22,29.14,29.14,0,0,0-8.28-20.85,34.28,34.28,0,0,0-14.08-9.11q-8.17-2.8-20.49-2.81h-4.11l-.45,51.07.45,53.88,6.72.09q11.13,0,17.32-1.41a24.23,24.23,0,0,0,10.31-4.81,22.57,22.57,0,0,0,8.51-18,18.62,18.62,0,0,0-3-10.17A28,28,0,0,0,867.64,131.73Z"/><path class="cls-9" d="M949,56.91l59.69,123.17H956.9l-7.22-15.58h-25l-22-.08-3.72-.09L894,174.73a40.15,40.15,0,0,1-3,5.83,2.59,2.59,0,0,1-2.14,1.14,2.26,2.26,0,0,1-2.55-2.56,12.19,12.19,0,0,1,1.45-4.12q1.46-3,10.2-19.88l45.19-86.73Zm-23.23,55.92-13,25-10.43,20.61,22.26.34,22.34-.34Z"/><path class="cls-9" d="M1107,120.47V106.24l-.15-22.58-.07-10.31-.08-6.47q0-4.6,2.77-4.6a2.41,2.41,0,0,1,2.27,1.06,8.65,8.65,0,0,1,.64,4v1.2c0,1.19-.08,3.15-.08,5.87l-.3,28.68-.22,26.3.19,27.67.26,27.75q-15.39-11-45-30.36t-48-30.45l.07,4.18.75,43.94.07,5.88q0,3.66-3,3.66c-2,0-3.06-1.51-3.06-4.51l.08-6,.07-9.62.3-43.67-.6-58.81Q1044.16,80.51,1107,120.47Z"/><path class="cls-9" d="M1181.46,56.91l59.69,123.17h-51.77l-7.21-15.58h-25l-22-.08-3.72-.09-4.92,10.4a41.61,41.61,0,0,1-3,5.83,2.61,2.61,0,0,1-2.15,1.14,2.26,2.26,0,0,1-2.55-2.56,12.43,12.43,0,0,1,1.45-4.12q1.46-3,10.2-19.88l45.2-86.73Zm-23.22,55.92-13,25-10.44,20.61,22.27.34,22.34-.34Z"/><path class="cls-9" d="M1339.48,120.47V106.24l-.15-22.58-.08-10.31-.07-6.47q0-4.6,2.76-4.6a2.44,2.44,0,0,1,2.28,1.06,8.82,8.82,0,0,1,.63,4v1.2c0,1.19-.07,3.15-.07,5.87l-.3,28.68-.23,26.3.2,27.67.25,27.75q-15.37-11-45-30.36t-48-30.45l.07,4.18.75,43.94.07,5.88q0,3.66-3,3.66c-2,0-3.06-1.51-3.06-4.51l.07-6,.08-9.62.3-43.67-.6-58.81Q1276.63,80.51,1339.48,120.47Z"/><path class="cls-9" d="M1414,56.91l59.68,123.17h-51.77l-7.21-15.58h-25l-22-.08-3.72-.09-4.92,10.4a40.5,40.5,0,0,1-3,5.83,2.6,2.6,0,0,1-2.14,1.14,2.26,2.26,0,0,1-2.56-2.56,12.29,12.29,0,0,1,1.46-4.12q1.45-3,10.19-19.88l45.2-86.73Zm-23.23,55.92-13,25-10.44,20.61,22.27.34,22.34-.34Z"/><path class="cls-9" d="M1479.38,160.33c.9,0,1.95.77,3.14,2.3a42.5,42.5,0,0,0,13.7,11.19,34.5,34.5,0,0,0,16,4.22q8.74,0,8.74-6,0-3.83-3.06-8.64t-14.63-19q-14.57-18-19.42-26.64-6.42-11.49-6.42-21.88a31.52,31.52,0,0,1,12.25-25.62q12-9.78,29.64-9.79A46,46,0,0,1,1542,66.11a30,30,0,0,1,6.68,5.1q2.8,2.9,2.8,4.86a2.45,2.45,0,0,1-.79,1.74,2.24,2.24,0,0,1-1.6.81q-1.27,0-3.73-2.64a31.29,31.29,0,0,0-10.6-7.19,31.69,31.69,0,0,0-12.62-2.85,9.64,9.64,0,0,0-6.09,1.83,5.73,5.73,0,0,0-2.35,4.72q0,3.49,2.91,8.52a105.24,105.24,0,0,0,9.85,13.36q22,26.64,26.88,35.92,5.16,9.78,5.16,18.89a30.74,30.74,0,0,1-3.66,14.64,31.21,31.21,0,0,1-10.16,11.32q-12.39,8.43-30.23,8.43a45.75,45.75,0,0,1-28.89-9.7q-8.74-6.81-8.74-10.64a3,3,0,0,1,.78-2A2.39,2.39,0,0,1,1479.38,160.33Z"/></g><g id="Bananas"><path class="cls-8" d="M571.41,458.05c-6,9.47-16.5,75.76-30,70L450.06,488.9c-13.51-5.79-19.67-18.28-13.69-27.75l73.21-91.66c6-9.47,18.55-27,27.08-7.23"/><path class="cls-5" d="M588.09,507.85l-99.65,23.34c-5.28,1.23-11.35-1.18-13.5-5.37l-16.82-32.74c-2.15-4.19.4-8.63,5.67-9.86l99.66-23.34c5.27-1.23,11.34,1.19,13.5,5.38L593.76,498C595.91,502.18,593.36,506.62,588.09,507.85Z"/><path class="cls-5" d="M409.71,478.87l-77.12-14c-13.67-2.49-23.32-12.94-21.45-23.23l21.66-32.43c-20.15-40.65,7-28.58,23.45-22.21l70.28-32.88c13.67,2.49,108.11-7.4,106.24,2.88L438,464.68C436.1,475,423.38,481.35,409.71,478.87Z"/><path class="cls-5" d="M562.55,550.56l-47,6.72c-25.29,3.62-52-9.67-59.26-29.54l-1.55-4.22c-7.3-19.86,7.41-39.07,32.69-42.69l38.61-13.67c12-1.73,34.9-14,45.33-9.11,11.46,5.31,18.46,35.2,22.29,45.6l1.55,4.22C602.55,527.73,587.84,546.94,562.55,550.56Z"/><path class="cls-4" d="M504.83,557.33,320.81,524c-13.86-1.85-55.33-25.63-73-43.2L230,407.85c1.13-11.63,14.47-3.93,28.32-2.08L373.5,432.26c13.85,1.85,41.89,26.78,40.76,38.41l65.07,52.46C485,533.83,518.69,559.18,504.83,557.33Z"/><polygon class="cls-7" points="482 529.44 361.1 493.77 366.81 408.98 440.34 471.65 526.08 467.15 482 529.44"/><path class="cls-10" d="M360.19,494.24a1.8,1.8,0,0,1-.56-.21l-95.05-56.16c-4.66-.84,24.89-11.57,29-19.38,3.33-6.32-34.76,11-34.44,9.26l-25.39-21.19c-.65-.54-1.39-3.12-.85-3.77,8.5-10.21,87.6-23.49,102-21.52a1.53,1.53,0,0,1,.8.38l31.19,27.65a1.53,1.53,0,0,1,.44,1.69c-2.61,6.87,5.89,10.12,4.09,20L366,460.72C364.12,470.93,373.42,496.29,360.19,494.24Z"/><polygon class="cls-11" points="595.06 567.91 590.12 560.88 581.46 564.82 586.7 553.49 583.98 544 592.16 544.03 599.15 534.22 598.97 545.58 606 549 597.71 555.99 595.06 567.91"/><path class="cls-12" d="M594.68,553.78C600,570.5,563.43,618.1,493.44,649c-68.4,31-170.26,45.36-258.88-2.15-90.47-44-138.45-134.58-154.3-207.56-16.78-74.23-1.42-130.88,13.41-136,17.51-7.14,35.15,31.77,67.36,76.19,31.77,45.05,78.1,95.63,143.06,126.38,64.43,31.94,132.83,37.42,188.2,36.08C547.38,541.24,589.43,533.7,594.68,553.78Z"/><path class="cls-12" d="M594.68,553.78C600,570.5,563.43,618.1,493.44,649c-68.4,31-170.26,45.36-258.88-2.15-90.47-44-138.45-134.58-154.3-207.56-16.78-74.23-1.42-130.88,13.41-136,17.51-7.14,35.15,31.77,67.36,76.19,31.77,45.05,78.1,95.63,143.06,126.38,64.43,31.94,132.83,37.42,188.2,36.08C547.38,541.24,589.43,533.7,594.68,553.78Z"/><path class="cls-13" d="M261.86,590.93c92.15,49.28,197,36.42,267,6.23,27.82-11.67,50.39-25.94,67.28-40a11.65,11.65,0,0,0-.49-3.34c-5.25-20.08-47.3-12.54-102.39-11.82-55.37,1.34-123.77-4.14-188.2-36.08C240.13,475.13,193.8,424.55,162,379.5c-32.21-44.42-49.85-83.33-67.36-76.19A10.77,10.77,0,0,0,91,305.68c-.58,21,1.69,46.07,8.47,73.63C116.93,453.12,167.86,545.15,261.86,590.93Z"/><path class="cls-14" d="M93.9,313.32h0c-4.22,2.05-8.35,0-9.21-4.6l-5-27a11.74,11.74,0,0,1,6.09-12L93.4,266l6.6,35.26A11.73,11.73,0,0,1,93.9,313.32Z"/><polygon class="cls-15" points="553.18 613.59 557.48 583.15 578.15 570.21 595.17 557.13 594.72 565.78 586.73 579.27 570.27 597.99 553.18 613.59"/><path class="cls-16" d="M94.69,378.43h0c-5.46,1.84-9.86-1.29-9.81-7l.26-33.51c0-5.72,4.52-11.85,10-13.7l9.9-3.34-.35,43.86C104.62,370.45,100.16,376.58,94.69,378.43Z"/><polygon class="cls-11" points="627.72 764.62 623.5 755.31 612.36 758.78 621.17 745.81 620.15 733.87 629.81 735.16 640.33 724.31 637.49 738.08 645 743.32 633.59 750.53 627.72 764.62"/><path class="cls-12" d="M630.53,747.38c2.36,21.14-51.76,73.37-141.55,100.21-87.93,27.2-211.54,29-305.21-42.31C87.09,737.93,51.34,620.53,49.48,529.42,46.81,436.64,78,370.16,96.72,366.22c22.34-6,34.18,44,61.95,102.91,27.12,59.62,70.15,128.18,139.76,175.5,68.71,48.69,148.22,65.83,213.92,72.7C577.56,724.9,629,722.18,630.53,747.38Z"/><path class="cls-12" d="M630.53,747.38c2.36,21.14-51.76,73.37-141.55,100.21-87.93,27.2-211.54,29-305.21-42.31C87.09,737.93,51.34,620.53,49.48,529.42,46.81,436.64,78,370.16,96.72,366.22c22.34-6,34.18,44,61.95,102.91,27.12,59.62,70.15,128.18,139.76,175.5,68.71,48.69,148.22,65.83,213.92,72.7C577.56,724.9,629,722.18,630.53,747.38Z"/><path class="cls-17" d="M227.74,741.35c97.43,74,224.2,74.46,313.9,48.51,35.54-9.91,65.5-23.79,88.69-38.33a14.44,14.44,0,0,0,.2-4.15c-1.56-25.2-53-22.48-118.18-30-65.7-6.87-145.21-24-213.92-72.7-69.61-47.32-112.64-115.88-139.76-175.5-27.77-58.92-39.61-108.9-61.95-102.91a14,14,0,0,0-4.92,2.31c-5.53,25.41-8.65,56.25-7,90.78C88.42,551.68,127.3,671.32,227.74,741.35Z"/><polygon class="cls-18" points="567.7 813.7 579.81 777.38 607.22 764.83 630.33 751.53 627.8 761.97 615.26 777.15 591.5 797.37 567.7 813.7"/></g><g id="Rocks"><g class="cls-19"><polyline class="cls-20" points="162.28 853.98 123.75 920.2 353.22 928.24"/><path class="cls-5" d="M38.72,917.63l45.58-51c12.9-14.45,12.9-38.1,0-52.56l-7.82-8.75c-12.91-14.46-34-14.46-46.93,0L-5.9,865.94c-12.91,14.45-23,28.48-10.12,42.94l7.82,8.75C4.71,932.09,25.82,932.09,38.72,917.63Z"/><path class="cls-8" d="M123.75,918.71l161.53-77.66c13.45-8.71,18.11-28.16,10.34-43.23l-43.83-85c-7.77-15.07-25.14-20.29-38.59-11.58l-173.07,96c-3.85,2.26,18.63,12.14,20.71,16.41,3.2,6.6-10.42-18.41-4-6l50.72,80.73C115.32,903.44,110.29,927.41,123.75,918.71Z"/><path class="cls-5" d="M242.37,701.49c-15.54,0-66.74,24.7-66.74,42.11l-17.36,38.62c0,17.4,30.07,62.79,45.61,62.79H306.21c15.54,0,28.26-14.24,28.26-31.65"/><path class="cls-7" d="M171.87,914.05l160.37,16.81c15.47,1.62,29.31-11.23,30.76-28.56l-23.19-75.23c1.44-17.33-21.91-25.29-37.38-26.91L166.28,777.73c-15.47-1.62-12.4,12.09-13.85,29.42l-6.05,72.44C144.93,896.92,156.4,912.42,171.87,914.05Z"/><polygon class="cls-10" points="123.57 919.76 180.97 865.94 166.28 777.73 67.51 825.57 123.57 919.76"/><polyline class="cls-21" points="69 825.67 -4.47 922.46 125 922.46"/><rect class="cls-1" x="4" y="-1" width="1600" height="900"/><rect class="cls-1" x="2" y="-2" width="1600" height="900"/></g></g><g id="Tilde"><ellipse class="cls-22" cx="1292.58" cy="410.85" rx="80.55" ry="72.32"/><g class="cls-23"><rect class="cls-24" x="1274.78" y="462.63" width="20.61" height="0.11"/><rect class="cls-25" x="1274.78" y="462.52" width="20.61" height="0.11"/><rect class="cls-26" x="1274.78" y="462.4" width="20.61" height="0.11"/><rect class="cls-27" x="1274.78" y="462.29" width="20.61" height="0.11"/><rect class="cls-28" x="1274.78" y="462.18" width="20.61" height="0.11"/><rect class="cls-29" x="1274.78" y="462.06" width="20.61" height="0.11"/><rect class="cls-30" x="1274.78" y="461.95" width="20.61" height="0.11"/><rect class="cls-31" x="1274.78" y="461.83" width="20.61" height="0.11"/><rect class="cls-32" x="1274.78" y="461.72" width="20.61" height="0.11"/><rect class="cls-33" x="1274.78" y="461.61" width="20.61" height="0.11"/><rect class="cls-34" x="1274.78" y="461.49" width="20.61" height="0.11"/><rect class="cls-35" x="1274.78" y="461.38" width="20.61" height="0.11"/><rect class="cls-36" x="1274.78" y="461.26" width="20.61" height="0.11"/><rect class="cls-37" x="1274.78" y="461.15" width="20.61" height="0.11"/><rect class="cls-38" x="1274.78" y="461.04" width="20.61" height="0.11"/><rect class="cls-39" x="1274.78" y="460.92" width="20.61" height="0.11"/><rect class="cls-40" x="1274.78" y="460.81" width="20.61" height="0.11"/><rect class="cls-41" x="1274.78" y="460.69" width="20.61" height="0.11"/><rect class="cls-42" x="1274.78" y="460.58" width="20.61" height="0.11"/><rect class="cls-43" x="1274.78" y="460.47" width="20.61" height="0.11"/><rect class="cls-44" x="1274.78" y="460.35" width="20.61" height="0.11"/><rect class="cls-45" x="1274.78" y="460.24" width="20.61" height="0.11"/><rect class="cls-46" x="1274.78" y="460.12" width="20.61" height="0.11"/><rect class="cls-47" x="1274.78" y="460.01" width="20.61" height="0.11"/><rect class="cls-48" x="1274.78" y="459.9" width="20.61" height="0.11"/><rect class="cls-49" x="1274.78" y="459.78" width="20.61" height="0.11"/><rect class="cls-50" x="1274.78" y="459.67" width="20.61" height="0.11"/><rect class="cls-51" x="1274.78" y="459.55" width="20.61" height="0.11"/><rect class="cls-52" x="1274.78" y="459.44" width="20.61" height="0.11"/><rect class="cls-53" x="1274.78" y="459.33" width="20.61" height="0.11"/><rect class="cls-54" x="1274.78" y="459.21" width="20.61" height="0.11"/><rect class="cls-55" x="1274.78" y="459.1" width="20.61" height="0.11"/><rect class="cls-56" x="1274.78" y="458.98" width="20.61" height="0.11"/><rect class="cls-57" x="1274.78" y="458.87" width="20.61" height="0.11"/><rect class="cls-58" x="1274.78" y="458.76" width="20.61" height="0.11"/><rect class="cls-59" x="1274.78" y="458.64" width="20.61" height="0.11"/><rect class="cls-60" x="1274.78" y="458.53" width="20.61" height="0.11"/><rect class="cls-61" x="1274.78" y="458.41" width="20.61" height="0.11"/><rect class="cls-62" x="1274.78" y="458.3" width="20.61" height="0.11"/><rect class="cls-63" x="1274.78" y="458.19" width="20.61" height="0.11"/><rect class="cls-64" x="1274.78" y="458.07" width="20.61" height="0.11"/><rect class="cls-65" x="1274.78" y="457.96" width="20.61" height="0.11"/><rect class="cls-66" x="1274.78" y="457.85" width="20.61" height="0.11"/><rect class="cls-67" x="1274.78" y="457.73" width="20.61" height="0.11"/><rect class="cls-68" x="1274.78" y="457.62" width="20.61" height="0.11"/><rect class="cls-69" x="1274.78" y="457.5" width="20.61" height="0.11"/><rect class="cls-70" x="1274.78" y="457.39" width="20.61" height="0.11"/><rect class="cls-71" x="1274.78" y="457.28" width="20.61" height="0.11"/><rect class="cls-72" x="1274.78" y="457.16" width="20.61" height="0.11"/><rect class="cls-73" x="1274.78" y="457.05" width="20.61" height="0.11"/><rect class="cls-74" x="1274.78" y="456.93" width="20.61" height="0.11"/><rect class="cls-75" x="1274.78" y="456.82" width="20.61" height="0.11"/><rect class="cls-76" x="1274.78" y="456.71" width="20.61" height="0.11"/><rect class="cls-77" x="1274.78" y="456.59" width="20.61" height="0.11"/><rect class="cls-78" x="1274.78" y="456.48" width="20.61" height="0.11"/><rect class="cls-79" x="1274.78" y="456.36" width="20.61" height="0.11"/><rect class="cls-80" x="1274.78" y="456.25" width="20.61" height="0.11"/><rect class="cls-81" x="1274.78" y="456.14" width="20.61" height="0.11"/><rect class="cls-82" x="1274.78" y="456.02" width="20.61" height="0.11"/><rect class="cls-83" x="1274.78" y="455.91" width="20.61" height="0.11"/><rect class="cls-84" x="1274.78" y="455.79" width="20.61" height="0.11"/><rect class="cls-85" x="1274.78" y="455.68" width="20.61" height="0.11"/><rect class="cls-86" x="1274.78" y="455.57" width="20.61" height="0.11"/><rect class="cls-87" x="1274.78" y="455.45" width="20.61" height="0.11"/><rect class="cls-88" x="1274.78" y="455.34" width="20.61" height="0.11"/><rect class="cls-89" x="1274.78" y="455.22" width="20.61" height="0.11"/><rect class="cls-90" x="1274.78" y="455.11" width="20.61" height="0.11"/><rect class="cls-91" x="1274.78" y="455" width="20.61" height="0.11"/><rect class="cls-92" x="1274.78" y="454.88" width="20.61" height="0.11"/><rect class="cls-93" x="1274.78" y="454.77" width="20.61" height="0.11"/><rect class="cls-94" x="1274.78" y="454.65" width="20.61" height="0.11"/><rect class="cls-95" x="1274.78" y="454.54" width="20.61" height="0.11"/><rect class="cls-96" x="1274.78" y="454.43" width="20.61" height="0.11"/><rect class="cls-97" x="1274.78" y="454.31" width="20.61" height="0.11"/><rect class="cls-98" x="1274.78" y="454.2" width="20.61" height="0.11"/><rect class="cls-99" x="1274.78" y="454.08" width="20.61" height="0.11"/><rect class="cls-100" x="1274.78" y="453.97" width="20.61" height="0.11"/><rect class="cls-101" x="1274.78" y="453.86" width="20.61" height="0.11"/><rect class="cls-102" x="1274.78" y="453.74" width="20.61" height="0.11"/><rect class="cls-103" x="1274.78" y="453.63" width="20.61" height="0.11"/><rect class="cls-104" x="1274.78" y="453.51" width="20.61" height="0.11"/><rect class="cls-105" x="1274.78" y="453.4" width="20.61" height="0.11"/><rect class="cls-106" x="1274.78" y="453.29" width="20.61" height="0.11"/><rect class="cls-107" x="1274.78" y="453.17" width="20.61" height="0.11"/><rect class="cls-108" x="1274.78" y="453.06" width="20.61" height="0.11"/><rect class="cls-109" x="1274.78" y="452.94" width="20.61" height="0.11"/><rect class="cls-110" x="1274.78" y="452.83" width="20.61" height="0.11"/><rect class="cls-111" x="1274.78" y="452.72" width="20.61" height="0.11"/><rect class="cls-112" x="1274.78" y="452.6" width="20.61" height="0.11"/><rect class="cls-113" x="1274.78" y="452.49" width="20.61" height="0.11"/><rect class="cls-114" x="1274.78" y="452.37" width="20.61" height="0.11"/><rect class="cls-115" x="1274.78" y="452.26" width="20.61" height="0.11"/><rect class="cls-116" x="1274.78" y="452.15" width="20.61" height="0.11"/><rect class="cls-117" x="1274.78" y="452.03" width="20.61" height="0.11"/><rect class="cls-118" x="1274.78" y="451.92" width="20.61" height="0.11"/><rect class="cls-119" x="1274.78" y="451.8" width="20.61" height="0.11"/><rect class="cls-120" x="1274.78" y="451.69" width="20.61" height="0.11"/><rect class="cls-121" x="1274.78" y="451.58" width="20.61" height="0.11"/><rect class="cls-122" x="1274.78" y="451.46" width="20.61" height="0.11"/><rect class="cls-123" x="1274.78" y="451.35" width="20.61" height="0.11"/><rect class="cls-124" x="1274.78" y="451.24" width="20.61" height="0.11"/><rect class="cls-125" x="1274.78" y="451.12" width="20.61" height="0.11"/><rect class="cls-126" x="1274.78" y="451.01" width="20.61" height="0.11"/><rect class="cls-127" x="1274.78" y="450.89" width="20.61" height="0.11"/><rect class="cls-128" x="1274.78" y="450.78" width="20.61" height="0.11"/><rect class="cls-129" x="1274.78" y="450.67" width="20.61" height="0.11"/><rect class="cls-130" x="1274.78" y="450.55" width="20.61" height="0.11"/><rect class="cls-131" x="1274.78" y="450.44" width="20.61" height="0.11"/><rect class="cls-132" x="1274.78" y="450.32" width="20.61" height="0.11"/><rect class="cls-133" x="1274.78" y="450.21" width="20.61" height="0.11"/><rect class="cls-134" x="1274.78" y="450.1" width="20.61" height="0.11"/><rect class="cls-135" x="1274.78" y="449.98" width="20.61" height="0.11"/><rect class="cls-136" x="1274.78" y="449.87" width="20.61" height="0.11"/><rect class="cls-137" x="1274.78" y="449.75" width="20.61" height="0.11"/><rect class="cls-138" x="1274.78" y="449.64" width="20.61" height="0.11"/><rect class="cls-139" x="1274.78" y="449.53" width="20.61" height="0.11"/><rect class="cls-140" x="1274.78" y="449.41" width="20.61" height="0.11"/><rect class="cls-141" x="1274.78" y="449.3" width="20.61" height="0.11"/><rect class="cls-142" x="1274.78" y="449.18" width="20.61" height="0.11"/><rect class="cls-143" x="1274.78" y="449.07" width="20.61" height="0.11"/><rect class="cls-144" x="1274.78" y="448.96" width="20.61" height="0.11"/><rect class="cls-145" x="1274.78" y="448.84" width="20.61" height="0.11"/><rect class="cls-146" x="1274.78" y="448.73" width="20.61" height="0.11"/><rect class="cls-147" x="1274.78" y="448.61" width="20.61" height="0.11"/><rect class="cls-148" x="1274.78" y="448.5" width="20.61" height="0.11"/><rect class="cls-149" x="1274.78" y="448.39" width="20.61" height="0.11"/><rect class="cls-150" x="1274.78" y="448.27" width="20.61" height="0.11"/><rect class="cls-151" x="1274.78" y="448.16" width="20.61" height="0.11"/><rect class="cls-152" x="1274.78" y="448.04" width="20.61" height="0.11"/><rect class="cls-153" x="1274.78" y="447.93" width="20.61" height="0.11"/><rect class="cls-154" x="1274.78" y="447.82" width="20.61" height="0.11"/><rect class="cls-155" x="1274.78" y="447.7" width="20.61" height="0.11"/><rect class="cls-156" x="1274.78" y="447.59" width="20.61" height="0.11"/><rect class="cls-157" x="1274.78" y="447.47" width="20.61" height="0.11"/><rect class="cls-158" x="1274.78" y="447.36" width="20.61" height="0.11"/><rect class="cls-159" x="1274.78" y="447.25" width="20.61" height="0.11"/><rect class="cls-160" x="1274.78" y="447.13" width="20.61" height="0.11"/><rect class="cls-161" x="1274.78" y="447.02" width="20.61" height="0.11"/><rect class="cls-162" x="1274.78" y="446.9" width="20.61" height="0.11"/><rect class="cls-163" x="1274.78" y="446.79" width="20.61" height="0.11"/><rect class="cls-164" x="1274.78" y="446.68" width="20.61" height="0.11"/><rect class="cls-165" x="1274.78" y="446.56" width="20.61" height="0.11"/><rect class="cls-166" x="1274.78" y="446.45" width="20.61" height="0.11"/><rect class="cls-167" x="1274.78" y="446.33" width="20.61" height="0.11"/><rect class="cls-168" x="1274.78" y="446.22" width="20.61" height="0.11"/><rect class="cls-169" x="1274.78" y="446.11" width="20.61" height="0.11"/><rect class="cls-170" x="1274.78" y="445.99" width="20.61" height="0.11"/><rect class="cls-171" x="1274.78" y="445.88" width="20.61" height="0.11"/><rect class="cls-172" x="1274.78" y="445.76" width="20.61" height="0.11"/><rect class="cls-173" x="1274.78" y="445.65" width="20.61" height="0.11"/><rect class="cls-174" x="1274.78" y="445.54" width="20.61" height="0.11"/><rect class="cls-175" x="1274.78" y="445.42" width="20.61" height="0.11"/><rect class="cls-176" x="1274.78" y="445.31" width="20.61" height="0.11"/><rect class="cls-177" x="1274.78" y="445.19" width="20.61" height="0.11"/><rect class="cls-178" x="1274.78" y="445.08" width="20.61" height="0.11"/><rect class="cls-179" x="1274.78" y="444.97" width="20.61" height="0.11"/><rect class="cls-180" x="1274.78" y="444.85" width="20.61" height="0.11"/><rect class="cls-181" x="1274.78" y="444.74" width="20.61" height="0.11"/><rect class="cls-182" x="1274.78" y="444.62" width="20.61" height="0.11"/><rect class="cls-183" x="1274.78" y="444.51" width="20.61" height="0.11"/><rect class="cls-184" x="1274.78" y="444.4" width="20.61" height="0.11"/><rect class="cls-185" x="1274.78" y="444.28" width="20.61" height="0.11"/><rect class="cls-186" x="1274.78" y="444.17" width="20.61" height="0.11"/><rect class="cls-187" x="1274.78" y="444.06" width="20.61" height="0.11"/><rect class="cls-188" x="1274.78" y="443.94" width="20.61" height="0.11"/><rect class="cls-189" x="1274.78" y="443.83" width="20.61" height="0.11"/><rect class="cls-190" x="1274.78" y="443.71" width="20.61" height="0.11"/><rect class="cls-191" x="1274.78" y="443.6" width="20.61" height="0.11"/><rect class="cls-192" x="1274.78" y="443.49" width="20.61" height="0.11"/><rect class="cls-193" x="1274.78" y="443.37" width="20.61" height="0.11"/><rect class="cls-194" x="1274.78" y="443.26" width="20.61" height="0.11"/><rect class="cls-195" x="1274.78" y="443.14" width="20.61" height="0.11"/><rect class="cls-196" x="1274.78" y="443.03" width="20.61" height="0.11"/><rect class="cls-197" x="1274.78" y="442.92" width="20.61" height="0.11"/><rect class="cls-198" x="1274.78" y="442.8" width="20.61" height="0.11"/><rect class="cls-199" x="1274.78" y="442.69" width="20.61" height="0.11"/><rect class="cls-200" x="1274.78" y="442.57" width="20.61" height="0.11"/><rect class="cls-200" x="1274.78" y="442.48" width="20.61" height="0.09"/><rect class="cls-199" x="1274.78" y="442.39" width="20.61" height="0.09"/><rect class="cls-198" x="1274.78" y="442.29" width="20.61" height="0.09"/><rect class="cls-201" x="1274.78" y="442.2" width="20.61" height="0.09"/><rect class="cls-196" x="1274.78" y="442.1" width="20.61" height="0.09"/><rect class="cls-195" x="1274.78" y="442.01" width="20.61" height="0.09"/><rect class="cls-194" x="1274.78" y="441.91" width="20.61" height="0.09"/><rect class="cls-193" x="1274.78" y="441.82" width="20.61" height="0.09"/><rect class="cls-192" x="1274.78" y="441.73" width="20.61" height="0.09"/><rect class="cls-202" x="1274.78" y="441.63" width="20.61" height="0.09"/><rect class="cls-203" x="1274.78" y="441.54" width="20.61" height="0.09"/><rect class="cls-204" x="1274.78" y="441.44" width="20.61" height="0.09"/><rect class="cls-205" x="1274.78" y="441.35" width="20.61" height="0.09"/><rect class="cls-206" x="1274.78" y="441.26" width="20.61" height="0.09"/><rect class="cls-207" x="1274.78" y="441.16" width="20.61" height="0.09"/><rect class="cls-208" x="1274.78" y="441.07" width="20.61" height="0.09"/><rect class="cls-209" x="1274.78" y="440.97" width="20.61" height="0.09"/><rect class="cls-210" x="1274.78" y="440.88" width="20.61" height="0.09"/><rect class="cls-211" x="1274.78" y="440.79" width="20.61" height="0.09"/><rect class="cls-212" x="1274.78" y="440.69" width="20.61" height="0.09"/><rect class="cls-213" x="1274.78" y="440.6" width="20.61" height="0.09"/><rect class="cls-214" x="1274.78" y="440.5" width="20.61" height="0.09"/><rect class="cls-215" x="1274.78" y="440.41" width="20.61" height="0.09"/><rect class="cls-216" x="1274.78" y="440.31" width="20.61" height="0.09"/><rect class="cls-217" x="1274.78" y="440.22" width="20.61" height="0.09"/><rect class="cls-218" x="1274.78" y="440.13" width="20.61" height="0.09"/><rect class="cls-219" x="1274.78" y="440.03" width="20.61" height="0.09"/><rect class="cls-220" x="1274.78" y="439.94" width="20.61" height="0.09"/><rect class="cls-221" x="1274.78" y="439.84" width="20.61" height="0.09"/><rect class="cls-222" x="1274.78" y="439.75" width="20.61" height="0.09"/><rect class="cls-223" x="1274.78" y="439.66" width="20.61" height="0.09"/><rect class="cls-224" x="1274.78" y="439.56" width="20.61" height="0.09"/><rect class="cls-225" x="1274.78" y="439.47" width="20.61" height="0.09"/><rect class="cls-226" x="1274.78" y="439.37" width="20.61" height="0.09"/><rect class="cls-227" x="1274.78" y="439.28" width="20.61" height="0.09"/><rect class="cls-228" x="1274.78" y="439.19" width="20.61" height="0.09"/><rect class="cls-229" x="1274.78" y="439.09" width="20.61" height="0.09"/><rect class="cls-230" x="1274.78" y="439" width="20.61" height="0.09"/><rect class="cls-231" x="1274.78" y="438.9" width="20.61" height="0.09"/><rect class="cls-232" x="1274.78" y="438.81" width="20.61" height="0.09"/><rect class="cls-233" x="1274.78" y="438.71" width="20.61" height="0.09"/><rect class="cls-234" x="1274.78" y="438.62" width="20.61" height="0.09"/><rect class="cls-235" x="1274.78" y="438.53" width="20.61" height="0.09"/><rect class="cls-236" x="1274.78" y="438.43" width="20.61" height="0.09"/><rect class="cls-237" x="1274.78" y="438.34" width="20.61" height="0.09"/><rect class="cls-238" x="1274.78" y="438.24" width="20.61" height="0.09"/><rect class="cls-239" x="1274.78" y="438.15" width="20.61" height="0.09"/><rect class="cls-240" x="1274.78" y="438.06" width="20.61" height="0.09"/><rect class="cls-241" x="1274.78" y="437.96" width="20.61" height="0.09"/><rect class="cls-242" x="1274.78" y="437.87" width="20.61" height="0.09"/><rect class="cls-243" x="1274.78" y="437.77" width="20.61" height="0.09"/><rect class="cls-244" x="1274.78" y="437.68" width="20.61" height="0.09"/><rect class="cls-245" x="1274.78" y="437.59" width="20.61" height="0.09"/><rect class="cls-246" x="1274.78" y="437.49" width="20.61" height="0.09"/><rect class="cls-247" x="1274.78" y="437.4" width="20.61" height="0.09"/><rect class="cls-248" x="1274.78" y="437.3" width="20.61" height="0.09"/><rect class="cls-249" x="1274.78" y="437.21" width="20.61" height="0.09"/><rect class="cls-250" x="1274.78" y="437.12" width="20.61" height="0.09"/><rect class="cls-251" x="1274.78" y="437.02" width="20.61" height="0.09"/><rect class="cls-252" x="1274.78" y="436.93" width="20.61" height="0.09"/><rect class="cls-253" x="1274.78" y="436.83" width="20.61" height="0.09"/><rect class="cls-254" x="1274.78" y="436.74" width="20.61" height="0.09"/><rect class="cls-255" x="1274.78" y="436.64" width="20.61" height="0.09"/><rect class="cls-256" x="1274.78" y="436.55" width="20.61" height="0.09"/><rect class="cls-257" x="1274.78" y="436.46" width="20.61" height="0.09"/><rect class="cls-258" x="1274.78" y="436.36" width="20.61" height="0.09"/><rect class="cls-259" x="1274.78" y="436.27" width="20.61" height="0.09"/><rect class="cls-260" x="1274.78" y="436.17" width="20.61" height="0.09"/><rect class="cls-261" x="1274.78" y="436.08" width="20.61" height="0.09"/><rect class="cls-262" x="1274.78" y="435.99" width="20.61" height="0.09"/><rect class="cls-263" x="1274.78" y="435.89" width="20.61" height="0.09"/><rect class="cls-264" x="1274.78" y="435.8" width="20.61" height="0.09"/><rect class="cls-265" x="1274.78" y="435.7" width="20.61" height="0.09"/><rect class="cls-266" x="1274.78" y="435.61" width="20.61" height="0.09"/><rect class="cls-267" x="1274.78" y="435.52" width="20.61" height="0.09"/><rect class="cls-268" x="1274.78" y="435.42" width="20.61" height="0.09"/><rect class="cls-269" x="1274.78" y="435.33" width="20.61" height="0.09"/><rect class="cls-270" x="1274.78" y="435.23" width="20.61" height="0.09"/><rect class="cls-271" x="1274.78" y="435.14" width="20.61" height="0.09"/><rect class="cls-272" x="1274.78" y="435.04" width="20.61" height="0.09"/><rect class="cls-273" x="1274.78" y="434.95" width="20.61" height="0.09"/><rect class="cls-274" x="1274.78" y="434.86" width="20.61" height="0.09"/><rect class="cls-275" x="1274.78" y="434.76" width="20.61" height="0.09"/><rect class="cls-276" x="1274.78" y="434.67" width="20.61" height="0.09"/><rect class="cls-277" x="1274.78" y="434.57" width="20.61" height="0.09"/><rect class="cls-278" x="1274.78" y="434.48" width="20.61" height="0.09"/><rect class="cls-279" x="1274.78" y="434.39" width="20.61" height="0.09"/><rect class="cls-280" x="1274.78" y="434.29" width="20.61" height="0.09"/><rect class="cls-281" x="1274.78" y="434.2" width="20.61" height="0.09"/><rect class="cls-282" x="1274.78" y="434.1" width="20.61" height="0.09"/><rect class="cls-283" x="1274.78" y="434.01" width="20.61" height="0.09"/><rect class="cls-284" x="1274.78" y="433.92" width="20.61" height="0.09"/><rect class="cls-285" x="1274.78" y="433.82" width="20.61" height="0.09"/><rect class="cls-286" x="1274.78" y="433.73" width="20.61" height="0.09"/><rect class="cls-287" x="1274.78" y="433.63" width="20.61" height="0.09"/><rect class="cls-288" x="1274.78" y="433.54" width="20.61" height="0.09"/><rect class="cls-289" x="1274.78" y="433.44" width="20.61" height="0.09"/><rect class="cls-290" x="1274.78" y="433.35" width="20.61" height="0.09"/><rect class="cls-291" x="1274.78" y="433.26" width="20.61" height="0.09"/><rect class="cls-292" x="1274.78" y="433.16" width="20.61" height="0.09"/><rect class="cls-293" x="1274.78" y="433.07" width="20.61" height="0.09"/><rect class="cls-294" x="1274.78" y="432.97" width="20.61" height="0.09"/><rect class="cls-295" x="1274.78" y="432.88" width="20.61" height="0.09"/><rect class="cls-296" x="1274.78" y="432.79" width="20.61" height="0.09"/><rect class="cls-297" x="1274.78" y="432.69" width="20.61" height="0.09"/><rect class="cls-298" x="1274.78" y="432.6" width="20.61" height="0.09"/><rect class="cls-299" x="1274.78" y="432.5" width="20.61" height="0.09"/><rect class="cls-300" x="1274.78" y="432.41" width="20.61" height="0.09"/><rect class="cls-301" x="1274.78" y="432.32" width="20.61" height="0.09"/><rect class="cls-302" x="1274.78" y="432.22" width="20.61" height="0.09"/><rect class="cls-303" x="1274.78" y="432.13" width="20.61" height="0.09"/><rect class="cls-304" x="1274.78" y="432.03" width="20.61" height="0.09"/><rect class="cls-305" x="1274.78" y="431.94" width="20.61" height="0.09"/><rect class="cls-306" x="1274.78" y="431.84" width="20.61" height="0.09"/><rect class="cls-307" x="1274.78" y="431.75" width="20.61" height="0.09"/><rect class="cls-308" x="1274.78" y="431.66" width="20.61" height="0.09"/><rect class="cls-309" x="1274.78" y="431.56" width="20.61" height="0.09"/><rect class="cls-310" x="1274.78" y="431.47" width="20.61" height="0.09"/><rect class="cls-311" x="1274.78" y="431.37" width="20.61" height="0.09"/><rect class="cls-312" x="1274.78" y="431.28" width="20.61" height="0.09"/><rect class="cls-313" x="1274.78" y="431.19" width="20.61" height="0.09"/><rect class="cls-314" x="1274.78" y="431.09" width="20.61" height="0.09"/><rect class="cls-315" x="1274.78" y="431" width="20.61" height="0.09"/><rect class="cls-316" x="1274.78" y="430.9" width="20.61" height="0.09"/><rect class="cls-317" x="1274.78" y="430.81" width="20.61" height="0.09"/><rect class="cls-318" x="1274.78" y="430.72" width="20.61" height="0.09"/><rect class="cls-319" x="1274.78" y="430.62" width="20.61" height="0.09"/><rect class="cls-320" x="1274.78" y="430.53" width="20.61" height="0.09"/><rect class="cls-321" x="1274.78" y="430.43" width="20.61" height="0.09"/><rect class="cls-322" x="1274.78" y="430.34" width="20.61" height="0.09"/><rect class="cls-323" x="1274.78" y="430.25" width="20.61" height="0.09"/><rect class="cls-324" x="1274.78" y="430.15" width="20.61" height="0.09"/><rect class="cls-325" x="1274.78" y="430.06" width="20.61" height="0.09"/><rect class="cls-326" x="1274.78" y="429.96" width="20.61" height="0.09"/><rect class="cls-327" x="1274.78" y="429.87" width="20.61" height="0.09"/><rect class="cls-328" x="1274.78" y="429.77" width="20.61" height="0.09"/><rect class="cls-329" x="1274.78" y="429.68" width="20.61" height="0.09"/><rect class="cls-330" x="1274.78" y="429.59" width="20.61" height="0.09"/><rect class="cls-331" x="1274.78" y="429.49" width="20.61" height="0.09"/><rect class="cls-332" x="1274.78" y="429.4" width="20.61" height="0.09"/><rect class="cls-333" x="1274.78" y="429.3" width="20.61" height="0.09"/><rect class="cls-334" x="1274.78" y="429.21" width="20.61" height="0.09"/><rect class="cls-335" x="1274.78" y="429.12" width="20.61" height="0.09"/><rect class="cls-336" x="1274.78" y="429.02" width="20.61" height="0.09"/><rect class="cls-337" x="1274.78" y="428.93" width="20.61" height="0.09"/><rect class="cls-338" x="1274.78" y="428.83" width="20.61" height="0.09"/><rect class="cls-339" x="1274.78" y="428.74" width="20.61" height="0.09"/><rect class="cls-340" x="1274.78" y="428.65" width="20.61" height="0.09"/><rect class="cls-341" x="1274.78" y="428.55" width="20.61" height="0.09"/><rect class="cls-342" x="1274.78" y="428.46" width="20.61" height="0.09"/><rect class="cls-343" x="1274.78" y="428.36" width="20.61" height="0.09"/><rect class="cls-344" x="1274.78" y="428.27" width="20.61" height="0.09"/><rect class="cls-345" x="1274.78" y="428.17" width="20.61" height="0.09"/><rect class="cls-346" x="1274.78" y="428.08" width="20.61" height="0.09"/><rect class="cls-347" x="1274.78" y="427.99" width="20.61" height="0.09"/><rect class="cls-348" x="1274.78" y="427.89" width="20.61" height="0.09"/><rect class="cls-349" x="1274.78" y="427.8" width="20.61" height="0.09"/><rect class="cls-350" x="1274.78" y="427.7" width="20.61" height="0.09"/><rect class="cls-351" x="1274.78" y="427.61" width="20.61" height="0.09"/><rect class="cls-352" x="1274.78" y="427.52" width="20.61" height="0.09"/><rect class="cls-353" x="1274.78" y="427.42" width="20.61" height="0.09"/><rect class="cls-354" x="1274.78" y="427.33" width="20.61" height="0.09"/><rect class="cls-355" x="1274.78" y="427.23" width="20.61" height="0.09"/><rect class="cls-356" x="1274.78" y="427.14" width="20.61" height="0.09"/><rect class="cls-357" x="1274.78" y="427.05" width="20.61" height="0.09"/><rect class="cls-358" x="1274.78" y="426.95" width="20.61" height="0.09"/><rect class="cls-359" x="1274.78" y="426.86" width="20.61" height="0.09"/><rect class="cls-360" x="1274.78" y="426.76" width="20.61" height="0.09"/><rect class="cls-361" x="1274.78" y="426.67" width="20.61" height="0.09"/><rect class="cls-362" x="1274.78" y="426.57" width="20.61" height="0.09"/><rect class="cls-363" x="1274.78" y="426.48" width="20.61" height="0.09"/><rect class="cls-364" x="1274.78" y="426.39" width="20.61" height="0.09"/><rect class="cls-365" x="1274.78" y="426.29" width="20.61" height="0.09"/><rect class="cls-366" x="1274.78" y="426.2" width="20.61" height="0.09"/><rect class="cls-367" x="1274.78" y="426.1" width="20.61" height="0.09"/><rect class="cls-368" x="1274.78" y="426.01" width="20.61" height="0.09"/><rect class="cls-369" x="1274.78" y="425.92" width="20.61" height="0.09"/><rect class="cls-370" x="1274.78" y="425.82" width="20.61" height="0.09"/><rect class="cls-371" x="1274.78" y="425.73" width="20.61" height="0.09"/><rect class="cls-372" x="1274.78" y="425.63" width="20.61" height="0.09"/><rect class="cls-373" x="1274.78" y="425.54" width="20.61" height="0.09"/><rect class="cls-374" x="1274.78" y="425.45" width="20.61" height="0.09"/><rect class="cls-375" x="1274.78" y="425.35" width="20.61" height="0.09"/><rect class="cls-376" x="1274.78" y="425.26" width="20.61" height="0.09"/><rect class="cls-377" x="1274.78" y="425.16" width="20.61" height="0.09"/><rect class="cls-378" x="1274.78" y="425.07" width="20.61" height="0.09"/><rect class="cls-379" x="1274.78" y="424.97" width="20.61" height="0.09"/><rect class="cls-380" x="1274.78" y="424.88" width="20.61" height="0.09"/><rect class="cls-381" x="1274.78" y="424.79" width="20.61" height="0.09"/><rect class="cls-382" x="1274.78" y="424.69" width="20.61" height="0.09"/><rect class="cls-383" x="1274.78" y="424.6" width="20.61" height="0.09"/><rect class="cls-384" x="1274.78" y="424.5" width="20.61" height="0.09"/><rect class="cls-385" x="1274.78" y="424.41" width="20.61" height="0.09"/><rect class="cls-386" x="1274.78" y="424.32" width="20.61" height="0.09"/><rect class="cls-387" x="1274.78" y="424.22" width="20.61" height="0.09"/><rect class="cls-388" x="1274.78" y="424.13" width="20.61" height="0.09"/><rect class="cls-389" x="1274.78" y="424.03" width="20.61" height="0.09"/><rect class="cls-390" x="1274.78" y="423.94" width="20.61" height="0.09"/><rect class="cls-390" x="1274.78" y="422.7" width="20.61" height="1.24"/></g><path class="cls-391" d="M1285.09,464.38c-6.95,0-12.18-9.31-12.18-21.66s5.23-21.65,12.18-21.65,12.17,9.31,12.17,21.65S1292,464.38,1285.09,464.38Zm0-40c-4,0-8.43,7.55-8.43,18.38s4.44,18.39,8.43,18.39,8.43-7.55,8.43-18.39S1289.07,424.34,1285.09,424.34Z"/><path class="cls-392" d="M1327.88,402.06l-.07-.84-3.77.13a2.21,2.21,0,0,1-2.28-1.42l-2.38.79a2.62,2.62,0,0,1-2.45-.46,1.8,1.8,0,0,1-.5-.75,2.31,2.31,0,0,1-1.53.41,2.22,2.22,0,0,1-2-1.21l-.36-.86-2.58.51-3.5-13.55a1.71,1.71,0,0,1,1.38-2,2.38,2.38,0,0,1,2.75,1.15l4.64,10.86,7.87-12.54a2.31,2.31,0,0,1,2.84-.71,1.69,1.69,0,0,1,1.09,2.24l-5.74,12.8,24.91-8.3a2.41,2.41,0,0,1,2.88,1,1.63,1.63,0,0,1-1,2.22l-15.76,6.26,25.32-.85.2,3.26Zm-11.43-4.5h0Zm31.13-6.23Z"/><path class="cls-392" d="M1249.28,400.14l-30-1.86.21-3.26,25.32.86-15.77-6.27a1.63,1.63,0,0,1-1-2.22,2.42,2.42,0,0,1,2.88-1l24.91,8.3-5.74-12.8a1.68,1.68,0,0,1,1.09-2.23,2.31,2.31,0,0,1,2.84.7l7.87,12.54,4.64-10.86a2.39,2.39,0,0,1,2.75-1.15,1.71,1.71,0,0,1,1.39,2l-3.51,13.57-2.57-.51-.37.86a2.25,2.25,0,0,1-2,1.22,2.39,2.39,0,0,1-1.53-.42,1.69,1.69,0,0,1-.5.75,2.62,2.62,0,0,1-2.45.47l-2.37-.8a2.21,2.21,0,0,1-2.27,1.42l-3.79-.13Zm11.43-4.49Z"/><ellipse class="cls-393" cx="1319.74" cy="409.63" rx="10.3" ry="13.89"/><path class="cls-394" d="M1319.74,425.16c-6.82,0-12.17-6.82-12.17-15.53s5.35-15.53,12.17-15.53,12.18,6.82,12.18,15.53S1326.57,425.16,1319.74,425.16Zm0-27.79c-4.57,0-8.43,5.61-8.43,12.26s3.86,12.26,8.43,12.26,8.43-5.62,8.43-12.26S1324.31,397.37,1319.74,397.37Z"/><ellipse class="cls-393" cx="1257.92" cy="408.4" rx="10.3" ry="11.85"/><path class="cls-394" d="M1257.92,421.89c-6.71,0-12.17-6.05-12.17-13.49s5.46-13.48,12.17-13.48,12.18,6.05,12.18,13.48S1264.64,421.89,1257.92,421.89Zm0-23.7c-4.64,0-8.43,4.58-8.43,10.21s3.79,10.22,8.43,10.22,8.43-4.58,8.43-10.22S1262.57,398.19,1257.92,398.19Z"/><rect class="cls-22" x="1261.67" y="471.33" width="52.92" height="52.3" rx="14.34"/><polygon class="cls-395" points="1363.15 332.25 1366.95 381.31 1277.2 350.71 1173.62 364.96 1206.74 319.02 1138.92 278.76 1249.13 280.97 1310.8 241.84 1345.8 289.14 1451.74 305.22 1363.15 332.25"/><path class="cls-395" d="M1368.2,318.94l-6.9-7.85,63.93-36.5-106.8,4.56-61.62-32.42-31.76,41.82L1123,305l87.17,21.29L1198.92,390l95.5-49.8,101.13,9.87-16-18.28A38.37,38.37,0,0,1,1368.2,318.94Z"/><path class="cls-396" d="M1366.11,357.74c-1.88-7.36.74-6.32-1.88-10.63l-11.1-5.68c-35-16.49-102.22-8.85-145.64,15a5,5,0,0,1-.06.51c-.85,4.65-4.62,11.31-5.21,16a.12.12,0,0,0,.19.09c40.35-28.42,105-35.83,161-13.57,1.51.6,2.65,3.1,2.65,3.1s.46-5,.47-5C1365,356.34,1366.51,359.31,1366.11,357.74Z"/><ellipse class="cls-397" cx="1212.63" cy="352.52" rx="18.4" ry="6.9"/><path class="cls-398" d="M1212.63,359.83c-10.58,0-18.86-3.21-18.86-7.31s8.28-7.31,18.86-7.31,18.87,3.21,18.87,7.31S1223.22,359.83,1212.63,359.83Zm0-13.8c-9.72,0-17.93,3-17.93,6.49s8.21,6.49,17.93,6.49,17.94-3,17.94-6.49S1222.35,346,1212.63,346Z"/><ellipse class="cls-397" cx="1217.48" cy="340.95" rx="7.23" ry="17.56" transform="translate(126.17 979.35) rotate(-45.97)"/><ellipse class="cls-397" cx="1238.28" cy="348.77" rx="18.28" ry="6.94" transform="translate(-47.96 324.96) rotate(-14.67)"/><ellipse class="cls-397" cx="1237.96" cy="362.38" rx="7.2" ry="15.33" transform="matrix(0.66, -0.76, 0.76, 0.66, 153.26, 1060.44)"/><ellipse class="cls-397" cx="1215.83" cy="365.22" rx="17.96" ry="7.07" transform="translate(-21.6 648.75) rotate(-29.62)"/><ellipse class="cls-397" cx="1230.59" cy="344.57" rx="16.96" ry="7.48" transform="matrix(0.34, -0.94, 0.94, 0.34, 484.7, 1382.23)"/><ellipse class="cls-399" cx="1226.65" cy="352.05" rx="7.47" ry="4.38"/><path class="cls-393" d="M1226.65,358.07c-5.23,0-9.34-2.64-9.34-6s4.11-6,9.34-6,9.34,2.64,9.34,6S1231.89,358.07,1226.65,358.07Zm0-8.76c-3.29,0-5.59,1.44-5.59,2.74s2.3,2.75,5.59,2.75,5.6-1.45,5.6-2.75S1230,349.31,1226.65,349.31Z"/><path class="cls-400" d="M1050.11,545.12l-6.55-.32a3,3,0,0,1-3.08-3l19.9-305.42a3.16,3.16,0,0,1,3.46-2.69l6.54.32a3,3,0,0,1,3.09,3l-19.9,305.42A3.16,3.16,0,0,1,1050.11,545.12Z"/><polygon class="cls-401" points="1043.42 452.9 631.1 431.24 646.3 211 1058.62 232.66 1043.42 452.9"/><path class="cls-393" d="M667.21,230.5l-.42,6.1,17.19.91.42-6.11,4.64.24-1,14.6-4.64-.24.48-6.85-17.19-.9-.48,6.85-4.58-.25,1-14.6Z"/><path class="cls-393" d="M714.87,240.78l-13.82-.72-.36,5.26,15.39.81-.11,1.58-20-1.05,1-14.6,19.19,1-.11,1.58-14.6-.77-.32,4.62,13.81.72Z"/><path class="cls-393" d="M722.94,233.42l4.59.24-.9,13,15.18.8-.11,1.58-19.77-1Z"/><path class="cls-393" d="M747.81,234.9c2.23,0,5.14,0,8.83.18,4.53.24,7.82.85,9.88,1.74,1.9.8,3,1.92,2.9,3.22s-1.12,2.31-3,3c-2.5.94-6.49,1.27-11,1-1.37-.08-2.64-.16-3.68-.33l-.41,5.85-4.58-.24Zm4.1,7.28a34.24,34.24,0,0,0,3.79.36c5.53.29,9-.64,9.12-2.66s-3.12-3-8.18-3.3c-2-.1-3.54-.12-4.34-.07Z"/><path class="cls-393" d="M816.43,246.55a45,45,0,0,1-.09-6.33h-.16a66.14,66.14,0,0,1-4.86,5.31l-6.77,6.76-3.48-.19-5.26-7.25a44.89,44.89,0,0,1-3.73-5.89H792c-.23,1.82-.66,4.25-1.13,6.42l-1.38,6.21-4.38-.23,3.49-14.47,5.85.31,5.58,7.38a39.58,39.58,0,0,1,3.24,5.1h.16a41,41,0,0,1,4.08-4.72l6.82-6.73,5.85.31,1.21,14.72-4.49-.24Z"/><path class="cls-393" d="M847.3,247.74,833.49,247l-.36,5.27,15.39.81-.11,1.58-20-1,1-14.6,19.19,1-.11,1.58-14.61-.77-.31,4.61,13.81.73Z"/><path class="cls-393" d="M866.54,241.14c2.23,0,5.13,0,8.83.18,4.53.24,7.82.85,9.88,1.74,1.9.79,3,1.92,2.9,3.22s-1.12,2.31-3,3c-2.5.94-6.49,1.27-11,1-1.37-.07-2.64-.16-3.68-.32l-.41,5.85-4.59-.24Zm4.1,7.28a37.24,37.24,0,0,0,3.79.35c5.53.29,9-.63,9.12-2.65s-3.12-3-8.18-3.3c-2-.1-3.54-.12-4.34-.07Z"/><path class="cls-393" d="M894.6,242.44l4.59.24-.9,13,15.18.8-.11,1.58-19.77-1Z"/><path class="cls-393" d="M937.35,252.47l-13.81-.72-.37,5.26,15.4.81-.11,1.58-20-1,1-14.6,19.18,1-.1,1.58L924,245.57l-.32,4.62,13.82.72Z"/><path class="cls-393" d="M950.48,255.42l-4,4.4-4.74-.25,13.08-14,5.53.3,11.12,15.23-4.9-.25-3.48-4.8Zm11.75-.86L959,250.18a22.72,22.72,0,0,1-1.66-2.77h-.1a30.45,30.45,0,0,1-2,2.55l-3.77,4Z"/><path class="cls-393" d="M976.21,259.08a34.65,34.65,0,0,0,8.16,1.38c4.69.25,7.5-.62,7.6-2.1s-1.75-2.24-6.49-3.25c-5.74-1.15-9.24-2.57-9.1-4.63.16-2.28,4.86-3.73,11.77-3.36a36.15,36.15,0,0,1,7.8,1.12l-1.37,1.48a31.05,31.05,0,0,0-6.7-1.05c-4.85-.26-6.78.84-6.85,1.83-.09,1.37,2,2.15,6.87,3.19,6,1.27,8.92,2.62,8.78,4.77s-4.35,4-12.74,3.55a40.44,40.44,0,0,1-9-1.41Z"/><path class="cls-393" d="M1021.55,256.89l-13.82-.72-.36,5.26,15.39.81-.1,1.58-20-1.05,1-14.6,19.19,1-.11,1.58-14.6-.77-.32,4.62,13.82.72Z"/><path class="cls-393" d="M663.53,294l-2.22-.12-4.57-9.72-.65,9.45-2-.11,1.36-19.67,2,.11-.61,8.83,5.35-8.58,2.19.11v.11l-5.77,9.1Z"/><path class="cls-393" d="M673.22,293.07c-.07.95-.64,1.39-1.72,1.34l-4.63-.25c-1.08-.05-1.59-.55-1.52-1.5l.65-9.39c.06-.95.63-1.39,1.71-1.34l4.63.25c1.08.05,1.59.56,1.52,1.5l-.3,4.4-.69.56-5.35-.28-.31,4.42,4.14.22.15-2.24,1.87.1Zm-1.47-5.83.25-3.68-4.14-.22-.25,3.68Z"/><path class="cls-393" d="M684.39,295.08l-1.93-.1.74-10.73-4.24-.12-.74,10.63-1.92-.1.84-12.23,1.93.1,0,.34,2.28-.14a20.74,20.74,0,0,1,2.3,0c1.07.06,1.58.55,1.51,1.46Z"/><path class="cls-393" d="M701.38,296l-1.92-.1.74-10.74L696,285l-.74,10.63-1.92-.1,1.36-19.67,1.92.1-.54,7.78,2.3-.13a20.79,20.79,0,0,1,2.29,0c1.07.05,1.57.54,1.51,1.45Z"/><path class="cls-393" d="M712.45,296.56l-1.89-.1,0-.34-2.31.14a20.49,20.49,0,0,1-2.28,0c-1-.06-1.54-.54-1.48-1.44l.31-4.47c.06-.93.64-1.38,1.73-1.32l4.53.24.25-3.68-4.13-.22-.15,2.09-1.87-.1.15-2.06c.06-.95.64-1.4,1.72-1.34l4.63.24c1.07.06,1.58.56,1.52,1.51Zm-1.76-1.62.3-4.32-4.3-.23-.3,4.4Z"/><path class="cls-393" d="M723.28,295.7c-.06.95-.64,1.4-1.73,1.34l-4.41-.23c-1.09-.06-1.6-.56-1.54-1.51l.19-2.78,1.9.1-.19,2.75,3.89.21.17-2.44-4.79-3.85a1.49,1.49,0,0,1-.63-1.34l.14-2c.06-1,.64-1.39,1.73-1.33l4.36.23c1.09.05,1.6.56,1.53,1.5l-.17,2.44-1.86-.1.16-2.41-3.89-.2-.15,2.13,4.84,3.85a1.53,1.53,0,0,1,.61,1.37Z"/><path class="cls-393" d="M739.81,301.23c-.06.95-.64,1.39-1.73,1.33l-4.57-.24c-1.11-.06-1.62-.68-1.54-1.88,0-.15,0-.36.07-.64s.05-.48.06-.6l1.9.09-.12,1.63,4,.21.22-3.22-3.17-.17a3,3,0,0,1-2.09-.86,2.31,2.31,0,0,1-.72-1.92l.49-7.15a2.45,2.45,0,0,1,.88-1.77,2.81,2.81,0,0,1,2-.62c.22,0,1.35.21,3.4.6l0-.34,1.91.1Zm-1.58-4.79.64-9.24-2.66-.27c-1.06-.05-1.62.39-1.68,1.33l-.46,6.55c-.06.94.44,1.43,1.5,1.49Z"/><path class="cls-393" d="M751.39,297.18c-.07.95-.64,1.39-1.73,1.34l-4.83-.26c-1.08-.05-1.59-.56-1.53-1.5l.65-9.39c.07-.95.64-1.4,1.72-1.34l4.83.26c1.09,0,1.6.55,1.54,1.5Zm-1.92-.15.64-9.29-4.24-.22-.64,9.29Z"/><path class="cls-393" d="M762.52,299.19l-1.93-.1.74-10.73-4.24-.13-.74,10.64-1.92-.1.85-12.23,1.92.1,0,.34,2.28-.15c.94-.05,1.7-.06,2.3,0,1.07.06,1.58.54,1.51,1.46Z"/><path class="cls-393" d="M773.59,298.35c-.06.95-.63,1.39-1.71,1.33l-4.63-.24q-1.62-.09-1.53-1.5l.65-9.39c.07-.95.64-1.4,1.72-1.34l4.63.24c1.08.06,1.59.56,1.52,1.51l-.3,4.4-.69.55-5.36-.28-.3,4.43,4.14.22.15-2.24,1.87.1Zm-1.46-5.83.25-3.68-4.14-.22L768,292.3Z"/><path class="cls-393" d="M787.54,300.51l-2.73-.15c-1.08-.05-1.59-.55-1.52-1.5l.64-9.34-1.69-.09.1-1.47,1.69.09.27-3.81,1.89.1-.26,3.81,2.46.13-.1,1.47-2.46-.13-.64,9.29,2.45.13Z"/><path class="cls-393" d="M797.93,292.82l-1.89-.1.17-2.53-3.55-.09-.73,10.64-1.93-.1.85-12.23,1.92.1,0,.34,1.94-.17a16.85,16.85,0,0,1,1.93-.05c1.06.06,1.56.54,1.5,1.46Z"/><path class="cls-393" d="M801.82,301.26l-1.89-.1.84-12.23,1.9.1Zm1.06-14.91-2-.1.14-2.11,1.95.1Z"/><path class="cls-393" d="M813.36,299.23a2.45,2.45,0,0,1-1,1.83,3.19,3.19,0,0,1-2.19.64l-3.17-.17-.32,4.64-1.92-.1,1.16-16.87,1.93.1,0,.34,2.31-.13c1-.06,1.73-.07,2.28-.05,1.07.06,1.57.55,1.51,1.46Zm-1.91-.35L812,291l-4.24-.12-.63,9.16,2.66.14C810.83,300.26,811.39,299.81,811.45,298.88Z"/><path class="cls-393" d="M824.53,299.82a2.49,2.49,0,0,1-1,1.83,3.13,3.13,0,0,1-2.19.63l-3.17-.16-.32,4.64-1.92-.1,1.16-16.87,1.93.1,0,.34,2.3-.13a21.28,21.28,0,0,1,2.29-.05c1.07.06,1.57.54,1.51,1.46Zm-1.91-.36.54-7.85-4.24-.13-.64,9.17,2.66.14C822,300.84,822.55,300.4,822.62,299.46Z"/><path class="cls-393" d="M829.44,302.71l-1.9-.1.85-12.23,1.89.1Zm1-14.91-2-.1.15-2.11,1.95.1Z"/><path class="cls-393" d="M840.79,303.31l-1.92-.1.74-10.74-4.25-.12L834.63,303l-1.93-.1.85-12.23,1.92.1,0,.34,2.29-.14a20.2,20.2,0,0,1,2.29,0c1.08.05,1.58.54,1.52,1.45Z"/><path class="cls-393" d="M851.68,307.11c-.07.95-.64,1.39-1.73,1.33l-4.58-.24c-1.11-.06-1.62-.68-1.54-1.88,0-.14,0-.36.07-.64s.06-.48.06-.6l1.9.1-.11,1.62,4,.21.22-3.22-3.17-.17a3.07,3.07,0,0,1-2.09-.86,2.38,2.38,0,0,1-.72-1.92l.49-7.15a2.49,2.49,0,0,1,.88-1.77,2.83,2.83,0,0,1,2-.62c.22,0,1.36.21,3.4.6l0-.34,1.91.1Zm-1.59-4.79.64-9.24-2.65-.27c-1.06-.05-1.63.39-1.69,1.33l-.45,6.55c-.07.94.43,1.43,1.49,1.49Z"/><path class="cls-393" d="M874.3,292.79l-3.76,12.11-1.72-.09-1.42-9.4-2.71,9.18-1.7-.09-2.06-12.41,1.81.1,1.33,9.53,2.71-9.32,1.68.09,1.4,9.53,2.63-9.32Z"/><path class="cls-393" d="M883.91,305.57l-1.92-.1.74-10.73-4.24-.12-.74,10.63-1.92-.1,1.36-19.67,1.92.1-.54,7.78,2.3-.13a21.28,21.28,0,0,1,2.29-.05c1.07.06,1.57.54,1.51,1.46Z"/><path class="cls-393" d="M889,305.84l-1.9-.1.84-12.23,1.9.1Zm1.05-14.9-2-.11.15-2.11,2,.1Z"/><path class="cls-393" d="M894.31,306.12l-1.89-.1,1.36-19.67,1.89.1Z"/><path class="cls-393" d="M905.55,305.29c-.07.94-.64,1.39-1.72,1.33l-4.63-.24c-1.08-.06-1.58-.56-1.52-1.51l.65-9.39c.07-1,.64-1.39,1.72-1.33l4.63.24c1.08.06,1.58.56,1.52,1.51l-.31,4.4-.69.55-5.35-.28-.31,4.43,4.14.21.16-2.23,1.86.09Zm-1.47-5.83.25-3.69-4.13-.22-.26,3.69Z"/><path class="cls-393" d="M928.58,307.92l-1.92-.1.74-10.73-4.2-.12-.74,10.63-1.91-.1.75-10.74-4.21-.11-.73,10.63-1.92-.1.84-12.23,1.93.1,0,.34,2.28-.15a22.63,22.63,0,0,1,2.28,0,1.63,1.63,0,0,1,1.27.54l2.43-.17a23.64,23.64,0,0,1,2.4-.05c1.06.06,1.56.54,1.5,1.46Z"/><path class="cls-393" d="M939.67,307.08c-.06.95-.63,1.39-1.71,1.33l-4.63-.24c-1.08-.06-1.59-.56-1.52-1.5l.64-9.39c.07-.95.64-1.4,1.72-1.34l4.63.24c1.08.06,1.59.56,1.52,1.51l-.3,4.4-.69.56-5.35-.29-.31,4.43,4.14.22.15-2.24,1.87.1Zm-1.46-5.83.25-3.68-4.14-.22-.25,3.68Z"/><path class="cls-393" d="M947.82,308.93l-2.73-.14c-1.08-.06-1.59-.56-1.52-1.51l.64-9.34-1.69-.08.1-1.48,1.69.09.27-3.81,1.89.1-.26,3.81,2.46.13-.1,1.47-2.46-.13-.64,9.29,2.46.13Z"/><path class="cls-393" d="M958.25,308.06c-.07.94-.64,1.39-1.72,1.33l-4.63-.24c-1.08-.06-1.59-.56-1.52-1.51l.65-9.39c.06-.94.64-1.39,1.72-1.33l4.63.24c1.08.06,1.58.56,1.52,1.51l-.31,4.4-.69.55-5.35-.28-.31,4.43,4.14.21.16-2.23,1.86.09Zm-1.47-5.83.25-3.69-4.13-.21-.26,3.68Z"/><path class="cls-393" d="M969.52,308.65c-.07.94-.64,1.39-1.73,1.33l-4.84-.25c-1.07-.06-1.58-.56-1.52-1.51l.65-9.39c.07-.94.64-1.39,1.72-1.33l4.83.25c1.09.06,1.6.56,1.54,1.51Zm-1.92-.15.64-9.29L964,299l-.64,9.29Z"/><path class="cls-393" d="M980.49,302.41l-1.9-.1.18-2.52-3.55-.09-.74,10.63-1.92-.1.85-12.23,1.92.1,0,.34,1.94-.16a14.82,14.82,0,0,1,1.93,0c1.06.06,1.56.54,1.5,1.45Z"/><path class="cls-393" d="M990.05,309.73c-.07.94-.65,1.39-1.74,1.33l-4.41-.23c-1.09-.06-1.6-.56-1.54-1.51l.2-2.77,1.89.1-.19,2.75,3.89.2.17-2.44-4.79-3.84a1.5,1.5,0,0,1-.63-1.35l.14-2c.07-.95.64-1.4,1.73-1.34l4.36.23c1.09.06,1.6.56,1.54,1.51l-.17,2.43-1.87-.09.17-2.42-3.89-.2-.15,2.13,4.83,3.85a1.55,1.55,0,0,1,.62,1.37Z"/><path class="cls-393" d="M1006.76,312l-1.9-.1,0-.34-2.31.15a22.76,22.76,0,0,1-2.28,0c-1-.06-1.55-.54-1.48-1.44l.31-4.47c.06-.93.64-1.37,1.73-1.32l4.53.24.25-3.68-4.14-.22-.14,2.09-1.87-.1.14-2.06c.07-.95.64-1.39,1.72-1.34l4.63.25c1.08,0,1.59.55,1.52,1.5Zm-1.76-1.62.29-4.32-4.29-.23-.31,4.4Z"/><path class="cls-393" d="M1017.84,304.38l-1.89-.1.17-2.53-3.55-.09-.74,10.64-1.92-.1.85-12.23,1.92.1,0,.34,1.94-.17a16.85,16.85,0,0,1,1.93-.05c1.06.06,1.56.54,1.5,1.46Z"/><path class="cls-393" d="M1027.69,311.71c-.07.94-.64,1.39-1.72,1.33l-4.63-.24c-1.08-.06-1.59-.56-1.52-1.51l.64-9.39c.07-.94.64-1.39,1.72-1.33l4.63.24c1.08.06,1.59.56,1.52,1.51l-.3,4.4-.69.55L1022,307l-.31,4.43,4.14.21.15-2.23,1.87.09Zm-1.47-5.83.25-3.69-4.14-.21-.25,3.68Z"/><path class="cls-393" d="M659.72,324.79l-1.91-.1,0-.34c-2.08.17-3.24.25-3.46.24a2.72,2.72,0,0,1-1.93-.83,2.36,2.36,0,0,1-.63-1.84l.5-7.16a2.44,2.44,0,0,1,1-1.83,3.19,3.19,0,0,1,2.19-.64l3.17.17.52-7.44,1.9.1Zm-1.81-1.62.64-9.24-2.66-.14c-1.06-.05-1.63.39-1.69,1.34l-.45,6.54c-.07.93.43,1.43,1.49,1.49Z"/><path class="cls-393" d="M670.85,324c-.06.95-.64,1.39-1.72,1.34L664.5,325c-1.08-.05-1.58-.55-1.52-1.5l.65-9.39c.07-.95.64-1.39,1.72-1.34l4.63.25c1.08.05,1.58.56,1.52,1.5l-.3,4.4-.7.56-5.35-.28-.3,4.42,4.13.22.16-2.24,1.86.1Zm-1.47-5.83.26-3.68-4.14-.22-.26,3.68Z"/><path class="cls-393" d="M681.61,324.52c-.06,1-.64,1.39-1.73,1.33l-4.41-.23c-1.09-.06-1.6-.56-1.54-1.51l.19-2.77,1.9.1-.19,2.75,3.89.2.17-2.44-4.79-3.84a1.5,1.5,0,0,1-.63-1.35l.14-2c.07-1,.64-1.4,1.73-1.34l4.36.23c1.09.06,1.6.56,1.53,1.51l-.17,2.44-1.86-.1.17-2.42-3.9-.2-.14,2.14,4.83,3.85a1.5,1.5,0,0,1,.61,1.37Z"/><path class="cls-393" d="M689.63,326.36l-2.73-.14c-1.08-.06-1.59-.56-1.52-1.5l.64-9.34-1.69-.09.1-1.47,1.69.09.26-3.81,1.9.1L688,314l2.46.12-.1,1.47-2.46-.12-.65,9.29,2.46.12Z"/><path class="cls-393" d="M700,318.67l-1.89-.1.17-2.52-3.55-.09L694,326.6l-1.92-.11.84-12.23,1.93.1,0,.34,1.95-.16a14.82,14.82,0,0,1,1.93-.05c1.06.06,1.56.54,1.5,1.46Z"/><path class="cls-393" d="M710.08,326c-.06.95-.64,1.4-1.73,1.34l-4.83-.26c-1.08,0-1.59-.55-1.52-1.5l.64-9.39c.07-.95.64-1.39,1.72-1.34l4.83.26c1.09.06,1.61.56,1.54,1.51Zm-1.92-.15.64-9.29-4.24-.22-.64,9.29Z"/><path class="cls-393" d="M721.9,315.79l-4.23,11.95-1.73,4.66-1.89-.1,1.74-4.66-2.63-12.31,2,.1,1.74,9.76,3.09-9.5Z"/><path class="cls-393" d="M725.42,328.25l-1.9-.1.85-12.23,1.89.1Zm1.06-14.91-2-.1.14-2.11,2,.1Z"/><path class="cls-393" d="M736.78,328.84l-1.93-.1.74-10.73-4.24-.13-.74,10.64-1.92-.1.84-12.23,1.93.1,0,.34,2.29-.15c.94-.05,1.7-.06,2.3,0,1.07.06,1.57.54,1.51,1.46Z"/><path class="cls-393" d="M747.66,332.65c-.06.94-.64,1.39-1.73,1.33l-4.57-.24c-1.11-.06-1.62-.69-1.54-1.89q0-.21.06-.63c0-.28.06-.48.07-.61l1.89.1-.11,1.62,4,.21.23-3.21-3.17-.17a3,3,0,0,1-2.09-.86,2.31,2.31,0,0,1-.72-1.92l.49-7.16a2.43,2.43,0,0,1,.88-1.76,2.77,2.77,0,0,1,2-.62c.22,0,1.35.21,3.4.6l0-.34,1.91.1Zm-1.58-4.79.64-9.24c-1.52-.17-2.41-.26-2.66-.27-1.06-.05-1.62.39-1.69,1.33l-.45,6.54c-.06.94.43,1.44,1.5,1.5Z"/><path class="cls-393" d="M765,328.9c-.07,1-.65,1.39-1.74,1.34l-4.83-.26c-1.08-.05-1.58-.55-1.52-1.5l.65-9.39c.07-.95.64-1.39,1.72-1.34l4.83.26c1.09.05,1.6.56,1.54,1.5Zm-1.92-.15.64-9.29-4.24-.22-.64,9.29Z"/><path class="cls-393" d="M776.14,330.91l-1.9-.1,0-.34-2.31.15q-1.41.08-2.31,0c-1-.06-1.53-.54-1.47-1.44l.75-10.95,1.9.1-.74,10.73,4.27.13.74-10.64,1.89.1Z"/><path class="cls-393" d="M787.21,323.26l-1.9-.1.17-2.53-3.55-.09-.73,10.64-1.92-.1.84-12.23,1.92.1,0,.34,1.94-.16a15.23,15.23,0,0,1,1.94-.06c1.06.06,1.56.55,1.49,1.46Z"/><path class="cls-393" d="M803.15,329.7a2.44,2.44,0,0,1-1,1.83,3.22,3.22,0,0,1-2.19.64l-5.1-.27,1.36-19.67,1.93.1-.54,7.78,2.3-.13a21.1,21.1,0,0,1,2.28-.05c1.08.06,1.58.54,1.52,1.46Zm-1.9-.36.54-7.85-4.25-.13-.63,9.17,2.66.14C800.62,330.72,801.18,330.28,801.25,329.34Z"/><path class="cls-393" d="M814.07,332.91l-1.9-.1,0-.34-2.3.14a22.76,22.76,0,0,1-2.28,0c-1.05-.05-1.55-.53-1.48-1.44l.3-4.46q.11-1.41,1.74-1.32l4.52.24L813,322l-4.14-.22-.14,2.09-1.87-.1.14-2.06c.07-.94.64-1.39,1.72-1.33l4.63.24c1.08.06,1.59.56,1.52,1.51Zm-1.77-1.62.3-4.33-4.29-.22-.31,4.4Z"/><path class="cls-393" d="M825.31,333.5l-1.93-.1.74-10.74-4.24-.12-.74,10.63-1.92-.1.84-12.23,1.93.1,0,.34,2.29-.14a20.37,20.37,0,0,1,2.3,0c1.07.05,1.57.54,1.51,1.45Z"/><path class="cls-393" d="M836.37,334.08l-1.89-.1,0-.34-2.3.14c-1,.05-1.72.07-2.28,0-1.06-.06-1.55-.54-1.49-1.44l.31-4.47c.06-.94.64-1.38,1.73-1.32l4.53.24.25-3.68-4.13-.22L831,325l-1.86-.09.14-2.07c.06-.94.64-1.39,1.72-1.33l4.63.24c1.08.06,1.58.56,1.52,1.51Zm-1.76-1.62.3-4.32-4.3-.23-.3,4.4Z"/><path class="cls-393" d="M847.61,334.67l-1.92-.1.74-10.74-4.25-.12-.73,10.64-1.92-.11.84-12.23,1.92.11,0,.33,2.29-.14c.93-.05,1.7-.06,2.3,0,1.07.06,1.57.54,1.51,1.45Z"/><path class="cls-393" d="M858.68,335.25l-1.9-.1,0-.34-2.31.15a22.76,22.76,0,0,1-2.28,0c-1.05-.06-1.54-.54-1.48-1.44l.31-4.47c.06-.93.64-1.37,1.73-1.32l4.53.24.25-3.68-4.14-.22-.14,2.09-1.87-.1.15-2.06c.06-.95.63-1.39,1.71-1.34l4.63.25c1.08.05,1.59.55,1.52,1.5Zm-1.76-1.62.3-4.32-4.3-.23-.3,4.4Z"/><path class="cls-393" d="M875.9,333.52a2.43,2.43,0,0,1-1,1.83,3.23,3.23,0,0,1-2.2.64l-3.16-.17-.32,4.64-1.93-.1,1.17-16.87,1.92.1,0,.34,2.3-.13a20.59,20.59,0,0,1,2.28,0c1.07.05,1.58.54,1.51,1.45Zm-1.91-.35.55-7.86-4.25-.12-.63,9.16,2.66.14C873.37,334.55,873.93,334.11,874,333.17Z"/><path class="cls-393" d="M880.81,336.41l-1.89-.1,1.35-19.67,1.9.1Z"/><path class="cls-393" d="M892,337l-1.9-.09,0-.34-2.3.14a22.76,22.76,0,0,1-2.28,0c-1.05-.05-1.55-.53-1.48-1.44l.31-4.46c.06-.94.64-1.38,1.73-1.32l4.52.23.26-3.68-4.14-.22-.14,2.09-1.87-.1.14-2.06c.07-.95.64-1.39,1.72-1.33l4.63.24c1.08.06,1.59.56,1.52,1.5Zm-1.76-1.61.29-4.33-4.29-.22-.31,4.39Z"/><path class="cls-393" d="M903.28,337.6l-1.93-.11.74-10.73-4.24-.12-.74,10.63-1.92-.1.84-12.23,1.93.1,0,.34,2.29-.14a18.25,18.25,0,0,1,2.3,0c1.07.05,1.57.54,1.51,1.45Z"/><path class="cls-393" d="M911.45,338l-2.74-.15c-1.08-.06-1.58-.56-1.52-1.5l.65-9.34-1.7-.09.11-1.47,1.69.09.26-3.81,1.9.1-.27,3.81,2.46.12-.1,1.48-2.46-.13-.64,9.29,2.46.13Z"/><path class="cls-393" d="M921.86,338.57l-1.89-.1,0-.34c-.76.06-1.53.1-2.3.15a22.76,22.76,0,0,1-2.28,0c-1-.06-1.55-.54-1.48-1.44l.3-4.46c.07-.94.65-1.38,1.73-1.33l4.53.24.26-3.68-4.14-.22-.14,2.09-1.87-.1.14-2.06c.07-1,.64-1.39,1.72-1.34l4.63.25c1.08.05,1.59.56,1.52,1.5ZM920.1,337l.3-4.32-4.29-.23-.31,4.4Z"/><path class="cls-393" d="M930.08,339l-2.73-.14c-1.08-.06-1.59-.56-1.52-1.5l.64-9.34-1.69-.09.1-1.47,1.69.09.27-3.81,1.89.1-.26,3.81,2.46.12-.1,1.48-2.46-.13-.65,9.29,2.46.12Z"/><path class="cls-393" d="M934.55,339.24l-1.89-.1.84-12.23,1.9.1Zm1.06-14.91-2-.1.14-2.11,2,.1Z"/><path class="cls-393" d="M946,338.42c-.06.94-.64,1.39-1.73,1.33l-4.83-.25c-1.08-.06-1.59-.56-1.52-1.51l.65-9.39c.06-1,.64-1.39,1.71-1.33l4.84.25c1.09.06,1.6.56,1.53,1.51Zm-1.92-.15.65-9.29-4.24-.23-.64,9.29Z"/><path class="cls-393" d="M957.13,340.43l-1.92-.1.74-10.74-4.25-.12L951,340.1l-1.92-.1.84-12.23,1.92.1,0,.34,2.29-.14a20.36,20.36,0,0,1,2.3,0c1.07,0,1.57.54,1.51,1.45Z"/><path class="cls-393" d="M962.22,340.69l-2.2-.11.16-2.21,2.2.11Z"/><path class="cls-393" d="M657.16,386.67l-2-.11.66-9.45-5.46-.29-.65,9.45-2-.1L649,366.5l2,.1-.6,8.65,5.46.29.59-8.65,2,.1Z"/><path class="cls-393" d="M668.51,385.84c-.07.94-.64,1.39-1.72,1.33l-4.63-.24c-1.08-.06-1.59-.56-1.52-1.51l.65-9.39c.06-.94.64-1.39,1.71-1.33l4.63.24c1.08.06,1.59.56,1.53,1.51l-.31,4.4-.69.55-5.35-.28-.31,4.43,4.14.21.15-2.23,1.87.1ZM667,380l.25-3.69-4.13-.21-.26,3.68Z"/><path class="cls-393" d="M673.6,387.53l-1.89-.1,1.36-19.67,1.89.1Z"/><path class="cls-393" d="M685.14,385.5a2.46,2.46,0,0,1-1,1.84,3.22,3.22,0,0,1-2.2.63l-3.16-.17-.32,4.64-1.93-.1,1.17-16.87,1.92.1,0,.34,2.3-.13a20.59,20.59,0,0,1,2.28,0c1.07.05,1.58.54,1.51,1.45Zm-1.91-.35.55-7.86-4.25-.12-.63,9.16,2.66.14C682.61,386.53,683.17,386.09,683.23,385.15Z"/><path class="cls-393" d="M708,389.34l-1.93-.1.75-10.74-4.21-.12L701.87,389l-1.91-.1.74-10.74-4.2-.12-.73,10.64-1.93-.11.85-12.23,1.92.11,0,.33,2.27-.14a22.63,22.63,0,0,1,2.28,0,1.64,1.64,0,0,1,1.27.53l2.44-.16a23.64,23.64,0,0,1,2.4-.05c1.06.05,1.56.54,1.5,1.45Z"/><path class="cls-393" d="M719.08,388.5c-.06.94-.64,1.39-1.72,1.33l-4.63-.24c-1.08-.06-1.58-.56-1.52-1.51l.65-9.39c.07-.94.64-1.39,1.72-1.33l4.63.24c1.08.06,1.58.56,1.52,1.51l-.3,4.4-.7.55-5.35-.28-.3,4.43,4.13.21.16-2.23,1.86.09Zm-1.47-5.83.26-3.69-4.14-.21-.26,3.68Z"/><path class="cls-393" d="M735.9,382.57l-1.9-.1.18-2.53-3.55-.08-.74,10.63-1.92-.1.84-12.23,1.93.1,0,.34,1.94-.16a15,15,0,0,1,1.94-.05c1.06.05,1.56.54,1.49,1.45Z"/><path class="cls-393" d="M745.74,389.9c-.06.94-.64,1.39-1.72,1.33l-4.63-.24c-1.08-.06-1.58-.56-1.52-1.51l.65-9.39c.07-.94.64-1.39,1.72-1.33l4.63.24c1.08.06,1.59.56,1.52,1.51l-.3,4.4-.7.55-5.35-.28-.3,4.43,4.13.21.16-2.23,1.86.1Zm-1.47-5.83.26-3.69-4.14-.21-.26,3.68Z"/><path class="cls-393" d="M763,392.23l-1.92-.1.74-10.74-4.2-.12-.74,10.64-1.91-.1.75-10.74-4.21-.12-.73,10.64-1.92-.1.84-12.24,1.92.11,0,.34,2.28-.15a22.63,22.63,0,0,1,2.28,0,1.66,1.66,0,0,1,1.27.53l2.43-.16a23.64,23.64,0,0,1,2.4-.05c1.06.05,1.56.54,1.5,1.45Z"/><path class="cls-393" d="M774.28,391.4c-.06.94-.64,1.39-1.73,1.33l-4.83-.25c-1.08-.06-1.59-.56-1.52-1.51l.64-9.39c.07-.94.64-1.39,1.72-1.33l4.83.25c1.09.06,1.61.56,1.54,1.51Zm-1.92-.15L773,382l-4.23-.23-.65,9.29Z"/><path class="cls-393" d="M786.09,381.17l-4.33,12.07-1.75-.09-2.65-12.44,2,.1,1.74,9.76,3.09-9.5Z"/><path class="cls-393" d="M795.58,392.52c-.07.94-.64,1.39-1.72,1.33l-4.63-.24c-1.08-.06-1.59-.56-1.52-1.51l.65-9.39c.06-.94.63-1.39,1.71-1.33l4.63.24c1.08.06,1.59.56,1.52,1.51l-.3,4.4-.69.55-5.35-.28-.31,4.43,4.14.21.15-2.23,1.87.09Zm-1.47-5.83.25-3.69-4.14-.21-.25,3.68Z"/><path class="cls-393" d="M809.52,394.68l-2.73-.15c-1.08,0-1.59-.56-1.52-1.5l.64-9.34-1.69-.09.1-1.47,1.69.09.27-3.81,1.89.1-.26,3.81,2.46.13-.1,1.47-2.46-.13-.64,9.29,2.46.13Z"/><path class="cls-393" d="M820.07,395.23l-1.92-.1.74-10.74-4.25-.12-.73,10.64-1.93-.1,1.36-19.68,1.93.1-.54,7.79,2.3-.14c1-.05,1.73-.07,2.28,0,1.07.06,1.58.54,1.52,1.45Z"/><path class="cls-393" d="M831.15,394.39c-.07.94-.64,1.39-1.72,1.33l-4.63-.24c-1.08-.06-1.59-.56-1.52-1.51l.65-9.39c.06-.94.63-1.39,1.71-1.33l4.63.24c1.08.06,1.59.56,1.53,1.51l-.31,4.4-.69.55-5.35-.28-.31,4.43,4.14.21.15-2.23,1.87.09Zm-1.47-5.83.25-3.69-4.14-.21-.25,3.68Z"/><path class="cls-393" d="M847.71,395.26c-.06.94-.64,1.39-1.73,1.33l-4.41-.23c-1.09-.06-1.61-.56-1.54-1.51l.19-2.77,1.9.1-.19,2.75,3.89.2.17-2.44-4.79-3.84a1.5,1.5,0,0,1-.63-1.35l.14-2c.06-1,.64-1.4,1.73-1.34l4.35.23c1.09.06,1.61.56,1.54,1.51l-.17,2.43-1.87-.09.17-2.42-3.89-.2-.15,2.14,4.83,3.85a1.5,1.5,0,0,1,.62,1.36Z"/><path class="cls-393" d="M855.73,397.1,853,397c-1.08-.06-1.58-.56-1.52-1.5l.65-9.34-1.7-.09.11-1.47,1.69.09.26-3.81,1.9.1-.27,3.81,2.46.12-.1,1.47-2.46-.12-.64,9.28,2.46.13Z"/><path class="cls-393" d="M866.37,396.24c-.06.95-.64,1.39-1.73,1.33l-4.83-.25c-1.08-.06-1.59-.56-1.52-1.51l.64-9.39c.07-.94.64-1.39,1.72-1.33l4.83.25c1.09.06,1.61.56,1.54,1.51Zm-1.92-.15.64-9.29-4.24-.23-.64,9.29Z"/><path class="cls-393" d="M877.5,398.25l-1.92-.1.74-10.74-4.25-.12-.73,10.64-1.93-.11.85-12.23,1.92.1,0,.34,2.29-.14a22.87,22.87,0,0,1,2.29,0c1.07.06,1.58.54,1.51,1.45Z"/><path class="cls-393" d="M888.58,397.41c-.07.94-.64,1.39-1.72,1.33l-4.63-.24c-1.08-.06-1.59-.56-1.52-1.51l.65-9.39c.06-.94.63-1.39,1.71-1.33l4.63.24c1.08.06,1.59.56,1.52,1.51l-.3,4.4-.69.55-5.35-.28-.31,4.43,4.14.21.15-2.23,1.87.09Zm-1.47-5.83.25-3.69-4.14-.21-.25,3.68Z"/><path class="cls-393" d="M899.34,398c-.07.95-.64,1.39-1.73,1.34l-4.42-.24c-1.09-.05-1.6-.56-1.53-1.5l.19-2.78,1.89.1-.19,2.75,3.9.21.16-2.44-4.78-3.85a1.49,1.49,0,0,1-.63-1.34l.14-2c.06-.95.64-1.39,1.73-1.33l4.35.22c1.09.06,1.6.56,1.54,1.51l-.17,2.44-1.87-.1.17-2.41-3.89-.21-.15,2.14,4.83,3.85a1.51,1.51,0,0,1,.62,1.37Z"/><path class="cls-393" d="M916.05,400.28l-1.89-.1,0-.34-2.3.14c-1,0-1.72.06-2.29,0-1.05-.05-1.54-.53-1.48-1.44l.31-4.46c.06-.94.64-1.38,1.73-1.32l4.53.24.25-3.69-4.13-.22-.15,2.09-1.86-.1.14-2.06c.06-.95.64-1.39,1.72-1.33l4.63.24c1.07.06,1.58.56,1.52,1.51Zm-1.76-1.62.3-4.33-4.3-.22-.3,4.4Z"/><path class="cls-393" d="M927.29,400.87l-1.92-.1.74-10.74-4.25-.12-.73,10.63-1.93-.1.85-12.23,1.92.1,0,.34,2.29-.14a18.23,18.23,0,0,1,2.3,0c1.07,0,1.57.54,1.51,1.45Z"/><path class="cls-393" d="M938.4,401.45l-1.91-.1,0-.34q-3.12.25-3.45.24a2.7,2.7,0,0,1-1.93-.83,2.36,2.36,0,0,1-.63-1.84l.49-7.16a2.44,2.44,0,0,1,1-1.83,3.23,3.23,0,0,1,2.2-.64l3.16.17.52-7.44,1.91.1Zm-1.8-1.62.63-9.24-2.66-.14c-1.06-.06-1.62.39-1.69,1.34l-.45,6.53c-.06.94.43,1.44,1.49,1.5Z"/><path class="cls-393" d="M955.64,399.72a2.44,2.44,0,0,1-1,1.83,3.19,3.19,0,0,1-2.19.64l-3.17-.17-.32,4.64-1.92-.1,1.16-16.87,1.93.1,0,.34,2.31-.13a20.59,20.59,0,0,1,2.28,0c1.07.05,1.57.54,1.51,1.45Zm-1.91-.35.54-7.86-4.24-.12-.64,9.16,2.67.14C953.11,400.75,953.67,400.31,953.73,399.37Z"/><path class="cls-393" d="M960.55,402.61l-1.9-.09.85-12.24,1.89.1Zm1.06-14.9-2-.1.15-2.12,2,.11Z"/><path class="cls-393" d="M971.73,401.78c-.07.94-.64,1.39-1.72,1.33l-4.57-.24c-1.08-.06-1.59-.56-1.52-1.5l.64-9.39c.07-1,.64-1.4,1.72-1.34l4.57.24c1.08.06,1.59.56,1.53,1.51l-.17,2.44-1.9-.1.17-2.39-4-.21-.64,9.29,4,.21.19-2.73,1.9.1Z"/><path class="cls-393" d="M982.65,403.78l-2.1-.11-3.44-6.44-.43,6.23-1.93-.1,1.36-19.67,1.93.1-.87,12.5,4-4.87,2.07.11v.05l-4.47,5.19Z"/><path class="cls-393" d="M995.54,404.45l-2.73-.14c-1.09-.06-1.59-.56-1.53-1.51l.65-9.34-1.69-.08.1-1.47L992,392l.26-3.81,1.9.1-.27,3.8,2.46.13-.1,1.47-2.46-.13-.64,9.29,2.46.13Z"/><path class="cls-393" d="M1006.08,405l-1.92-.1.74-10.74-4.24-.12-.74,10.63-1.92-.1,1.36-19.67,1.92.1-.54,7.78,2.31-.13a20.59,20.59,0,0,1,2.28,0c1.07.05,1.57.54,1.51,1.45Z"/><path class="cls-393" d="M1017.16,404.17c-.06.94-.64,1.39-1.72,1.33l-4.63-.24c-1.07-.06-1.58-.56-1.52-1.51l.65-9.39c.07-.95.64-1.39,1.72-1.33l4.63.24c1.08.06,1.59.56,1.52,1.51l-.3,4.39-.69.56-5.36-.28-.3,4.43,4.13.21.16-2.24,1.87.1Zm-1.47-5.83.26-3.69-4.14-.22-.26,3.69Z"/><path class="cls-393" d="M653.58,414.85a2.44,2.44,0,0,1-1,1.83,3.19,3.19,0,0,1-2.19.64l-5.09-.27,1.35-19.67,1.93.1-.54,7.78,2.3-.13a21.28,21.28,0,0,1,2.29-.05c1.07.06,1.57.54,1.51,1.46Zm-1.9-.36.54-7.85-4.25-.12-.63,9.16,2.66.14C651.05,415.87,651.61,415.43,651.68,414.49Z"/><path class="cls-393" d="M664.5,418.06l-1.9-.1,0-.34-2.31.14a22.76,22.76,0,0,1-2.28,0c-1-.05-1.54-.53-1.48-1.44l.31-4.46c.06-.94.64-1.38,1.73-1.32l4.53.24.25-3.69-4.14-.21L659.1,409l-1.87-.1.15-2.06c.06-.94.63-1.39,1.71-1.33l4.63.24c1.08.06,1.59.56,1.52,1.51Zm-1.76-1.62.3-4.33-4.3-.22-.3,4.4Z"/><path class="cls-393" d="M675.74,418.65l-1.93-.1.75-10.74-4.25-.12-.73,10.63-1.93-.1L668.5,406l1.92.1,0,.34,2.29-.14a22.85,22.85,0,0,1,2.29,0c1.07.05,1.58.54,1.51,1.45Z"/><path class="cls-393" d="M686.8,419.23l-1.89-.1,0-.34-2.3.14c-1,.05-1.71.07-2.28,0-1.05-.06-1.55-.54-1.48-1.44l.3-4.47c.07-.94.64-1.38,1.74-1.32l4.52.24.26-3.68-4.14-.22-.15,2.09-1.86-.1.14-2.06c.07-.95.64-1.4,1.72-1.34l4.63.24c1.08.06,1.59.56,1.52,1.51ZM685,417.61l.3-4.32-4.3-.23-.3,4.4Z"/><path class="cls-393" d="M698,419.82l-1.92-.1.74-10.74-4.24-.12-.74,10.64-1.92-.11.84-12.23,1.93.11,0,.33,2.29-.14c.94,0,1.7-.06,2.3,0,1.07.06,1.57.54,1.51,1.45Z"/><path class="cls-393" d="M709.11,420.4l-1.89-.1,0-.34-2.31.15a22.76,22.76,0,0,1-2.28,0c-1-.06-1.54-.54-1.48-1.44l.31-4.47c.06-.93.64-1.37,1.73-1.32l4.53.24.25-3.68-4.14-.22-.14,2.09-1.86-.1.14-2.06c.06-.95.64-1.39,1.72-1.34l4.62.25c1.09.05,1.59.55,1.53,1.5Zm-1.76-1.62.3-4.32-4.3-.23-.3,4.4Z"/><path class="cls-393" d="M719.94,419.55c-.06.94-.64,1.39-1.73,1.33l-4.41-.23c-1.09-.06-1.6-.56-1.54-1.51l.19-2.78,1.9.1-.19,2.76,3.89.2.17-2.44-4.79-3.84a1.51,1.51,0,0,1-.63-1.35l.14-2c.06-.94.64-1.39,1.73-1.33l4.36.23q1.63.09,1.53,1.5l-.17,2.44-1.86-.1.16-2.41-3.89-.2-.15,2.13,4.84,3.85a1.53,1.53,0,0,1,.61,1.37Z"/><path class="cls-393" d="M737,419.23a2.49,2.49,0,0,1-1,1.83,3.19,3.19,0,0,1-2.19.64l-5.09-.27,1.36-19.67,1.92.1-.54,7.78,2.3-.13a20.79,20.79,0,0,1,2.29,0c1.07,0,1.57.54,1.51,1.45Zm-1.91-.35.54-7.86-4.24-.12-.64,9.16,2.66.14C734.44,420.26,735,419.82,735.06,418.88Z"/><path class="cls-393" d="M747.89,421c-.07.95-.64,1.4-1.72,1.34l-4.63-.24c-1.08-.06-1.58-.56-1.52-1.51l.65-9.39c.06-.95.64-1.39,1.72-1.33l4.63.24c1.08.06,1.58.56,1.52,1.51l-.31,4.39-.69.56-5.35-.28-.31,4.42,4.14.22.16-2.24,1.86.1Zm-1.47-5.83.25-3.68-4.13-.22-.26,3.69Z"/><path class="cls-393" d="M757.55,404.68l-2.72-.14-.41,6,2.4.12-.1,1.48-2.4-.13-.74,10.76-1.9-.1.75-10.76-1.64-.09.1-1.47,1.64.09.41-6c.07-.95.64-1.39,1.72-1.34l3,.16Z"/><path class="cls-393" d="M766.2,422c-.06.94-.64,1.39-1.73,1.33l-4.83-.25c-1.08-.06-1.59-.56-1.52-1.51l.65-9.39c.06-.94.63-1.39,1.71-1.33l4.84.25c1.09.06,1.6.56,1.53,1.51Zm-1.92-.15.64-9.29-4.23-.23L760,421.6Z"/><path class="cls-393" d="M777.17,415.74l-1.89-.1.17-2.52L771.9,413l-.73,10.63-1.92-.1.84-12.23,1.92.1,0,.34,1.94-.16a14.94,14.94,0,0,1,1.94-.05c1.06.06,1.56.54,1.49,1.45Z"/><path class="cls-393" d="M787,423.07c-.07.95-.64,1.39-1.72,1.34l-4.63-.25c-1.08-.05-1.59-.56-1.52-1.5l.65-9.39c.06-.95.64-1.39,1.72-1.34l4.63.25c1.08.05,1.58.56,1.52,1.5l-.31,4.4-.69.56-5.35-.28-.31,4.42,4.14.22.16-2.24,1.86.1Zm-1.47-5.83.25-3.68-4.13-.22-.26,3.68Z"/><path class="cls-393" d="M801,425.23l-2.74-.14c-1.08-.06-1.58-.56-1.52-1.51l.65-9.34-1.69-.09.1-1.47,1.69.09.26-3.81,1.9.1-.27,3.81,2.46.13-.1,1.47-2.46-.13-.64,9.29,2.46.13Z"/><path class="cls-393" d="M811.51,425.78l-1.92-.1.74-10.73-4.24-.12-.74,10.63-1.92-.1,1.36-19.67,1.92.1-.54,7.78,2.3-.13c1-.06,1.74-.07,2.29-.05,1.07.06,1.57.55,1.51,1.46Z"/><path class="cls-393" d="M822.59,424.94c-.06.95-.64,1.39-1.72,1.34l-4.63-.25c-1.08,0-1.58-.55-1.52-1.5l.65-9.39c.07-.95.64-1.39,1.72-1.34l4.63.25c1.08.05,1.58.55,1.52,1.5l-.3,4.4-.7.56-5.35-.28-.3,4.42,4.13.22.16-2.24,1.86.1Zm-1.47-5.83.26-3.68-4.14-.22-.26,3.68Z"/><path class="cls-393" d="M834.45,414.72l-4.22,11.95-1.73,4.66-1.9-.1,1.74-4.66-2.63-12.31,2,.1,1.74,9.75,3.09-9.5Z"/><path class="cls-393" d="M849.54,431c-.07.95-.64,1.4-1.73,1.34l-4.57-.24c-1.11-.06-1.63-.69-1.54-1.89q0-.21.06-.63c0-.28.06-.48.07-.61l1.89.1-.11,1.62,4,.21.22-3.22-3.17-.16a3.13,3.13,0,0,1-2.09-.86,2.38,2.38,0,0,1-.72-1.93l.5-7.15a2.44,2.44,0,0,1,.87-1.76,2.78,2.78,0,0,1,2-.62c.23,0,1.36.21,3.4.59l0-.34,1.91.1ZM848,426.22l.64-9.23c-1.52-.17-2.4-.26-2.65-.27-1.06-.06-1.62.39-1.69,1.32l-.45,6.55c-.07.94.43,1.44,1.49,1.49Z"/><path class="cls-393" d="M861.11,427c-.06.94-.64,1.39-1.73,1.33l-4.83-.25c-1.08-.06-1.59-.56-1.52-1.51l.65-9.39c.06-.94.63-1.39,1.71-1.33l4.84.25c1.09.06,1.6.56,1.53,1.51Zm-1.92-.15.64-9.29-4.23-.23-.64,9.29Z"/><path class="cls-393" d="M878.22,426.65a2.45,2.45,0,0,1-1,1.84,3.13,3.13,0,0,1-2.19.63l-5.09-.26,1.35-19.67,1.93.1-.54,7.78,2.3-.13a21.24,21.24,0,0,1,2.29-.05c1.07.06,1.57.54,1.51,1.46Zm-1.9-.35.54-7.85-4.25-.13-.63,9.17,2.66.14C875.69,427.68,876.25,427.24,876.32,426.3Z"/><path class="cls-393" d="M889.14,429.87l-1.9-.1,0-.34-2.31.14a22.76,22.76,0,0,1-2.28,0c-1-.05-1.54-.53-1.48-1.44l.31-4.46c.06-.94.64-1.38,1.73-1.32l4.53.23.25-3.68-4.14-.22-.14,2.09-1.87-.1.14-2.06c.07-.95.64-1.39,1.72-1.33l4.63.24c1.08.06,1.59.56,1.52,1.51Zm-1.76-1.62.29-4.33-4.29-.22-.31,4.4Z"/><path class="cls-393" d="M900.29,430.45l-1.91-.1,0-.34q-3.12.25-3.45.24a2.7,2.7,0,0,1-1.93-.83,2.36,2.36,0,0,1-.63-1.84l.49-7.16a2.42,2.42,0,0,1,1-1.83,3.19,3.19,0,0,1,2.19-.64l3.17.17.51-7.44,1.91.1Zm-1.8-1.62.63-9.24-2.66-.14c-1.06-.05-1.62.39-1.69,1.34l-.45,6.53c-.06.94.43,1.44,1.49,1.5Z"/><path class="cls-393" d="M905.88,428.52l-1.52,3.55L903,432l.67-3.58Z"/><path class="cls-22" d="M1073.74,578.34,1068.17,568c-2.63-4.88-.2-10.75,5.4-13L1149,524.08c5.6-2.29,12.32-.17,15,4.71l5.57,10.36c2.63,4.88.2,10.75-5.4,13l-75.39,30.86C1083.09,585.34,1076.37,583.22,1073.74,578.34Z"/><path class="cls-22" d="M1040.94,501.83l11.61-5.33c5.47-2.51,12.3-.65,15.18,4.12l36.74,61c2.88,4.77.76,10.73-4.72,13.24l-11.6,5.33c-5.47,2.51-12.3.65-15.18-4.12l-36.75-61C1033.34,510.3,1035.47,504.34,1040.94,501.83Z"/><path class="cls-22" d="M1050.92,507.78l-15.8,3.35c-5.39,1.43-9.37-3.83-11.18-9L1020.39,492c-1.8-5.16,1.63-8.12,6.26-5.08l-1-4.09c0-2.57,1.64-3,3.27-3.44l4.51,1.44c-1.18-.82-2.33-8,4.89-5.84,1,.28,3.21,1.22,3,.22-.44-2.42-2.36-7.89,7.27-2.75,8.42,4.5,4.93-10.72,11.23-5.49l5.18,30.16C1071.05,498.93,1056.32,506.34,1050.92,507.78Z"/><path class="cls-22" d="M1394.06,555.76l11.61-5.32c5.47-2.51,12.3-.66,15.18,4.11l36.75,61c2.87,4.78.75,10.74-4.72,13.25l-11.61,5.32c-5.47,2.51-12.3.66-15.18-4.12l-36.75-61C1386.47,564.23,1388.59,558.27,1394.06,555.76Z"/><path class="cls-22" d="M1441.19,688.16l14.09,5c5,1.51,4.71,7.37,2.83,12.11l-3.69,9.33c-1.88,4.74-6.34,5.33-8,.83l-1.83,3.53c-1.61,1.93-3.12,1.47-4.64,1l-2.51-3.24c.38,1.19-3.26,7.13-7.38,2.06-.55-.68-1.67-2.46-2.16-1.62-1.19,2-3.18,7-7.25-1.42-3.55-7.41-10.48,5.7-12-1.25l15-25.14C1420.36,685.17,1436.2,686.65,1441.19,688.16Z"/><rect class="cls-22" x="1424.41" y="614.21" width="35.59" height="88.51" rx="12" transform="translate(2884.41 1316.92) rotate(180)"/><path class="cls-22" d="M1235.28,862.21l-12.84-2.33c-6-1.1-10-6.33-8.71-11.61l17-71.12c1.26-5.28,7.25-8.7,13.3-7.6l12.84,2.34c6.05,1.1,10,6.32,8.71,11.6l-17,71.12C1247.32,859.89,1241.33,863.31,1235.28,862.21Z"/><path class="cls-22" d="M1365.25,857.55l-12.55,3.32c-5.91,1.57-12.22-1.37-14-6.54l-24.17-69.52c-1.8-5.16,1.57-10.67,7.49-12.23l12.55-3.32c5.91-1.57,12.22,1.37,14,6.53l24.17,69.53C1374.54,850.48,1371.17,856,1365.25,857.55Z"/><path class="cls-402" d="M1209.69,869.29,1170.35,875c-4,0-10.31-4.65-10.31-8.18l-1.87-7.35c-2.78-15.73,24.33-1.23,30-1.23l25.26-6.13c5.67,0,36,3.68,34.66,4.91l-.94,14.71C1246.34,876.72,1208.75,874.2,1209.69,869.29Z"/><path class="cls-403" d="M1188.17,858.26l25.26-6.13c-5.66,0,36,3.68,34.66,4.91"/><path class="cls-402" d="M1374.36,865.85l37.81,11.09c4,.56,11-3.16,11.66-6.64l3.18-7c5.61-15.15-23.8-4.58-29.4-5.36l-23.83-9.55c-5.59-.78-36.24-1.35-35.1.05l-1.75,14.65C1336.83,868.11,1374.4,870.82,1374.36,865.85Z"/><path class="cls-393" d="M1394.36,794.52H1168.63c-6.19,0-11.24-4.41-11.24-9.8l27.16-275.39c0-5.4,86.17-31.87,72.12,1.63l55.27.82c-15.93-29.42,50.58-16.35,62.75-9.81l30.91,282.75C1405.6,790.11,1400.54,794.52,1394.36,794.52Z"/><path class="cls-404" d="M1144.3,575.22c43.52-20.78,72.12-48.26,63.89-61.39s-50.19-6.94-93.71,13.84"/><path class="cls-404" d="M1434.2,549.7c-25.5-35.16-57.83-57.22-72.21-49.28s-5.37,42.88,20.14,78"/><path class="cls-405" d="M1332.62,682c-23.54,31.51-32.12,63-19.16,70.39s42.54-12.2,66.08-43.71"/><path class="cls-405" d="M1180.57,707.77c23.51,33,53.78,53.71,67.61,46.21s6-40.33-17.54-73.35"/><ellipse class="cls-397" cx="1269.52" cy="586.73" rx="18.32" ry="26.47" transform="translate(-104.53 326.14) rotate(-14.07)"/><path class="cls-398" d="M1250.31,589.72c-3-14.89,3-27.88,13.78-29.55s21.61,8.67,24.65,23.57-3,27.87-13.78,29.55S1253.35,604.62,1250.31,589.72Zm36.28-5.65c-2.8-13.68-13-24-22.23-22.59s-14.7,14.22-11.91,27.91,13,24,22.24,22.58S1289.39,597.75,1286.59,584.07Z"/><ellipse class="cls-406" cx="1301.35" cy="588.81" rx="37.62" ry="12.89" transform="translate(-109.55 811.47) rotate(-33.31)"/><ellipse class="cls-406" cx="1283.96" cy="627.02" rx="16.59" ry="29.24" transform="translate(-103.32 969.32) rotate(-39.89)"/><ellipse class="cls-406" cx="1250.89" cy="626.42" rx="32.3" ry="13.05" transform="translate(-137.94 794.55) rotate(-33.5)"/><ellipse class="cls-406" cx="1237.04" cy="596.42" rx="14" ry="34.65" transform="translate(155.81 1443.14) rotate(-63.81)"/><ellipse class="cls-406" cx="1308.71" cy="611.2" rx="11.06" ry="43.84" transform="translate(682.29 1912.7) rotate(-89.33)"/><ellipse class="cls-407" cx="1274.78" cy="606.28" rx="10.66" ry="11.73" transform="translate(568.73 1828.62) rotate(-85.42)"/><path class="cls-408" d="M1259,608.74c-1.5-7.37,4.27-14.23,13.14-15.61s17,3.31,18.52,10.68-4.27,14.23-13.14,15.62S1260.46,616.11,1259,608.74Zm23.06-3.59c-1-4.64-5.42-7.28-8.84-6.75s-6.57,4.36-5.62,9,5.42,7.28,8.84,6.75S1283,609.79,1282,605.15Z"/></g></svg>
