<svg id="Layer_1" data-name="Layer 1" xmlns="http://www.w3.org/2000/svg" width="1200" height="300" viewBox="0 0 1200 300"><defs><style>.cls-1{fill:#6a6b6b;}.cls-1,.cls-2,.cls-3,.cls-4,.cls-5,.cls-6,.cls-7{stroke:#000;stroke-miterlimit:10;}.cls-2,.cls-5{fill:none;}.cls-3{fill:#f5f7f6;}.cls-4{fill:#666;}.cls-5,.cls-6,.cls-7{stroke-width:2px;}.cls-6{fill:#0a2322;}.cls-7{fill:#0d3534;}</style></defs><title>Artboard 1</title><path class="cls-1" d="M40.31,182c4.51-4.89,10.12-12.51,12.16-22.79,2.55-12.88-2.27-21.09,3-25.83,4.9-4.38,14.55-2.34,19.76,0,5,2.25,4.5,4.15,10.63,7.6,8.44,4.74,11.55,2.35,16.72,6.07,7.25,5.22,8.53,15.21,9.12,19.76,1.34,10.45-2.73,12-1.52,22.79,1,8.91,4,9.71,6.07,19.75.72,3.4,3,14.26,0,24.32-5,16.92-22.91,24.74-28.87,27.35-15,6.54-42.25,11.64-53.18-1.52-.68-.82-1-7.33-1.93-20.18-.61-8.47-.95-15.68-1.11-19.33-.12-2.7-.17-4-.21-5.25-.37-13.82-.49-20.85,3.25-26.66A21,21,0,0,1,40.31,182Z"/><path class="cls-2" d="M59.58,194.7c18.77-59.24,13-26.31,13.68-28.87,2.66-10.3,21.46-1.05,21.27-7.6"/><path class="cls-2" d="M55,197.74c-7.09,6.08-10.63-12.16-18.23,21.27"/><path class="cls-3" d="M93.5,190.5c0,5.45-8.27,8.76-10.37,8.76s-3.79-4.42-3.79-9.88,1.7-9.88,3.79-9.88S93.5,185.05,93.5,190.5Z"/><path class="cls-3" d="M63.5,228.5c0,5-9,1.15-11.52,1.15s-4.55-4.08-4.55-9.12,2-9.12,4.55-9.12S63.5,223.46,63.5,228.5Z"/><ellipse class="cls-4" cx="84.5" cy="229.5" rx="9" ry="12"/><line class="cls-2" x1="111.5" y1="193.5" x2="143.5" y2="162.5"/><line class="cls-2" x1="32.5" y1="231.5" x2="14.5" y2="247.5"/><line class="cls-5" x1="68.5" y1="266.5" x2="69.5" y2="293.5"/><line class="cls-5" x1="101" y1="255" x2="103" y2="288"/><ellipse class="cls-5" cx="146" cy="161.5" rx="3" ry="3.5"/><ellipse class="cls-6" cx="108" cy="288" rx="8" ry="3"/><ellipse class="cls-7" cx="77" cy="292" rx="8" ry="3"/><ellipse class="cls-5" cx="13.5" cy="252" rx="0.5" ry="5"/><path class="cls-1" d="M271.31,107c4.51-4.89,10.12-12.51,12.16-22.79,2.55-12.88-2.27-21.09,3-25.83,4.9-4.38,14.55-2.34,19.76,0,5,2.25,4.5,4.15,10.63,7.6,8.44,4.74,11.55,2.35,16.72,6.07,7.25,5.22,8.53,15.21,9.12,19.76,1.34,10.45-2.73,12-1.52,22.79,1,8.91,4,9.71,6.07,19.75.72,3.4,3,14.26,0,24.32-5,16.92-22.91,24.74-28.87,27.35-15,6.54-42.25,11.64-53.18-1.52-.68-.82-1-7.33-1.93-20.18-.61-8.47-.95-15.68-1.11-19.33-.12-2.7-.17-4-.21-5.25-.37-13.82-.49-20.85,3.25-26.66A21,21,0,0,1,271.31,107Z"/><path class="cls-2" d="M290.58,119.7c18.77-59.24,13-26.31,13.68-28.87,2.66-10.3,21.46-1,21.27-7.6"/><path class="cls-2" d="M286,122.74c-7.09,6.08-10.63-12.16-18.23,21.27"/><path class="cls-3" d="M334.5,119.5c0,5.45-18.9,18-21,18s-3.16-17.66-3.16-23.12,1.7-9.88,3.79-9.88S334.5,114.05,334.5,119.5Z"/><path class="cls-3" d="M294.5,153.5c0,5-9,1.15-11.52,1.15s-4.55-4.08-4.55-9.12,2-9.12,4.55-9.12S294.5,148.46,294.5,153.5Z"/><ellipse class="cls-4" cx="316.49" cy="161.51" rx="25.47" ry="13" transform="translate(-37.96 136.74) rotate(-23.04)"/><line class="cls-2" x1="342.5" y1="118.5" x2="374.5" y2="87.5"/><line class="cls-2" x1="263.5" y1="156.5" x2="245.5" y2="172.5"/><line class="cls-5" x1="332" y1="180" x2="334" y2="213"/><ellipse class="cls-5" cx="377" cy="86.5" rx="3" ry="3.5"/><ellipse class="cls-6" cx="339" cy="213" rx="8" ry="3"/><ellipse class="cls-7" cx="254" cy="228" rx="8" ry="3"/><ellipse class="cls-5" cx="244.5" cy="177" rx="0.5" ry="5"/><path class="cls-1" d="M482.87,57.15C487.38,52.26,493,44.64,495,34.36c2.55-12.88-2.26-21.09,3-25.83,4.89-4.38,14.55-2.34,19.75,0,5,2.25,4.51,4.15,10.64,7.6,8.43,4.74,11.54,2.35,16.71,6.07,7.25,5.22,8.54,15.21,9.12,19.76,1.34,10.45-2.72,12-1.52,22.79,1,8.91,4,9.71,6.08,19.75.71,3.4,3,14.26,0,24.32-5,16.92-22.92,24.74-28.87,27.35-15,6.54-42.26,11.64-53.19-1.52-.67-.82-1-7.34-1.93-20.18-.6-8.47-.95-15.68-1.1-19.33-.12-2.7-.18-4-.21-5.25-.38-13.82-.49-20.85,3.24-26.66A21.11,21.11,0,0,1,482.87,57.15Z"/><path class="cls-2" d="M502.15,69.83c18.76-59.24,13-26.31,13.67-28.87,2.67-10.3,21.46-1.06,21.27-7.6"/><path class="cls-2" d="M497.59,72.87C490.5,79,487,60.71,479.35,94.14"/><path class="cls-3" d="M548.5,67.5c0,5.45-16.2,32.11-20,21-.68-2-13-18.55-13-24s8.1-9.87,10.2-9.87S548.5,62.05,548.5,67.5Z"/><path class="cls-3" d="M515,109.41c0,9-17.91,2-22.92,2S483,104.19,483,95.23,487.06,79,492.08,79,515,100.45,515,109.41Z"/><ellipse class="cls-4" cx="527.06" cy="104.63" rx="9" ry="12"/><line class="cls-2" x1="554.06" y1="68.63" x2="586.06" y2="37.63"/><line class="cls-2" x1="475.06" y1="106.63" x2="457.06" y2="122.63"/><line class="cls-5" x1="511.06" y1="141.63" x2="512.06" y2="168.63"/><ellipse class="cls-5" cx="588.56" cy="36.63" rx="3" ry="3.5"/><path class="cls-6" d="M594.5,162.5c0-1.66-7.56-.13-8-3-.67-4.37-8,1.34-8,3s3.58,3,8,3S594.5,164.16,594.5,162.5Z"/><ellipse class="cls-7" cx="519.56" cy="167.13" rx="8" ry="3"/><ellipse class="cls-5" cx="456.06" cy="127.13" rx="0.5" ry="5"/><path class="cls-1" d="M685.31,89c4.51-4.89,10.12-12.51,12.16-22.79,2.55-12.88-2.27-21.09,3-25.83,4.9-4.38,14.55-2.34,19.76,0,5,2.25,4.5,4.15,10.63,7.6,8.44,4.74,11.55,2.35,16.72,6.07,7.25,5.22,8.53,15.21,9.12,19.76,1.34,10.45-2.73,12-1.52,22.79,1,8.91,4,9.71,6.07,19.75.72,3.4,3,14.26,0,24.32-5,16.92-22.91,24.74-28.87,27.35-14.95,6.54-42.25,11.64-53.18-1.52-.68-.82-1-7.33-1.93-20.18-.61-8.47-.95-15.68-1.11-19.33-.12-2.7-.17-4.05-.21-5.25-.37-13.82-.49-20.85,3.25-26.66A21,21,0,0,1,685.31,89Z"/><path class="cls-2" d="M704.58,101.7c18.77-59.24,13-26.31,13.68-28.87,2.66-10.3,21.46-1,21.27-7.6"/><path class="cls-2" d="M700,104.74c-7.09,6.08-10.63-12.16-18.23,21.27"/><path class="cls-3" d="M738.5,97.5c0,5.45-8.27,8.76-10.37,8.76s-3.79-4.42-3.79-9.88,1.7-9.88,3.79-9.88S738.5,92.05,738.5,97.5Z"/><path class="cls-3" d="M709.5,131.5c0,5-13.48,19-16,19s-.07-21.93-.07-27,2-9.12,4.55-9.12S709.5,126.46,709.5,131.5Z"/><path class="cls-4" d="M703.5,156.5c0,6.63,18-7,23-7s20-21.37,20-28-15,4-20,4S703.5,149.87,703.5,156.5Z"/><line class="cls-2" x1="677.5" y1="138.5" x2="659.5" y2="154.5"/><line class="cls-5" x1="746" y1="162" x2="748" y2="195"/><ellipse class="cls-6" cx="753" cy="195" rx="8" ry="3"/><ellipse class="cls-7" cx="664" cy="199" rx="8" ry="3"/><ellipse class="cls-5" cx="658.5" cy="159" rx="0.5" ry="5"/><path class="cls-1" d="M876.31,173c4.51-4.89,10.12-12.51,12.16-22.79,2.55-12.88-2.27-21.09,3-25.83,4.9-4.38,14.55-2.34,19.76,0,5,2.25,4.5,4.15,10.63,7.6,8.44,4.74,11.55,2.35,16.72,6.07,7.25,5.22,8.53,15.21,9.12,19.76,1.34,10.45-2.73,12-1.52,22.79,1,8.91,4,9.71,6.07,19.75.72,3.4,3,14.26,0,24.32-5,16.92-22.91,24.74-28.87,27.35-14.95,6.54-42.25,11.64-53.18-1.52-.68-.82-1-7.33-1.93-20.18-.61-8.47-.95-15.68-1.11-19.33-.12-2.7-.17-4-.21-5.25-.37-13.82-.49-20.85,3.25-26.66A21,21,0,0,1,876.31,173Z"/><path class="cls-2" d="M895.58,185.7c18.77-59.24,13-26.31,13.68-28.87,2.66-10.3,21.46-1.05,21.27-7.6"/><path class="cls-2" d="M891,188.74c-7.09,6.08-10.63-12.16-18.23,21.27"/><path class="cls-3" d="M936.5,187.5c0,5.45-15.27,2.76-17.37,2.76s-3.79-4.42-3.79-9.88,1.7-9.88,3.79-9.88S936.5,182.05,936.5,187.5Z"/><path class="cls-3" d="M899.5,219.5c0,5-9,1.15-11.52,1.15s-4.55-4.08-4.55-9.12,2-9.12,4.55-9.12S899.5,214.46,899.5,219.5Z"/><ellipse class="cls-4" cx="920.5" cy="220.5" rx="9" ry="12"/><line class="cls-2" x1="947.5" y1="184.5" x2="979.5" y2="153.5"/><line class="cls-2" x1="868.5" y1="222.5" x2="850.5" y2="238.5"/><line class="cls-5" x1="937" y1="246" x2="939" y2="279"/><ellipse class="cls-5" cx="982" cy="152.5" rx="3" ry="3.5"/><ellipse class="cls-6" cx="944" cy="279" rx="8" ry="3"/><ellipse class="cls-7" cx="852" cy="286" rx="8" ry="3"/><ellipse class="cls-5" cx="849.5" cy="243" rx="0.5" ry="5"/><line class="cls-5" x1="860" y1="286" x2="900" y2="259"/><line class="cls-5" x1="300" y1="192" x2="257" y2="227"/><line class="cls-5" x1="667" y1="197" x2="713" y2="174"/><line class="cls-2" x1="543.5" y1="130.5" x2="586.5" y2="165.5"/><line class="cls-5" x1="757.5" y1="104.5" x2="770.5" y2="31.5"/><ellipse class="cls-5" cx="772" cy="27.5" rx="6" ry="5.5"/></svg>
