<svg xmlns="http://www.w3.org/2000/svg" xmlns:xlink="http://www.w3.org/1999/xlink" width="1600" height="900" viewBox="0 0 1600 900"><defs><style>.cls-1{fill:none;}.cls-2{isolation:isolate;}.cls-28,.cls-3{fill:#286ba5;}.cls-4{clip-path:url(#clip-path);}.cls-5{fill:url(#linear-gradient);}.cls-6{fill:url(#linear-gradient-2);}.cls-7{fill:#070707;}.cls-8{clip-path:url(#clip-path-2);}.cls-9{fill:#46a147;}.cls-10{fill:url(#linear-gradient-3);}.cls-11{opacity:0.16;}.cls-11,.cls-26{mix-blend-mode:screen;}.cls-12,.cls-42{fill:#fff;}.cls-13{fill:url(#linear-gradient-4);}.cls-14{fill:#47631c;}.cls-15{fill:#597a2b;}.cls-16{fill:#3d5416;}.cls-17{fill:#334215;}.cls-18{fill:url(#radial-gradient);}.cls-19{fill:#5f5f5f;}.cls-20{fill:#484848;}.cls-21{fill:#212121;}.cls-22{fill:#303030;}.cls-23{fill:#393939;}.cls-24{fill:#282828;}.cls-25{fill:#202020;}.cls-26{opacity:0.9;}.cls-27{fill:url(#linear-gradient-5);}.cls-28,.cls-38{stroke:#000;}.cls-28{stroke-linecap:round;stroke-width:8px;}.cls-28,.cls-29,.cls-38,.cls-42{stroke-miterlimit:10;}.cls-29,.cls-42{stroke:#ff0;stroke-width:3px;}.cls-30{fill:#fce001;}.cls-31{fill:#301c00;}.cls-32{fill:#fde758;}.cls-33{fill:url(#linear-gradient-6);}.cls-34{fill:url(#linear-gradient-7);}.cls-35{fill:#f29667;}.cls-36{fill:#fbac7b;}.cls-37{fill:#ef9462;}.cls-39{fill:#feaa7b;}.cls-40{fill:#f29465;}.cls-41{fill:#f40b16;}</style><clipPath id="clip-path"><rect class="cls-1" x="-4" y="-1" width="1600" height="900"/></clipPath><linearGradient id="linear-gradient" x1="523.38" y1="387.25" x2="1730.01" y2="1083.89" gradientTransform="matrix(0, 1, -1.15, 0, 2002.79, -388.55)" gradientUnits="userSpaceOnUse"><stop offset="0.01" stop-color="#052355"/><stop offset="0.58" stop-color="#3f6bf5"/><stop offset="0.61" stop-color="#436df3"/><stop offset="0.65" stop-color="#4e75ed"/><stop offset="0.68" stop-color="#6281e2"/><stop offset="0.71" stop-color="#7d91d3"/><stop offset="0.74" stop-color="#a0a7c0"/><stop offset="0.77" stop-color="#cac1a9"/><stop offset="0.8" stop-color="#fce08e"/><stop offset="0.81" stop-color="#f6dc8f"/><stop offset="0.85" stop-color="#a0a2a0"/><stop offset="0.89" stop-color="#5b74ad"/><stop offset="0.93" stop-color="#2a53b7"/><stop offset="0.95" stop-color="#0b3fbd"/><stop offset="0.97" stop-color="#0037bf"/></linearGradient><linearGradient id="linear-gradient-2" x1="326.79" y1="1307.1" x2="1333.79" y2="1307.1" gradientTransform="matrix(0, 1.18, 1.88, 0, -2035.18, -532.52)" gradientUnits="userSpaceOnUse"><stop offset="0" stop-color="#d1bdb2"/><stop offset="0.05" stop-color="#b7a38d"/><stop offset="0.13" stop-color="#8d7951"/><stop offset="0.2" stop-color="#6f5a25"/><stop offset="0.26" stop-color="#5c470a"/><stop offset="0.29" stop-color="#554000"/><stop offset="0.42" stop-color="#796534"/><stop offset="0.55" stop-color="#998461"/><stop offset="0.68" stop-color="#b19d84"/><stop offset="0.8" stop-color="#c3af9d"/><stop offset="0.91" stop-color="#cdb9ad"/><stop offset="1" stop-color="#d1bdb2"/></linearGradient><clipPath id="clip-path-2"><rect class="cls-1" x="1.08" y="-4.46" width="1600" height="900"/></clipPath><linearGradient id="linear-gradient-3" x1="-1606.87" y1="887.57" x2="-1730.84" y2="839.52" gradientTransform="matrix(0.14, -0.8, -0.9, -0.16, 1109.32, -839.36)" gradientUnits="userSpaceOnUse"><stop offset="0" stop-color="#70be49"/><stop offset="1" stop-color="#46a147"/></linearGradient><linearGradient id="linear-gradient-4" x1="-1657.24" y1="1104.21" x2="-1781.21" y2="1056.16" gradientTransform="matrix(-0.14, -0.8, 0.9, -0.16, -908.63, -839.36)" xlink:href="#linear-gradient-3"/><radialGradient id="radial-gradient" cx="-380.46" cy="602.34" r="92.99" gradientTransform="translate(196.23 1172.66) rotate(152.55)" xlink:href="#linear-gradient-3"/><linearGradient id="linear-gradient-5" x1="1366.22" y1="256.07" x2="1366.22" y2="29.07" gradientUnits="userSpaceOnUse"><stop offset="0" stop-color="#fff" stop-opacity="0"/><stop offset="0.05" stop-color="#fff" stop-opacity="0.11"/><stop offset="0.15" stop-color="#fff" stop-opacity="0.32"/><stop offset="0.26" stop-color="#fff" stop-opacity="0.5"/><stop offset="0.37" stop-color="#fff" stop-opacity="0.65"/><stop offset="0.48" stop-color="#fff" stop-opacity="0.78"/><stop offset="0.6" stop-color="#fff" stop-opacity="0.88"/><stop offset="0.72" stop-color="#fff" stop-opacity="0.95"/><stop offset="0.85" stop-color="#fff" stop-opacity="0.99"/><stop offset="1" stop-color="#fff"/></linearGradient><linearGradient id="linear-gradient-6" x1="1141.09" y1="335.42" x2="1162.92" y2="335.42" gradientTransform="matrix(-1, -0.05, -0.05, 1, 2725.95, 4.99)" gradientUnits="userSpaceOnUse"><stop offset="0" stop-color="#0e5e0e"/><stop offset="0.11" stop-color="#3f7a1d"/><stop offset="0.23" stop-color="#71972d"/><stop offset="0.35" stop-color="#9caf3a"/><stop offset="0.48" stop-color="#bfc445"/><stop offset="0.61" stop-color="#dad34d"/><stop offset="0.73" stop-color="#eede53"/><stop offset="0.86" stop-color="#f9e557"/><stop offset="1" stop-color="#fde758"/><stop offset="1" stop-color="#fff"/></linearGradient><linearGradient id="linear-gradient-7" x1="1529.25" y1="401.38" x2="1546.94" y2="401.38" gradientTransform="matrix(-1, -0.05, -0.05, 1.06, 2727.99, -51.35)" gradientUnits="userSpaceOnUse"><stop offset="0" stop-color="#fff"/><stop offset="0" stop-color="#fde758"/><stop offset="0.1" stop-color="#f7e356"/><stop offset="0.23" stop-color="#e5d951"/><stop offset="0.38" stop-color="#c9c948"/><stop offset="0.54" stop-color="#a1b23b"/><stop offset="0.72" stop-color="#6e952c"/><stop offset="0.91" stop-color="#307219"/><stop offset="1" stop-color="#0e5e0e"/></linearGradient></defs><title>Background You Rock</title><g class="cls-2"><g id="Background"><rect class="cls-3" x="1" y="1" width="1600" height="900"/></g><g id="Hill_and_lake" data-name="Hill and lake"><g class="cls-4"><ellipse class="cls-5" cx="1155.86" cy="738.15" rx="200.92" ry="798" transform="translate(338.04 1839.08) rotate(-85.96)"/><ellipse class="cls-6" cx="426.98" cy="810.91" rx="246.76" ry="593.36" transform="translate(-455.92 1056.66) rotate(-77.79)"/></g><ellipse class="cls-7" cx="409.09" cy="789.65" rx="59.25" ry="28.62" transform="translate(-480.21 782.66) rotate(-62.16)"/><polygon class="cls-7" points="428.67 754.02 420.72 749.78 501.4 588.2 509.35 592.44 428.67 754.02"/></g><g id="Palm"><g class="cls-8"><path class="cls-9" d="M219.24,373.12c-5.37-3.86-11.75-6-17.13-9.9a5.29,5.29,0,0,1-2.15-2.35c-.44-1.31.21-2.72.89-3.92A62.82,62.82,0,0,1,209,345.69a105.78,105.78,0,0,1-8.76,8.83,11.87,11.87,0,0,1-5.25,3.2c-3.6.76-7.65-1-10.72-3.08l-20.5-13.83c-.36-.25-.77-.56-.77-1a1.36,1.36,0,0,1,.52-.88l21-20.79c-7.87,5.28-15.56,10.38-23.43,15.66l-31.85-9.94c-2.48-.78-5.34-1.92-6-4.43-.75-2.71,1.5-5.23,3.56-7.13l24-22.13-36.89,22.17c-3,1.82-6.1,3.66-9.54,4.48C99,318.11,93.15,316.68,88.2,314S79,307.63,74.82,303.89c-2.36-2.1-5-5-4.07-8a8.27,8.27,0,0,1,3.13-3.79l28.58-23c-11.62,9.76-25.06,17.55-40,20.64-6.2-6.08-12.55-12.41-15.82-20.44-1.81-4.43-2.59-9.2-4.28-13.68C37.86,243.58,28.87,230.05,18.81,222c30.37-3.52,57.44,9.19,86.18,20,24.92,9.36,50,19.58,71,36.06s37.61,40.2,39.88,66.65C216.75,355.35,217.19,363.45,219.24,373.12Z"/><path class="cls-9" d="M211.45,361.87a7.75,7.75,0,0,1-1.53,2.35,127.07,127.07,0,0,1-11.63,11.2c-7.78,6.74-16.15,12.89-24.13,19.43a205.38,205.38,0,0,0-19.27,18.09q-4.66,5-9,10.13c-1.28,1.52-7.83,7.48-7.52,9.28L134,406.73c-2.47-14.47-3.25-26-10.56-39.24l-1.2-2.17a252,252,0,0,1,9,70.44c-13,1-25.27-.18-38.34-1.74A410.12,410.12,0,0,1,69.37,366l7.42,62c-10.73-1.83-22.31-3.16-33-2l-9-48a223.19,223.19,0,0,0,1.78,48A170.68,170.68,0,0,1,2.92,432.8l-4.17-21.51-3.14,14.79a22.86,22.86,0,0,1-2.54,7.51c-3.37,5.44-10.64,7.69-17.31,9.52,10.68-32.12,23-65.37,50.29-87.82,31.9-26.2,79.62-33.68,123.23-26C169.85,333,190.76,340,206,353.74,209.53,356.88,212.58,358.82,211.45,361.87Z"/><path class="cls-10" d="M218.07,347.76c.33,6.38-6.93,10.35-12.94,13.54C179.24,375,159,395.11,141.83,417.2l-4.36-25.63c-2.47-14.47-3.25-26-10.56-39.23l-1.2-2.17a251.92,251.92,0,0,1,9,70.44c-13,.95-25.27-.19-38.34-1.74a410.22,410.22,0,0,1-23.45-68.08l7.42,62c-10.73-1.83-22.31-3.16-33-2l-9-48a223.12,223.12,0,0,0,1.78,48,170.68,170.68,0,0,1-33.68,6.85L2.25,396.13-.89,410.92a23,23,0,0,1-2.54,7.52c-3.37,5.44-10.64,7.68-17.31,9.51,10.68-32.12,23-65.37,50.29-87.82,31.9-26.2,79.62-33.68,123.23-26C178.39,318.69,203.07,328.29,218.07,347.76Z"/><g class="cls-11"><path class="cls-12" d="M147,328.6c-10.77.69-20.93,1.3-30.94,2.63a243.79,243.79,0,0,0-29.36,5.57,222.21,222.21,0,0,0-28.29,9.3,280.87,280.87,0,0,0-27.87,13.38,80.83,80.83,0,0,1,4.65-6.64c1.76-2,3.55-4.08,5.48-6s4-3.71,6.11-5.39c1.07-.84,2.17-1.64,3.27-2.45a40.38,40.38,0,0,1,3.36-2.34,99.47,99.47,0,0,1,29.93-13,103.86,103.86,0,0,1,32.44-3C126.57,321.35,137.31,323.71,147,328.6Z"/></g><path class="cls-9" d="M192,367.9a7.63,7.63,0,0,0,1.53,2.35,125.85,125.85,0,0,0,11.63,11.21c7.78,6.73,16.15,12.88,24.13,19.42A205.48,205.48,0,0,1,248.59,419q4.66,4.95,9,10.13c1.28,1.51,7.83,7.47,7.52,9.28l4.37-25.63c2.47-14.47,3.25-26,10.56-39.23l1.2-2.17a251.92,251.92,0,0,0-8.95,70.44c13,.95,25.27-.19,38.34-1.74A410.22,410.22,0,0,0,334.11,372l-7.42,62c10.73-1.82,22.31-3.16,33-2l9-48a223.12,223.12,0,0,1-1.78,48,170.68,170.68,0,0,0,33.68,6.85l4.17-21.5,3.14,14.78a23,23,0,0,0,2.54,7.52c3.37,5.44,10.64,7.68,17.31,9.51-10.68-32.12-23-65.37-50.29-87.82-31.9-26.2-79.62-33.67-123.23-26-20.57,3.63-41.48,10.7-56.76,24.42C194,362.91,190.9,364.86,192,367.9Z"/><path class="cls-13" d="M185.41,353.8c-.33,6.37,6.93,10.34,12.94,13.53,25.89,13.74,46.09,33.82,63.3,55.9L266,397.6c2.47-14.47,3.25-26,10.56-39.23l1.2-2.17a252,252,0,0,0-8.95,70.44c13,.95,25.27-.18,38.34-1.74a410.22,410.22,0,0,0,23.45-68.08l-7.42,62c10.73-1.82,22.31-3.15,33-2l9-48a223.12,223.12,0,0,1-1.78,48,170,170,0,0,0,33.68,6.85l4.17-21.5L404.37,417a23,23,0,0,0,2.54,7.52c3.37,5.44,10.64,7.68,17.31,9.51-10.68-32.12-23-65.37-50.29-87.82-31.9-26.2-79.62-33.67-123.23-26C225.09,324.72,200.41,334.33,185.41,353.8Z"/><g class="cls-11"><path class="cls-12" d="M256.51,334.63c9.66-4.88,20.4-7.25,31.22-8a103.86,103.86,0,0,1,32.44,3,99.72,99.72,0,0,1,29.93,13,40.5,40.5,0,0,1,3.36,2.35c1.1.81,2.2,1.6,3.27,2.44,2.14,1.68,4.12,3.58,6.11,5.39s3.72,4,5.48,6a80.83,80.83,0,0,1,4.65,6.64,280.87,280.87,0,0,0-27.87-13.38,222.21,222.21,0,0,0-28.29-9.3,241.83,241.83,0,0,0-29.36-5.56C277.44,335.94,267.28,335.33,256.51,334.63Z"/></g><path class="cls-9" d="M217.32,348.59c-4.77,3.92-7.71,8.37-12.48,12.3a7.38,7.38,0,0,1-2.81,1.64,8.17,8.17,0,0,1-4.33-.27,65.08,65.08,0,0,1-12-4.49,87.26,87.26,0,0,1,9.24,5.1c1.43.91,2.86,1.91,3.18,3.24.57,2.34-1.75,5.2-4.31,7.43l-17.15,14.89a2.18,2.18,0,0,1-1.19.6,1.61,1.61,0,0,1-.94-.27l-21.7-12.29c5.31,4.81,10.43,9.52,15.75,14.33l-13.68,22.14a8.74,8.74,0,0,1-5.45,4.42c-3.11.73-5.76-.56-7.73-1.77l-23-14.16,22,22.77c1.8,1.87,3.62,3.77,4.27,6,1,3.52-1,7.52-4.39,11.06s-7.93,6.7-12.46,9.82c-2.55,1.75-6,3.73-9.28,3.4a7.86,7.86,0,0,1-4-1.77L91.29,435.57c10,6.93,17.73,15.25,20,24.95C104,465.19,96.38,470,87.11,472.85c-5.12,1.59-10.55,2.52-15.71,4C57.49,481,41.59,488.12,31.7,495.54c-1.56-20,14.85-39.19,29.24-59.33,12.48-17.47,25.94-35.11,46.1-50.53s48.12-28.59,78-32.37C197.16,351.77,206.29,350.79,217.32,348.59Z"/><path class="cls-9" d="M383.83,186.48c-4.74,4.62-8,10.52-12.75,15.13a5.37,5.37,0,0,1-2.69,1.71c-1.37.2-2.64-.69-3.7-1.57a62.72,62.72,0,0,1-9.66-10,108.8,108.8,0,0,1,7.16,10.17,12,12,0,0,1,2.23,5.74c.11,3.67-2.34,7.35-4.92,10L342.29,235.4c-.3.32-.69.66-1.12.58a1.36,1.36,0,0,1-.77-.65L323.62,211c3.82,8.67,7.49,17.14,11.31,25.81l-15.38,29.61c-1.2,2.31-2.82,4.92-5.42,5.16-2.8.26-4.88-2.39-6.39-4.75l-17.57-27.52q7.66,20.11,15.35,40.21c1.25,3.3,2.52,6.65,2.73,10.18.31,5.57-2.11,11-5.58,15.45s-7.92,7.93-12.34,11.39c-2.49,2-5.75,4-8.56,2.61-1.5-.74-2.38-2.29-3.18-3.75L261,283.2c7.57,13.15,12.88,27.75,13.31,43-7.08,5-14.42,10.18-22.9,12-4.68,1-9.52.94-14.22,1.81-12.68,2.35-27.57,8.83-37.31,17.31,1.87-30.52,19.13-54.93,34.8-81.33,13.59-22.9,28.05-45.79,47.95-63.53s46.17-30,72.62-27.56C365.9,185.82,374,186.81,383.83,186.48Z"/><path class="cls-14" d="M204.32,371.17c-3.07,4.37,11.59-13.24,15-27.6s17-18.21,17-18.21S224.82,332.11,226,359s-1.49,76.34-1.49,76.34l-12.17,19.24-20.79-42.93s-4.2-35.7.34-40.14"/><path class="cls-15" d="M222.91,451.92l-28.5,27.35-8,.37s12.69-87.7,1.56-102.46-19.12-17.09-19.12-17.09l24.9,12.24s29.4,2.8,30.95,27.42S222.91,451.92,222.91,451.92Z"/><path class="cls-16" d="M223.44,563.39s8.12-89.35-58.51-70.83a22.8,22.8,0,0,1,10.47,1.38c3.75,1.62,7,4.92,6.65,11.55-.77,15.16-13.63,97.34-9.73,104.9S223.44,563.39,223.44,563.39Z"/><path class="cls-14" d="M185.08,512.28s-4.52-36.55.63-41.13,16.87-9.69,16.87-9.69a13.43,13.43,0,0,1-2.84,9.31c-3.49,4.5,13.17-13.61,17.1-28.34s19.31-18.74,19.31-18.74-13,7-11.86,34.48-2.15,78.21-2.15,78.21l-13.86,19.77Z"/><path class="cls-17" d="M309,687.94s-9.43-2.11-40.88-4.11-50.31-11.36-50.31-39.09-1.57-117.89,33.54-103.81c0,0-28.82-17.13-44,33.12l-3.67-5.68s-2.62-7-10,13.55-20.44,22.48-22,26.83-1.57,41.08-7.34,49.78-5.24-1.06-9.43,8.42-2.1,13.08-29.35,15.74-11,3-62.36,5.51c0,0,5.24.55,29.87.19"/><path class="cls-18" d="M198.65,443.73c1.42,2.6,3.22,4.45,5,6.79a58.45,58.45,0,0,1,16.68-18.28c-5.68,8-13.71,22.61-11,32.64,3,11.36,14,24.93,20.66,34.59,2.48,3.59,14.11,24.25,18.14,23.79,1.61-.19,2.81-1.53,3.84-2.79l6.33-7.71c-.48,6.91-2.3,17.76.17,24.36,2.05,5.44,8.71,10.74,12.48,15.16,7.75,9.07,16.27,18.36,27.65,21.94,5.05,1.59,11.14,1.75,15.05-1.82,4.17-3.79,4.33-10.18,4.18-15.81l-.76-30.17a1.68,1.68,0,0,0-1-1.49c-4.09-1.79-8.19-3.07-12.3-4.46a1.65,1.65,0,0,1,.25-3.19l.09,0c3-.59,5.88-2.34,7.08-5.12s.45-6.17-.37-9.19a728.49,728.49,0,0,0-27.12-80.63c-2.44-6-5.16-12.31-10.27-16.34a25.79,25.79,0,0,0-11-4.72,1.67,1.67,0,0,1,0-3.28l4.52-.83a1.68,1.68,0,0,0,1.21-2.37c-5.2-10.85-10.75-21.77-19.45-30-12.71-12.07-30.23-17.67-47.05-13.48a1.68,1.68,0,0,0-1.15,2.26q2.61,6.51,5.26,13c14.29,34.83,29.33,69.45,46,103.18,8.39,16.93,17.11,33.68,26.34,50.17,9.43,16.86,19.44,33.37,29.1,50.1.15.27-.26.47-.42.22-10.62-16.13-20.25-33-29.65-49.82q-27.47-49.31-51.41-100.5c-8-17.11-15.28-34.61-22.4-52.11q-2.32-5.71-4.61-11.46a1.67,1.67,0,0,0-2.88-.4,66.29,66.29,0,0,0-13.42,40.23C182.65,414.35,190.24,428.27,198.65,443.73Z"/><path class="cls-19" d="M209.73,661.54c1.39,4.32.89,32.2,5.62,30.84l32-9.21c4.73-1.36,7.47-6,6.08-10.32l-18.37-42.92c-1.38-4.31-4.43-12.43-8.37-5"/><path class="cls-20" d="M201.37,680.66l31,17a3.57,3.57,0,0,0,4.71-1.19l7.39-12.13a3.18,3.18,0,0,0-1.26-4.46l-31-17a3.56,3.56,0,0,0-4.7,1.2l-7.4,12.13A3.17,3.17,0,0,0,201.37,680.66Z"/><path class="cls-20" d="M261,682.07h25.89a8.15,8.15,0,0,0,8.34-7.9l-5.12-14.87c8.94-15.12-.58-12.2-6.31-10.82L263,629.82c-4.59,0-34.69-11.07-34.69-6.72l24.44,51.07A8.15,8.15,0,0,0,261,682.07Z"/><path class="cls-20" d="M207.14,700,222,706.26c8,3.36,17.45-.1,21-7.67l.75-1.61c3.55-7.58-.1-16.53-8.1-19.89l-11.74-8.46c-3.81-1.6-10.51-8.29-14.19-7.09-4,1.32-8.08,13-9.93,17l-.76,1.61C195.5,687.72,199.14,696.66,207.14,700Z"/><path class="cls-21" d="M225.5,707.08l61.76,0c4.61.28,19.49-6.36,26.28-12.23l10.09-28.48c.32-4.84-4.47-2.68-9.08-3l-39,2.27c-4.61-.27-15.19,7.83-15.51,12.67L235.8,695C233.32,698.94,220.89,706.81,225.5,707.08Z"/><path class="cls-22" d="M277.86,690.66l32.32-14.56c1.57,0-7.4-6.58-8.27-10.08-.71-2.83,10.64,7.09,10.64,6.35l9.85-7c0-4.35-27.27-17.61-31.86-17.61l-12.22,9.33c.79,3.36-2.43,3.93-2.43,8.28V677.9C275.89,682.25,273.27,690.66,277.86,690.66Z"/><polygon class="cls-23" points="234.56 697.37 275.95 691.77 279.11 656.69 251.51 676.85 223.92 668.63 234.56 697.37"/><path class="cls-20" d="M106.64,708.22l14.6-14.6a10.67,10.67,0,0,0,0-15l-2.5-2.5a10.67,10.67,0,0,0-15,0L92.35,693.44c-4.13,4.13-7.37,8.14-3.24,12.28l2.5,2.5A10.67,10.67,0,0,0,106.64,708.22Z"/><path class="cls-19" d="M133.88,708.53l51.73-22.21A9.07,9.07,0,0,0,188.92,674l-14-24.32a9.07,9.07,0,0,0-12.36-3.31l-53,27.78c-1.23.64,3.52,3.14,4.19,4.36,1,1.89-3.34-5.26-1.29-1.71l16.25,23.09C131.18,704.16,129.57,711,133.88,708.53Z"/><path class="cls-20" d="M171.87,646.41c-5,0-21.38,7.06-21.38,12l-5.56,11c0,5,9.63,18,14.61,18h32.78a9.07,9.07,0,0,0,9.05-9.05"/><path class="cls-23" d="M149.29,707.19,200.65,712a9.08,9.08,0,0,0,9.86-8.16l-7.43-21.52c.46-5-7-7.23-12-7.69l-43.61-6.42c-5-.46-4,3.46-4.44,8.41l-1.94,20.72A9.07,9.07,0,0,0,149.29,707.19Z"/><polyline class="cls-24" points="146.22 690.02 133.88 708.96 207.38 711.25"/><polygon class="cls-22" points="133.82 708.83 152.2 693.44 147.5 668.21 115.86 681.89 133.82 708.83"/><polyline class="cls-25" points="117.57 681.47 93.2 709.26 134.67 709.26"/></g><image class="cls-26" width="2947" height="2947" transform="translate(1012.52 -195.44) scale(0.24)" xlink:href="Background%20You%20Rock1.png"/><circle class="cls-27" cx="1366.22" cy="158.11" r="113.5"/><polygon class="cls-12" points="824.51 187.2 824.51 184.41 821.51 184.41 821.51 187.2 821.51 187.41 824.51 187.41 824.51 187.2"/><polygon class="cls-12" points="845.97 295.53 845.97 298.33 845.97 298.53 848.97 298.53 848.97 298.33 848.97 295.53 845.97 295.53"/><polygon class="cls-12" points="921.66 246.05 921.66 248.84 921.66 249.05 924.66 249.05 924.66 248.84 924.66 246.05 921.66 246.05"/><polygon class="cls-12" points="819.14 201.28 819.14 204.08 819.14 204.28 822.14 204.28 822.14 204.08 822.14 201.28 819.14 201.28"/><polygon class="cls-12" points="820 167.96 820 167.76 820 164.96 817 164.96 817 167.76 817 167.96 820 167.96"/><polygon class="cls-12" points="903.65 197.28 903.65 197.08 903.65 194.28 900.65 194.28 900.65 197.08 900.65 197.28 903.65 197.28"/><polygon class="cls-12" points="952.75 191.28 952.75 194.07 952.75 194.28 955.75 194.28 955.75 194.07 955.75 191.28 952.75 191.28"/><polygon class="cls-12" points="859.38 83.32 859.38 86.11 859.38 86.32 862.38 86.32 862.38 86.11 862.38 83.32 859.38 83.32"/><polygon class="cls-12" points="773.2 125.24 773.2 128.04 773.2 128.24 776.2 128.24 776.2 128.04 776.2 125.24 773.2 125.24"/><polygon class="cls-12" points="889.52 167.71 889.52 170.51 889.52 170.71 892.52 170.71 892.52 170.51 892.52 167.71 889.52 167.71"/><polygon class="cls-12" points="852.37 40.22 852.37 40.02 852.37 37.22 849.37 37.22 849.37 40.02 849.37 40.22 852.37 40.22"/><polygon class="cls-12" points="782.27 48.12 782.27 47.91 782.27 45.12 779.27 45.12 779.27 47.91 779.27 48.12 782.27 48.12"/><polygon class="cls-12" points="741.62 74.17 741.62 76.96 741.62 77.17 744.62 77.17 744.62 76.96 744.62 74.17 741.62 74.17"/><polygon class="cls-12" points="744.75 119.28 744.75 122.08 744.75 122.28 747.75 122.28 747.75 122.08 747.75 119.28 744.75 119.28"/><polygon class="cls-12" points="828.19 111.86 828.19 114.65 828.19 114.86 831.19 114.86 831.19 114.65 831.19 111.86 828.19 111.86"/><polygon class="cls-12" points="698.37 28.62 698.37 25.83 695.37 25.83 695.37 28.62 695.37 28.83 698.37 28.83 698.37 28.62"/><polygon class="cls-12" points="625.46 70.73 625.46 67.94 622.46 67.94 622.46 70.73 622.46 70.94 625.46 70.94 625.46 70.73"/><polygon class="cls-12" points="627.84 157.93 627.84 160.72 627.84 160.93 630.84 160.93 630.84 160.72 630.84 157.93 627.84 157.93"/><polygon class="cls-12" points="577.87 183.42 577.87 186.22 577.87 186.42 580.87 186.42 580.87 186.22 580.87 183.42 577.87 183.42"/><polygon class="cls-12" points="593.68 161.62 593.68 161.42 593.68 158.62 590.68 158.62 590.68 161.42 590.68 161.62 593.68 161.62"/><polygon class="cls-12" points="660.97 137.74 660.97 140.54 660.97 140.74 663.97 140.74 663.97 140.54 663.97 137.74 660.97 137.74"/><polygon class="cls-12" points="594.68 27.85 594.68 30.64 594.68 30.85 597.68 30.85 597.68 30.64 597.68 27.85 594.68 27.85"/><polygon class="cls-12" points="447.52 55.27 447.52 52.47 444.52 52.47 444.52 55.27 444.52 55.47 447.52 55.47 447.52 55.27"/><polygon class="cls-12" points="424.72 107.98 424.72 110.78 424.72 110.98 427.72 110.98 427.72 110.78 427.72 107.98 424.72 107.98"/><polygon class="cls-12" points="529.27 112.93 529.27 112.72 529.27 109.93 526.27 109.93 526.27 112.72 526.27 112.93 529.27 112.93"/><polygon class="cls-12" points="339.03 18.31 339.03 21.1 339.03 21.31 342.03 21.31 342.03 21.1 342.03 18.31 339.03 18.31"/><polygon class="cls-12" points="377.15 140.47 377.15 143.27 377.15 143.47 380.15 143.47 380.15 143.27 380.15 140.47 377.15 140.47"/><polygon class="cls-12" points="411.98 174.68 411.98 177.47 411.98 177.68 414.98 177.68 414.98 177.47 414.98 174.68 411.98 174.68"/><polygon class="cls-12" points="437.06 73.84 437.06 76.64 437.06 76.84 440.06 76.84 440.06 76.64 440.06 73.84 437.06 73.84"/><polygon class="cls-12" points="423.22 69.05 423.22 68.84 423.22 66.05 420.22 66.05 420.22 68.84 420.22 69.05 423.22 69.05"/><polygon class="cls-12" points="420.47 85.67 420.47 88.46 420.47 88.67 423.47 88.67 423.47 88.46 423.47 85.67 420.47 85.67"/><polygon class="cls-12" points="405.97 136.59 405.97 139.38 405.97 139.59 408.97 139.59 408.97 139.38 408.97 136.59 405.97 136.59"/><polygon class="cls-12" points="442.57 129.39 442.57 132.19 442.57 132.39 445.57 132.39 445.57 132.19 445.57 129.39 442.57 129.39"/><polygon class="cls-12" points="504.37 167.69 504.37 170.49 504.37 170.69 507.37 170.69 507.37 170.49 507.37 167.69 504.37 167.69"/><polygon class="cls-12" points="459.05 188.73 459.05 188.53 459.05 185.73 456.05 185.73 456.05 188.53 456.05 188.73 459.05 188.73"/><polygon class="cls-12" points="507.81 241.23 507.81 244.03 507.81 244.23 510.81 244.23 510.81 244.03 510.81 241.23 507.81 241.23"/><polygon class="cls-12" points="512.08 237.33 512.08 240.13 512.08 240.33 515.08 240.33 515.08 240.13 515.08 237.33 512.08 237.33"/><polygon class="cls-12" points="536.6 220.18 536.6 219.97 536.6 217.18 533.6 217.18 533.6 219.97 533.6 220.18 536.6 220.18"/><polygon class="cls-12" points="550.17 221.46 550.17 224.25 550.17 224.46 553.17 224.46 553.17 224.25 553.17 221.46 550.17 221.46"/><polygon class="cls-12" points="525.43 260.21 525.43 260.01 525.43 257.21 522.43 257.21 522.43 260.01 522.43 260.21 525.43 260.21"/><polygon class="cls-12" points="558.38 263.74 558.38 266.54 558.38 266.74 561.38 266.74 561.38 266.54 561.38 263.74 558.38 263.74"/><polygon class="cls-12" points="598.17 261.4 598.17 264.19 598.17 264.4 601.17 264.4 601.17 264.19 601.17 261.4 598.17 261.4"/><polygon class="cls-12" points="592.45 248.48 592.45 251.28 592.45 251.48 595.45 251.48 595.45 251.28 595.45 248.48 592.45 248.48"/><polygon class="cls-12" points="526.98 219.9 526.98 219.7 526.98 216.9 523.98 216.9 523.98 219.7 523.98 219.9 526.98 219.9"/><polygon class="cls-12" points="536.46 270.87 536.46 268.07 533.46 268.07 533.46 270.87 533.46 271.07 536.46 271.07 536.46 270.87"/><polygon class="cls-12" points="609.25 317.95 609.25 320.75 609.25 320.95 612.25 320.95 612.25 320.75 612.25 317.95 609.25 317.95"/><polygon class="cls-12" points="525.3 297.03 525.3 299.82 525.3 300.03 528.3 300.03 528.3 299.82 528.3 297.03 525.3 297.03"/><polygon class="cls-12" points="447.29 259.62 447.29 262.41 447.29 262.62 450.29 262.62 450.29 262.41 450.29 259.62 447.29 259.62"/><polygon class="cls-12" points="389.08 318.6 389.08 321.4 389.08 321.6 392.08 321.6 392.08 321.4 392.08 318.6 389.08 318.6"/><polygon class="cls-12" points="510.94 332.44 510.94 335.24 510.94 335.44 513.94 335.44 513.94 335.24 513.94 332.44 510.94 332.44"/><polygon class="cls-12" points="456.86 235.51 456.86 238.31 456.86 238.51 459.86 238.51 459.86 238.31 459.86 235.51 456.86 235.51"/><polygon class="cls-12" points="487.6 356.67 487.6 359.46 487.6 359.67 490.6 359.67 490.6 359.46 490.6 356.67 487.6 356.67"/><polygon class="cls-12" points="458.55 272.78 458.55 272.57 458.55 269.78 455.55 269.78 455.55 272.57 455.55 272.78 458.55 272.78"/><polygon class="cls-12" points="457.44 341.99 457.44 344.79 457.44 344.99 460.44 344.99 460.44 344.79 460.44 341.99 457.44 341.99"/><polygon class="cls-12" points="419.21 334.73 419.21 337.52 419.21 337.73 422.21 337.73 422.21 337.52 422.21 334.73 419.21 334.73"/><polygon class="cls-12" points="346.82 98.64 346.82 101.44 346.82 101.64 349.82 101.64 349.82 101.44 349.82 98.64 346.82 98.64"/><polygon class="cls-12" points="250.17 167.56 250.17 170.36 250.17 170.56 253.17 170.56 253.17 170.36 253.17 167.56 250.17 167.56"/><polygon class="cls-12" points="198.15 74.43 198.15 77.22 198.15 77.43 201.15 77.43 201.15 77.22 201.15 74.43 198.15 74.43"/><polygon class="cls-12" points="141.83 85.56 141.83 88.35 141.83 88.56 144.83 88.56 144.83 88.35 144.83 85.56 141.83 85.56"/><polygon class="cls-12" points="21.89 213.9 21.89 216.7 21.89 216.9 24.89 216.9 24.89 216.7 24.89 213.9 21.89 213.9"/><polygon class="cls-12" points="22.88 184.17 22.88 186.96 22.88 187.17 25.88 187.17 25.88 186.96 25.88 184.17 22.88 184.17"/><polygon class="cls-12" points="12.44 38.9 12.44 41.7 12.44 41.9 15.44 41.9 15.44 41.7 15.44 38.9 12.44 38.9"/><polygon class="cls-12" points="6.98 107.54 6.98 110.34 6.98 110.54 9.98 110.54 9.98 110.34 9.98 107.54 6.98 107.54"/><path class="cls-12" d="M28.28,136.33a1.5,1.5,0,0,0,1.5,1.5v-3A1.5,1.5,0,0,0,28.28,136.33Z"/><polygon class="cls-12" points="186.12 100.56 186.12 100.36 186.12 97.56 183.12 97.56 183.12 100.36 183.12 100.56 186.12 100.56"/><polygon class="cls-12" points="167.4 79.48 167.4 82.27 167.4 82.48 170.4 82.48 170.4 82.27 170.4 79.48 167.4 79.48"/><polygon class="cls-12" points="223.78 105.45 223.78 108.25 223.78 108.45 226.78 108.45 226.78 108.25 226.78 105.45 223.78 105.45"/><polygon class="cls-12" points="245.01 70.11 245.01 69.91 245.01 67.11 242.01 67.11 242.01 69.91 242.01 70.11 245.01 70.11"/><polygon class="cls-12" points="262.25 141.66 262.25 144.45 262.25 144.66 265.25 144.66 265.25 144.45 265.25 141.66 262.25 141.66"/><polygon class="cls-12" points="305.8 141.36 305.8 144.16 305.8 144.36 308.8 144.36 308.8 144.16 308.8 141.36 305.8 141.36"/><polygon class="cls-12" points="346.26 192.05 346.26 194.84 346.26 195.05 349.26 195.05 349.26 194.84 349.26 192.05 346.26 192.05"/><polygon class="cls-12" points="281.54 127.02 281.54 129.81 281.54 130.02 284.54 130.02 284.54 129.81 284.54 127.02 281.54 127.02"/><polygon class="cls-12" points="394.09 194.79 394.09 192 391.09 192 391.09 194.79 391.09 195 394.09 195 394.09 194.79"/><polygon class="cls-12" points="426.9 141.22 426.9 141.01 426.9 138.22 423.9 138.22 423.9 141.01 423.9 141.22 426.9 141.22"/><polygon class="cls-12" points="425.66 146.03 425.66 148.82 425.66 149.03 428.66 149.03 428.66 148.82 428.66 146.03 425.66 146.03"/><polygon class="cls-12" points="508.69 115.66 508.69 115.87 511.69 115.87 511.69 115.66 511.69 112.87 508.69 112.87 508.69 115.66"/><polygon class="cls-12" points="400.63 183.98 400.63 186.77 400.63 186.98 403.63 186.98 403.63 186.77 403.63 183.98 400.63 183.98"/><polygon class="cls-12" points="465.64 182.27 465.64 185.06 465.64 185.27 468.64 185.27 468.64 185.06 468.64 182.27 465.64 182.27"/><polygon class="cls-12" points="425.08 194.71 425.08 197.5 425.08 197.71 428.08 197.71 428.08 197.5 428.08 194.71 425.08 194.71"/><polygon class="cls-12" points="473.11 206.81 473.11 209.6 473.11 209.81 476.11 209.81 476.11 209.6 476.11 206.81 473.11 206.81"/><polygon class="cls-12" points="543.21 254.31 543.21 257.1 543.21 257.31 546.21 257.31 546.21 257.1 546.21 254.31 543.21 254.31"/><polygon class="cls-12" points="616.24 274.81 616.24 277.6 616.24 277.81 619.24 277.81 619.24 277.6 619.24 274.81 616.24 274.81"/><polygon class="cls-12" points="642.34 293.3 642.34 296.1 642.34 296.3 645.34 296.3 645.34 296.1 645.34 293.3 642.34 293.3"/><polygon class="cls-12" points="767.12 292.87 767.12 295.66 767.12 295.87 770.12 295.87 770.12 295.66 770.12 292.87 767.12 292.87"/><polygon class="cls-12" points="796.02 302.93 796.02 305.72 796.02 305.93 799.02 305.93 799.02 305.72 799.02 302.93 796.02 302.93"/><polygon class="cls-12" points="798.24 247.28 798.24 250.07 798.24 250.28 801.24 250.28 801.24 250.07 801.24 247.28 798.24 247.28"/><polygon class="cls-12" points="817.4 232.48 817.4 235.28 817.4 235.48 820.4 235.48 820.4 235.28 820.4 232.48 817.4 232.48"/><polygon class="cls-12" points="804.51 261.77 804.51 264.56 804.51 264.77 807.51 264.77 807.51 264.56 807.51 261.77 804.51 261.77"/><polygon class="cls-12" points="878.61 253.73 878.61 256.53 878.61 256.73 881.61 256.73 881.61 256.53 881.61 253.73 878.61 253.73"/><polygon class="cls-12" points="842.25 284.81 842.25 287.6 842.25 287.81 845.25 287.81 845.25 287.6 845.25 284.81 842.25 284.81"/><polygon class="cls-12" points="866.22 347.83 866.22 350.63 866.22 350.83 869.22 350.83 869.22 350.63 869.22 347.83 866.22 347.83"/><polygon class="cls-12" points="792.01 360.23 792.01 363.02 792.01 363.23 795.01 363.23 795.01 363.02 795.01 360.23 792.01 360.23"/><polygon class="cls-12" points="764.38 309.67 764.38 309.46 764.38 306.67 761.38 306.67 761.38 309.46 761.38 309.67 764.38 309.67"/><polygon class="cls-12" points="772.17 325.96 772.17 328.76 772.17 328.96 775.17 328.96 775.17 328.76 775.17 325.96 772.17 325.96"/><polygon class="cls-12" points="849.72 288.33 849.72 291.12 849.72 291.33 852.72 291.33 852.72 291.12 852.72 288.33 849.72 288.33"/><polygon class="cls-12" points="901.21 309.03 901.21 311.83 901.21 312.03 904.21 312.03 904.21 311.83 904.21 309.03 901.21 309.03"/><polygon class="cls-12" points="887.97 270.03 887.97 272.82 887.97 273.03 890.97 273.03 890.97 272.82 890.97 270.03 887.97 270.03"/><polygon class="cls-12" points="869.09 216.41 869.09 216.21 869.09 213.41 866.09 213.41 866.09 216.21 866.09 216.41 869.09 216.41"/><polygon class="cls-12" points="915.42 261.09 915.42 263.89 915.42 264.09 918.42 264.09 918.42 263.89 918.42 261.09 915.42 261.09"/><polygon class="cls-12" points="940.31 255.48 940.31 258.28 940.31 258.48 943.31 258.48 943.31 258.28 943.31 255.48 940.31 255.48"/><polygon class="cls-12" points="974.02 305.45 974.02 308.24 974.02 308.45 977.02 308.45 977.02 308.24 977.02 305.45 974.02 305.45"/><polygon class="cls-12" points="965.24 319.08 965.24 321.88 965.24 322.08 968.24 322.08 968.24 321.88 968.24 319.08 965.24 319.08"/><polygon class="cls-12" points="933.9 259.67 933.9 262.46 933.9 262.67 936.9 262.67 936.9 262.46 936.9 259.67 933.9 259.67"/><polygon class="cls-12" points="928.22 329.83 928.22 332.62 928.22 332.83 931.22 332.83 931.22 332.62 931.22 329.83 928.22 329.83"/><polygon class="cls-12" points="970.97 298.01 970.97 300.8 970.97 301.01 973.97 301.01 973.97 300.8 973.97 298.01 970.97 298.01"/><polygon class="cls-12" points="1004.65 257.16 1004.65 259.96 1004.65 260.16 1007.65 260.16 1007.65 259.96 1007.65 257.16 1004.65 257.16"/><polygon class="cls-12" points="1011.52 258.67 1011.52 255.87 1008.52 255.87 1008.52 258.67 1008.52 258.87 1011.52 258.87 1011.52 258.67"/><polygon class="cls-12" points="1010.9 330.21 1010.9 333.01 1010.9 333.21 1013.9 333.21 1013.9 333.01 1013.9 330.21 1010.9 330.21"/><polygon class="cls-12" points="1061.56 346.98 1061.56 349.77 1061.56 349.98 1064.56 349.98 1064.56 349.77 1064.56 346.98 1061.56 346.98"/><polygon class="cls-12" points="1047.91 290.48 1047.91 293.28 1047.91 293.48 1050.91 293.48 1050.91 293.28 1050.91 290.48 1047.91 290.48"/><polygon class="cls-12" points="1042.18 332.38 1042.18 335.18 1042.18 335.38 1045.18 335.38 1045.18 335.18 1045.18 332.38 1042.18 332.38"/><polygon class="cls-12" points="1094.52 333.99 1094.52 336.79 1094.52 336.99 1097.52 336.99 1097.52 336.79 1097.52 333.99 1094.52 333.99"/><polygon class="cls-12" points="1086.02 311.74 1086.02 314.53 1086.02 314.74 1089.02 314.74 1089.02 314.53 1089.02 311.74 1086.02 311.74"/><polygon class="cls-12" points="1090.77 353.24 1090.77 356.03 1090.77 356.24 1093.77 356.24 1093.77 356.03 1093.77 353.24 1090.77 353.24"/><polygon class="cls-12" points="1172.72 357.05 1172.72 359.84 1172.72 360.05 1175.72 360.05 1175.72 359.84 1175.72 357.05 1172.72 357.05"/><polygon class="cls-12" points="1229.47 335.94 1229.47 338.73 1229.47 338.94 1232.47 338.94 1232.47 338.73 1232.47 335.94 1229.47 335.94"/><polygon class="cls-12" points="1424.46 330.03 1424.46 332.82 1424.46 333.03 1427.46 333.03 1427.46 332.82 1427.46 330.03 1424.46 330.03"/><polygon class="cls-12" points="1573.36 121.01 1573.36 123.81 1573.36 124.01 1576.36 124.01 1576.36 123.81 1576.36 121.01 1573.36 121.01"/><polygon class="cls-12" points="1527.29 79.51 1527.29 79.31 1527.29 76.51 1524.29 76.51 1524.29 79.31 1524.29 79.51 1527.29 79.51"/><polygon class="cls-12" points="1524.81 123 1524.81 125.79 1524.81 126 1527.81 126 1527.81 125.79 1527.81 123 1524.81 123"/><polygon class="cls-12" points="1180.33 261.2 1180.33 263.99 1180.33 264.2 1183.33 264.2 1183.33 263.99 1183.33 261.2 1180.33 261.2"/><polygon class="cls-12" points="1134.94 262.65 1134.94 265.44 1134.94 265.65 1137.94 265.65 1137.94 265.44 1137.94 262.65 1134.94 262.65"/><polygon class="cls-12" points="1196.65 268.16 1196.65 270.96 1196.65 271.16 1199.65 271.16 1199.65 270.96 1199.65 268.16 1196.65 268.16"/><polygon class="cls-12" points="1182.01 251.07 1182.01 250.87 1182.01 248.07 1179.01 248.07 1179.01 250.87 1179.01 251.07 1182.01 251.07"/><polygon class="cls-12" points="1165.35 183.26 1165.35 186.05 1165.35 186.26 1168.35 186.26 1168.35 186.05 1168.35 183.26 1165.35 183.26"/><polygon class="cls-12" points="1153.35 145.57 1153.35 148.36 1153.35 148.57 1156.35 148.57 1156.35 148.36 1156.35 145.57 1153.35 145.57"/><polygon class="cls-12" points="1181.99 67.75 1181.99 70.54 1181.99 70.75 1184.99 70.75 1184.99 70.54 1184.99 67.75 1181.99 67.75"/><polygon class="cls-12" points="1066.81 89.52 1066.81 92.31 1066.81 92.52 1069.81 92.52 1069.81 92.31 1069.81 89.52 1066.81 89.52"/><polygon class="cls-12" points="980.29 203.28 980.29 206.07 980.29 206.28 983.29 206.28 983.29 206.07 983.29 203.28 980.29 203.28"/><polygon class="cls-12" points="1110.18 228.62 1110.18 231.41 1110.18 231.62 1113.18 231.62 1113.18 231.41 1113.18 228.62 1110.18 228.62"/><polygon class="cls-12" points="1120.93 247.72 1120.93 247.52 1120.93 244.72 1117.93 244.72 1117.93 247.52 1117.93 247.72 1120.93 247.72"/><polygon class="cls-12" points="1164.58 307.51 1164.58 310.3 1164.58 310.51 1167.58 310.51 1167.58 310.3 1167.58 307.51 1164.58 307.51"/><polygon class="cls-12" points="1540.36 197.34 1540.36 200.14 1540.36 200.34 1543.36 200.34 1543.36 200.14 1543.36 197.34 1540.36 197.34"/><polygon class="cls-12" points="1557.24 153.21 1557.24 156 1557.24 156.21 1560.24 156.21 1560.24 156 1560.24 153.21 1557.24 153.21"/><polygon class="cls-12" points="1588.5 87.17 1588.5 89.96 1588.5 90.17 1591.5 90.17 1591.5 89.96 1591.5 87.17 1588.5 87.17"/><polygon class="cls-12" points="1547.89 30.3 1547.89 33.09 1547.89 33.3 1550.89 33.3 1550.89 33.09 1550.89 30.3 1547.89 30.3"/><polygon class="cls-12" points="1285.71 14.99 1285.71 17.79 1285.71 17.99 1288.71 17.99 1288.71 17.79 1288.71 14.99 1285.71 14.99"/><polygon class="cls-12" points="1266.63 25.86 1266.63 28.66 1266.63 28.86 1269.63 28.86 1269.63 28.66 1269.63 25.86 1266.63 25.86"/><polygon class="cls-12" points="1181.59 85.47 1181.59 88.26 1181.59 88.47 1184.59 88.47 1184.59 88.26 1184.59 85.47 1181.59 85.47"/><polygon class="cls-12" points="1130.26 47.46 1130.26 50.26 1130.26 50.46 1133.26 50.46 1133.26 50.26 1133.26 47.46 1130.26 47.46"/><polygon class="cls-12" points="1167.99 61.9 1167.99 64.7 1167.99 64.9 1170.99 64.9 1170.99 64.7 1170.99 61.9 1167.99 61.9"/><polygon class="cls-12" points="1141.8 40.28 1141.8 43.07 1141.8 43.28 1144.8 43.28 1144.8 43.07 1144.8 40.28 1141.8 40.28"/><polygon class="cls-12" points="1153.46 44.68 1153.46 47.48 1153.46 47.68 1156.46 47.68 1156.46 47.48 1156.46 44.68 1153.46 44.68"/><polygon class="cls-12" points="1173.41 21.32 1173.41 18.52 1170.41 18.52 1170.41 21.32 1170.41 21.52 1173.41 21.52 1173.41 21.32"/><polygon class="cls-12" points="1123.4 49.35 1123.4 52.15 1123.4 52.35 1126.4 52.35 1126.4 52.15 1126.4 49.35 1123.4 49.35"/><polygon class="cls-12" points="1096.75 75.25 1096.75 78.04 1096.75 78.25 1099.75 78.25 1099.75 78.04 1099.75 75.25 1096.75 75.25"/><polygon class="cls-12" points="1020.05 63.47 1020.05 66.26 1020.05 66.47 1023.05 66.47 1023.05 66.26 1023.05 63.47 1020.05 63.47"/><polygon class="cls-12" points="1011.64 23.06 1011.64 22.86 1011.64 20.06 1008.64 20.06 1008.64 22.86 1008.64 23.06 1011.64 23.06"/><polygon class="cls-12" points="1011.2 53.59 1011.2 53.39 1011.2 50.59 1008.2 50.59 1008.2 53.39 1008.2 53.59 1011.2 53.59"/><polygon class="cls-12" points="1098.55 42.35 1098.55 45.14 1098.55 45.35 1101.55 45.35 1101.55 45.14 1101.55 42.35 1098.55 42.35"/><polygon class="cls-12" points="956.17 33.13 956.17 32.92 956.17 30.13 953.17 30.13 953.17 32.92 953.17 33.13 956.17 33.13"/><polygon class="cls-12" points="890.42 62.45 890.42 62.25 890.42 59.45 887.42 59.45 887.42 62.25 887.42 62.45 890.42 62.45"/><polygon class="cls-12" points="866.99 65.44 866.99 62.64 863.99 62.64 863.99 65.44 863.99 65.64 866.99 65.64 866.99 65.44"/><polygon class="cls-12" points="840.66 61.74 840.66 61.94 843.66 61.94 843.66 61.74 843.66 58.94 840.66 58.94 840.66 61.74"/><polygon class="cls-12" points="841.2 29.15 841.2 26.35 838.2 26.35 838.2 29.15 838.2 29.35 841.2 29.35 841.2 29.15"/><polygon class="cls-12" points="783.53 58.38 783.53 55.59 780.53 55.59 780.53 58.38 780.53 58.59 783.53 58.59 783.53 58.38"/><polygon class="cls-12" points="734.69 52.98 734.69 55.78 734.69 55.98 737.69 55.98 737.69 55.78 737.69 52.98 734.69 52.98"/><polygon class="cls-12" points="560.04 45.88 560.04 45.67 560.04 42.88 557.04 42.88 557.04 45.67 557.04 45.88 560.04 45.88"/><polygon class="cls-12" points="563.06 81.7 563.06 81.49 563.06 78.7 560.06 78.7 560.06 81.49 560.06 81.7 563.06 81.7"/><polygon class="cls-12" points="583.67 54.32 583.67 57.11 583.67 57.32 586.67 57.32 586.67 57.11 586.67 54.32 583.67 54.32"/><polygon class="cls-12" points="571.84 109.21 571.84 112.01 571.84 112.21 574.84 112.21 574.84 112.01 574.84 109.21 571.84 109.21"/><polygon class="cls-12" points="559.84 27.34 559.84 27.13 559.84 24.34 556.84 24.34 556.84 27.13 556.84 27.34 559.84 27.34"/><polygon class="cls-12" points="611.6 106.9 611.6 109.69 611.6 109.9 614.6 109.9 614.6 109.69 614.6 106.9 611.6 106.9"/><polygon class="cls-12" points="560.26 168.95 560.26 171.74 560.26 171.95 563.26 171.95 563.26 171.74 563.26 168.95 560.26 168.95"/><polygon class="cls-12" points="575.96 254.68 575.96 257.48 575.96 257.68 578.96 257.68 578.96 257.48 578.96 254.68 575.96 254.68"/><polygon class="cls-12" points="650.29 260.88 650.29 263.68 650.29 263.88 653.29 263.88 653.29 263.68 653.29 260.88 650.29 260.88"/><polygon class="cls-12" points="689.95 271.77 689.95 268.98 686.95 268.98 686.95 271.77 686.95 271.98 689.95 271.98 689.95 271.77"/><polygon class="cls-12" points="744.72 228.34 744.72 231.13 744.72 231.34 747.72 231.34 747.72 231.13 747.72 228.34 744.72 228.34"/><polygon class="cls-12" points="842.78 189.99 842.78 187.19 839.78 187.19 839.78 189.99 839.78 190.19 842.78 190.19 842.78 189.99"/><polygon class="cls-12" points="850.2 135.51 850.2 135.3 850.2 132.51 847.2 132.51 847.2 135.3 847.2 135.51 850.2 135.51"/><polygon class="cls-12" points="806.7 29.96 806.7 29.76 806.7 26.96 803.7 26.96 803.7 29.76 803.7 29.96 806.7 29.96"/><polygon class="cls-12" points="741.27 100.62 741.27 103.41 741.27 103.62 744.27 103.62 744.27 103.41 744.27 100.62 741.27 100.62"/><polygon class="cls-12" points="723.22 11.2 723.22 13.99 723.22 14.2 726.22 14.2 726.22 13.99 726.22 11.2 723.22 11.2"/><polygon class="cls-12" points="651.1 58.04 651.1 55.25 648.1 55.25 648.1 58.04 648.1 58.25 651.1 58.25 651.1 58.04"/><polygon class="cls-12" points="509.02 62.35 509.02 59.55 506.02 59.55 506.02 62.35 506.02 62.55 509.02 62.55 509.02 62.35"/><polygon class="cls-12" points="449.69 31.62 449.69 31.41 449.69 28.62 446.69 28.62 446.69 31.41 446.69 31.62 449.69 31.62"/><polygon class="cls-12" points="391.3 114.38 391.3 114.17 391.3 111.38 388.3 111.38 388.3 114.17 388.3 114.38 391.3 114.38"/><polygon class="cls-12" points="339.78 110.98 339.78 110.77 339.78 107.98 336.78 107.98 336.78 110.77 336.78 110.98 339.78 110.98"/><polygon class="cls-12" points="299.04 22.88 299.04 25.67 299.04 25.88 302.04 25.88 302.04 25.67 302.04 22.88 299.04 22.88"/><polygon class="cls-12" points="321.77 112.77 321.77 115.56 321.77 115.77 324.77 115.77 324.77 115.56 324.77 112.77 321.77 112.77"/><polygon class="cls-12" points="353.9 60.27 353.9 63.07 353.9 63.27 356.9 63.27 356.9 63.07 356.9 60.27 353.9 60.27"/><polygon class="cls-12" points="426.43 35.01 426.43 34.8 426.43 32.01 423.43 32.01 423.43 34.8 423.43 35.01 426.43 35.01"/><polygon class="cls-12" points="412.65 50.17 412.65 52.96 412.65 53.17 415.65 53.17 415.65 52.96 415.65 50.17 412.65 50.17"/><polygon class="cls-12" points="396.84 66.93 396.84 69.72 396.84 69.93 399.84 69.93 399.84 69.72 399.84 66.93 396.84 66.93"/><polygon class="cls-12" points="338.19 112.09 338.19 114.88 338.19 115.09 341.19 115.09 341.19 114.88 341.19 112.09 338.19 112.09"/><polygon class="cls-12" points="268.3 85.6 268.3 88.39 268.3 88.6 271.3 88.6 271.3 88.39 271.3 85.6 268.3 85.6"/><polygon class="cls-12" points="233.53 81.94 233.53 84.73 233.53 84.94 236.53 84.94 236.53 84.73 236.53 81.94 233.53 81.94"/><polygon class="cls-12" points="209.89 58 209.89 60.79 209.89 61 212.89 61 212.89 60.79 212.89 58 209.89 58"/><polygon class="cls-12" points="189.66 142.73 189.66 145.52 189.66 145.73 192.66 145.73 192.66 145.52 192.66 142.73 189.66 142.73"/><polygon class="cls-12" points="203.52 137.31 203.52 140.11 203.52 140.31 206.52 140.31 206.52 140.11 206.52 137.31 203.52 137.31"/><polygon class="cls-12" points="371.12 179.4 371.12 182.19 371.12 182.4 374.12 182.4 374.12 182.19 374.12 179.4 371.12 179.4"/><polygon class="cls-12" points="329.08 60.89 329.08 63.69 329.08 63.89 332.08 63.89 332.08 63.69 332.08 60.89 329.08 60.89"/><polygon class="cls-12" points="169.69 29.84 169.69 29.63 169.69 26.84 166.69 26.84 166.69 29.63 166.69 29.84 169.69 29.84"/><polygon class="cls-12" points="127.39 69.97 127.39 72.77 127.39 72.97 130.38 72.97 130.38 72.77 130.38 69.97 127.39 69.97"/><polygon class="cls-12" points="113.38 42.61 113.38 45.4 113.38 45.61 116.38 45.61 116.38 45.4 116.38 42.61 113.38 42.61"/><polygon class="cls-12" points="113.37 77.31 113.37 80.1 113.37 80.31 116.37 80.31 116.37 80.1 116.37 77.31 113.37 77.31"/><polygon class="cls-12" points="184.25 178.41 184.25 181.21 184.25 181.41 187.25 181.41 187.25 181.21 187.25 178.41 184.25 178.41"/><polygon class="cls-12" points="242.18 172.37 242.18 175.16 242.18 175.37 245.18 175.37 245.18 175.16 245.18 172.37 242.18 172.37"/><polygon class="cls-12" points="288.8 147.6 288.8 150.4 288.8 150.6 291.8 150.6 291.8 150.4 291.8 147.6 288.8 147.6"/><polygon class="cls-12" points="346.54 124.26 346.54 127.05 346.54 127.26 349.54 127.26 349.54 127.05 349.54 124.26 346.54 124.26"/><polygon class="cls-12" points="419.94 186.07 419.94 188.87 419.94 189.07 422.94 189.07 422.94 188.87 422.94 186.07 419.94 186.07"/><polygon class="cls-12" points="448.76 127.27 448.76 130.07 448.76 130.27 451.76 130.27 451.76 130.07 451.76 127.27 448.76 127.27"/><polygon class="cls-12" points="492.15 172.17 492.15 169.38 489.15 169.38 489.15 172.17 489.15 172.38 492.15 172.38 492.15 172.17"/><polygon class="cls-12" points="531.84 147.9 531.84 147.69 531.84 144.9 528.84 144.9 528.84 147.69 528.84 147.9 531.84 147.9"/><polygon class="cls-12" points="536.66 227.09 536.66 229.88 536.66 230.09 539.66 230.09 539.66 229.88 539.66 227.09 536.66 227.09"/><polygon class="cls-12" points="526.16 275.95 526.16 273.15 523.16 273.15 523.16 275.95 523.16 276.15 526.16 276.15 526.16 275.95"/><polygon class="cls-12" points="393.69 330.32 393.69 333.11 393.69 333.32 396.69 333.32 396.69 333.11 396.69 330.32 393.69 330.32"/><polygon class="cls-12" points="436.17 342.37 436.17 345.16 436.17 345.37 439.17 345.37 439.17 345.16 439.17 342.37 436.17 342.37"/><polygon class="cls-12" points="465.48 343.47 465.48 346.27 465.48 346.47 468.48 346.47 468.48 346.27 468.48 343.47 465.48 343.47"/><polygon class="cls-12" points="459.43 306.68 459.43 306.47 459.43 303.68 456.43 303.68 456.43 306.47 456.43 306.68 459.43 306.68"/><polygon class="cls-12" points="432.81 292.19 432.81 294.99 432.81 295.19 435.81 295.19 435.81 294.99 435.81 292.19 432.81 292.19"/><polygon class="cls-12" points="491.37 310.84 491.37 313.63 491.37 313.84 494.37 313.84 494.37 313.63 494.37 310.84 491.37 310.84"/><polygon class="cls-12" points="589.26 342.28 589.26 345.07 589.26 345.28 592.26 345.28 592.26 345.07 592.26 342.28 589.26 342.28"/><polygon class="cls-12" points="1049.78 217.18 1049.78 219.98 1049.78 220.18 1052.78 220.18 1052.78 219.98 1052.78 217.18 1049.78 217.18"/><polygon class="cls-12" points="930.23 206.69 930.23 206.48 930.23 203.69 927.23 203.69 927.23 206.48 927.23 206.69 930.23 206.69"/><polygon class="cls-12" points="856.92 184.44 856.92 184.23 856.92 181.44 853.92 181.44 853.92 184.23 853.92 184.44 856.92 184.44"/><polygon class="cls-12" points="774.77 269.38 774.77 272.17 774.77 272.38 777.77 272.38 777.77 272.17 777.77 269.38 774.77 269.38"/><polygon class="cls-12" points="689.58 298.89 689.58 301.68 689.58 301.89 692.58 301.89 692.58 301.68 692.58 298.89 689.58 298.89"/><polygon class="cls-12" points="641.06 272.57 641.06 269.78 638.06 269.78 638.06 272.57 638.06 272.78 641.06 272.78 641.06 272.57"/><polygon class="cls-12" points="684.74 320.39 684.74 323.19 684.74 323.39 687.74 323.39 687.74 323.19 687.74 320.39 684.74 320.39"/><polygon class="cls-12" points="684.99 234.27 684.99 237.06 684.99 237.27 687.99 237.27 687.99 237.06 687.99 234.27 684.99 234.27"/><polygon class="cls-12" points="762.27 316.23 762.27 319.02 762.27 319.23 765.27 319.23 765.27 319.02 765.27 316.23 762.27 316.23"/><polygon class="cls-12" points="823.16 320.6 823.16 323.39 823.16 323.6 826.16 323.6 826.16 323.39 826.16 320.6 823.16 320.6"/><polygon class="cls-12" points="902.66 264.46 902.66 261.67 899.66 261.67 899.66 264.46 899.66 264.67 902.66 264.67 902.66 264.46"/><polygon class="cls-12" points="920.48 342.99 920.48 345.79 920.48 345.99 923.48 345.99 923.48 345.79 923.48 342.99 920.48 342.99"/><polygon class="cls-12" points="965.91 295.34 965.91 292.55 962.91 292.55 962.91 295.34 962.91 295.55 965.91 295.55 965.91 295.34"/><polygon class="cls-12" points="1044.77 303.76 1044.77 303.55 1044.77 300.76 1041.77 300.76 1041.77 303.55 1041.77 303.76 1044.77 303.76"/><polygon class="cls-12" points="1118.51 250.44 1118.51 253.24 1118.51 253.44 1121.51 253.44 1121.51 253.24 1121.51 250.44 1118.51 250.44"/><polygon class="cls-12" points="1154.23 94.08 1154.23 91.29 1151.23 91.29 1151.23 94.08 1151.23 94.29 1154.23 94.29 1154.23 94.08"/><polygon class="cls-12" points="1044.1 48.55 1044.1 51.34 1044.1 51.55 1047.1 51.55 1047.1 51.34 1047.1 48.55 1044.1 48.55"/><polygon class="cls-12" points="949.24 102.23 949.24 105.03 949.24 105.23 952.24 105.23 952.24 105.03 952.24 102.23 949.24 102.23"/><polygon class="cls-12" points="854.37 185.26 854.37 188.05 854.37 188.26 857.37 188.26 857.37 188.05 857.37 185.26 854.37 185.26"/><polygon class="cls-12" points="922.29 210.51 922.29 210.31 922.29 207.51 919.29 207.51 919.29 210.31 919.29 210.51 922.29 210.51"/><polygon class="cls-12" points="1075.91 260.38 1075.91 263.18 1075.91 263.38 1078.91 263.38 1078.91 263.18 1078.91 260.38 1075.91 260.38"/><polygon class="cls-12" points="1086.09 145.03 1086.09 147.83 1086.09 148.03 1089.09 148.03 1089.09 147.83 1089.09 145.03 1086.09 145.03"/><polygon class="cls-12" points="1137.63 90.54 1137.63 90.33 1137.63 87.54 1134.63 87.54 1134.63 90.33 1134.63 90.54 1137.63 90.54"/><polygon class="cls-12" points="954.98 103.38 954.98 106.18 954.98 106.38 957.98 106.38 957.98 106.18 957.98 103.38 954.98 103.38"/><polygon class="cls-12" points="879.53 94.55 879.53 91.75 876.53 91.75 876.53 94.55 876.53 94.75 879.53 94.75 879.53 94.55"/><polygon class="cls-12" points="775.52 59.22 775.52 59.01 775.52 56.22 772.52 56.22 772.52 59.01 772.52 59.22 775.52 59.22"/><polygon class="cls-12" points="700.65 122.31 700.65 125.1 700.65 125.31 703.65 125.31 703.65 125.1 703.65 122.31 700.65 122.31"/><polygon class="cls-12" points="704.4 105.95 704.4 108.74 704.4 108.95 707.4 108.95 707.4 108.74 707.4 105.95 704.4 105.95"/><polygon class="cls-12" points="709.09 137.13 709.09 139.93 709.09 140.13 712.09 140.13 712.09 139.93 712.09 137.13 709.09 137.13"/><polygon class="cls-12" points="676.29 147.46 676.29 150.25 676.29 150.46 679.29 150.46 679.29 150.25 679.29 147.46 676.29 147.46"/><polygon class="cls-12" points="655 94.19 655 96.98 655 97.19 658 97.19 658 96.98 658 94.19 655 94.19"/><polygon class="cls-12" points="718.32 185.82 718.32 188.61 718.32 188.82 721.32 188.82 721.32 188.61 721.32 185.82 718.32 185.82"/><polygon class="cls-12" points="753.37 200.22 753.37 203.01 753.37 203.22 756.37 203.22 756.37 203.01 756.37 200.22 753.37 200.22"/><polygon class="cls-12" points="783.05 160.41 783.05 163.21 783.05 163.41 786.05 163.41 786.05 163.21 786.05 160.41 783.05 160.41"/><polygon class="cls-12" points="773.72 146.9 773.72 146.7 773.72 143.9 770.72 143.9 770.72 146.7 770.72 146.9 773.72 146.9"/><polygon class="cls-12" points="686.73 200.94 686.73 200.73 686.73 197.94 683.73 197.94 683.73 200.73 683.73 200.94 686.73 200.94"/><polygon class="cls-12" points="619.18 186.81 619.18 186.6 619.18 183.81 616.18 183.81 616.18 186.6 616.18 186.81 619.18 186.81"/><polygon class="cls-12" points="529.05 197.78 529.05 200.57 529.05 200.78 532.05 200.78 532.05 200.57 532.05 197.78 529.05 197.78"/><polygon class="cls-12" points="571.62 346.8 571.62 349.6 571.62 349.8 574.62 349.8 574.62 349.6 574.62 346.8 571.62 346.8"/><polygon class="cls-12" points="624.81 229.95 624.81 232.74 624.81 232.95 627.81 232.95 627.81 232.74 627.81 229.95 624.81 229.95"/><polygon class="cls-12" points="749.16 243.29 749.16 246.08 749.16 246.29 752.16 246.29 752.16 246.08 752.16 243.29 749.16 243.29"/><polygon class="cls-12" points="645.08 102.86 645.08 102.65 645.08 99.86 642.08 99.86 642.08 102.65 642.08 102.86 645.08 102.86"/><polygon class="cls-12" points="565.52 121.22 565.52 124.01 565.52 124.22 568.52 124.22 568.52 124.01 568.52 121.22 565.52 121.22"/><polygon class="cls-12" points="491.22 83.56 491.22 83.36 491.22 80.56 488.22 80.56 488.22 83.36 488.22 83.56 491.22 83.56"/><polygon class="cls-12" points="438.95 68.08 438.95 67.88 438.95 65.08 435.95 65.08 435.95 67.88 435.95 68.08 438.95 68.08"/><polygon class="cls-12" points="377.28 106.14 377.28 103.34 374.28 103.34 374.28 106.14 374.28 106.34 377.28 106.34 377.28 106.14"/><polygon class="cls-12" points="347.75 29.03 347.75 26.24 344.75 26.24 344.75 29.03 344.75 29.24 347.75 29.24 347.75 29.03"/><polygon class="cls-12" points="327.29 161.6 327.29 164.4 327.29 164.6 330.29 164.6 330.29 164.4 330.29 161.6 327.29 161.6"/><polygon class="cls-12" points="395.39 52.04 395.39 51.84 395.39 49.04 392.39 49.04 392.39 51.84 392.39 52.04 395.39 52.04"/><polygon class="cls-12" points="466.36 142.03 466.36 144.82 466.36 145.03 469.36 145.03 469.36 144.82 469.36 142.03 466.36 142.03"/><polygon class="cls-12" points="552.85 118.76 552.85 118.56 552.85 115.76 549.85 115.76 549.85 118.56 549.85 118.76 552.85 118.76"/><polygon class="cls-12" points="594.75 99.25 594.75 99.04 594.75 96.25 591.75 96.25 591.75 99.04 591.75 99.25 594.75 99.25"/><polygon class="cls-12" points="627.52 203.96 627.52 203.75 627.52 200.96 624.52 200.96 624.52 203.75 624.52 203.96 627.52 203.96"/><polygon class="cls-12" points="701.01 121.53 701.01 118.74 698.01 118.74 698.01 121.53 698.01 121.74 701.01 121.74 701.01 121.53"/><polyline class="cls-21" points="252.46 92.4 226.33 94.16 259 168.88"/><rect class="cls-21" x="170.24" y="75.57" width="82.21" height="110.49" rx="12"/><rect class="cls-20" x="155.23" y="83.79" width="82.21" height="110.49" rx="12"/><polyline class="cls-21" points="199.98 75.36 182.46 47 176.13 83.56"/><polyline class="cls-20" points="182.46 47 156.1 90.98 175.08 89.92"/><rect class="cls-3" x="170.41" y="93.16" width="55.33" height="86.5" rx="9.42"/><path class="cls-28" d="M212.13,182.71H184.88c-9.65,0-15.34-9.29-15.34-19.57l.27-55.08a55.06,55.06,0,0,1,1.84-7.09c3.52-5.39,3.83-4.65,9.22-6.21,13.36-3.86,32.55-2.55,36.23,2.12"/><polyline class="cls-19" points="259 168.88 237.39 112.18 229.92 192.4"/><polyline class="cls-20" points="235.28 115.36 214.73 151.4 227.22 193.55"/><polyline class="cls-21" points="254.26 128.61 248.77 124.09 241.39 157.48"/><path class="cls-3" d="M224.35,99.81c.79,3.52-6.69,11.68-17.81,11.49S172,121.46,174,104c.72-6.26,19.3-12.79,29.89-12.88C215,91,223.24,94.89,224.35,99.81Z"/><path class="cls-29" d="M101.26,171.84a84,84,0,0,0,15.48,9.57,87.31,87.31,0,0,0,17.84,6.18q2.31.51,2.31,2.55c0,1.88-1.14,2.81-3.43,2.81q-7.82,0-22-7.83-11.77-6.56-27-20.26v3.49l.08,14.47v8.26H39.09v-3.83l.15-27.75.23-33.19-.15-51.42h30q20.14,0,30.43,1.28a56.22,56.22,0,0,1,17.54,4.77q11.78,5.61,18.65,18.47a52.46,52.46,0,0,1-.74,51.32Q123.78,170.58,101.26,171.84Zm-7.08-5.27,3.57.08q15.36,0,26-9.79A40.08,40.08,0,0,0,134,141.54a46.24,46.24,0,0,0,3.35-17.19,44.28,44.28,0,0,0-8.5-26.64,35.13,35.13,0,0,0-16.25-12.86q-9.77-3.73-27.51-4l-.67,57v15.41l.07,4A101,101,0,0,0,94.18,166.57Z"/><path class="cls-29" d="M314.43,77.19,314,137.54l.45,51.24a43.37,43.37,0,0,0,6.41.6,41.23,41.23,0,0,0,15-3,45.82,45.82,0,0,0,13.57-8.09,54.89,54.89,0,0,0,7.86-8.85,64.93,64.93,0,0,0,6.53-10.81q1.41-3.06,3-3.06A2.14,2.14,0,0,1,369.3,158q0,2.55-3.69,8.64a72.15,72.15,0,0,1-8.1,10.94A50.84,50.84,0,0,1,335,192.1a49.15,49.15,0,0,1-14.94,2.47,47.58,47.58,0,0,1-21-5.11q-16.87-8.09-25.69-25.62a69,69,0,0,1,.3-62.39,56.83,56.83,0,0,1,23-24.09,47.67,47.67,0,0,1,23.36-6q21.51,0,37.18,16.6,7.47,7.92,7.47,11.41a2.38,2.38,0,0,1-.75,1.7,2.24,2.24,0,0,1-1.64.77q-1.49,0-3.57-3.32a47,47,0,0,0-16.93-16,44.65,44.65,0,0,0-22.21-5.91A22.5,22.5,0,0,0,314.43,77.19Z"/><path class="cls-29" d="M442,99.37l11.13,25.7q9.63,22.13,16.8,37.62t10.68,21.61q2.16,3.91,2.22,5.18,0,3.22-3.88,3.22a2.74,2.74,0,0,1-2.5-1.24q-.78-1.23-3.92-8.64l-4.63-11-7.32-17.28-6.79-16-5-11.67-10.82-25.11-13.66,9.37-.07,12.6v8.43l.43,54.64.09,4.26H378.93l.45-72.69-.15-20.68-.3-18.13V74.89H424.7l-.36,13.61-.09,16.5L437,96.33q10.83-7.31,19.26-13.8t10.91-7.81a8.74,8.74,0,0,1,4.48-1.44c2.63,0,4,.93,4,2.81a3.14,3.14,0,0,1-1.09,2.42,31.57,31.57,0,0,1-5,3.13q-4.71,2.55-20.82,13.3Z"/><path class="cls-29" d="M488.31,171.33c.89,0,1.94.77,3.13,2.3a42.5,42.5,0,0,0,13.7,11.19,34.51,34.51,0,0,0,16,4.22q8.73,0,8.73-6,0-3.83-3.06-8.64t-14.63-19q-14.57-18-19.41-26.64-6.44-11.49-6.42-21.88a31.54,31.54,0,0,1,12.24-25.62q12-9.78,29.64-9.79a46,46,0,0,1,22.62,5.71,29.76,29.76,0,0,1,6.68,5.1q2.81,2.9,2.8,4.86a2.48,2.48,0,0,1-.78,1.74,2.28,2.28,0,0,1-1.61.81c-.84,0-2.09-.88-3.73-2.64a31.19,31.19,0,0,0-10.6-7.19A31.69,31.69,0,0,0,531,76.94a9.59,9.59,0,0,0-6.08,1.83,5.71,5.71,0,0,0-2.36,4.72q0,3.49,2.91,8.52a105.24,105.24,0,0,0,9.85,13.36q22,26.64,26.89,35.92,5.14,9.78,5.15,18.89a30.74,30.74,0,0,1-3.66,14.64,31.19,31.19,0,0,1-10.15,11.32q-12.4,8.43-30.24,8.43a45.75,45.75,0,0,1-28.89-9.7q-8.73-6.81-8.74-10.64a3,3,0,0,1,.79-2A2.36,2.36,0,0,1,488.31,171.33Z"/><path class="cls-29" d="M620.53,98.9a24,24,0,0,1-9.08,8.21,27.21,27.21,0,0,1-12.58,2.77,22.54,22.54,0,0,1-13.43-4.09q-6.95-4.85-7-13.87A18.29,18.29,0,0,1,583,79.58q7-8.17,18.59-8.18,10.53,0,17,6.81,6.27,6.65,6.28,18a33.52,33.52,0,0,1-2.69,13.45,24,24,0,0,1-7.54,9.88q-7.1,5.53-19.49,5.53-5.52,0-5.52-2.64,0-2,2.76-2l2.39.08a12.41,12.41,0,0,0,1.49.09,28.86,28.86,0,0,0,13.07-2.64q6.64-3.31,9.63-11.41A55.62,55.62,0,0,0,620.53,98.9Z"/><path class="cls-29" d="M731.69,131.47V117.24l-.15-22.58-.07-10.31-.08-6.47q0-4.6,2.76-4.6a2.42,2.42,0,0,1,2.28,1.06,8.82,8.82,0,0,1,.63,4v1.2c0,1.19-.07,3.15-.07,5.87l-.3,28.68-.22,26.3.19,27.67.26,27.75q-15.39-11-45-30.36t-48-30.45l.08,4.18.74,43.94.08,5.88q0,3.66-3,3.66c-2,0-3.06-1.51-3.06-4.51l.08-6,.07-9.62.3-43.67-.6-58.81Q668.86,91.51,731.69,131.47Z"/><path class="cls-29" d="M873.69,140.52a30.38,30.38,0,0,1,8,9.66,24.58,24.58,0,0,1,2.65,11.28,28.15,28.15,0,0,1-6.64,18q-8.15,10.22-24.49,11.07-9,.51-25.38.51h-37l.08-4,.15-16.51.22-32.52-.3-35.41-.15-27.75h40q15,0,20.64.56a48.75,48.75,0,0,1,11.61,2.68A41.44,41.44,0,0,1,875,84.85a35.14,35.14,0,0,1,8.59,9.71A36.24,36.24,0,0,1,888.4,113a34.58,34.58,0,0,1-4,16.59A25.16,25.16,0,0,1,873.69,140.52Zm-6.05,2.21a25.87,25.87,0,0,1-6,.77,18.13,18.13,0,0,1-9.52-2.21c-2.42-1.48-3.62-3.41-3.62-5.79,0-1.31.4-2,1.19-2a5.69,5.69,0,0,1,2.47.85,21.91,21.91,0,0,0,11.19,3q11,0,16.58-9.87a27.92,27.92,0,0,0,3.58-14.22,29.14,29.14,0,0,0-8.28-20.85,34.28,34.28,0,0,0-14.08-9.11q-8.17-2.8-20.49-2.81h-4.11l-.45,51.07.45,53.88,6.72.09q11.13,0,17.32-1.41a24.23,24.23,0,0,0,10.31-4.81,22.57,22.57,0,0,0,8.51-18,18.62,18.62,0,0,0-3-10.17A28,28,0,0,0,867.64,142.73Z"/><path class="cls-29" d="M949,67.91l59.69,123.17H956.9l-7.22-15.58h-25l-22-.08-3.72-.09L894,185.73a40.15,40.15,0,0,1-3,5.83,2.59,2.59,0,0,1-2.14,1.14,2.26,2.26,0,0,1-2.55-2.56,12.19,12.19,0,0,1,1.45-4.12q1.46-3,10.2-19.88l45.19-86.73Zm-23.23,55.92-13,25-10.43,20.61,22.26.34,22.34-.34Z"/><path class="cls-29" d="M1107,131.47V117.24l-.15-22.58-.07-10.31-.08-6.47q0-4.6,2.77-4.6a2.41,2.41,0,0,1,2.27,1.06,8.65,8.65,0,0,1,.64,4v1.2c0,1.19-.08,3.15-.08,5.87l-.3,28.68-.22,26.3.19,27.67.26,27.75q-15.39-11-45-30.36t-48-30.45l.07,4.18.75,43.94.07,5.88q0,3.66-3,3.66c-2,0-3.06-1.51-3.06-4.51l.08-6,.07-9.62.3-43.67-.6-58.81Q1044.16,91.51,1107,131.47Z"/><path class="cls-29" d="M1181.46,67.91l59.69,123.17h-51.77l-7.21-15.58h-25l-22-.08-3.72-.09-4.92,10.4a41.61,41.61,0,0,1-3,5.83,2.61,2.61,0,0,1-2.15,1.14,2.26,2.26,0,0,1-2.55-2.56,12.43,12.43,0,0,1,1.45-4.12q1.46-3,10.2-19.88l45.2-86.73Zm-23.22,55.92-13,25-10.44,20.61,22.27.34,22.34-.34Z"/><path class="cls-29" d="M1339.48,131.47V117.24l-.15-22.58-.08-10.31-.07-6.47q0-4.6,2.76-4.6a2.44,2.44,0,0,1,2.28,1.06,8.82,8.82,0,0,1,.63,4v1.2c0,1.19-.07,3.15-.07,5.87l-.3,28.68-.23,26.3.2,27.67.25,27.75q-15.37-11-45-30.36t-48-30.45l.07,4.18.75,43.94.07,5.88q0,3.66-3,3.66c-2,0-3.06-1.51-3.06-4.51l.07-6,.08-9.62.3-43.67-.6-58.81Q1276.63,91.51,1339.48,131.47Z"/><path class="cls-29" d="M1414,67.91l59.68,123.17h-51.77l-7.21-15.58h-25l-22-.08-3.72-.09-4.92,10.4a40.5,40.5,0,0,1-3,5.83,2.6,2.6,0,0,1-2.14,1.14,2.26,2.26,0,0,1-2.56-2.56,12.29,12.29,0,0,1,1.46-4.12q1.45-3,10.19-19.88l45.2-86.73Zm-23.23,55.92-13,25-10.44,20.61,22.27.34,22.34-.34Z"/><path class="cls-29" d="M1479.38,171.33c.9,0,1.95.77,3.14,2.3a42.5,42.5,0,0,0,13.7,11.19,34.5,34.5,0,0,0,16,4.22q8.74,0,8.74-6,0-3.83-3.06-8.64t-14.63-19q-14.57-18-19.42-26.64-6.42-11.49-6.42-21.88a31.52,31.52,0,0,1,12.25-25.62q12-9.78,29.64-9.79A46,46,0,0,1,1542,77.11a30,30,0,0,1,6.68,5.1q2.8,2.9,2.8,4.86a2.45,2.45,0,0,1-.79,1.74,2.24,2.24,0,0,1-1.6.81q-1.27,0-3.73-2.64a31.29,31.29,0,0,0-10.6-7.19,31.69,31.69,0,0,0-12.62-2.85,9.64,9.64,0,0,0-6.09,1.83,5.73,5.73,0,0,0-2.35,4.72q0,3.49,2.91,8.52a105.24,105.24,0,0,0,9.85,13.36q22,26.64,26.88,35.92,5.16,9.78,5.16,18.89a30.74,30.74,0,0,1-3.66,14.64,31.21,31.21,0,0,1-10.16,11.32q-12.39,8.43-30.23,8.43a45.75,45.75,0,0,1-28.89-9.7q-8.74-6.81-8.74-10.64a3,3,0,0,1,.78-2A2.39,2.39,0,0,1,1479.38,171.33Z"/></g><g id="Ken"><path class="cls-30" d="M1162.25,277.4c-9,9.16-3.3,54.14,28.5,100.37,30.8,45.7,87.71,92.63,158,93.66,70.19,4.05,130.71-38.4,165.62-81,35.9-43.08,46.2-86.3,39-95.14-8.16-11.17-32.36,8.16-67.3,25.8-34.91,18.22-80.57,34.75-130.68,31.28-50.2-2.48-93.64-24-126.81-45.2C1195.33,286.46,1172.39,266,1162.25,277.4Z"/><polygon class="cls-31" points="1157.12 286.63 1162.56 283.78 1166.46 289.58 1167.2 280.14 1172.14 274.84 1167.16 271.86 1166.31 262.78 1162.49 270.38 1157.03 270.07 1159.65 277.75 1157.12 286.63"/><path class="cls-30" d="M1162.25,277.4c-9,9.16-3.3,54.14,28.5,100.37,30.8,45.7,87.71,92.63,158,93.66,70.19,4.05,130.71-38.4,165.62-81,35.9-43.08,46.2-86.3,39-95.14-8.16-11.17-32.36,8.16-67.3,25.8-34.91,18.22-80.57,34.75-130.68,31.28-50.2-2.48-93.64-24-126.81-45.2C1195.33,286.46,1172.39,266,1162.25,277.4Z"/><path class="cls-32" d="M1352.14,424.67c-73-1.16-132.26-48.2-164.35-94a203.79,203.79,0,0,1-27-51.27,9.27,9.27,0,0,1,1.46-2c10.14-11.39,33.08,9.06,66.29,29.77,33.17,21.23,76.61,42.72,126.81,45.2,50.11,3.47,95.77-13.06,130.68-31.28,34.94-17.64,59.14-37,67.3-25.8a8.23,8.23,0,0,1,1.43,2.94A215.18,215.18,0,0,1,1524.11,344C1487.91,386.49,1425.1,428.84,1352.14,424.67Z"/><path class="cls-33" d="M1549.72,301.85h0c1.86,2.91,5.07,3.06,7.19.33l12.4-16a9.54,9.54,0,0,0,.46-10.23l-3.36-5.27-16.22,21A9.52,9.52,0,0,0,1549.72,301.85Z"/><polygon class="cls-34" points="1166.74 332.32 1174.67 310.55 1166.6 294.37 1160.8 279.44 1158.07 285.34 1158.25 297.23 1161.76 315.7 1166.74 332.32"/><path class="cls-35" d="M1371.94,739.89l-14.74-20.28c-.33-.43-7.63-15.6-7.76-16.1l-7.07-23.28c-.59-3.31,15.76-32,20.87-31.09l30.4,19.1c5.11.92,9.69,6.23,10.19,11.8l6.86,76.26c.49,5.57,8.57,24.49-.16,28.7l-19.51-.09C1385.91,784,1380.29,745,1371.94,739.89Z"/><path class="cls-35" d="M1329.13,737.53,1343,720.88a2.06,2.06,0,0,0,.46-1.14c.29-3.35,3.73-17.78,3.91-18.21l20-19.39c1.08-3.25-7.93-28.72-13.11-28.63l-35.68,8.11c-5.18.09-10.52,4.71-11.85,10.25l-18.38,75.86c-1.34,5.55-15.58,27.94-3.51,33.76l20.83.7C1310.88,782.1,1310.4,755.54,1329.13,737.53Z"/><path class="cls-36" d="M1350.88,543l1.12-15.43c.38-5.17,5.52-9.1,11.44-8.74l19.38,1.18c5.91.36-9.82,10.66-10.2,15.83l14,11.63c-.38,5.16-.33,7.11-6.25,6.75L1361,553C1355,552.67,1350.51,548.15,1350.88,543Z"/><polyline class="cls-37" points="1388.34 551.62 1381.67 536.73 1360.51 553.05"/><path class="cls-36" d="M1342.53,525.92l1.8-15.39c.6-5.15,5.91-8.93,11.81-8.41l19.31,1.72c5.9.52,10.23,5.17,9.63,10.32l-1.8,15.39c-.6,5.15-5.91,8.93-11.81,8.4l-19.31-1.71C1346.26,535.71,1341.93,531.07,1342.53,525.92Z"/><path class="cls-36" d="M1339,511.5h40.55V484.71h-34.71l1.14,9.08-8.3,16.14C1337.25,510.68,1337.94,511.5,1339,511.5Z"/><ellipse class="cls-38" cx="1368.24" cy="483.65" rx="12.46" ry="26.08" transform="translate(660.6 1750.63) rotate(-80.28)"/><ellipse class="cls-38" cx="1361.86" cy="499.69" rx="5.4" ry="5.68"/><ellipse class="cls-38" cx="1384.9" cy="510.36" rx="29.6" ry="11.91" transform="translate(696.32 1815.84) rotate(-82.42)"/><ellipse class="cls-36" cx="1371.81" cy="500.83" rx="5.4" ry="5.68"/><ellipse class="cls-36" cx="1343.94" cy="526.88" rx="9.96" ry="7.72"/><ellipse class="cls-38" cx="1390.87" cy="530.57" rx="19.06" ry="11.58"/><path class="cls-35" d="M1324.6,613.75c1.44-12.57-16.4-24.55-10.48-24.39l105.64-6.22c2.76.07,7.72,8.23-.89,15.76-9.87,8.63-15.47,15.22-17.28,23.87l-7.86,46.49c-.2,3.13-7.83-.43-14.14-.58a5.29,5.29,0,0,0,1-2.43l5.89-47.77c.48-3.85-4-7.25-9.87-7.56l-34.9-1.82c-5.91-.31-11.13,2.58-11.6,6.43l-5.9,47.77a4.65,4.65,0,0,0,.18,1.93c-2.18-1.5-6.75.77-6.61-1.58Z"/><path class="cls-39" d="M1324.22,663.3l5.9-47.77c.47-3.85,5.69-6.74,11.6-6.43l34.9,1.82c5.91.31,10.35,3.71,9.87,7.56l-5.89,47.77a5.29,5.29,0,0,1-1,2.43c-1.87,2.55-6,4.24-10.59,4l-34.91-1.83c-4.88-.25-8.76-2.63-9.69-5.62A4.65,4.65,0,0,1,1324.22,663.3Z"/><rect class="cls-35" x="1342.55" y="640.46" width="10.77" height="0.72" rx="0.36" transform="translate(2695.88 1281.64) rotate(180)"/><path class="cls-36" d="M1407.75,602.43,1322.88,598c-5.91-.31-10.43-4.43-10-9.15l2.77-33.66c.39-4.72,5.54-8.32,11.45-8l84.87,4.44c5.91.31,10.43,4.42,10,9.14l-2.76,33.66C1418.82,599.13,1413.66,602.74,1407.75,602.43Z"/><ellipse class="cls-40" cx="1288.98" cy="538.51" rx="11.18" ry="42.31" transform="translate(-106.69 598.23) rotate(-25.12)"/><ellipse class="cls-40" cx="1449.22" cy="541.7" rx="43.11" ry="15.17" transform="translate(329.54 1609.4) rotate(-64.13)"/><path class="cls-39" d="M1274.55,512.64l5.35-4.27c2.29-1.82,3.23-5.07,2.09-7.22l-29.41-55.6c-1.13-2.15-3.94-2.42-6.23-.6l-5.35,4.27c-2.29,1.82-3.23,5.08-2.09,7.23l29.41,55.6C1269.45,514.2,1272.26,514.46,1274.55,512.64Z"/><path class="cls-39" d="M1417.9,559.16l5.3,6.18c2.27,2.64,5.55,3,7.29.84l41.54-52c1.74-2.17,1.31-6.12-1-8.76l-5.31-6.18c-2.27-2.64-5.55-3-7.29-.84l-41.54,52C1415.19,552.58,1415.63,556.52,1417.9,559.16Z"/><path class="cls-39" d="M1457.84,511l8.83,3.7c2.84,1.19,5.41.36,5.73-1.84l9.83-69.49c.31-2.2-1.76-5-4.6-6.16l-8.82-3.7c-2.84-1.19-5.42-.36-5.73,1.84l-9.83,69.48C1452.94,507,1455,509.78,1457.84,511Z"/><path class="cls-39" d="M1274.88,500.62l-3.84,6.69c-1.64,2.86-1.53,6.75.25,8.63l42.35,45.15c1.77,1.89,4.57,1.09,6.21-1.77l3.83-6.69c1.64-2.86,1.53-6.75-.24-8.64l-42.36-45.14C1279.31,497,1276.52,497.75,1274.88,500.62Z"/><ellipse class="cls-39" cx="1318.86" cy="563.93" rx="22.57" ry="21.14"/><path class="cls-39" d="M1441.44,568.71a20.55,20.55,0,0,1-21.69,21.14c-12-.58-21.68-9.46-21.68-21.14s9.71-21.13,21.68-21.13A21.49,21.49,0,0,1,1441.44,568.71Z"/><path class="cls-35" d="M1251.94,416.4l.09,37.11a.12.12,0,0,1-.09.1l-12.45,3.47s-.07,0-.08,0l-4.39-6s0,0-.16-.8l-5.79-32a14.54,14.54,0,0,0,4.58,4.44l3.9,14.35c0,.08-.58-4.66-.58-4.75l-.67-17.84a19.78,19.78,0,0,1,2-2l4,20.12a7.94,7.94,0,0,0,.6,1.09l.74-20.91c0-.09,0-.09,0,0L1246,415c0,.08,1.27,19,1.28,18.93l1.13-10.94C1248.38,422.92,1251.93,416.31,1251.94,416.4Z"/><polygon class="cls-35" points="1487.26 415.13 1482.43 443.4 1472.82 449.21 1462.08 446.91 1465.77 410.52 1469.11 422.77 1472.45 401 1476.17 423.53 1479.62 402.54 1481.89 423.81 1487.26 415.13"/><path class="cls-41" d="M1345.35,714.15h8.73c12.77-16.83,49.06-33.15,49.06-37.87l-8.07-9.82c-6,4.2-16.6,8.41-18.4,8.41l-44.89-1.44c-5.92,0-10.63-14-15.14-11.35l-6.91,3.67-3,5.69Z"/></g><g id="Booble"><path class="cls-42" d="M541.5,377.25c0,54,112.92,134.25,259,134.25s270-80.26,270-134.25S948.58,260.5,802.5,260.5,541.5,323.26,541.5,377.25Z"/><path class="cls-42" d="M1069.5,381.5s81.35,57,129,65.07c47,8-45,7.11-63,3.55-3-.59-29.38-2.88-32.53-3.44a6.39,6.39,0,0,0-.78-.1L1040.5,428.5"/><path d="M750.06,302.46l-4.85,13.62c-.6,1.35-1.4,3.62-2.42,6.82v12h-5.5v-12a24.91,24.91,0,0,0-1.08-3.44c-.83-2.07-1.28-3.19-1.34-3.38L730,302.46a.45.45,0,0,1,0-.18h5.65l4.38,14.16,4.36-14.16h5.63Z"/><path d="M768.2,332.27c0,1.73-1,2.6-3,2.6h-9.61c-2,0-3-.87-3-2.6V316.44c0-1.74,1-2.6,3-2.6h9.61c2,0,3,.86,3,2.6ZM763,330.91v-13.1h-5.09v13.1Z"/><path d="M787.82,334.87h-5.35v-.73l-3.72.54A28.59,28.59,0,0,1,775,335c-2,0-2.93-.87-2.93-2.61V313.84h5.32v17.07l5.08-.1v-17h5.35Z"/><path d="M820.65,334.87h-5.72l-6-15.14v-2.94h5.39V306.46h-6.92v28.41h-5.48V302.28h14.55q3.32,0,3.31,3v11.85a2.54,2.54,0,0,1-1.57,2.66,12.58,12.58,0,0,1-3.56.31Z"/><path d="M839.33,332.27c0,1.73-1,2.6-3,2.6h-9.61c-2,0-3-.87-3-2.6V316.44c0-1.74,1-2.6,3-2.6h9.61c2,0,3,.86,3,2.6Zm-5.25-1.36v-13.1H829v13.1Z"/><path d="M858.5,332.27c0,1.73-1,2.6-3,2.6h-9.31c-2,0-3-.87-3-2.6V316.44c0-1.74,1-2.6,3-2.6h9.31c2,0,3,.86,3,2.6v5h-5.22v-3.63h-4.81v13.1h4.81v-4h5.22Z"/><path d="M878.14,334.87h-5.71l-4.72-9.64v9.64h-5.36V302.28h5.36v19.57l4.25-8h5.6v.08l-5.46,9.56Z"/><path d="M884.29,334.87h-3.57v-3.66h3.57Z"/><path d="M656.29,411.65h-2.45V387.2h2.45Z"/><path d="M677.78,411.65h-2.33V398.31l-5.1.12v13.22H668V398.31l-5.1.12v13.22h-2.34v-15.2h2.34v.42c.91-.1,1.83-.21,2.74-.33a26.9,26.9,0,0,1,2.76-.18,2,2,0,0,1,1.58.58l2.94-.36a26.76,26.76,0,0,1,2.9-.22c1.29,0,1.93.56,1.93,1.7Z"/><path d="M698.35,415.65c0,1.17-.66,1.76-2,1.76h-5.55c-1.35,0-2-.74-2-2.23,0-.18,0-.44,0-.79s0-.6,0-.76h2.3v2H696v-4h-3.85a3.75,3.75,0,0,1-2.6-.93,3,3,0,0,1-1-2.34V399.5a3,3,0,0,1,.92-2.25,3.29,3.29,0,0,1,2.4-.89q.4,0,4.17.51v-.42h2.32ZM696,409.82V398.34c-1.85-.1-2.93-.16-3.24-.16-1.28,0-1.93.59-1.93,1.75v8.14c0,1.17.65,1.75,1.93,1.75Z"/><path d="M712,409.88c0,1.18-.67,1.77-2,1.77h-5.87c-1.31,0-2-.59-2-1.77V398.22c0-1.18.66-1.77,2-1.77H710c1.32,0,2,.59,2,1.77Zm-2.34-.06V398.28h-5.15v11.54Z"/><path d="M725.67,411.65h-2.34V398.31l-5.15.12v13.22h-2.34v-15.2h2.34v.42l2.76-.33a27.07,27.07,0,0,1,2.77-.18c1.31,0,2,.56,2,1.7Z"/><path d="M739.27,411.65h-2.34V398.31l-5.15.12v13.22h-2.33v-15.2h2.33v.42l2.76-.33a27.24,27.24,0,0,1,2.78-.18c1.3,0,1.95.56,1.95,1.7Z"/><path d="M752.72,411.65h-2.3v-.42l-2.78.33q-1.73.18-2.76.18-1.92,0-1.92-1.68v-5.55c0-1.17.67-1.75,2-1.75h5.5v-4.58h-5v2.6h-2.26v-2.56c0-1.18.65-1.77,2-1.77h5.62c1.31,0,2,.59,2,1.77Zm-2.27-1.89v-5.37h-5.22v5.46Z"/><path d="M773.43,408.38a3,3,0,0,1-1,2.34,3.75,3.75,0,0,1-2.6.93h-3.85v5.76H763.6v-21h2.34v.42l2.77-.31a24.52,24.52,0,0,1,2.76-.2c1.31,0,2,.56,2,1.7Zm-2.34-.31v-9.76l-5.15.12v11.39h3.23C770.45,409.82,771.09,409.24,771.09,408.07Z"/><path d="M786.84,411.65h-2.3v-.42l-2.78.33q-1.72.18-2.76.18-1.92,0-1.92-1.68v-5.55c0-1.17.66-1.75,2-1.75h5.5v-4.58h-5v2.6h-2.26v-2.56c0-1.18.65-1.77,2-1.77h5.63c1.31,0,2,.59,2,1.77Zm-2.27-1.89v-5.37h-5.22v5.46Z"/><path d="M800.39,411.65h-2.32v-.42q-3.77.51-4.17.51a3.28,3.28,0,0,1-2.4-.9,3,3,0,0,1-.92-2.24v-8.88a3,3,0,0,1,1-2.34,3.75,3.75,0,0,1,2.6-.93h3.85V387.2h2.32Zm-2.32-1.89V398.28h-3.23c-1.29,0-1.94.59-1.94,1.76v8.13c0,1.16.65,1.75,1.94,1.75C795.14,409.92,796.22,409.86,798.07,409.76Z"/><path d="M814,411.65h-2.32v-.42q-3.76.51-4.17.51a3.28,3.28,0,0,1-2.4-.9,3,3,0,0,1-.92-2.24v-8.88a3,3,0,0,1,1-2.34,3.75,3.75,0,0,1,2.6-.93h3.85V387.2H814Zm-2.32-1.89V398.28h-3.23c-1.29,0-1.94.59-1.94,1.76v8.13c0,1.16.65,1.75,1.94,1.75C808.71,409.92,809.79,409.86,811.64,409.76Z"/><path d="M820.25,411.65H818V387.2h2.3Z"/><path d="M833.79,409.88c0,1.18-.66,1.77-2,1.77H826.2c-1.32,0-2-.59-2-1.77V398.22c0-1.18.65-1.77,2-1.77h5.62c1.31,0,2,.59,2,1.77v5.46l-.79.74h-6.51v5.5h5v-2.78h2.27Zm-2.27-7.12v-4.58h-5v4.58Z"/><path d="M850.86,411.65h-3.32c-1.32,0-2-.59-2-1.77v-11.6h-2.06v-1.83h2.06v-4.73h2.3v4.73h3v1.83h-3v11.54h3Z"/><path d="M863.67,409.88q0,1.77-2,1.77h-5.88c-1.31,0-2-.59-2-1.77V398.22c0-1.18.65-1.77,2-1.77h5.88q2,0,2,1.77Zm-2.34-.06V398.28h-5.15v11.54Z"/><path d="M886.33,411.65h-2.44V399.9h-6.63v11.75h-2.44V387.2h2.44V398h6.63V387.2h2.44Z"/><path d="M900.11,411.65h-2.3v-.42l-2.78.33q-1.72.18-2.76.18c-1.28,0-1.91-.56-1.91-1.68v-5.55c0-1.17.66-1.75,2-1.75h5.5v-4.58h-5v2.6h-2.27v-2.56c0-1.18.66-1.77,2-1.77h5.62c1.32,0,2,.59,2,1.77Zm-2.27-1.89v-5.37h-5.22v5.46Z"/><path d="M919.24,396.45l-3.54,15.23h-2.09l-2.51-11.54-2.52,11.54h-2.05L903,396.45h2.2l2.41,11.72,2.5-11.72h2l2.5,11.72L917,396.45Z"/><path d="M931.79,411.65h-2.31v-.42l-2.77.33q-1.73.18-2.76.18-1.92,0-1.92-1.68v-5.55c0-1.17.66-1.75,2-1.75h5.5v-4.58h-5v2.6h-2.27v-2.56c0-1.18.66-1.77,2-1.77h5.63c1.31,0,2,.59,2,1.77Zm-2.27-1.89v-5.37H924.3v5.46Z"/><path d="M938.1,393.12h-2.38V390.5h2.38Zm0,18.53h-2.3v-15.2h2.3Z"/><path d="M944.51,393.12h-2.37V390.5h2.37Zm0,18.53h-2.3v-15.2h2.3Z"/><path d="M950.86,411.65h-2.67V408.9h2.67Z"/><path d="M662.56,427.51h-6.42v9.28h5.91v2h-5.91V450H653.7V425.59h8.86Z"/><path d="M675.22,448.27c0,1.18-.66,1.77-2,1.77h-5.63c-1.31,0-2-.59-2-1.77V436.6c0-1.17.66-1.76,2-1.76h5.63c1.31,0,2,.59,2,1.76v5.47l-.79.74h-6.51v5.49h5v-2.78h2.27ZM673,441.15v-4.58h-5v4.58Z"/><path d="M688.65,448.27c0,1.18-.66,1.77-2,1.77h-5.63c-1.31,0-2-.59-2-1.77V436.6c0-1.17.66-1.76,2-1.76h5.63c1.31,0,2,.59,2,1.76v5.47l-.79.74h-6.51v5.49h5v-2.78h2.27Zm-2.27-7.12v-4.58h-5v4.58Z"/><path d="M695,450h-2.31V425.59H695Z"/><path d="M712.45,427.42h-3.31v7.42h2.92v1.83h-2.92V450h-2.3V436.67h-2v-1.83h2v-7.48c0-1.18.66-1.77,2-1.77h3.64Z"/><path d="M723.49,439.84h-2.31V436.7l-4.3.12V450h-2.34v-15.2h2.34v.42l2.33-.33a19.11,19.11,0,0,1,2.34-.18c1.29,0,1.94.56,1.94,1.7Z"/><path d="M736,448.27c0,1.18-.66,1.77-2,1.77h-5.62c-1.32,0-2-.59-2-1.77V436.6c0-1.17.65-1.76,2-1.76h5.62c1.31,0,2,.59,2,1.76v5.47l-.79.74h-6.51v5.49h5v-2.78H736Zm-2.27-7.12v-4.58h-5v4.58Z"/><path d="M749.45,448.27c0,1.18-.66,1.77-2,1.77h-5.62c-1.32,0-2-.59-2-1.77V436.6c0-1.17.65-1.76,2-1.76h5.62c1.31,0,2,.59,2,1.76v5.47l-.79.74h-6.51v5.49h5v-2.78h2.27Zm-2.27-7.12v-4.58h-5v4.58Z"/><path d="M766.52,450H763.2c-1.32,0-2-.59-2-1.77v-11.6h-2.06v-1.83h2.06v-4.73h2.3v4.73h3v1.83h-3v11.54h3Z"/><path d="M779.33,448.27q0,1.77-2,1.77h-5.88c-1.31,0-2-.59-2-1.77V436.6c0-1.17.65-1.76,2-1.76h5.88c1.32,0,2,.59,2,1.76Zm-2.34-.06V436.67h-5.15v11.54Z"/><path d="M809,450H806.6V438.29H800V450h-2.44V425.59H800v10.75h6.63V425.59H809Z"/><path d="M822.71,448.27c0,1.18-.65,1.77-2,1.77h-5.63c-1.31,0-2-.59-2-1.77V436.6c0-1.17.66-1.76,2-1.76h5.63c1.31,0,2,.59,2,1.76v5.47l-.79.74h-6.5v5.49h5v-2.78h2.26Zm-2.26-7.12v-4.58h-5v4.58Z"/><path d="M829,450h-2.31V425.59H829Z"/><path d="M842.82,446.77a3,3,0,0,1-1,2.34,3.75,3.75,0,0,1-2.6.93h-3.85v5.76H833v-21h2.34v.42l2.77-.31a24.52,24.52,0,0,1,2.76-.2c1.3,0,2,.56,2,1.7Zm-2.33-.31V436.7l-5.15.12v11.39h3.23C839.85,448.21,840.49,447.63,840.49,446.46Z"/><path d="M863.37,427.51h-4.25V450h-2.44V427.51h-4.29v-1.92h11Z"/><path d="M868.44,431.51h-2.38v-2.62h2.38Zm0,18.53h-2.3v-15.2h2.3Z"/><path d="M874.82,450h-2.31V425.59h2.31Z"/><path d="M888.51,450h-2.32v-.42q-3.77.51-4.17.51a3.26,3.26,0,0,1-2.4-.9,3,3,0,0,1-.92-2.24V438.1a3,3,0,0,1,1-2.33,3.75,3.75,0,0,1,2.6-.93h3.85v-9.25h2.32Zm-2.32-1.89V436.67H883c-1.29,0-1.94.59-1.94,1.76v8.13c0,1.16.65,1.74,1.94,1.74C883.26,448.3,884.34,448.25,886.19,448.15Z"/><path d="M901.92,448.27c0,1.18-.65,1.77-2,1.77h-5.62c-1.31,0-2-.59-2-1.77V436.6c0-1.17.66-1.76,2-1.76H900c1.32,0,2,.59,2,1.76v5.47l-.79.74h-6.5v5.49h5v-2.78h2.27Zm-2.27-7.12v-4.58h-5v4.58Z"/><path d="M922.51,450H920.2v-.42l-2.77.32a25.61,25.61,0,0,1-2.76.19q-1.92,0-1.92-1.68V442.9c0-1.17.66-1.75,2-1.75h5.5v-4.58h-5v2.6h-2.27V436.6c0-1.17.66-1.76,2-1.76h5.63c1.31,0,2,.59,2,1.76Zm-2.27-1.89v-5.38H915v5.47Z"/><path d="M936.06,454c0,1.17-.66,1.76-2,1.76h-5.55c-1.35,0-2-.74-2-2.23,0-.18,0-.44,0-.79s0-.6,0-.76h2.3v2h4.89v-4h-3.85a3.75,3.75,0,0,1-2.6-.93,3,3,0,0,1-1-2.34v-8.88a3,3,0,0,1,.91-2.25,3.33,3.33,0,0,1,2.41-.89q.4,0,4.17.51v-.42h2.32Zm-2.32-5.83V436.73c-1.85-.1-2.93-.16-3.24-.16-1.29,0-1.93.59-1.93,1.75v8.14c0,1.17.64,1.75,1.93,1.75Z"/><path d="M949.58,450h-2.31v-.42l-2.77.32a25.61,25.61,0,0,1-2.76.19q-1.92,0-1.92-1.68V442.9c0-1.17.66-1.75,2-1.75h5.5v-4.58h-5v2.6H940V436.6c0-1.17.66-1.76,2-1.76h5.63c1.31,0,2,.59,2,1.76Zm-2.27-1.89v-5.38h-5.22v5.47Z"/><path d="M955.89,431.51h-2.38v-2.62h2.38Zm0,18.53h-2.3v-15.2h2.3Z"/><path d="M969.65,450h-2.34V436.7l-5.15.12V450h-2.34v-15.2h2.34v.42q1.38-.15,2.76-.33a27.24,27.24,0,0,1,2.78-.18c1.3,0,1.95.56,1.95,1.7Z"/></g></g></svg>
