<svg id="Layer_1" data-name="Layer 1" xmlns="http://www.w3.org/2000/svg" viewBox="0 0 550 200"><defs><style>.cls-1{fill:#fff;stroke:#ff0;stroke-miterlimit:10;stroke-width:3px;}</style></defs><title>Artboard 1</title><ellipse class="cls-1" cx="251.16" cy="100.61" rx="225.16" ry="85.38"/><path class="cls-1" d="M473.08,116.33s-5.21,44,41.64,31.43c40.19-10.78-4.62,9.86-21.51,18.63a14.21,14.21,0,0,1-9.24,1.23,4.89,4.89,0,0,0-.78-.1l-70-8.24"/><path d="M187.29,34.46,184,45.59c-.43,1.11-1,3-1.67,5.57V61.81h-2.45V51.16a18.72,18.72,0,0,0-.75-2.81c-.57-1.69-.87-2.61-.92-2.76l-3.34-11.13V34.3h2.48l3.78,13.76,3.74-13.76h2.46Z"/><path d="M199.83,59.82a1.76,1.76,0,0,1-2,2H192a1.75,1.75,0,0,1-2-2V46.69a1.75,1.75,0,0,1,2-2h5.87a1.75,1.75,0,0,1,2,2Zm-2.34-.07v-13h-5.15v13Z"/><path d="M213.43,61.81h-2.3v-.47l-2.79.37a23.55,23.55,0,0,1-2.8.21,1.68,1.68,0,0,1-1.9-1.9V44.71H206v15l5.18-.14V44.71h2.3Z"/><path d="M236.29,61.81h-2.57L228.6,47.08l.34-.49h4.36V36.46H227V61.81h-2.44V34.3h9.21a1.87,1.87,0,0,1,2,2V46.69c0,1.33-.89,2-2.67,2l-.78,0-.73,0Q233.93,55.2,236.29,61.81Z"/><path d="M249.49,59.82a1.76,1.76,0,0,1-2,2h-5.87a1.75,1.75,0,0,1-2-2V46.69a1.75,1.75,0,0,1,2-2h5.87a1.76,1.76,0,0,1,2,2Zm-2.34-.07v-13H242v13Z"/><path d="M262.79,59.82a1.75,1.75,0,0,1-2,2h-5.55a1.75,1.75,0,0,1-2-2V46.69a1.75,1.75,0,0,1,2-2h5.55a1.74,1.74,0,0,1,2,2V50.1h-2.3V46.76h-4.85v13h4.85V55.94h2.3Z"/><path d="M276.19,61.81h-2.55l-4.71-8.72v8.72h-2.34V34.3h2.34V51.77l4.39-7.06h2.52v.07l-5,7.56Z"/><path d="M281.06,61.81h-2.68V58.72h2.68Z"/><path d="M101.29,105H98.84V77.5h2.45Z"/><path d="M122.78,105h-2.33V90l-5.1.14V105H113V90l-5.1.14V105h-2.34V87.91h2.34v.47l2.74-.37a23.11,23.11,0,0,1,2.76-.21,1.89,1.89,0,0,1,1.58.65l2.94-.4a23.7,23.7,0,0,1,2.9-.25,1.7,1.7,0,0,1,1.93,1.92Z"/><path d="M143.35,109.51a1.76,1.76,0,0,1-2,2h-5.55c-1.35,0-2-.84-2-2.52,0-.2,0-.49,0-.88s0-.68,0-.86h2.3v2.27H141V105h-3.85a3.5,3.5,0,0,1-2.6-1.05,3.57,3.57,0,0,1-1-2.62v-10a3.64,3.64,0,0,1,.92-2.52,3.08,3.08,0,0,1,2.4-1c.27,0,1.66.2,4.17.58v-.47h2.32ZM141,103V90c-1.85-.11-2.93-.17-3.24-.17a1.72,1.72,0,0,0-1.93,2V101a1.72,1.72,0,0,0,1.93,2Z"/><path d="M157,103a1.76,1.76,0,0,1-2,2h-5.87a1.75,1.75,0,0,1-2-2V89.89a1.75,1.75,0,0,1,2-2H155a1.76,1.76,0,0,1,2,2Zm-2.34-.07V90h-5.15v13Z"/><path d="M170.67,105h-2.34V90l-5.15.14V105h-2.34V87.91h2.34v.47l2.76-.37a23.26,23.26,0,0,1,2.77-.21,1.71,1.71,0,0,1,2,1.92Z"/><path d="M184.27,105h-2.34V90l-5.15.14V105h-2.33V87.91h2.33v.47l2.76-.37a23.4,23.4,0,0,1,2.78-.21,1.71,1.71,0,0,1,2,1.92Z"/><path d="M197.72,105h-2.3v-.47l-2.78.37a24,24,0,0,1-2.76.21,1.69,1.69,0,0,1-1.92-1.9V97a1.75,1.75,0,0,1,2-2h5.5V89.86h-5v2.92h-2.26V89.89a1.74,1.74,0,0,1,2-2h5.62a1.75,1.75,0,0,1,2,2Zm-2.27-2.13v-6h-5.22V103Z"/><path d="M218.43,101.34a3.57,3.57,0,0,1-1,2.62,3.5,3.5,0,0,1-2.6,1.05h-3.85v6.49H208.6V87.91h2.34v.47l2.77-.35a23.58,23.58,0,0,1,2.76-.23,1.71,1.71,0,0,1,2,1.92Zm-2.34-.35V90l-5.15.14V103h3.23A1.71,1.71,0,0,0,216.09,101Z"/><path d="M231.84,105h-2.3v-.47l-2.78.37a24,24,0,0,1-2.76.21,1.69,1.69,0,0,1-1.92-1.9V97a1.75,1.75,0,0,1,2-2h5.5V89.86h-5v2.92h-2.26V89.89a1.74,1.74,0,0,1,2-2h5.63a1.75,1.75,0,0,1,2,2Zm-2.27-2.13v-6h-5.22V103Z"/><path d="M245.39,105h-2.32v-.47c-2.51.38-3.9.58-4.17.58a3.1,3.1,0,0,1-2.4-1,3.65,3.65,0,0,1-.92-2.53v-10a3.6,3.6,0,0,1,1-2.63,3.54,3.54,0,0,1,2.6-1h3.85V77.5h2.32Zm-2.32-2.13V90h-3.23a1.74,1.74,0,0,0-1.94,2v9.14a1.73,1.73,0,0,0,1.94,2C240.14,103.06,241.22,103,243.07,102.88Z"/><path d="M259,105h-2.32v-.47c-2.51.38-3.9.58-4.17.58a3.1,3.1,0,0,1-2.4-1,3.65,3.65,0,0,1-.92-2.53v-10a3.6,3.6,0,0,1,1-2.63,3.54,3.54,0,0,1,2.6-1h3.85V77.5H259Zm-2.32-2.13V90h-3.23a1.74,1.74,0,0,0-1.94,2v9.14a1.73,1.73,0,0,0,1.94,2C253.71,103.06,254.79,103,256.64,102.88Z"/><path d="M265.25,105H263V77.5h2.3Z"/><path d="M278.79,103a1.75,1.75,0,0,1-2,2H271.2a1.75,1.75,0,0,1-2-2V89.89a1.74,1.74,0,0,1,2-2h5.62a1.75,1.75,0,0,1,2,2v6.16l-.79.82h-6.51v6.19h5V99.93h2.27Zm-2.27-8V89.86h-5V95Z"/><path d="M295.86,105h-3.32a1.75,1.75,0,0,1-2-2V90h-2.06v-2h2.06V82.58h2.3v5.33h3v2h-3v13h3Z"/><path d="M308.67,103a1.75,1.75,0,0,1-2,2h-5.88a1.74,1.74,0,0,1-2-2V89.89a1.74,1.74,0,0,1,2-2h5.88a1.75,1.75,0,0,1,2,2Zm-2.34-.07V90h-5.15v13Z"/><path d="M331.33,105h-2.44V91.79h-6.63V105h-2.44V77.5h2.44V89.59h6.63V77.5h2.44Z"/><path d="M345.11,105h-2.3v-.47l-2.78.37a24,24,0,0,1-2.76.21,1.68,1.68,0,0,1-1.91-1.9V97a1.75,1.75,0,0,1,2-2h5.5V89.86h-5v2.92h-2.27V89.89a1.75,1.75,0,0,1,2-2h5.62a1.74,1.74,0,0,1,2,2Zm-2.27-2.13v-6h-5.22V103Z"/><path d="M364.24,87.91l-3.54,17.14h-2.09l-2.51-13-2.52,13h-2.05L348,87.91h2.2l2.41,13.18,2.5-13.18h2l2.5,13.18L362,87.91Z"/><path d="M376.79,105h-2.31v-.47l-2.77.37a24,24,0,0,1-2.76.21,1.69,1.69,0,0,1-1.92-1.9V97a1.75,1.75,0,0,1,2-2h5.5V89.86h-5v2.92h-2.27V89.89a1.75,1.75,0,0,1,2-2h5.63a1.75,1.75,0,0,1,2,2Zm-2.27-2.13v-6H369.3V103Z"/><path d="M383.1,84.16h-2.38v-3h2.38Zm0,20.85h-2.3V87.91h2.3Z"/><path d="M389.51,84.16h-2.37v-3h2.37Zm0,20.85h-2.3V87.91h2.3Z"/><path d="M395.86,105h-2.67v-3.09h2.67Z"/><path d="M107.56,122.86h-6.42V133.3h5.91v2.2h-5.91v12.71H98.7V120.7h8.86Z"/><path d="M120.22,146.22a1.75,1.75,0,0,1-2,2h-5.63a1.75,1.75,0,0,1-2-2V133.09a1.75,1.75,0,0,1,2-2h5.63a1.75,1.75,0,0,1,2,2v6.16l-.79.82h-6.51v6.19h5v-3.13h2.27Zm-2.27-8v-5.15h-5v5.15Z"/><path d="M133.65,146.22a1.75,1.75,0,0,1-2,2h-5.63a1.75,1.75,0,0,1-2-2V133.09a1.75,1.75,0,0,1,2-2h5.63a1.75,1.75,0,0,1,2,2v6.16l-.79.82h-6.51v6.19h5v-3.13h2.27Zm-2.27-8v-5.15h-5v5.15Z"/><path d="M140,148.21h-2.31V120.7H140Z"/><path d="M157.45,122.76h-3.31v8.35h2.92v2h-2.92v15.05h-2.3V133.16h-2v-2h2v-8.42a1.75,1.75,0,0,1,2-2h3.64Z"/><path d="M168.49,136.73h-2.31V133.2l-4.3.14v14.87h-2.34v-17.1h2.34v.47l2.33-.37a16.44,16.44,0,0,1,2.34-.21,1.71,1.71,0,0,1,1.94,1.92Z"/><path d="M181,146.22a1.75,1.75,0,0,1-2,2h-5.62a1.75,1.75,0,0,1-2-2V133.09a1.74,1.74,0,0,1,2-2h5.62a1.75,1.75,0,0,1,2,2v6.16l-.79.82h-6.51v6.19h5v-3.13H181Zm-2.27-8v-5.15h-5v5.15Z"/><path d="M194.45,146.22a1.75,1.75,0,0,1-2,2h-5.62a1.75,1.75,0,0,1-2-2V133.09a1.74,1.74,0,0,1,2-2h5.62a1.75,1.75,0,0,1,2,2v6.16l-.79.82h-6.51v6.19h5v-3.13h2.27Zm-2.27-8v-5.15h-5v5.15Z"/><path d="M211.52,148.21H208.2a1.75,1.75,0,0,1-2-2V133.16h-2.06v-2h2.06v-5.33h2.3v5.33h3v2h-3v13h3Z"/><path d="M224.33,146.22a1.75,1.75,0,0,1-2,2h-5.88a1.74,1.74,0,0,1-2-2V133.09a1.74,1.74,0,0,1,2-2h5.88a1.75,1.75,0,0,1,2,2Zm-2.34-.07v-13h-5.15v13Z"/><path d="M254,148.21H251.6V135H245v13.22h-2.44V120.7H245v12.09h6.63V120.7H254Z"/><path d="M267.71,146.22a1.74,1.74,0,0,1-2,2h-5.63a1.75,1.75,0,0,1-2-2V133.09a1.75,1.75,0,0,1,2-2h5.63a1.74,1.74,0,0,1,2,2v6.16l-.79.82h-6.5v6.19h5v-3.13h2.26Zm-2.26-8v-5.15h-5v5.15Z"/><path d="M274,148.21h-2.31V120.7H274Z"/><path d="M287.82,144.54a3.6,3.6,0,0,1-1,2.63,3.54,3.54,0,0,1-2.6,1h-3.85v6.49H278V131.11h2.34v.47l2.77-.35a23.58,23.58,0,0,1,2.76-.23,1.71,1.71,0,0,1,1.95,1.92Zm-2.33-.35v-11l-5.15.14v12.81h3.23A1.71,1.71,0,0,0,285.49,144.19Z"/><path d="M308.37,122.86h-4.25v25.35h-2.44V122.86h-4.29V120.7h11Z"/><path d="M313.44,127.36h-2.38v-3h2.38Zm0,20.85h-2.3v-17.1h2.3Z"/><path d="M319.82,148.21h-2.31V120.7h2.31Z"/><path d="M333.51,148.21h-2.32v-.47c-2.51.38-3.9.58-4.17.58a3.08,3.08,0,0,1-2.4-1,3.65,3.65,0,0,1-.92-2.53v-10a3.6,3.6,0,0,1,1-2.63,3.54,3.54,0,0,1,2.6-1h3.85V120.7h2.32Zm-2.32-2.13V133.16H328a1.74,1.74,0,0,0-1.94,2v9.14a1.73,1.73,0,0,0,1.94,2C328.26,146.26,329.34,146.2,331.19,146.08Z"/><path d="M346.92,146.22a1.75,1.75,0,0,1-2,2h-5.62a1.75,1.75,0,0,1-2-2V133.09a1.75,1.75,0,0,1,2-2H345a1.74,1.74,0,0,1,2,2v6.16l-.79.82h-6.5v6.19h5v-3.13h2.27Zm-2.27-8v-5.15h-5v5.15Z"/><path d="M367.51,148.21H365.2v-.47l-2.77.37a24,24,0,0,1-2.76.21,1.69,1.69,0,0,1-1.92-1.9v-6.24a1.75,1.75,0,0,1,2-2h5.5v-5.15h-5V136h-2.27v-2.89a1.75,1.75,0,0,1,2-2h5.63a1.75,1.75,0,0,1,2,2Zm-2.27-2.13v-6H360v6.15Z"/><path d="M381.06,152.71a1.76,1.76,0,0,1-2,2h-5.55c-1.35,0-2-.84-2-2.52,0-.2,0-.49,0-.88s0-.68,0-.86h2.3v2.27h4.89v-4.5h-3.85a3.54,3.54,0,0,1-2.6-1,3.6,3.6,0,0,1-1-2.63v-10a3.64,3.64,0,0,1,.91-2.53,3.12,3.12,0,0,1,2.41-1c.27,0,1.66.2,4.17.58v-.47h2.32Zm-2.32-6.56V133.23c-1.85-.11-2.93-.17-3.24-.17a1.72,1.72,0,0,0-1.93,2v9.16a1.72,1.72,0,0,0,1.93,2Z"/><path d="M394.58,148.21h-2.31v-.47l-2.77.37a24,24,0,0,1-2.76.21,1.69,1.69,0,0,1-1.92-1.9v-6.24a1.75,1.75,0,0,1,2-2h5.5v-5.15h-5V136H385v-2.89a1.75,1.75,0,0,1,2-2h5.63a1.75,1.75,0,0,1,2,2Zm-2.27-2.13v-6h-5.22v6.15Z"/><path d="M400.89,127.36h-2.38v-3h2.38Zm0,20.85h-2.3v-17.1h2.3Z"/><path d="M414.65,148.21h-2.34v-15l-5.15.14v14.87h-2.34v-17.1h2.34v.47l2.76-.37a23.4,23.4,0,0,1,2.78-.21,1.71,1.71,0,0,1,1.95,1.92Z"/></svg>
