<svg id="Layer_1" data-name="Layer 1" xmlns="http://www.w3.org/2000/svg" xmlns:xlink="http://www.w3.org/1999/xlink" viewBox="0 0 90 90"><defs><style>.cls-1{fill:#301c00;}.cls-2{fill:#fce001;}.cls-3{fill:#fde758;}.cls-4{fill:url(#linear-gradient);}.cls-5{fill:url(#linear-gradient-2);}</style><linearGradient id="linear-gradient" x1="-260.13" y1="-112.81" x2="-254.78" y2="-112.81" gradientTransform="translate(129.04 263.31) rotate(41.54)" gradientUnits="userSpaceOnUse"><stop offset="0" stop-color="#0e5e0e"/><stop offset="0.11" stop-color="#3f7a1d"/><stop offset="0.23" stop-color="#71972d"/><stop offset="0.35" stop-color="#9caf3a"/><stop offset="0.48" stop-color="#bfc445"/><stop offset="0.61" stop-color="#dad34d"/><stop offset="0.73" stop-color="#eede53"/><stop offset="0.86" stop-color="#f9e557"/><stop offset="1" stop-color="#fde758"/><stop offset="1" stop-color="#fff"/></linearGradient><linearGradient id="linear-gradient-2" x1="-161.63" y1="-91.51" x2="-157.24" y2="-91.51" gradientTransform="matrix(0.75, 0.67, -0.71, 0.8, 133.63, 257.03)" gradientUnits="userSpaceOnUse"><stop offset="0" stop-color="#fff"/><stop offset="0" stop-color="#fde758"/><stop offset="0.1" stop-color="#f7e356"/><stop offset="0.23" stop-color="#e5d951"/><stop offset="0.38" stop-color="#c9c948"/><stop offset="0.54" stop-color="#a1b23b"/><stop offset="0.72" stop-color="#6e952c"/><stop offset="0.91" stop-color="#307219"/><stop offset="1" stop-color="#0e5e0e"/></linearGradient></defs><title>Artboard 1</title><polygon class="cls-1" points="83.17 76.26 82.65 74.88 81.03 75.15 82.4 73.52 82.36 71.83 83.72 72.2 85.31 70.89 84.79 72.76 85.81 73.63 84.12 74.41 83.17 76.26"/><path class="cls-2" d="M83.72,73.92c.15,3-8,9.2-21,11.19C49.94,87.19,32.33,85,19.62,73.29,6.45,62,2.39,45,2.92,32.29c.43-13,5.45-21.6,8.14-21.79C14.29,10.1,15.54,17.29,19,26s8.87,19.2,18.36,27.13c9.36,8.12,20.53,12,29.82,14.28S83.71,70.38,83.72,73.92Z"/><path class="cls-2" d="M83.72,73.92c.15,3-8,9.2-21,11.19C49.94,87.19,32.33,85,19.62,73.29,6.45,62,2.39,45,2.92,32.29c.43-13,5.45-21.6,8.14-21.79C14.29,10.1,15.54,17.29,19,26s8.87,19.2,18.36,27.13c9.36,8.12,20.53,12,29.82,14.28S83.71,70.38,83.72,73.92Z"/><path class="cls-3" d="M26.44,65.25C39.66,77.44,57.7,80,70.69,78.1a46,46,0,0,0,13-3.61,2.34,2.34,0,0,0,.07-.57c0-3.54-7.35-4.16-16.56-6.48S46.7,61.28,37.34,53.16C27.85,45.23,22.32,34.85,19,26S14.29,10.1,11.06,10.5a2.06,2.06,0,0,0-.72.23A47,47,0,0,0,8.55,23.22C8.26,36.15,12.76,53.55,26.44,65.25Z"/><path class="cls-4" d="M10.67,12.16h0A1.06,1.06,0,0,1,9.33,11l.33-4.66A2,2,0,0,1,11.2,4.63l1.44-.28-.43,6.1A2,2,0,0,1,10.67,12.16Z"/><polygon class="cls-5" points="74.2 81.92 76.24 77.1 80.25 75.89 83.65 74.49 83.2 75.89 81.28 77.76 77.72 80.11 74.2 81.92"/></svg>
