<svg id="Layer_1" data-name="Layer 1" xmlns="http://www.w3.org/2000/svg" xmlns:xlink="http://www.w3.org/1999/xlink" viewBox="0 0 110 90"><defs><style>.cls-1{fill:#301c00;}.cls-2{fill:#fce001;}.cls-3{fill:#fde758;}.cls-4{fill:url(#linear-gradient);}.cls-5{fill:url(#linear-gradient-2);}.cls-6{fill:url(#linear-gradient-3);}.cls-7{fill:url(#linear-gradient-4);}.cls-8{fill:url(#linear-gradient-5);}.cls-9{fill:url(#linear-gradient-6);}</style><linearGradient id="linear-gradient" x1="448.83" y1="407.61" x2="453.97" y2="407.61" gradientTransform="translate(-421.75 -417.28) rotate(2.11)" gradientUnits="userSpaceOnUse"><stop offset="0" stop-color="#0e5e0e"/><stop offset="0.11" stop-color="#3f7a1d"/><stop offset="0.23" stop-color="#71972d"/><stop offset="0.35" stop-color="#9caf3a"/><stop offset="0.48" stop-color="#bfc445"/><stop offset="0.61" stop-color="#dad34d"/><stop offset="0.73" stop-color="#eede53"/><stop offset="0.86" stop-color="#f9e557"/><stop offset="1" stop-color="#fde758"/><stop offset="1" stop-color="#fff"/></linearGradient><linearGradient id="linear-gradient-2" x1="540.46" y1="396.48" x2="544.66" y2="396.48" gradientTransform="matrix(1, 0.04, -0.04, 1.06, -422.23, -425.04)" gradientUnits="userSpaceOnUse"><stop offset="0" stop-color="#fff"/><stop offset="0" stop-color="#fde758"/><stop offset="0.1" stop-color="#f7e356"/><stop offset="0.23" stop-color="#e5d951"/><stop offset="0.38" stop-color="#c9c948"/><stop offset="0.54" stop-color="#a1b23b"/><stop offset="0.72" stop-color="#6e952c"/><stop offset="0.91" stop-color="#307219"/><stop offset="1" stop-color="#0e5e0e"/></linearGradient><linearGradient id="linear-gradient-3" x1="659.94" y1="-612.54" x2="665.08" y2="-612.54" gradientTransform="translate(-891.87 5.17) rotate(42.94)" xlink:href="#linear-gradient"/><linearGradient id="linear-gradient-4" x1="751.26" y1="-561.22" x2="755.46" y2="-561.22" gradientTransform="matrix(0.73, 0.68, -0.73, 0.78, -887.16, -1.02)" xlink:href="#linear-gradient-2"/><linearGradient id="linear-gradient-5" x1="858.53" y1="197.79" x2="863.66" y2="197.79" gradientTransform="translate(-715.48 -493.05) rotate(21.6)" xlink:href="#linear-gradient"/><linearGradient id="linear-gradient-6" x1="948.73" y1="199.33" x2="952.92" y2="199.33" gradientTransform="matrix(0.93, 0.37, -0.39, 0.99, -713.34, -500.54)" xlink:href="#linear-gradient-2"/></defs><title>Artboard 1</title><polygon class="cls-1" points="109.04 13.47 107.82 12.78 106.79 13.94 106.8 11.93 105.74 10.72 106.97 10.17 107.35 8.27 108.1 9.94 109.39 9.97 108.62 11.55 109.04 13.47"/><path class="cls-2" d="M108,11.43c1.94,2.09-.28,11.52-8.66,20.75-8.13,9.14-22.43,18.1-39,17.11-16.59-.35-30-10.38-37.39-20-7.6-9.74-9.18-19.06-7.31-20.81,2.14-2.22,7.45,2.29,15.33,6.62S49.28,23.85,61.14,24c11.86.34,22.49-3.47,30.71-7.39S105.85,8.85,108,11.43Z"/><path class="cls-2" d="M108,11.43c1.94,2.09-.28,11.52-8.66,20.75-8.13,9.14-22.43,18.1-39,17.11-16.59-.35-30-10.38-37.39-20-7.6-9.74-9.18-19.06-7.31-20.81,2.14-2.22,7.45,2.29,15.33,6.62S49.28,23.85,61.14,24c11.86.34,22.49-3.47,30.71-7.39S105.85,8.85,108,11.43Z"/><path class="cls-3" d="M60.49,39.33c17.2,1,32-7.92,40.48-17.06a42.65,42.65,0,0,0,7.35-10.38,2.29,2.29,0,0,0-.3-.46c-2.17-2.58-8,1.35-16.17,5.16S73,24.32,61.14,24C49.28,23.85,38.87,19.57,31,15.11S17.82,6.27,15.68,8.49a1.64,1.64,0,0,0-.39.6A44.49,44.49,0,0,0,21.61,19.3C29.29,28.92,43.24,39,60.49,39.33Z"/><path class="cls-4" d="M16.4,9.94h0a1,1,0,0,1-1.7,0l-2.6-3.6a1.88,1.88,0,0,1,.09-2.18l.89-1.05,3.41,4.71A1.86,1.86,0,0,1,16.4,9.94Z"/><polygon class="cls-5" points="105.89 22.98 104.45 18.23 106.67 14.95 108.32 11.89 108.85 13.18 108.57 15.7 107.39 19.54 105.89 22.98"/><polygon class="cls-1" points="77.69 75.05 77.22 73.72 75.68 73.93 77 72.41 76.99 70.81 78.28 71.2 79.81 70 79.28 71.76 80.24 72.63 78.63 73.32 77.69 75.05"/><path class="cls-2" d="M78.24,72.83c.1,2.85-7.73,8.54-20.11,10-12.13,1.6-28.81-1-40.68-12.54C5.12,59.23,1.53,42.88,2.22,30.78c.61-12.34,5.51-20.43,8.07-20.53,3.07-.28,4.14,6.6,7.27,15s8.12,18.56,17,26.4c8.75,8,19.28,12.09,28.06,14.49S78.3,69.46,78.24,72.83Z"/><path class="cls-2" d="M78.24,72.83c.1,2.85-7.73,8.54-20.11,10-12.13,1.6-28.81-1-40.68-12.54C5.12,59.23,1.53,42.88,2.22,30.78c.61-12.34,5.51-20.43,8.07-20.53,3.07-.28,4.14,6.6,7.27,15s8.12,18.56,17,26.4c8.75,8,19.28,12.09,28.06,14.49S78.3,69.46,78.24,72.83Z"/><path class="cls-3" d="M24,62.88c12.35,12,29.43,14.95,41.79,13.55a43.12,43.12,0,0,0,12.35-3.05,1.75,1.75,0,0,0,.06-.55c.06-3.37-6.9-4.18-15.61-6.66S43.32,59.69,34.57,51.68c-8.89-7.84-14-17.89-17-26.4s-4.2-15.31-7.27-15a1.89,1.89,0,0,0-.69.19A44.68,44.68,0,0,0,7.71,22.3C7.24,34.61,11.23,51.32,24,62.88Z"/><path class="cls-6" d="M9.89,11.82h0a1,1,0,0,1-1.25-1.15L9,6.24a1.86,1.86,0,0,1,1.49-1.59l1.37-.21-.51,5.79A1.85,1.85,0,0,1,9.89,11.82Z"/><polygon class="cls-7" points="69.09 80.18 71.1 75.65 74.92 74.61 78.17 73.38 77.73 74.7 75.88 76.43 72.47 78.56 69.09 80.18"/><polygon class="cls-1" points="99.39 45.81 98.47 44.75 97.11 45.5 97.79 43.6 97.19 42.11 98.54 42.01 99.53 40.34 99.68 42.17 100.88 42.62 99.63 43.86 99.39 45.81"/><path class="cls-2" d="M99.1,43.54C100.23,46.16,95,54.31,84,60.22c-10.72,5.9-27.18,9.57-42.46,3.12C26,57.47,16.74,43.55,13,32,9.06,20.31,10.68,11,13,10c2.76-1.38,6.27,4.64,12.25,11.35S39.59,35.66,50.72,39.73C61.79,44,73.08,44,82.14,43S97.93,40.38,99.1,43.54Z"/><path class="cls-2" d="M99.1,43.54C100.23,46.16,95,54.31,84,60.22c-10.72,5.9-27.18,9.57-42.46,3.12C26,57.47,16.74,43.55,13,32,9.06,20.31,10.68,11,13,10c2.76-1.38,6.27,4.64,12.25,11.35S39.59,35.66,50.72,39.73C61.79,44,73.08,44,82.14,43S97.93,40.38,99.1,43.54Z"/><path class="cls-3" d="M45,54c15.88,6.69,32.85,3.22,43.85-2.57a42.86,42.86,0,0,0,10.4-7.35,2.17,2.17,0,0,0-.14-.53c-1.17-3.16-7.95-1.38-17-.53s-20.35,1-31.42-3.28C39.59,35.66,31.2,28.15,25.28,21.32S15.79,8.59,13,10a2.14,2.14,0,0,0-.57.43A44.55,44.55,0,0,0,15,22.13C19.05,33.77,28.86,47.89,45,54Z"/><path class="cls-8" d="M13.23,11.58h0A1,1,0,0,1,11.65,11L10.4,6.7a1.84,1.84,0,0,1,.8-2L12.4,4,14,9.56A1.87,1.87,0,0,1,13.23,11.58Z"/><polygon class="cls-9" points="93.25 53.72 93.47 48.77 96.66 46.41 99.24 44.08 99.3 45.47 98.2 47.75 95.8 50.98 93.25 53.72"/></svg>
