<svg xmlns="http://www.w3.org/2000/svg" viewBox="0 0 1600 320"><title>Gameover</title><g id="Game_over" data-name="Game over"><path d="M210.65,157.88q-.79,54.12-25.19,90.38-13.65,20.24-32.41,31.43T114.14,290.9q-17.51,0-34.47-9.11a97.69,97.69,0,0,1-30.09-25.51q-16.84-21.13-24.93-50.84a180.68,180.68,0,0,1-6.36-47q0-43.36,19.49-78.72Q51.18,55.1,71.45,41.16T114,27.22q39.11,0,67.34,37Q194,80.79,194,87.72a6,6,0,0,1-1.39,4,4.3,4.3,0,0,1-3.38,1.64q-3,0-6.48-6.38-26.61-48.64-68.31-48.65a58.29,58.29,0,0,0-10.19.91l-.8,129.38.68,109.88a40.73,40.73,0,0,0,10,1.28,64.76,64.76,0,0,0,29-6.93q35.48-17.31,51-63.6a150.47,150.47,0,0,0,7.81-39.72H132.7q-9.15-.36-11-1.28t-1.86-4.73q0-5.84,6.36-5.83l8,.18Z"/><path d="M326.39,162.07V139.84q-.13-23.15-.54-28.43a26.35,26.35,0,0,0-2.39-9.47q-4.77-10.22-22.3-10.21-27.09,0-41.83,23.33-6,9.47-10.09,9.47a6.58,6.58,0,0,1-5.31-2.91,10.71,10.71,0,0,1-2.26-6.75q0-11.48,19.76-23.69,18.81-11.66,48.65-11.66,49.05,0,69.2,20.41a42.4,42.4,0,0,1,11.4,20q2.65,11.11,2.65,39.17V231.5q-.52,20,.87,30.15a86.87,86.87,0,0,0,6.29,21.78H326.25V264.3q-12.19,11.47-24.19,17.31a54,54,0,0,1-23.67,5.83q-19.75,0-35.13-15.86-20-20.76-20-53.93,0-29.34,16.19-47.38Q258.29,149,286.17,149a65.82,65.82,0,0,1,20.17,2.82Q315.1,154.6,326.39,162.07Zm0,13.12q-16.71-11.48-25.85-11.48-7.69,0-10.08,8.38-1.33,4.56-1.33,26.42v43.56q.14,14.38.67,17.49,1.32,8.38,9,8.38,6.1,0,13.59-5a57.63,57.63,0,0,0,13.72-13.21Z"/><path d="M595.77,114Q613,95.75,627.92,87.63a65,65,0,0,1,31.48-8.11q30.36,0,42.29,26.79a68.74,68.74,0,0,1,4.78,18.49q1.32,10.49,1.32,31.07L707.26,204v11.3l.8,60.68.13,7.47H640.05l.53-57.58.66-57.95-.13-23.51q-.14-12.93,0-15.12.14-14.4-2.25-19.86t-8.62-5.47q-6.63,0-14.52,5.28t-17,16q.66,7.11.66,20.41l-.27,45.55-.26,51.21q0,22.59.66,41h-68l.32-39.72.48-85.65q0-42.27-.8-46.65-1.46-7.83-9.54-7.83-6.1,0-13.72,5.19T491.3,124.53l-.53,77.08.67,81.82h-68v-7.29l.26-33.16.14-45.19.13-43.74-.53-69.61H491.3V110q14.85-15.3,29.63-22.87t29.5-7.56q22.14,0,35.66,15.31Q591.52,100.85,595.77,114Z"/><path d="M790,189.77v56.49q0,16.39,1.45,20.77,2.79,8.39,13.13,8.38,15.38,0,30.42-11.57t26-32a55.83,55.83,0,0,1,5.17-8.56,4.57,4.57,0,0,1,3.45-1.83,4.3,4.3,0,0,1,3.71,2.28,10.5,10.5,0,0,1,1.46,5.74q0,7.65-8.88,20.59a94.43,94.43,0,0,1-29,27q-17.29,10.4-33.74,10.39-28.23,0-49.84-26.06-12.6-15.3-19.36-37.72a135,135,0,0,1-6-39.36,140.86,140.86,0,0,1,5.3-38q5.29-19,14.58-32.89,10.74-16.23,25.45-25.15a57.56,57.56,0,0,1,30.23-8.75q24.52,0,44.41,19.86,31,31,30.76,89.84H847.92l-39.77.18Zm33.93-12v-53.1q-.25-17.08-.53-20.45a15.35,15.35,0,0,0-1.85-6.28q-3.72-7.08-15.12-7.09-11.65,0-14.58,8.18Q790,103.92,790,124.64v53.1l16.17.73Z"/><path d="M1033.78,79.52q21.35,0,40.44,16.22,17.63,14.94,26.91,40.82a141.18,141.18,0,0,1,8.22,48.29,132.6,132.6,0,0,1-4.84,35.17,121.18,121.18,0,0,1-13.19,31.34q-11.67,18.76-28.5,28.24a57.39,57.39,0,0,1-28.77,7.84Q1009,287.44,989,267q-15.65-15.67-23.73-40.27a141.25,141.25,0,0,1-6.76-43.92q0-45.18,23.87-75.07Q1004.74,80.07,1033.78,79.52Zm-3.84,11.66-.4,183.87q4.11.36,5.7.36,18.43,0,35.27-14.23,16.17-13.86,24.26-36.84a121.2,121.2,0,0,0,6.36-40.13q0-44-23.6-71.32Q1058.45,90.83,1036,90.82,1034.18,90.82,1029.94,91.18Z"/><path d="M1227.38,191.07q31.32-75.4,37.82-97.82,3.3-10.6,4.94-13.53t4.16-2.93a6.61,6.61,0,0,1,4.75,2.09,6.43,6.43,0,0,1,2.11,4.65q0,2.93-2.91,9.66L1201,284l-4.11,10.38L1161.63,218,1150,192.68,1137.75,167l-10.48-22.78-29.85-59.77h82.43l32.13,73.1Z"/><path d="M1334.32,189.77v56.49q0,16.39,1.46,20.77,2.79,8.39,13.12,8.38,15.39,0,30.43-11.57t26.05-32a55.83,55.83,0,0,1,5.17-8.56,4.57,4.57,0,0,1,3.45-1.83,4.3,4.3,0,0,1,3.71,2.28,10.5,10.5,0,0,1,1.46,5.74q0,7.65-8.88,20.59a94.54,94.54,0,0,1-29,27q-17.31,10.4-33.74,10.39-28.24,0-49.85-26.06-12.6-15.3-19.35-37.72a135,135,0,0,1-6-39.36,141.25,141.25,0,0,1,5.3-38q5.31-19,14.59-32.89,10.74-16.23,25.45-25.15A57.54,57.54,0,0,1,1348,79.52q24.52,0,44.41,19.86,31,31,30.75,89.84h-30.89l-39.77.18Zm33.94-12v-53.1q-.27-17.08-.53-20.45a15.52,15.52,0,0,0-1.86-6.28q-3.7-7.08-15.11-7.09-11.67,0-14.58,8.18-1.86,4.92-1.86,25.64v53.1l16.18.73Z"/><path d="M1511.83,140.93l-.26,70,.53,72.52H1444l.16-10,.16-37.18.47-66.87L1444.12,95,1444,84.44h68V122q15.21-22.23,21.16-28.06,13.77-13.31,25.94-13.3A17.51,17.51,0,0,1,1571.3,85a14.32,14.32,0,0,1,4.83,11.11,13.13,13.13,0,0,1-2.91,8.75,9.12,9.12,0,0,1-7.28,3.46,11.92,11.92,0,0,1-6.21-2.18c-3.89-2.55-7.1-3.83-9.66-3.83q-9.52,0-18.39,8.93T1511.83,140.93Z"/></g></svg>
