<svg xmlns="http://www.w3.org/2000/svg" viewBox="0 0 100 100"><defs><style>.cls-1{fill:#d82a36;}.cls-1,.cls-2{stroke:#a30d0d;stroke-miterlimit:10;}.cls-2{fill:#93292d;}</style></defs><title>Mute</title><g id="Start"><ellipse class="cls-1" cx="50.25" cy="48.25" rx="46.75" ry="42.75"/><ellipse class="cls-2" cx="50.51" cy="48" rx="42.79" ry="37.56"/><path d="M39.31,50.69a.9.9,0,0,1-.28.69,1,1,0,0,1-.74.27H34.63a1.08,1.08,0,0,1-.75-.27.91.91,0,0,1-.29-.69V47.24h1.29v3.34H38V47.34l-4-4.53a1.54,1.54,0,0,1-.42-1V39a.92.92,0,0,1,.29-.7,1.08,1.08,0,0,1,.75-.27h3.66a1,1,0,0,1,.74.27.91.91,0,0,1,.28.7v3.16H38V39.12H34.88V42l4,4.53a1.5,1.5,0,0,1,.4,1Z"/><path d="M46.6,39.12H44.35V51.65H43.06V39.12H40.8V38.05h5.8Z"/><path d="M54,51.65H52.69l-.51-3H49.29l-.51,3H47.54v0L50.13,38H51.4ZM52,47.56l-1.28-7.37-1.28,7.37Z"/><path d="M61.9,51.65H60.55l-2.7-7.28.17-.24h2.31v-5H57V51.65H55.72V38.05h4.87a1,1,0,0,1,.74.27.92.92,0,0,1,.29.7v5.16c0,.65-.47,1-1.41,1H59.8l-.39,0Z"/><path d="M68.84,39.12H66.59V51.65H65.3V39.12H63V38.05h5.8Z"/><ellipse cx="50.53" cy="48.74" rx="38.8" ry="36.08"/><ellipse class="cls-1" cx="50.51" cy="48.74" rx="35.92" ry="33.85"/><path d="M38.2,58.9H35.91V42.7c0-.23.08-.9.25-2L31.68,56.5H31.2L26.72,40.69c.16,1.12.25,1.79.25,2V58.9H24.68V33.32h2.25L31.37,50a5.46,5.46,0,0,1,.07.73,5.18,5.18,0,0,1,.07-.73L36,33.32H38.2Z"/><path d="M52,58.9H49.73v-.44L47,58.8a25.19,25.19,0,0,1-2.78.2q-1.89,0-1.89-1.77V43h2.29V57l5.15-.14V43H52Z"/><path d="M61.93,58.9h-3.3c-1.31,0-2-.62-2-1.85V44.91h-2V43h2V38H59v5h3v1.92H59V57h3Z"/><path d="M74.4,57.05c0,1.23-.65,1.85-2,1.85H66.86c-1.31,0-2-.62-2-1.85V44.84c0-1.23.65-1.85,2-1.85h5.59c1.3,0,2,.62,2,1.85v5.72l-.78.77H67.15v5.76h5V54.18H74.4ZM72.15,49.6V44.81h-5V49.6Z"/></g></svg>
