<svg id="Layer_1" data-name="Layer 1" xmlns="http://www.w3.org/2000/svg" xmlns:xlink="http://www.w3.org/1999/xlink" width="99.24" height="74.48" viewBox="0 0 99.24 74.48"><defs><style>.cls-1{fill:#301c00;}.cls-2{fill:url(#linear-gradient);}.cls-3{fill:#fce001;}.cls-4{fill:url(#linear-gradient-2);}.cls-5{fill:url(#linear-gradient-3);}.cls-6{fill:url(#linear-gradient-4);}.cls-7{fill:url(#linear-gradient-5);}.cls-8{fill:url(#linear-gradient-6);}.cls-9{fill:url(#linear-gradient-7);}.cls-10{fill:url(#linear-gradient-8);}.cls-11{fill:url(#linear-gradient-9);}.cls-12{fill:url(#linear-gradient-10);}.cls-13{fill:url(#linear-gradient-11);}.cls-14{fill:url(#linear-gradient-12);}</style><linearGradient id="linear-gradient" x1="-737.75" y1="245.6" x2="-733.09" y2="245.6" gradientTransform="translate(789.64 -28) rotate(16.11)" gradientUnits="userSpaceOnUse"><stop offset="0" stop-color="#0e5e0e"/><stop offset="0.11" stop-color="#3f7a1d"/><stop offset="0.23" stop-color="#71972d"/><stop offset="0.35" stop-color="#9caf3a"/><stop offset="0.48" stop-color="#bfc445"/><stop offset="0.61" stop-color="#dad34d"/><stop offset="0.73" stop-color="#eede53"/><stop offset="0.86" stop-color="#f9e557"/><stop offset="1" stop-color="#fde758"/><stop offset="1" stop-color="#edd805"/></linearGradient><linearGradient id="linear-gradient-2" x1="-591.16" y1="-14.57" x2="-520.08" y2="-14.57" gradientTransform="translate(563.83 -203.41) rotate(-25.43)" gradientUnits="userSpaceOnUse"><stop offset="0" stop-color="#fce001"/><stop offset="0.09" stop-color="#ded009"/><stop offset="0.21" stop-color="#b9bc13"/><stop offset="0.35" stop-color="#9aac1b"/><stop offset="0.49" stop-color="#83a021"/><stop offset="0.63" stop-color="#729726"/><stop offset="0.8" stop-color="#689228"/><stop offset="1" stop-color="#659029"/></linearGradient><linearGradient id="linear-gradient-3" x1="-586.35" y1="-17.79" x2="-519.89" y2="-17.79" gradientTransform="translate(563.83 -203.41) rotate(-25.43)" gradientUnits="userSpaceOnUse"><stop offset="0" stop-color="#fce001"/><stop offset="0.07" stop-color="#e6d507"/><stop offset="0.23" stop-color="#b8bc13"/><stop offset="0.39" stop-color="#94a91d"/><stop offset="0.54" stop-color="#7a9b23"/><stop offset="0.67" stop-color="#6a9328"/><stop offset="0.78" stop-color="#659029"/></linearGradient><linearGradient id="linear-gradient-4" x1="-649.49" y1="242.44" x2="-645.55" y2="242.44" gradientTransform="matrix(0.96, 0.28, -0.3, 1.02, 790.98, -35.37)" gradientUnits="userSpaceOnUse"><stop offset="0" stop-color="#659029"/><stop offset="0.3" stop-color="#58782c"/><stop offset="0.92" stop-color="#383c32"/><stop offset="1" stop-color="#333"/></linearGradient><linearGradient id="linear-gradient-5" x1="-316.8" y1="-27.57" x2="-312.31" y2="-27.57" gradientTransform="translate(245.62 216.33) rotate(37.45)" xlink:href="#linear-gradient"/><linearGradient id="linear-gradient-6" x1="-95.66" y1="59.07" x2="-24.48" y2="59.07" gradientTransform="translate(99.09 -29.21) rotate(-4.1)" xlink:href="#linear-gradient-2"/><linearGradient id="linear-gradient-7" x1="-90.54" y1="55.8" x2="-24.29" y2="55.8" gradientTransform="translate(99.09 -29.21) rotate(-4.1)" xlink:href="#linear-gradient-3"/><linearGradient id="linear-gradient-8" x1="-232.14" y1="-15.42" x2="-228.22" y2="-15.42" gradientTransform="matrix(0.8, 0.61, -0.65, 0.85, 249.55, 209.95)" xlink:href="#linear-gradient-4"/><linearGradient id="linear-gradient-9" x1="-145.47" y1="-274.71" x2="-141.07" y2="-274.71" gradientTransform="translate(-107.82 291.85) rotate(50.15)" xlink:href="#linear-gradient"/><linearGradient id="linear-gradient-10" x1="196.03" y1="-12.59" x2="266.5" y2="-12.59" gradientTransform="translate(-196.78 20.1) rotate(8.61)" xlink:href="#linear-gradient-2"/><linearGradient id="linear-gradient-11" x1="201.31" y1="-15.94" x2="266.7" y2="-15.94" gradientTransform="translate(-196.78 20.1) rotate(8.61)" xlink:href="#linear-gradient-3"/><linearGradient id="linear-gradient-12" x1="-62.85" y1="-247.42" x2="-58.99" y2="-247.42" gradientTransform="matrix(0.64, 0.77, -0.82, 0.68, -102.59, 286.49)" xlink:href="#linear-gradient-4"/></defs><title>Artboard 1</title><polygon class="cls-1" points="98.15 29.3 97.21 28.45 96.03 29.21 96.49 27.53 95.81 26.3 97.03 26.1 97.8 24.58 98.09 26.14 99.24 26.43 98.2 27.59 98.15 29.3"/><path class="cls-2" d="M16.1,7h0a1,1,0,0,1-1.5-.4L13.08,3a1.54,1.54,0,0,1,.56-1.8l1-.7,2,4.67A1.55,1.55,0,0,1,16.1,7Z"/><path class="cls-3" d="M97.69,27.37C99,29.53,94.86,37,85.3,43c-9.32,6-24.11,10.48-38.69,6.19-14.76-3.77-24.5-15-28.95-24.57-4.62-9.75-3.94-17.9-1.88-19C18.19,4.19,21.93,9.07,28,14.35S42.39,25.5,53,28.08c10.53,2.77,20.89,1.8,29.11.23S96.33,24.75,97.69,27.37Z"/><path class="cls-4" d="M97.69,27.37C99,29.53,94.86,37,85.3,43c-9.32,6-24.11,10.48-38.69,6.19-14.76-3.77-24.5-15-28.95-24.57-4.62-9.75-3.94-17.9-1.88-19C18.19,4.19,21.93,9.07,28,14.35S42.39,25.5,53,28.08c10.53,2.77,20.89,1.8,29.11.23S96.33,24.75,97.69,27.37Z"/><path class="cls-5" d="M49,40.41c15.15,4.44,30.43.06,40-5.83a39.31,39.31,0,0,0,8.9-7.17A1.83,1.83,0,0,0,97.7,27c-1.36-2.62-7.42-.53-15.62.95S63.5,30.44,53,27.68C42.4,25.09,34,19.32,28,14S18.2,3.78,15.79,5.2a1.5,1.5,0,0,0-.48.41,36.65,36.65,0,0,0,3.36,9.88C23.39,25.16,33.61,36.49,49,40.41Z"/><polygon class="cls-6" points="93.2 36.6 92.97 32.32 95.69 30.03 97.86 27.81 98.04 29.01 97.23 31.06 95.31 34.04 93.2 36.6"/><polygon class="cls-1" points="80.08 54.75 79.54 53.65 78.14 53.96 79.24 52.55 79.09 51.17 80.31 51.4 81.62 50.24 81.28 51.79 82.23 52.45 80.81 53.18 80.08 54.75"/><path class="cls-7" d="M12.49,6.5h0a.93.93,0,0,1-1.25-.88V1.8A1.64,1.64,0,0,1,12.48.31L13.72,0V5A1.65,1.65,0,0,1,12.49,6.5Z"/><path class="cls-3" d="M80.42,52.8c.32,2.43-6.43,8-17.71,10.37-11,2.43-26.6,1.69-38.48-7.18C12,47.55,7.33,33.85,7,23.42c-.45-10.63,3.4-18,5.75-18.3,2.8-.51,4.36,5.29,7.93,12.24s9,15.2,17.81,21.14c8.71,6.1,18.75,8.67,27,10S80.19,49.91,80.42,52.8Z"/><path class="cls-8" d="M80.42,52.8c.32,2.43-6.43,8-17.71,10.37-11,2.43-26.6,1.69-38.48-7.18C12,47.55,7.33,33.85,7,23.42c-.45-10.63,3.4-18,5.75-18.3,2.8-.51,4.36,5.29,7.93,12.24s9,15.2,17.81,21.14c8.71,6.1,18.75,8.67,27,10S80.19,49.91,80.42,52.8Z"/><path class="cls-9" d="M29.86,48.64c12.36,9.21,28.32,10.24,39.58,8a42.36,42.36,0,0,0,11.13-3.7,1.57,1.57,0,0,0,0-.48c-.23-2.89-6.7-3-14.92-4.34s-18.32-3.86-27-9.95S24.31,24,20.83,17,15.7,4.23,12.9,4.75a1.6,1.6,0,0,0-.62.22,36.14,36.14,0,0,0-.77,10.33C12.08,25.89,17.12,39.86,29.86,48.64Z"/><polygon class="cls-10" points="72.59 59.9 74.07 55.84 77.5 54.62 80.4 53.27 80.09 54.45 78.53 56.09 75.56 58.22 72.59 59.9"/><polygon class="cls-1" points="64.72 69.77 64.45 68.59 63.02 68.61 64.42 67.45 64.61 66.08 65.75 66.55 67.3 65.68 66.6 67.13 67.37 67.96 65.8 68.39 64.72 69.77"/><path class="cls-11" d="M10.32,9h0a.89.89,0,0,1-1-1.1l.91-3.74A1.72,1.72,0,0,1,11.78,3l1.29-.05L11.88,7.83A1.71,1.71,0,0,1,10.32,9Z"/><path class="cls-3" d="M65.51,67.94c-.26,2.44-8.18,6.49-19.75,6.53-11.35.15-26.35-3.73-35.82-14.79C0,49-1.26,34.67.9,24.42,3,14,8.52,7.56,10.88,7.74c2.86.06,3,6,4.81,13.54S20.83,37.92,28,45.51,44.23,57.75,52,60.68,66,65.07,65.51,67.94Z"/><path class="cls-12" d="M65.51,67.94c-.26,2.44-8.18,6.49-19.75,6.53-11.35.15-26.35-3.73-35.82-14.79C0,49-1.26,34.67.9,24.42,3,14,8.52,7.56,10.88,7.74c2.86.06,3,6,4.81,13.54S20.83,37.92,28,45.51,44.23,57.75,52,60.68,66,65.07,65.51,67.94Z"/><path class="cls-13" d="M17.18,53.65C27,65.14,42.37,69.37,53.9,69.42a43,43,0,0,0,11.74-1.36,1.72,1.72,0,0,0,.13-.45c.47-2.87-5.82-4.26-13.52-7.26s-16.94-7.47-24-15.18S17.66,28.51,15.94,21,14,7.47,11.14,7.4a1.8,1.8,0,0,0-.66.1,36.69,36.69,0,0,0-3.22,9.92C5.28,27.86,6.86,42.52,17.18,53.65Z"/><polygon class="cls-14" points="56.18 73.28 58.59 69.62 62.23 69.12 65.38 68.39 64.8 69.48 62.89 70.76 59.48 72.24 56.18 73.28"/></svg>
