<svg id="Layer_1" data-name="Layer 1" xmlns="http://www.w3.org/2000/svg" xmlns:xlink="http://www.w3.org/1999/xlink" width="107.25" height="80.25" viewBox="0 0 107.25 80.25"><defs><style>.cls-1{fill:#301c00;}.cls-2{fill:#fce001;}.cls-3{fill:#fde758;}.cls-4{fill:url(#linear-gradient);}.cls-5{fill:url(#linear-gradient-2);}.cls-6{fill:url(#linear-gradient-3);}.cls-7{fill:url(#linear-gradient-4);}.cls-8{fill:url(#linear-gradient-5);}.cls-9{fill:url(#linear-gradient-6);}</style><linearGradient id="linear-gradient" x1="446.58" y1="404.48" x2="451.72" y2="404.48" gradientTransform="translate(-421.75 -417.12) rotate(2.11)" gradientUnits="userSpaceOnUse"><stop offset="0" stop-color="#0e5e0e"/><stop offset="0.11" stop-color="#3f7a1d"/><stop offset="0.23" stop-color="#71972d"/><stop offset="0.35" stop-color="#9caf3a"/><stop offset="0.48" stop-color="#bfc445"/><stop offset="0.61" stop-color="#dad34d"/><stop offset="0.73" stop-color="#eede53"/><stop offset="0.86" stop-color="#f9e557"/><stop offset="1" stop-color="#fde758"/><stop offset="1" stop-color="#fff"/></linearGradient><linearGradient id="linear-gradient-2" x1="538.2" y1="393.54" x2="542.4" y2="393.54" gradientTransform="matrix(1, 0.04, -0.04, 1.06, -422.22, -424.88)" gradientUnits="userSpaceOnUse"><stop offset="0" stop-color="#fff"/><stop offset="0" stop-color="#fde758"/><stop offset="0.1" stop-color="#f7e356"/><stop offset="0.23" stop-color="#e5d951"/><stop offset="0.38" stop-color="#c9c948"/><stop offset="0.54" stop-color="#a1b23b"/><stop offset="0.72" stop-color="#6e952c"/><stop offset="0.91" stop-color="#307219"/><stop offset="1" stop-color="#0e5e0e"/></linearGradient><linearGradient id="linear-gradient-3" x1="655.23" y1="-616.15" x2="660.36" y2="-616.15" gradientTransform="translate(-893.02 7.97) rotate(42.94)" xlink:href="#linear-gradient"/><linearGradient id="linear-gradient-4" x1="746.55" y1="-564.62" x2="750.74" y2="-564.62" gradientTransform="matrix(0.73, 0.68, -0.73, 0.78, -888.3, 1.8)" xlink:href="#linear-gradient-2"/><linearGradient id="linear-gradient-5" x1="855.14" y1="194.21" x2="860.28" y2="194.21" gradientTransform="matrix(0.93, 0.37, -0.37, 0.93, -715.79, -491.53)" xlink:href="#linear-gradient"/><linearGradient id="linear-gradient-6" x1="945.34" y1="195.97" x2="949.54" y2="195.97" gradientTransform="matrix(0.93, 0.37, -0.39, 0.99, -713.64, -499)" xlink:href="#linear-gradient-2"/></defs><title>Artboard 1</title><polygon class="cls-1" points="106.9 10.42 105.68 9.72 104.65 10.88 104.66 8.87 103.6 7.67 104.83 7.12 105.21 5.21 105.96 6.89 107.25 6.92 106.48 8.49 106.9 10.42"/><path class="cls-2" d="M105.88,8.38c1.94,2.09-.28,11.51-8.66,20.75-8.13,9.14-22.43,18.09-39,17.1-16.6-.35-30-10.37-37.39-20-7.6-9.73-9.18-19.06-7.31-20.8C15.68,3.22,21,7.72,28.87,12.06S47.14,20.79,59,20.92c11.86.34,22.49-3.46,30.71-7.38S103.71,5.79,105.88,8.38Z"/><path class="cls-2" d="M105.88,8.38c1.94,2.09-.28,11.51-8.66,20.75-8.13,9.14-22.43,18.09-39,17.1-16.6-.35-30-10.37-37.39-20-7.6-9.73-9.18-19.06-7.31-20.8C15.68,3.22,21,7.72,28.87,12.06S47.14,20.79,59,20.92c11.86.34,22.49-3.46,30.71-7.38S103.71,5.79,105.88,8.38Z"/><path class="cls-3" d="M58.35,36.28c17.2,1,32-7.93,40.48-17.06a42.88,42.88,0,0,0,7.35-10.39,2.2,2.2,0,0,0-.3-.45c-2.17-2.59-8,1.34-16.17,5.16S70.86,21.26,59,20.92c-11.86-.13-22.27-4.41-30.13-8.86S15.68,3.22,13.54,5.44a1.6,1.6,0,0,0-.39.59,44.49,44.49,0,0,0,6.32,10.21C27.15,25.86,41.1,35.9,58.35,36.28Z"/><path class="cls-4" d="M14.26,6.89h0a1,1,0,0,1-1.7-.06L10,3.23a1.86,1.86,0,0,1,.09-2.17L10.94,0l3.41,4.72A1.86,1.86,0,0,1,14.26,6.89Z"/><polygon class="cls-5" points="103.75 19.92 102.31 15.18 104.53 11.89 106.18 8.83 106.71 10.13 106.43 12.64 105.25 16.49 103.75 19.92"/><polygon class="cls-1" points="75.55 72 75.08 70.67 73.54 70.87 74.86 69.36 74.85 67.75 76.14 68.14 77.67 66.95 77.14 68.7 78.1 69.57 76.48 70.27 75.55 72"/><path class="cls-2" d="M76.1,69.78c.1,2.85-7.73,8.53-20.11,10-12.13,1.6-28.81-1-40.68-12.54C3,56.17-.61,39.82.08,27.72.69,15.38,5.59,7.29,8.15,7.19c3.07-.28,4.14,6.6,7.27,15s8.12,18.56,17,26.41S51.71,60.71,60.49,63.11,76.16,66.41,76.1,69.78Z"/><path class="cls-2" d="M76.1,69.78c.1,2.85-7.73,8.53-20.11,10-12.13,1.6-28.81-1-40.68-12.54C3,56.17-.61,39.82.08,27.72.69,15.38,5.59,7.29,8.15,7.19c3.07-.28,4.14,6.6,7.27,15s8.12,18.56,17,26.41S51.71,60.71,60.49,63.11,76.16,66.41,76.1,69.78Z"/><path class="cls-3" d="M21.9,59.82c12.35,12,29.43,14.95,41.79,13.56A42.77,42.77,0,0,0,76,70.32a1.72,1.72,0,0,0,.06-.54c.06-3.37-6.9-4.18-15.61-6.67S41.18,56.63,32.43,48.63s-14-17.9-17-26.41-4.2-15.31-7.27-15a1.73,1.73,0,0,0-.69.2A44.67,44.67,0,0,0,5.57,19.24C5.1,31.55,9.09,48.27,21.9,59.82Z"/><path class="cls-6" d="M7.75,8.76h0A1,1,0,0,1,6.5,7.61l.38-4.43A1.86,1.86,0,0,1,8.37,1.6l1.37-.22-.51,5.8A1.85,1.85,0,0,1,7.75,8.76Z"/><polygon class="cls-7" points="66.95 77.13 68.96 72.59 72.78 71.56 76.03 70.32 75.59 71.65 73.74 73.37 70.33 75.51 66.95 77.13"/><polygon class="cls-1" points="97.25 42.76 96.33 41.69 94.97 42.44 95.65 40.55 95.06 39.06 96.4 38.95 97.39 37.28 97.54 39.11 98.74 39.57 97.49 40.8 97.25 42.76"/><path class="cls-2" d="M97,40.49c1.13,2.62-4.1,10.76-15.08,16.67-10.72,5.91-27.18,9.58-42.46,3.12C23.9,54.42,14.6,40.49,10.85,29c-3.93-11.71-2.31-21,0-22,2.76-1.39,6.27,4.64,12.25,11.35S37.45,32.6,48.58,36.68C59.65,41,70.94,40.92,80,40S95.79,37.33,97,40.49Z"/><path class="cls-2" d="M97,40.49c1.13,2.62-4.1,10.76-15.08,16.67-10.72,5.91-27.18,9.58-42.46,3.12C23.9,54.42,14.6,40.49,10.85,29c-3.93-11.71-2.31-21,0-22,2.76-1.39,6.27,4.64,12.25,11.35S37.45,32.6,48.58,36.68C59.65,41,70.94,40.92,80,40S95.79,37.33,97,40.49Z"/><path class="cls-3" d="M42.85,50.94c15.88,6.69,32.85,3.21,43.85-2.58A43.13,43.13,0,0,0,97.1,41a2,2,0,0,0-.14-.53C95.79,37.33,89,39.1,80,40s-20.35,1-31.42-3.28C37.45,32.6,29.06,25.09,23.14,18.27S13.65,5.53,10.89,6.92a1.78,1.78,0,0,0-.57.43,44.63,44.63,0,0,0,2.56,11.73C16.91,30.71,26.72,44.83,42.85,50.94Z"/><path class="cls-8" d="M11.09,8.53h0a1,1,0,0,1-1.58-.62L8.26,3.64a1.84,1.84,0,0,1,.8-2l1.2-.7L11.9,6.51A1.87,1.87,0,0,1,11.09,8.53Z"/><polygon class="cls-9" points="91.11 50.66 91.33 45.71 94.52 43.35 97.1 41.02 97.16 42.42 96.06 44.69 93.66 47.93 91.11 50.66"/></svg>
