<svg xmlns="http://www.w3.org/2000/svg" viewBox="0 0 1350 320"><defs><style>.cls-1{fill:#fce001;stroke:#020202;stroke-miterlimit:10;stroke-width:2px;}</style></defs><title>YouRock</title><g id="Game_over" data-name="Game over"><path class="cls-1" d="M152.27,126.61,194.4,41.85q4.28-9.26,5.87-11.44a4.9,4.9,0,0,1,4.12-2.18,5,5,0,0,1,3.78,1.64,5.67,5.67,0,0,1,1.53,4,13.43,13.43,0,0,1-1.59,5.65,55,55,0,0,1-2.65,5.1l-4.24,7.84L93.44,260.75,89.06,269q-5.7,10.94-7.22,12.94a5,5,0,0,1-4.18,2q-4.25,0-4.24-5.08,0-2.73,3.87-8.93l30.2-56.51-3.72-6.93Q63.48,131.92,46.84,102.58T4.61,31.7h96.1Z"/><path class="cls-1" d="M264.72,76.52q21.34,0,40.43,16.22,17.64,14.94,26.91,40.82a141.18,141.18,0,0,1,8.22,48.29A132.6,132.6,0,0,1,335.44,217a120.83,120.83,0,0,1-13.19,31.34q-11.65,18.76-28.5,28.24A57.36,57.36,0,0,1,265,284.44q-25.05,0-45.07-20.41-15.65-15.67-23.73-40.27a141,141,0,0,1-6.76-43.92q0-45.18,23.86-75.07Q235.69,77.07,264.72,76.52Zm-3.85,11.66-.39,183.87c2.73.24,4.64.36,5.7.36q18.42,0,35.26-14.23,16.17-13.86,24.26-36.84a121.2,121.2,0,0,0,6.36-40.13q0-44-23.59-71.32Q289.38,87.83,267,87.82,265.11,87.82,260.87,88.18Z"/><path class="cls-1" d="M535.29,81.44l-.39,143.23.39,55.76H467.42V254.74q-16.82,15.86-30.65,22.77a63.83,63.83,0,0,1-28.94,6.93q-27.66,0-40.12-22.6a59.16,59.16,0,0,1-6.42-19q-1.79-10.67-1.78-30.34l.26-42.64.13-28.43-.66-59.95h67.88l-.8,91.48.13,34.62.14,23.33q0,21,1.85,25.14,2.25,4.74,8.49,4.74t13.19-4.56q6.83-4.55,17.7-16.21l.13-23.87.26-65.06-.79-64V81.44Z"/><path class="cls-1" d="M744.45,239.25a147.57,147.57,0,0,0,27.48,20.47A138.06,138.06,0,0,0,803.63,273a5.1,5.1,0,0,1,4.1,5.46q0,6-6.09,6-13.9,0-39-16.77-20.93-14-47.93-43.37v7.48l.14,31v17.68H634.06v-8.2l.27-59.4.39-71.07L634.46,31.7h53.25q35.77,0,54,2.73t31.14,10.2q20.93,12,33.11,39.55a131.14,131.14,0,0,1,11.26,53.57,129.46,129.46,0,0,1-12.57,56.31Q784.44,236.51,744.45,239.25ZM731.87,228l6.36.18q27.27,0,46.07-20.95,11.91-13.12,18.27-32.8a116.74,116.74,0,0,0,5.95-36.81q0-31.89-15.09-57Q781.91,61,764.57,53t-48.85-8.57l-1.19,122.09v33l.13,8.57A199.74,199.74,0,0,0,731.87,228Z"/><path class="cls-1" d="M905.3,76.52q21.35,0,40.43,16.22,17.64,14.94,26.92,40.82a141.18,141.18,0,0,1,8.22,48.29A133,133,0,0,1,976,217a121.52,121.52,0,0,1-13.19,31.34q-11.67,18.76-28.51,28.24a57.35,57.35,0,0,1-28.76,7.84q-25.07,0-45.08-20.41-15.65-15.67-23.73-40.27A141,141,0,0,1,830,179.84q0-45.18,23.86-75.07Q876.27,77.07,905.3,76.52Zm-3.84,11.66-.4,183.87q4.11.36,5.7.36,18.42,0,35.26-14.23,16.17-13.86,24.26-36.84a120.94,120.94,0,0,0,6.37-40.13q0-44-23.6-71.32Q930,87.83,907.55,87.82C906.32,87.82,904.28,87.94,901.46,88.18Z"/><path class="cls-1" d="M1064,121V242.71l-.14,11.66q0,11.31,2.06,15t8.29,3.73q15.63,0,30.75-13.21t24.66-35.44q2.91-6.75,5.7-6.74c1.33,0,2.54.82,3.65,2.46a9.14,9.14,0,0,1,1.65,5.19q0,6.56-7.69,18.49A111.35,111.35,0,0,1,1115,265.31q-20.82,19.13-44.55,19.13-32.48,0-53.69-27.7-24.12-31.16-24.13-76.35,0-46.65,25.46-77.63,21.34-26.24,52.63-26.24a64.5,64.5,0,0,1,43.61,16.22,68.56,68.56,0,0,1,13,14.85q5,7.93,5,13.39a7.43,7.43,0,0,1-1.45,4.65,4.36,4.36,0,0,1-3.58,1.91q-2.79,0-7-8.74-6.11-12.21-19.22-21.23t-24.79-9q-7.83,0-10.08,6T1064,121Z"/><path class="cls-1" d="M1269.77,119.39l15.08,34.47,14.42,33.56q21.3,48.51,29,64.1a210.17,210.17,0,0,0,17.27,28.91h-78.86l-24.47-58.86q-13.48-33-20.63-47.74v8.38l.14,32.8.26,56.86.13,8.56h-68l.64-87.83.16-50.66-.64-101.68-.16-8.56h68l-.53,119.72v9.84q36.95-45.75,51-60,18.27-18.94,31.9-19,10.2,0,10.2,10.21a9.87,9.87,0,0,1-1.85,6.1,5.59,5.59,0,0,1-4.62,2.46,9.52,9.52,0,0,1-3.7-.91,17.16,17.16,0,0,0-5.68-1.46q-5.55,0-11.76,4.44T1269.77,119.39Z"/></g></svg>
