<svg xmlns="http://www.w3.org/2000/svg" width="81.24" height="75" viewBox="0 0 81.24 75"><defs><style>.cls-1{fill:#ad1b0c;}.cls-2{fill:#c63222;}</style></defs><title>Artboard 1</title><g id="Layer_2" data-name="Layer 2"><path class="cls-1" d="M79.24,45l2-10-10-1-1-8,9-4-7-6-8,4-4-4,5-6-8-5-5,7-.31-.08L52,11.7c0-.22-3.76-1.08-3.76-1.7,0-2,3-8,3-8l-11-2-1,8-5,2-5-9L20.33,5.61l2.4,9.18L18.24,19,8.76,13.86,4.31,20.59,13.24,26l-2,6-9-2L0,40.35,9.91,42l.47,8-9.24,3.4L8.24,61l8.67-3.5,2.8,3.19-2.46,6.85,8.65,5.58,3.7-8.06,4.67,1.1c.44,2.2-1,7.84-1,7.84l8,1V67l8-1,5,8,9-3-3-9,3-4,11,4,4-7-11-4,2-7Zm-39,11a18,18,0,1,1,18-18A18,18,0,0,1,40.24,56Z"/><path class="cls-2" d="M41.24,15a24,24,0,1,0,24,24A24,24,0,0,0,41.24,15Zm0,40a16,16,0,1,1,16-16A16,16,0,0,1,41.24,55Z"/></g></svg>
