<svg id="Layer_1" data-name="Layer 1" xmlns="http://www.w3.org/2000/svg" xmlns:xlink="http://www.w3.org/1999/xlink" width="500" height="100" viewBox="0 0 500 100"><defs><style>.cls-1{fill:url(#radial-gradient);}.cls-2{fill:none;}.cls-3{fill:url(#radial-gradient-2);}.cls-4{fill:url(#radial-gradient-3);}.cls-5{fill:url(#radial-gradient-4);}.cls-6{fill:url(#linear-gradient);}.cls-7{fill:#301c00;}.cls-8{fill:url(#linear-gradient-2);}.cls-9{fill:url(#linear-gradient-3);}.cls-10{fill:url(#linear-gradient-4);}.cls-11{fill:url(#linear-gradient-5);}.cls-12{fill:url(#linear-gradient-6);}.cls-13{fill:url(#linear-gradient-7);}.cls-14{fill:url(#linear-gradient-8);}.cls-15{fill:url(#linear-gradient-9);}.cls-16{fill:url(#linear-gradient-10);}.cls-17{fill:url(#linear-gradient-11);}.cls-18{fill:url(#linear-gradient-12);}.cls-19{fill:url(#linear-gradient-13);}.cls-20{fill:url(#linear-gradient-14);}.cls-21{fill:url(#linear-gradient-15);}.cls-22{fill:url(#linear-gradient-16);}</style><radialGradient id="radial-gradient" cx="50" cy="50" r="26.6" gradientTransform="translate(150) rotate(90) scale(1 2)" gradientUnits="userSpaceOnUse"><stop offset="0" stop-color="#006837"/><stop offset="0.19" stop-color="#03603c"/><stop offset="0.49" stop-color="#0a4948"/><stop offset="0.86" stop-color="#16235c"/><stop offset="1" stop-color="#1b1464"/></radialGradient><radialGradient id="radial-gradient-2" cx="150" cy="50" r="26.6" gradientTransform="translate(250 -100) rotate(90) scale(1 2)" xlink:href="#radial-gradient"/><radialGradient id="radial-gradient-3" cx="250" cy="50" r="26.6" gradientTransform="translate(350 -200) rotate(90) scale(1 2)" xlink:href="#radial-gradient"/><radialGradient id="radial-gradient-4" cx="351" cy="50" r="26.6" gradientTransform="translate(451 -301) rotate(90) scale(1 2)" xlink:href="#radial-gradient"/><linearGradient id="linear-gradient" x1="415.95" y1="349.43" x2="484.05" y2="349.43" gradientTransform="matrix(1, 0, 0, -0.99, 0, 395.23)" gradientUnits="userSpaceOnUse"><stop offset="0" stop-color="#666"/><stop offset="0.17" stop-color="#6a6964"/><stop offset="0.34" stop-color="#75745f"/><stop offset="0.5" stop-color="#888556"/><stop offset="0.65" stop-color="#a39d4a"/><stop offset="0.81" stop-color="#c5bc3a"/><stop offset="0.96" stop-color="#efe227"/><stop offset="1" stop-color="#fcee21"/></linearGradient><linearGradient id="linear-gradient-2" x1="-63.43" y1="146.84" x2="-62.04" y2="146.84" gradientTransform="translate(-75.48 -7.46) rotate(-86.88)" gradientUnits="userSpaceOnUse"><stop offset="0" stop-color="#0e5e0e"/><stop offset="0.11" stop-color="#3f7a1d"/><stop offset="0.23" stop-color="#71972d"/><stop offset="0.35" stop-color="#9caf3a"/><stop offset="0.48" stop-color="#bfc445"/><stop offset="0.61" stop-color="#dad34d"/><stop offset="0.73" stop-color="#eede53"/><stop offset="0.86" stop-color="#f9e557"/><stop offset="1" stop-color="#fde758"/><stop offset="1" stop-color="#edd805"/></linearGradient><linearGradient id="linear-gradient-3" x1="173.86" y1="145.85" x2="196.56" y2="145.85" gradientTransform="matrix(-0.62, -0.78, 0.78, -0.62, 71.7, 285.67)" gradientUnits="userSpaceOnUse"><stop offset="0" stop-color="#fce001"/><stop offset="0.09" stop-color="#ded009"/><stop offset="0.21" stop-color="#b9bc13"/><stop offset="0.35" stop-color="#9aac1b"/><stop offset="0.49" stop-color="#83a021"/><stop offset="0.63" stop-color="#729726"/><stop offset="0.8" stop-color="#689228"/><stop offset="1" stop-color="#659029"/></linearGradient><linearGradient id="linear-gradient-4" x1="-35.41" y1="156.08" x2="-34.4" y2="156.08" gradientTransform="matrix(0.06, -1, 1.06, 0.06, -93.61, -6.32)" gradientUnits="userSpaceOnUse"><stop offset="0" stop-color="#659029"/><stop offset="0.3" stop-color="#58782c"/><stop offset="0.92" stop-color="#383c32"/><stop offset="1" stop-color="#333"/></linearGradient><linearGradient id="linear-gradient-5" x1="-63.85" y1="70.98" x2="-62.46" y2="70.98" gradientTransform="translate(227.84 109.62) rotate(98.76)" xlink:href="#linear-gradient-2"/><linearGradient id="linear-gradient-6" x1="223.85" y1="88.79" x2="246.56" y2="88.79" gradientTransform="translate(110.19 -196.57) rotate(57.22)" xlink:href="#linear-gradient-3"/><linearGradient id="linear-gradient-7" x1="-35.8" y1="84.87" x2="-34.79" y2="84.87" gradientTransform="matrix(-0.15, 0.99, -1.05, -0.16, 246, 110.26)" xlink:href="#linear-gradient-4"/><linearGradient id="linear-gradient-8" x1="-68.08" y1="-43.12" x2="-66.69" y2="-43.12" gradientTransform="translate(208.81 102.8) rotate(91.64)" xlink:href="#linear-gradient-2"/><linearGradient id="linear-gradient-9" x1="296.36" y1="0.58" x2="319.06" y2="0.58" gradientTransform="translate(54.13 -186.45) rotate(50.1)" xlink:href="#linear-gradient-3"/><linearGradient id="linear-gradient-10" x1="-39.96" y1="-22.24" x2="-38.95" y2="-22.24" gradientTransform="matrix(-0.03, 1, -1.06, -0.03, 226.91, 101.19)" xlink:href="#linear-gradient-4"/><linearGradient id="linear-gradient-11" x1="-71.69" y1="-134.06" x2="-70.3" y2="-134.06" gradientTransform="translate(208.81 102.8) rotate(91.64)" xlink:href="#linear-gradient-2"/><linearGradient id="linear-gradient-12" x1="353.96" y1="-69.87" x2="376.66" y2="-69.87" gradientTransform="translate(54.13 -186.45) rotate(50.1)" xlink:href="#linear-gradient-3"/><linearGradient id="linear-gradient-13" x1="-43.51" y1="-107.59" x2="-42.5" y2="-107.59" gradientTransform="matrix(-0.03, 1, -1.06, -0.03, 226.91, 101.19)" xlink:href="#linear-gradient-4"/><linearGradient id="linear-gradient-14" x1="-75.93" y1="-291.95" x2="-74.54" y2="-291.95" gradientTransform="translate(135.29 85.67) rotate(95.23)" xlink:href="#linear-gradient-2"/><linearGradient id="linear-gradient-15" x1="455.5" y1="-190.86" x2="478.2" y2="-190.86" gradientTransform="matrix(0.59, 0.81, -0.81, 0.59, -1, -212.69)" xlink:href="#linear-gradient-3"/><linearGradient id="linear-gradient-16" x1="-47.66" y1="-255.81" x2="-46.65" y2="-255.81" gradientTransform="matrix(-0.09, 1, -1.06, -0.1, 153.45, 85.2)" xlink:href="#linear-gradient-4"/></defs><title>Toggle_sprite</title><path class="cls-1" d="M31.85,34h36.3a16,16,0,0,1,15.9,16h0a16,16,0,0,1-15.9,16H31.85A16,16,0,0,1,16,50h0A15.9,15.9,0,0,1,31.85,34Z"/><rect class="cls-2" width="100" height="100"/><rect class="cls-2" x="100" width="100" height="100"/><rect class="cls-2" x="200" width="100" height="100"/><rect class="cls-2" x="400" width="100" height="100"/><rect class="cls-2" width="100" height="100"/><path class="cls-3" d="M131.85,34h36.3a16,16,0,0,1,15.9,16h0a16,16,0,0,1-15.9,16h-36.3A16,16,0,0,1,116,50h0A15.9,15.9,0,0,1,131.85,34Z"/><rect class="cls-2" x="100" width="100" height="100"/><rect class="cls-2" x="100" width="100" height="100"/><rect class="cls-2" x="200" width="100" height="100"/><path class="cls-4" d="M231.85,34h36.3a16,16,0,0,1,15.9,16h0a16,16,0,0,1-15.9,16h-36.3A16,16,0,0,1,216,50h0A15.9,15.9,0,0,1,231.85,34Z"/><rect class="cls-2" x="200" width="100" height="100"/><rect class="cls-2" x="200" width="100" height="100"/><path class="cls-5" d="M332.85,34h36.3a16,16,0,0,1,15.9,16h0a16,16,0,0,1-15.9,16h-36.3A16,16,0,0,1,317,50h0A15.9,15.9,0,0,1,332.85,34Z"/><path class="cls-6" d="M431.85,34h36.3a16,16,0,0,1,15.9,16h0a16,16,0,0,1-15.9,16h-36.3A16,16,0,0,1,416,50h0A15.9,15.9,0,0,1,431.85,34Z"/><polygon class="cls-7" points="69.23 37 69.01 37.33 69.39 37.63 68.75 37.59 68.37 37.87 68.19 37.52 67.58 37.38 68.11 37.2 68.11 36.84 68.62 37.08 69.23 37"/><path class="cls-8" d="M68.75,62.63h0c.19.15.19.36,0,.47l-1.13.66a.64.64,0,0,1-.69-.06l-.34-.26,1.48-.87A.69.69,0,0,1,68.75,62.63Z"/><path class="cls-9" d="M68.58,37.25c.66-.5,3.68.27,6.68,2.75S81.18,46.52,81,51.09c0,4.6-3.1,8.15-6.11,10s-6,2.23-6.58,1.68c-.72-.63.68-2,2-4.14a14.84,14.84,0,0,0,2.62-8.21,17.71,17.71,0,0,0-2.57-8.64C69.07,39.48,67.77,37.81,68.58,37.25Z"/><path class="cls-10" d="M72.28,38l-.39.08a2.78,2.78,0,0,1-2.07-.36h0l-.21-.12-.88-.46.41-.12.8.12,1.11.35.25.09Z"/><polygon class="cls-7" points="163.25 62.28 163.49 61.98 163.15 61.64 163.78 61.74 164.19 61.5 164.33 61.87 164.93 62.06 164.38 62.19 164.35 62.55 163.86 62.26 163.25 62.28"/><path class="cls-11" d="M166.25,36.82h0a.26.26,0,0,1,.05-.47l1.19-.54a.66.66,0,0,1,.68.12l.32.3-1.56.72A.66.66,0,0,1,166.25,36.82Z"/><path class="cls-12" d="M163.91,62.1c-.7.43-3.62-.63-6.37-3.39s-5.25-7.08-4.6-11.61c.44-4.57,3.88-7.8,7.06-9.38s6.21-1.63,6.72-1c.66.7-.87,2-2.4,3.92a14.79,14.79,0,0,0-3.41,7.91,17.81,17.81,0,0,0,1.7,8.86C163.65,59.83,164.77,61.62,163.91,62.1Z"/><path class="cls-13" d="M160.31,61l.4,0a2.81,2.81,0,0,1,2,.57h0a1.33,1.33,0,0,0,.19.14l.83.54-.42.08-.78-.19-1.07-.46-.24-.12Z"/><polygon class="cls-7" points="253.03 62.88 253.23 62.54 252.85 62.25 253.49 62.27 253.86 61.98 254.05 62.33 254.67 62.45 254.14 62.64 254.15 63 253.64 62.77 253.03 62.88"/><path class="cls-14" d="M252.85,37.24h0a.27.27,0,0,1,0-.47l1.12-.69a.66.66,0,0,1,.69,0l.35.26-1.46.9A.66.66,0,0,1,252.85,37.24Z"/><path class="cls-15" d="M253.67,62.61c-.64.52-3.68-.18-6.75-2.58s-6.09-6.37-6-10.94c-.12-4.6,2.89-8.23,5.86-10.19s5.95-2.38,6.53-1.85c.74.61-.62,2.05-1.89,4.19A14.89,14.89,0,0,0,249,49.51a17.74,17.74,0,0,0,2.79,8.57C253.12,60.39,254.46,62,253.67,62.61Z"/><path class="cls-16" d="M250,61.92l.39-.09a2.8,2.8,0,0,1,2.08.31h0l.21.12.89.43-.4.13-.81-.09-1.11-.33-.26-.08Z"/><polygon class="cls-7" points="344.03 61.88 344.23 61.54 343.85 61.25 344.49 61.27 344.86 60.98 345.05 61.33 345.67 61.45 345.14 61.64 345.15 62 344.64 61.77 344.03 61.88"/><path class="cls-17" d="M343.85,36.24h0a.27.27,0,0,1,0-.47l1.12-.69a.66.66,0,0,1,.69,0l.35.26-1.46.9A.66.66,0,0,1,343.85,36.24Z"/><path class="cls-18" d="M344.67,61.61c-.64.52-3.68-.18-6.75-2.58s-6.09-6.37-6-10.94c-.12-4.6,2.89-8.23,5.86-10.19s6-2.38,6.53-1.85c.74.61-.62,2.05-1.89,4.19A14.89,14.89,0,0,0,340,48.51a17.74,17.74,0,0,0,2.79,8.57C344.12,59.39,345.46,61,344.67,61.61Z"/><path class="cls-19" d="M341,60.92l.39-.09a2.8,2.8,0,0,1,2.08.31h0l.21.12.89.43-.4.13-.81-.09-1.11-.33-.26-.08Z"/><polygon class="cls-7" points="430.43 63.44 430.65 63.12 430.29 62.8 430.93 62.86 431.31 62.6 431.48 62.96 432.09 63.12 431.55 63.28 431.54 63.64 431.04 63.38 430.43 63.44"/><path class="cls-20" d="M431.85,37.84h0a.26.26,0,0,1,0-.46l1.16-.62a.67.67,0,0,1,.69.08l.33.28-1.51.81A.65.65,0,0,1,431.85,37.84Z"/><path class="cls-21" d="M431.08,63.22c-.67.47-3.66-.41-6.57-3s-5.68-6.73-5.31-11.3c.16-4.59,3.39-8,6.48-9.8s6.08-2,6.63-1.43-.75,2-2.15,4.06a14.84,14.84,0,0,0-2.92,8.11,17.85,17.85,0,0,0,2.25,8.72C430.68,61,431.91,62.69,431.08,63.22Z"/><path class="cls-22" d="M427.42,62.3l.39-.07a2.78,2.78,0,0,1,2.06.44h0a1.37,1.37,0,0,0,.2.13l.86.49-.41.11-.8-.15-1.09-.39-.25-.11Z"/></svg>
